<svg version="1.2" xmlns="http://www.w3.org/2000/svg" viewBox="0 0 24 24" width="24" height="24"><style></style><path  d="m12 0c-1.6 0-3.1 0.3-4.6 0.9-1.5 0.6-2.8 1.5-3.9 2.6-1.1 1.1-2 2.5-2.6 3.9-0.6 1.5-0.9 3-0.9 4.6 0 1.4 0.3 2.9 0.8 4.2 0.5 1.4 1.2 2.6 2.2 3.7 0.9 1.1 2 2 3.3 2.7 1.3 0.7 2.7 1.1 4.1 1.3v-2.4q0-0.3-0.1-0.5-0.1-0.3-0.2-0.5-0.1-0.2-0.3-0.3-0.2-0.2-0.5-0.2-1.3-0.5-2.3-1.3-1.1-0.8-1.9-1.9-0.8-1.1-1.1-2.4-0.4-1.3-0.4-2.6 0-1.7 0.7-3.2 0.7-1.5 1.9-2.6 1.1-1.2 2.7-1.8 1.5-0.6 3.2-0.6c1.1 0 2.2 0.2 3.2 0.7 1.1 0.4 2 1.1 2.8 1.9 0.7 0.8 1.3 1.8 1.7 2.8 0.4 1.1 0.6 2.2 0.6 3.3v0.1 0.3 0.1q0 0-0.1 0.1 0 0 0 0.1 0 0 0 0.1 0 0 0 0.1v0.1c-1 6.8-9.9 10.6-9.9 10.6 1.7 0.2 3.4 0.1 5.1-0.4 1.6-0.5 3.1-1.3 4.4-2.5 1.3-1.1 2.3-2.5 3-4 0.7-1.6 1.1-3.3 1.1-5 0-1.6-0.3-3.1-0.9-4.6-0.6-1.4-1.5-2.8-2.6-3.9-1.1-1.1-2.5-2-3.9-2.6-1.5-0.6-3-0.9-4.6-0.9z"/></svg>