<svg version="1.2" xmlns="http://www.w3.org/2000/svg" viewBox="0 0 24 24" width="24" height="24"><style></style><path  d="m4.9 5.9q-0.1 0-0.2 0.1c0 0 0 0.1 0 0.2q0 3 0 6.1c0 0 0 0.1 0 0.1q0.1 0.1 0.2 0.1 0.5 0 0.9 0 0.1 0 0.2-0.1 0-0.1 0-0.2 0-3 0-6.1c0-0.1-0.1-0.2-0.2-0.2zm12.3 1.5q-0.3 0-0.5 0c-0.4 0.1-0.8 0.3-1.1 0.6q-0.3 0.3-0.4 0.7c0 0.1 0 0.2 0.1 0.2q0.4 0.1 0.9 0.2 0 0 0.1 0 0.1-0.1 0.1-0.2 0-0.2 0.2-0.4 0.2-0.1 0.4-0.1 0.2-0.1 0.5 0 0.1 0.2 0.2 0.4 0.1 0.3 0.1 0.6-0.3-0.1-0.5-0.1-0.4 0-0.7 0.1c-0.4 0.1-0.8 0.2-1.1 0.5q-0.2 0.3-0.3 0.6-0.2 0.4-0.1 0.8 0 0.5 0.3 0.8c0.2 0.3 0.5 0.4 0.8 0.5 0.4 0 0.7 0 1-0.2 0.3-0.1 0.4-0.4 0.5-0.6q0.1 0 0.1 0 0.1 0.3 0.1 0.5c0 0.1 0.1 0.2 0.2 0.2q0.4 0 0.8 0c0.1 0 0.1-0.1 0.1-0.2q0-1.5 0-3 0-0.5-0.1-0.9-0.2-0.4-0.4-0.6-0.4-0.3-0.8-0.3-0.2-0.1-0.5-0.1zm-15 0q-0.4 0-0.9 0.1-0.3 0.2-0.6 0.4-0.4 0.4-0.5 0.8 0 0.1 0.1 0.2 0 0 0.1 0 0.4 0.1 0.8 0.2 0.1 0 0.1-0.1c0.1 0 0.1-0.1 0.1-0.1 0.1-0.2 0.2-0.4 0.3-0.5q0.3-0.1 0.6 0 0.2 0 0.4 0.3c0.1 0.2 0.1 0.4 0.1 0.7q-0.3-0.1-0.5-0.1c-0.4 0-0.9 0.1-1.3 0.3q-0.4 0.2-0.7 0.6-0.2 0.4-0.2 0.9c0 0.3 0.1 0.7 0.3 0.9 0.1 0.3 0.4 0.5 0.7 0.5q0.3 0.1 0.7 0.1 0.4-0.1 0.7-0.4 0.2-0.2 0.3-0.4 0.1 0.3 0.1 0.6c0 0 0.1 0.1 0.2 0.1q0.4 0 0.8 0c0.1 0 0.1-0.1 0.1-0.2q0-1.5 0-2.9 0-0.5-0.1-0.9-0.1-0.3-0.3-0.6-0.2-0.2-0.6-0.3-0.4-0.2-0.8-0.2zm6.7 0q-0.4 0-0.8 0.1-0.4 0.2-0.8 0.6-0.4 0.4-0.5 1-0.2 0.6-0.1 1.2 0 0.6 0.2 1c0.2 0.4 0.5 0.8 0.9 1 0.5 0.3 1 0.4 1.5 0.3q0.5-0.1 0.9-0.4c0.3-0.3 0.5-0.6 0.6-1q0-0.1 0-0.1-0.1-0.1-0.1-0.1-0.5-0.1-0.9-0.2-0.1 0-0.1 0.1-0.1 0-0.1 0.1-0.1 0.3-0.3 0.5c-0.2 0.1-0.4 0.1-0.6 0.1-0.2 0-0.4-0.2-0.5-0.4-0.1-0.2-0.2-0.5-0.2-0.8q1.4 0 2.8 0 0.1 0 0.1-0.1c0-0.1 0-0.2 0-0.2 0-0.6-0.1-1.1-0.3-1.6-0.2-0.3-0.5-0.7-0.8-0.9q-0.4-0.2-0.9-0.2zm3.3 0.1q0 0 0 0-0.4 0-0.9 0 0 0-0.1 0-0.1 0.1-0.1 0.2 0 0.1 0 0.1 0.5 1.1 1 2.2-0.5 1.1-1.1 2.2c0 0.1 0 0.2 0.1 0.2q0.1 0.1 0.2 0.1 0.4 0 0.8 0 0.1 0 0.2-0.1 0.3-0.8 0.6-1.5 0 0 0.1 0 0.3 0.7 0.6 1.4 0 0.1 0.1 0.2 0 0 0.1 0 0.4 0 0.9 0 0.1 0 0.2-0.1 0-0.1 0-0.2-0.6-1.1-1.1-2.2 0.5-1.1 1-2.2 0.1-0.1 0-0.2-0.1-0.1-0.2-0.1-0.4 0-0.9 0-0.1 0-0.1 0.1-0.3 0.7-0.6 1.4 0 0-0.1 0-0.3-0.7-0.5-1.4-0.1-0.1-0.2-0.1zm9.4 0.4c-0.1 0-0.2 0-0.2 0.1q0 0.8 0 1.5-0.7 0-1.5 0c0 0-0.1 0.1-0.1 0.2q0 0.3 0 0.6c0 0.1 0.1 0.2 0.2 0.2q0.7 0 1.4 0 0 0.7 0 1.5c0 0.1 0.1 0.1 0.1 0.1q0.4 0 0.8 0c0.1 0 0.2 0 0.2-0.1q0-0.8 0-1.5 0.7 0 1.4 0c0.1 0 0.2-0.1 0.2-0.1v-0.7c0-0.1-0.1-0.2-0.2-0.2q-0.7 0-1.4 0 0-0.7 0-1.5c0-0.1-0.1-0.1-0.2-0.1q-0.4 0-0.7 0zm-12.8 0.5q0.3 0 0.4 0.1 0.2 0.2 0.3 0.4 0.1 0.3 0.1 0.6-0.8 0-1.6 0 0.1-0.4 0.2-0.7 0.2-0.2 0.4-0.3 0.1-0.1 0.2-0.1zm-6.3 1.6q0.1 0 0.3 0c0 0.4 0 0.7-0.1 1-0.1 0.3-0.2 0.5-0.4 0.6-0.2 0.1-0.5 0.1-0.7-0.1-0.1-0.1-0.2-0.2-0.2-0.4 0-0.3 0-0.5 0.2-0.7 0.1-0.2 0.3-0.3 0.6-0.4q0.1 0 0.3 0zm14.9 0q0.2 0 0.4 0c0 0.3 0 0.6-0.1 0.9q0 0.3-0.2 0.5c-0.2 0.3-0.6 0.3-0.9 0.2-0.1-0.1-0.2-0.3-0.2-0.5 0-0.2 0-0.5 0.1-0.7q0.2-0.2 0.5-0.3 0.2-0.1 0.4-0.1zm-0.5 3.7q-0.2 0-0.4 0.1-0.7 0-1.4 0.4-0.1 0.1-0.2 0.2c0 0.1 0 0.2 0 0.3q0.1 0 0.2 0c0.2 0 0.3 0 0.5 0q0.5-0.1 1-0.1 0.2 0 0.5 0.1 0.1 0 0.1 0.1c0 0.1 0 0.3 0 0.4q-0.2 0.6-0.5 1c-0.1 0.2-0.2 0.3-0.2 0.5q-0.1 0.1 0 0.2 0 0.1 0.1 0.1 0.1 0 0.2-0.1 0.2-0.1 0.4-0.2 0.2-0.3 0.4-0.6c0.3-0.4 0.5-0.9 0.5-1.4q0.1-0.3 0-0.5-0.1-0.2-0.2-0.2-0.3-0.2-0.6-0.2-0.2 0-0.4-0.1zm-15.1 0.3q-0.1 0-0.2 0.1c0 0 0 0.1 0 0.2q0.1 0.3 0.3 0.5 0.9 1.1 2.1 1.8c1.3 0.8 2.7 1.2 4.2 1.4q0.6 0.1 1.2 0.1h0.3q1.2 0 2.3-0.3c1.1-0.2 2.1-0.6 3-1.1q0.4-0.2 0.7-0.5 0.3-0.2 0.5-0.5 0.1-0.1 0.2-0.2c0-0.2-0.1-0.3-0.2-0.3-0.2 0-0.3 0.1-0.4 0.1q-0.7 0.4-1.5 0.7-1 0.3-2.1 0.4-1.6 0.3-3.3 0.2-1.8-0.1-3.4-0.6c-1.2-0.4-2.3-1-3.2-1.7q-0.2-0.2-0.4-0.3-0.1 0-0.1 0z"/></svg>