<svg version="1.2" xmlns="http://www.w3.org/2000/svg" viewBox="0 0 24 24" width="24" height="24"><style></style><path d="M 0.70788,0 A 0.70789025,0.70789025 0 0 0 0,0.7079 v 4.93422 a 0.70789025,0.70789025 0 0 0 0.70788,0.7079 H 5.64212 A 0.70789025,0.70789025 0 0 0 6.35,5.64212 V 0.7079 A 0.70789025,0.70789025 0 0 0 5.64212,0 Z m 2.24416,1.09731 0.47443,0.002 a 0.13712307,0.13712307 0 0 1 0.12116,0.0742 l 1.58995,3.07875 c 0,0 0.0671,0.0824 -0.0159,0.169 -0.0829,0.0866 -0.18662,0.0188 -0.18662,0.0188 L 4.11202,4.00358 c 0,0 -0.40563,-0.20755 -1.13775,-0.11497 C 2.48976,3.94991 2.14973,4.19526 1.97515,4.35424 1.89565,4.42664 1.79942,4.57144 1.74947,4.66673 L 1.411,5.31239 a 0.20611312,0.20611312 0 0 1 -0.18321,0.1104 l -0.3459,-0.001 A 0.1482387,0.1482387 0 0 1 0.75061,5.20561 L 2.8309,1.1706 A 0.13553584,0.13553584 0 0 1 2.95201,1.0972 Z M 3.17833,1.88372 2.40811,3.36934 2.72345,3.29424 a 2.6776649,2.6776649 0 0 1 0.84031,-0.0638 l 0.32199,0.0265 z M 4.8005,4.76382 A 0.35645451,0.35645451 0 0 1 5.15697,5.12026 0.35645451,0.35645451 0 0 1 4.8005,5.47672 0.35645451,0.35645451 0 0 1 4.44404,5.12026 0.35645451,0.35645451 0 0 1 4.8005,4.76382 Z"/></svg>
