<svg version="1.2" xmlns="http://www.w3.org/2000/svg" viewBox="0 0 24 24" width="24" height="24"><style></style><path  d="m20.6 17.7h-1.8l-3.4-9.2h1.6l2.1 6q0.1 0.4 0.6 2l0.3-1 0.3-1 2.1-6h1.6zm-5.3 0q-0.2 0-0.4 0-0.2 0.1-0.4 0.1-0.2 0-0.4 0.1-0.2 0-0.4 0-1.8 0-1.8-2.1v-6.2h-1.1v-1.1h1.1v-1.4l1.5-0.6v2h1.7v1.1h-1.7v5.8q0 0.7 0.2 1 0.2 0.2 0.8 0.2 0.3 0 0.9-0.1zm-7.3-5.3c0 1.7 1.5 2.3 1.5 2.4 0 0-0.2 0.8-0.8 1.6-0.5 0.7-1 1.4-1.8 1.4-0.7 0.1-1-0.4-1.9-0.4-0.9 0-1.2 0.4-1.9 0.5-0.8 0-1.4-0.8-1.8-1.5-1-1.5-1.8-4.1-0.8-5.9 0.5-0.9 1.4-1.5 2.4-1.5 0.8 0 1.5 0.5 2 0.5 0.4 0 1.3-0.6 2.2-0.5 0.4 0 1.5 0.2 2.1 1.2 0 0-1.2 0.7-1.2 2.2zm-1.5-4.4c0.4-0.4 0.7-1.1 0.6-1.8-0.6 0-1.3 0.4-1.7 0.9-0.4 0.4-0.7 1.1-0.6 1.8 0.6 0 1.3-0.4 1.7-0.9z"/></svg>