<svg version="1.2" xmlns="http://www.w3.org/2000/svg" viewBox="0 0 24 24" width="24" height="24"><style></style><path  d="m5 8.5q0.2-0.2 0.3-0.4 0-0.1 0.1-0.3 0.1-0.2 0.1-0.4 0-0.2 0-0.4-0.2 0-0.4 0.1-0.2 0-0.3 0.1-0.2 0.1-0.4 0.2-0.1 0.1-0.2 0.3-0.2 0.1-0.3 0.3-0.1 0.2-0.1 0.3-0.1 0.2-0.1 0.4 0 0.2 0 0.4 0.2 0 0.4 0 0.2-0.1 0.3-0.2 0.2-0.1 0.4-0.2 0.1-0.1 0.2-0.2zm0.5 0.7c-0.8-0.1-1.4 0.4-1.8 0.4-0.3 0-0.9-0.4-1.5-0.4q-0.2 0-0.5 0.1-0.3 0.1-0.5 0.2-0.3 0.2-0.5 0.4-0.2 0.2-0.3 0.5c-0.8 1.3-0.2 3.4 0.5 4.5 0.4 0.5 0.9 1.2 1.5 1.1 0.6 0 0.8-0.3 1.5-0.3 0.6 0 0.8 0.3 1.4 0.3 0.6 0 1.1-0.5 1.4-1.1q0.1-0.1 0.2-0.3 0.1-0.1 0.2-0.3 0.1-0.2 0.1-0.3 0.1-0.2 0.2-0.4-0.3-0.1-0.5-0.3-0.3-0.2-0.4-0.4-0.2-0.2-0.3-0.5-0.1-0.3-0.1-0.6 0.1-0.3 0.1-0.5 0.1-0.3 0.2-0.5 0.1-0.2 0.3-0.4 0.2-0.2 0.4-0.3-0.1-0.2-0.3-0.4-0.2-0.1-0.4-0.3-0.2-0.1-0.4-0.1-0.3-0.1-0.5-0.1zm4.7-1.1v1.5h1.2v1h-1.2v3.6q0 0.8 0.8 0.8 0.1 0 0.1 0 0.1 0 0.1 0 0.1 0 0.1 0 0.1 0 0.1 0v1q0 0-0.1 0-0.1 0-0.2 0-0.1 0-0.2 0-0.1 0-0.2 0c-1.2 0-1.7-0.5-1.7-1.7v-3.7h-1v-1h1v-1.5zm5.4 7.9h-1.3l-2.3-6.4h1.4l1.5 5.1h0.1l1.6-5.1h1.3zm5.8 0h-1.1v-2.5h-2.5v-1.2h2.5v-2.6h1.1v2.6h2.5v1.2h-2.5z"/></svg>