<svg version="1.2" xmlns="http://www.w3.org/2000/svg" viewBox="0 0 24 24" width="24" height="24"><style></style><path  d="m12 0c-1.6 0-3.1 0.3-4.6 0.9-1.4 0.6-2.8 1.5-3.9 2.6-1.1 1.1-2 2.5-2.6 3.9-0.6 1.5-0.9 3-0.9 4.6 0 1.6 0.3 3.1 0.9 4.6 0.6 1.4 1.5 2.8 2.6 3.9 1.1 1.1 2.5 2 3.9 2.6 1.5 0.6 3 0.9 4.6 0.9 1.6 0 3.1-0.3 4.6-0.9 1.4-0.6 2.8-1.5 3.9-2.6 1.1-1.1 2-2.5 2.6-3.9 0.6-1.5 0.9-3 0.9-4.6 0-1.6-0.3-3.1-0.9-4.6-0.6-1.4-1.5-2.8-2.6-3.9-1.1-1.1-2.5-2-3.9-2.6-1.5-0.6-3-0.9-4.6-0.9zm0 0.4c1.5 0 3 0.3 4.4 0.9 1.4 0.6 2.7 1.4 3.8 2.5 1.1 1.1 1.9 2.4 2.5 3.8 0.6 1.4 0.9 2.9 0.9 4.4 0 1.5-0.3 3-0.9 4.4-0.6 1.4-1.4 2.7-2.5 3.8-1.1 1.1-2.4 1.9-3.8 2.5-1.4 0.6-2.9 0.9-4.4 0.9-1.5 0-3.1-0.3-4.5-0.9-1.4-0.6-2.6-1.4-3.7-2.5-1.1-1.1-2-2.4-2.5-3.8-0.6-1.4-0.9-2.9-0.9-4.4 0-1.5 0.3-3 0.9-4.4 0.5-1.4 1.4-2.7 2.5-3.8 1.1-1.1 2.3-1.9 3.7-2.5 1.4-0.6 3-0.9 4.5-0.9zm0 1.8q-1.4 0-2.7 0.5-1.3 0.6-2.3 1.6-1 1-1.6 2.3-0.5 1.3-0.5 2.7v1.5q-0.1 0-0.1 0.1-0.1 0-0.1 0.1-0.1 0-0.1 0.1-0.1 0-0.2 0 0 0.1 0 0.1 0 0 0 0.1-0.1 0-0.1 0 0 0.1 0 0.1v1.8q0 0.1 0 0.1 0 0.1 0.1 0.1 0 0 0 0.1 0 0 0 0c0.3 0.2 0.8 0.6 1.6 1v0.2c0 0.4 0.3 0.8 0.6 0.8 0.4 0 0.7-0.4 0.7-0.8v-4.5c0-0.4-0.3-0.8-0.7-0.8-0.3 0-0.6 0.3-0.6 0.8h-0.1v-0.9c0-1.6 0.7-3.2 1.8-4.3 1.1-1.1 2.7-1.8 4.3-1.8 1.6 0 3.1 0.7 4.2 1.8 1.2 1.1 1.8 2.7 1.8 4.3v0.9c0-0.5-0.3-0.8-0.7-0.8-0.4 0-0.7 0.4-0.7 0.8v4.5c0 0.4 0.3 0.8 0.7 0.8 0.4 0 0.7-0.4 0.7-0.8v-0.2q0.2-0.1 0.4-0.2 0.2-0.1 0.4-0.3 0.2-0.1 0.3-0.2 0.2-0.1 0.4-0.3 0 0 0.1 0 0-0.1 0-0.1 0 0 0-0.1 0 0 0-0.1v-1.8q0 0 0-0.1 0 0 0 0 0-0.1 0-0.1-0.1 0-0.1-0.1 0 0-0.1 0-0.1-0.1-0.1-0.1-0.1-0.1-0.1-0.1-0.1-0.1-0.1-0.1v-1.5q0-1.4-0.6-2.7-0.5-1.3-1.5-2.3-1-1-2.3-1.6-1.3-0.5-2.7-0.5zm-3.4 5.5q-0.1 0-0.3 0.1-0.1 0.1-0.3 0.2-0.1 0.1-0.1 0.2-0.1 0.2-0.1 0.4v9.4c0 0.4 0.4 0.8 0.8 0.8h0.9q0.2 0 0.3-0.1 0.2 0 0.3-0.1 0.1-0.2 0.2-0.3 0-0.2 0-0.3v-9.4q0-0.2 0-0.4-0.1-0.1-0.2-0.2-0.1-0.1-0.3-0.2-0.1-0.1-0.3-0.1zm2.9 0q-0.2 0-0.3 0.1-0.2 0.1-0.3 0.2-0.1 0.1-0.2 0.2 0 0.2 0 0.4v9.4c0 0.4 0.3 0.8 0.8 0.8h0.9q0.1 0 0.3-0.1 0.2 0 0.3-0.1 0.1-0.2 0.2-0.3 0-0.2 0-0.3v-9.4q0-0.2 0-0.4-0.1-0.1-0.2-0.2-0.1-0.1-0.3-0.2-0.2-0.1-0.3-0.1zm2.9 0q-0.2 0-0.3 0.1-0.2 0.1-0.3 0.2-0.1 0.1-0.2 0.2-0.1 0.2-0.1 0.4v9.4c0 0.4 0.4 0.8 0.9 0.8h0.9q0.1 0 0.3-0.1 0.1 0 0.2-0.1 0.2-0.2 0.2-0.3 0.1-0.2 0.1-0.3v-9.4q0-0.2-0.1-0.4 0-0.1-0.2-0.2-0.1-0.1-0.2-0.2-0.2-0.1-0.3-0.1zm-6.4 2.3h1.9v0.2h-1.9zm2.9 0h1.9v0.2h-1.9zm2.9 0h1.9v0.2h-1.9zm-7.6 9.1q-0.2 0-0.4 0.2-0.2 0.2-0.2 0.4 0 0.3 0.2 0.5 0.2 0.2 0.4 0.2h11.3q0.3 0 0.5-0.2 0.1-0.2 0.1-0.5 0-0.2-0.1-0.4-0.2-0.2-0.5-0.2z"/></svg>