<svg version="1.2" xmlns="http://www.w3.org/2000/svg" viewBox="0 0 24 24" width="24" height="24"><style></style><path  d="m0 0v24h24v-24zm18.3 11.9c2.2 0 3.5 1.3 3.4 3.7-0.1 1.1-0.4 1.9-0.9 2.5h1v1.3h-3.5c-2.1 0-3.3-1.4-3.3-3.7 0-2.3 1.2-3.8 3.3-3.8zm-15.8 0.1h3.5c1.5 0 2.3 0.8 2.3 1.8 0 0.8-0.2 1.3-1 1.8 0.7 0.2 1.2 0.8 1.2 1.7 0 1.4-1.1 2.1-2.4 2.1h-3.6zm9.3 0.9c1.3 0 2 0.8 2 1.5 0 0.7-0.4 1.3-1.1 1.7q0.3 0.4 0.6 0.7 0.2-0.2 0.4-0.4l0.9 1.1q0 0-0.1 0.1 0 0.1-0.1 0.1 0 0.1-0.1 0.1 0 0.1-0.1 0.1 0.5 0.9 0.6 1.6h-1.7q0-0.3-0.2-0.5c-0.6 0.4-1.1 0.5-1.6 0.5-1.2 0.1-2.2-0.6-2.1-1.9 0-0.7 0.6-1.3 1.2-1.7-0.3-0.4-0.6-0.9-0.6-1.4 0-0.9 0.7-1.6 2-1.6zm-6.9 0.8v1.2h0.3c0.5 0 0.7-0.2 0.7-0.6q0-0.6-0.7-0.6zm13.4 0.1c-0.6 0-0.8 0.6-0.8 1.9 0 1.2 0.2 1.8 0.8 1.8q0.9 0 0.8-1.8 0.1-1.9-0.8-1.9zm-6.5 0.3c-0.2 0-0.4 0.2-0.4 0.4q0 0.3 0.4 0.6c0.3-0.2 0.4-0.4 0.4-0.6 0-0.2-0.1-0.4-0.4-0.4zm-6.9 2.3v1.4h0.4c0.5 0 0.7-0.3 0.7-0.7 0-0.4-0.2-0.7-0.7-0.7zm6.5 0.5c-0.6 0.4-0.4 0.9-0.2 1 0.2 0.3 0.6 0.2 0.9-0.1q-0.3-0.5-0.7-0.9z"/></svg>