<svg version="1.2" xmlns="http://www.w3.org/2000/svg" viewBox="0 0 24 24" width="24" height="24"><style></style><path  d="m0 11.1h0.8v1.7h-0.8zm19-0.7h1.1q0.5 0 0.8 0.2 0.4 0.1 0.5 0.5 0.2 0.3 0.2 0.8 0 0.4-0.2 0.8-0.1 0.3-0.5 0.5-0.3 0.1-0.8 0.1h-1.1c0 0 0-2.9 0-2.9zm-7.7-0.1q0.3 0 0.6 0.1 0.3 0.1 0.5 0.3 0.2 0.2 0.3 0.5 0.1 0.3 0.1 0.7 0 0.3-0.1 0.6-0.1 0.3-0.3 0.5-0.2 0.2-0.5 0.3-0.3 0.1-0.6 0.1-0.3 0-0.6-0.1-0.3-0.1-0.5-0.3-0.2-0.2-0.3-0.5-0.1-0.3-0.1-0.6 0-0.4 0.1-0.7 0.1-0.3 0.3-0.5 0.2-0.2 0.5-0.3 0.3-0.1 0.6-0.1zm8.3 0.6v1.9h0.5q0.4 0 0.6-0.2 0.2-0.3 0.2-0.7 0-0.5-0.2-0.7-0.2-0.3-0.6-0.3c0 0-0.5 0-0.5 0zm-3.6-0.5h0.6q0.4 0.5 0.7 1 0.3 0.5 0.6 1v-2h0.6v2.9h-0.6q-0.3-0.5-0.7-1-0.3-0.5-0.6-1v2h-0.6c0 0 0-2.9 0-2.9zm-2.9 0h0.6v1.8q0 0.3 0.2 0.5 0.1 0.1 0.4 0.1 0.3 0 0.5-0.1 0.1-0.2 0.1-0.5v-1.8h0.7v1.7q0 0.4-0.2 0.7-0.1 0.3-0.4 0.5-0.3 0.1-0.7 0.1-0.4 0-0.7-0.1-0.2-0.2-0.4-0.5-0.1-0.3-0.1-0.7c0 0 0-1.7 0-1.7zm9.9-0.1q0.2 0 0.5 0.1 0.2 0 0.4 0.1v0.6q-0.2-0.1-0.5-0.2-0.2 0-0.4 0-0.3 0-0.4 0-0.1 0.1-0.1 0.3 0 0.1 0 0.2 0.1 0 0.2 0.1 0.1 0 0.3 0.1 0.2 0 0.4 0.1 0.2 0 0.3 0.1 0.2 0.1 0.2 0.3 0.1 0.1 0.1 0.4 0 0.3-0.1 0.5-0.2 0.2-0.5 0.3-0.2 0.1-0.6 0.1-0.3 0-0.5-0.1-0.2 0-0.4-0.1v-0.6q0.4 0.3 0.9 0.3 0.3 0 0.4-0.1 0.2-0.1 0.2-0.3 0-0.1-0.1-0.2-0.1-0.1-0.2-0.1-0.1 0-0.3-0.1-0.2 0-0.4-0.1-0.2-0.1-0.3-0.2-0.1-0.1-0.2-0.2-0.1-0.2-0.1-0.4 0-0.2 0.2-0.4 0.1-0.3 0.4-0.4 0.2-0.1 0.6-0.1zm-11.7 0.6q-0.2 0-0.4 0.1-0.2 0.1-0.3 0.3-0.1 0.2-0.1 0.6 0 0.3 0.1 0.5 0.1 0.2 0.3 0.3 0.2 0.1 0.4 0.1 0.3 0 0.4-0.1 0.2-0.1 0.3-0.3 0.1-0.2 0.1-0.5 0-0.4-0.1-0.6-0.1-0.2-0.3-0.3-0.1-0.1-0.4-0.1zm-2.7-0.6q0.3 0 0.5 0.1 0.2 0 0.4 0.1v0.6q-0.2-0.1-0.4-0.2-0.2 0-0.5 0-0.2 0-0.3 0-0.2 0.1-0.2 0.3 0 0.1 0.1 0.2 0.1 0 0.2 0.1 0.1 0 0.3 0.1 0.2 0 0.4 0.1 0.1 0 0.3 0.1 0.1 0.1 0.2 0.3 0.1 0.1 0.1 0.4 0 0.3-0.2 0.5-0.1 0.2-0.4 0.3-0.3 0.1-0.7 0.1-0.2 0-0.4-0.1-0.3 0-0.5-0.1v-0.6q0.5 0.3 0.9 0.3 0.3 0 0.5-0.1 0.1-0.1 0.1-0.3 0-0.1-0.1-0.2 0-0.1-0.1-0.1-0.2 0-0.3-0.1-0.3 0-0.4-0.1-0.2-0.1-0.4-0.2-0.1-0.1-0.1-0.2-0.1-0.2-0.1-0.4 0-0.2 0.1-0.4 0.2-0.3 0.4-0.4 0.3-0.1 0.6-0.1zm-7.3-0.5h1.4v4.1h-1.4zm1.8-0.8h2.9v5.7h-2.9z"/></svg>