<svg version="1.2" xmlns="http://www.w3.org/2000/svg" viewBox="0 0 24 24" width="24" height="24"><style></style><path  d="m1.9 12v-12h10.1 10.1v12 12h-10.1-10.1zm18.4 10.6c0.7-0.3 0.4-1.4-0.3-1.4-0.4 0-0.3-0.4 0-0.5 0.8-0.1 0.9-1.1 0.2-1.4-0.5-0.2-0.9 0.1-1 0.6 0 0.4-0.5 0.4-0.5 0 0-0.3-0.3-0.6-0.6-0.7-0.3 0-0.4 0-0.4-0.3-0.1-0.4-0.3-0.6-0.6-0.7-0.3 0-0.4-0.1-0.4-0.4q-0.1-0.4-0.6-0.5c-0.3-0.1-0.4-0.2-0.4-0.4-0.1-0.4-0.3-0.6-0.6-0.6q-0.4-0.1-0.4-0.4c0-0.3-0.3-0.6-0.7-0.7-0.2 0-0.3-0.1-0.3-0.3-0.1-0.4-0.4-0.7-0.7-0.7q-0.2 0-0.3-0.4-0.1-0.4-0.6-0.5c-0.3-0.1-0.3-0.2-0.4-0.3 0-0.1 0.1-0.2 0.2-0.3q0.8-0.1 0.8-0.7c0-0.4-0.3-0.8-0.7-0.8-0.4 0-0.4-0.5 0.1-0.5 0.8-0.1 0.8-1.3 0-1.4-0.4-0.1-0.8 0.2-0.9 0.6 0 0.5-0.4 0.4-0.5 0-0.2-0.9-1.3-0.9-1.5 0.1-0.1 0.4-0.4 0.3-0.5-0.2-0.1-0.3-0.3-0.5-0.5-0.5-0.4-0.1-0.4-0.1-0.5-0.3-0.1-0.5-0.3-0.7-0.7-0.8q-0.3 0-0.3-0.3c0-0.3-0.3-0.6-0.7-0.7q-0.3 0-0.3-0.3c0-0.3-0.3-0.6-0.6-0.6-0.3-0.1-0.4-0.2-0.4-0.4-0.1-0.7-0.9-0.9-1.3-0.4-0.4 0.4-0.1 1.2 0.5 1.2 0.4 0 0.4 0.4-0.1 0.6-0.7 0.1-0.8 1.4-0.1 1.4 0.5 0 0.7 0.4 0.2 0.5-0.9 0.2-0.9 1.3-0.1 1.5 0.5 0.1 0.5 0.4 0.1 0.5-0.9 0.2-0.9 1.3 0 1.5q0.3 0 0.3 0.3c0.1 0.4 0.4 0.6 0.7 0.7 0.2 0 0.3 0.1 0.3 0.4 0.1 0.3 0.3 0.5 0.7 0.6 0.2 0.1 0.3 0.1 0.3 0.4 0.1 0.3 0.4 0.6 0.7 0.6 0.2 0 0.3 0.1 0.3 0.3 0.1 0.4 0.3 0.7 0.7 0.7 0.2 0 0.3 0.1 0.3 0.3 0.1 0.4 0.3 0.6 0.7 0.7q0.3 0.1 0.3 0.3c0 0.4 0.3 0.6 0.7 0.7 0.2 0 0.3 0.1 0.3 0.2 0.1 0.2-0.1 0.3-0.4 0.4-0.3 0-0.5 0.3-0.6 0.5 0 0.3-0.1 0.4-0.3 0.5-1 0.1-0.8 1.5 0.1 1.4q0.6-0.1 0.7-0.6c0.1-0.5 0.4-0.5 0.5 0 0.2 0.8 1.3 0.8 1.5 0 0.1-0.4-0.2-0.8-0.6-0.8-0.5-0.2-0.5-0.5 0-0.6 0.3-0.1 0.5-0.3 0.6-0.5 0.1-0.4 0.1-0.4 0.4-0.5 0.4-0.1 0.5-0.3 0.6-0.7 0.1-0.4 0.4-0.4 0.5 0.1 0.1 0.4 0.3 0.5 0.7 0.6 0.5 0.1 0.4 0.5-0.1 0.6-0.2 0-0.5 0.2-0.5 0.5-0.1 0.3-0.2 0.4-0.5 0.5-0.4 0.1-0.5 0.3-0.5 0.7 0 0.9 1.2 0.9 1.4 0.1 0.1-0.5 0.5-0.5 0.6 0 0.1 0.6 0.8 0.8 1.2 0.3 0.3-0.3 0.2-0.7 0-1-0.2-0.1-0.3-0.1-0.5-0.2-0.5 0-0.4-0.4 0.1-0.5 0.3-0.1 0.5-0.3 0.6-0.6 0.1-0.5 0.4-0.5 0.6 0 0 0.3 0.2 0.5 0.5 0.6 0.3 0 0.4 0.1 0.4 0.4 0.1 0.3 0.3 0.5 0.7 0.6q0.3 0 0.3 0.4c0.1 0.3 0.3 0.6 0.7 0.6q0.3 0 0.3 0.3c0 0 0.1 0.1 0.1 0.2 0 0.4 0.6 0.6 1 0.4zm-9.5-4.5c-0.1-0.1-0.1-0.2 0-0.3 0.1-0.2 0.4-0.1 0.4 0.2 0 0.2-0.3 0.3-0.4 0.1zm4 0c-0.1-0.1-0.1-0.2 0-0.3 0.1-0.2 0.4-0.1 0.4 0.2 0 0.2-0.3 0.3-0.4 0.1zm-5-0.9c-0.2-0.2 0-0.6 0.3-0.5 0.2 0.1 0.1 0.5-0.1 0.5q-0.1 0-0.2 0zm2-0.1q-0.2-0.1 0-0.3c0.1-0.2 0.4-0.1 0.4 0.2 0 0.2-0.3 0.3-0.4 0.1zm2 0c-0.2-0.2 0-0.5 0.3-0.4 0.1 0.1 0.1 0.3 0.1 0.4-0.1 0.2-0.3 0.2-0.4 0zm-5-1c-0.1 0-0.1-0.1-0.1-0.1 0-0.3 0.4-0.4 0.5-0.1 0.1 0.2-0.2 0.4-0.4 0.2zm2 0c-0.1-0.1-0.1-0.2 0-0.3 0.1-0.2 0.4-0.1 0.4 0.2 0 0.2-0.3 0.3-0.4 0.1zm2 0c-0.1-0.1-0.1-0.3 0-0.3 0.3-0.2 0.5 0.1 0.4 0.3-0.1 0.1-0.3 0.1-0.4 0zm-5-0.9c-0.2-0.1 0-0.6 0.3-0.5 0.2 0.1 0.1 0.6-0.2 0.5q0 0-0.1 0zm2.1 0c-0.3-0.1-0.2-0.5 0.1-0.5 0 0 0.2 0.2 0.2 0.3 0 0-0.2 0.2-0.2 0.2q0 0-0.1 0zm1.9 0c-0.2-0.2 0-0.6 0.3-0.5 0.2 0.1 0.2 0.4 0 0.5-0.2 0.1-0.2 0.1-0.3 0zm-5-1.1c-0.1-0.1-0.1-0.2 0-0.3 0.1-0.2 0.4-0.1 0.4 0.2 0 0.2-0.3 0.3-0.4 0.1zm2 0.1c-0.2-0.2-0.1-0.5 0.2-0.5 0.2 0 0.3 0.3 0.1 0.4-0.1 0.1-0.2 0.2-0.3 0.1zm2-0.1c-0.1-0.1-0.1-0.2 0-0.3 0.1-0.2 0.4-0.1 0.4 0.2 0 0.2-0.3 0.3-0.4 0.1zm-5-0.9c-0.2-0.2 0-0.6 0.3-0.5 0.2 0.1 0.1 0.5-0.1 0.5q-0.1 0-0.2 0zm2 0c-0.2-0.2-0.1-0.5 0.2-0.5 0.2 0 0.3 0.3 0.1 0.5q-0.1 0-0.1 0-0.1 0-0.2 0zm2-0.1c-0.1-0.1-0.1-0.1-0.1-0.2 0.1-0.2 0.4-0.2 0.5 0 0.1 0.2-0.2 0.4-0.4 0.2zm-5-1c-0.1-0.1-0.1-0.3 0-0.3 0.3-0.2 0.5 0.1 0.4 0.3-0.1 0.1-0.3 0.1-0.4 0zm2 0c-0.2-0.2 0.1-0.5 0.3-0.3 0.1 0 0.1 0.2 0 0.3-0.1 0.1-0.3 0.1-0.3 0zm2 0c-0.1-0.1-0.1-0.3 0-0.3 0.2-0.1 0.3-0.1 0.4 0.1 0.1 0.2-0.2 0.4-0.4 0.2zm2 0c-0.2-0.2 0.1-0.5 0.3-0.3 0.1 0 0.1 0.2 0 0.3-0.1 0.1-0.3 0.1-0.3 0zm-4.9-0.9c-0.2-0.1-0.2-0.2-0.2-0.4q0.2-0.2 0.4 0c0.3 0.1 0.1 0.5-0.2 0.4zm1.9 0c-0.2-0.2-0.1-0.5 0.2-0.5 0.2 0 0.3 0.3 0.1 0.5q-0.1 0-0.1 0-0.1 0-0.2 0zm2.1 0c-0.2-0.1-0.2-0.2-0.2-0.4q0.2-0.2 0.4 0c0.3 0.1 0.1 0.5-0.2 0.4zm-5.1-1c-0.2-0.2-0.1-0.5 0.2-0.5 0.2 0 0.3 0.3 0.1 0.4-0.1 0.1-0.2 0.2-0.3 0.1zm2-0.1c-0.1-0.1-0.1-0.2 0-0.3 0.1-0.2 0.4-0.1 0.4 0.2 0 0.2-0.3 0.3-0.4 0.1zm-1-1q-0.2-0.2 0-0.3c0.1-0.1 0.4-0.1 0.4 0.1 0 0.1-0.1 0.3-0.2 0.3q-0.1 0-0.2-0.1zm-1-1c-0.2-0.2 0.1-0.5 0.3-0.3q0.2 0.1 0.1 0.3c-0.1 0.1-0.3 0.1-0.4 0zm0.3 13.6c1-0.3 0.6-1.7-0.3-1.4-0.8 0.1-0.8 1.2 0 1.4 0.2 0 0.2 0 0.3 0zm2.2-0.1c0.4-0.2 0.5-0.8 0.2-1.2-0.5-0.4-1.2-0.1-1.3 0.5 0 0.6 0.5 1 1.1 0.7zm13.1-3c0.4-0.3 0.4-0.8 0.1-1.1-0.6-0.6-1.5 0-1.2 0.8 0.2 0.4 0.7 0.5 1.1 0.3zm0-2c0.2-0.2 0.4-0.5 0.3-0.8-0.2-0.8-1.5-0.7-1.5 0.2 0 0.6 0.7 0.9 1.2 0.6zm-0.1-2c0.2-0.1 0.5-0.5 0.4-0.8-0.2-0.9-1.5-0.7-1.4 0.2 0 0.5 0.5 0.8 1 0.6zm0.1-2c0.2-0.2 0.4-0.6 0.3-0.9-0.3-0.7-1.5-0.6-1.5 0.2 0 0.6 0.7 1 1.2 0.7zm-6.1-2c0.5-0.3 0.5-0.9 0.1-1.2-0.3-0.3-0.8-0.2-1.1 0.2-0.3 0.7 0.4 1.4 1 1zm2 0q0.3-0.2 0.4-0.6c0-0.2 0.1-0.3 0.4-0.3 0.3-0.1 0.6-0.4 0.6-0.7 0-0.1 0.1-0.3 0.3-0.3 0.4-0.1 0.6-0.3 0.7-0.6 0.1-0.5 0.4-0.5 0.5 0 0.2 0.9 1.5 0.7 1.5-0.2q-0.1-0.6-0.7-0.7c-0.5-0.1-0.4-0.4 0.1-0.5 0.7-0.1 0.8-1.1 0.2-1.4-0.5-0.2-1 0-1.1 0.6 0 0.2 0 0.3-0.3 0.3-0.4 0.1-0.6 0.3-0.7 0.7 0 0.2-0.1 0.3-0.3 0.3q-0.6 0.1-0.7 0.7c0 0.2-0.1 0.3-0.4 0.3-0.3 0.1-0.5 0.3-0.6 0.7 0 0.2-0.1 0.3-0.3 0.3-0.4 0.1-0.7 0.4-0.7 0.8 0 0.5 0.6 0.9 1.1 0.6zm4 0c0.2-0.1 0.5-0.5 0.4-0.8-0.1-0.6-1-0.8-1.4-0.2-0.3 0.6 0.3 1.3 1 1zm-8.1-1.9c0.2-0.1 0.4-0.3 0.5-0.6 0-0.3 0.1-0.4 0.4-0.4 0.4-0.1 0.7-0.6 0.5-1-0.3-0.7-1.3-0.6-1.4 0.2 0 0.4-0.4 0.4-0.5 0-0.1-0.7-1.1-0.9-1.4-0.3-0.2 0.5 0 1 0.5 1.1 0.3 0 0.4 0.1 0.4 0.4 0.1 0.3 0.5 0.7 0.8 0.6q0.1 0 0.2 0zm-3.9-2.1q0.3-0.1 0.4-0.4c0-0.4 0.1-0.5 0.4-0.5 0.8-0.2 0.8-1.3 0-1.4-0.3-0.1-0.4-0.2-0.4-0.4-0.1-0.9-1.3-0.9-1.5 0 0 0.2-0.1 0.3-0.3 0.3-0.9 0.2-0.9 1.3-0.1 1.5 0.3 0 0.4 0.1 0.4 0.4 0.1 0.4 0.4 0.6 0.8 0.6 0 0 0.2 0 0.3-0.1zm-0.5-1.5c-0.1-0.1-0.1-0.2 0-0.3 0.1-0.2 0.4-0.1 0.4 0.2 0 0.1-0.1 0.2-0.2 0.2-0.1 0-0.2 0-0.2-0.1zm8.5 1.5c0.2-0.1 0.3-0.3 0.4-0.5 0-0.3 0.2-0.4 0.3-0.4 0.9 0 0.9-1.3 0.1-1.4-0.3-0.1-0.4-0.2-0.4-0.4-0.1-0.9-1.3-0.9-1.5 0 0 0.2-0.1 0.3-0.3 0.3-0.8 0.2-0.9 1.5 0 1.5 0.2 0 0.3 0.1 0.4 0.5 0.1 0.4 0.6 0.6 1 0.4zm-0.5-1.5c-0.2-0.1-0.1-0.4 0.2-0.4 0.2 0 0.3 0.3 0.1 0.5q-0.2 0.1-0.3-0.1zm-11.7-0.4q0.5-0.2 0.6-0.7c0-0.2 0.1-0.3 0.4-0.3 0.3-0.1 0.5-0.3 0.6-0.6 0.1-0.3 0.1-0.4 0.4-0.4 0.5-0.1 0.8-0.8 0.4-1.2-0.4-0.5-1.3-0.2-1.3 0.4 0 0.4-0.4 0.4-0.5 0q-0.1-0.6-0.8-0.7c-0.8 0-0.9 1.4-0.1 1.5 0.5 0 0.5 0.4 0 0.5-0.7 0.2-0.8 1.2-0.1 1.5 0.2 0 0.2 0 0.4 0zm16.1 0c0.3-0.1 0.6-0.6 0.5-0.9q-0.2-0.5-0.7-0.6c-0.5-0.1-0.4-0.4 0.1-0.5 0.4-0.1 0.7-0.5 0.6-0.9-0.2-0.8-1.3-0.7-1.5 0.1 0 0.4-0.4 0.5-0.5 0-0.1-0.6-0.8-0.9-1.2-0.5-0.5 0.5-0.2 1.2 0.4 1.3 0.2 0 0.3 0.1 0.4 0.4 0 0.3 0.3 0.5 0.5 0.6 0.3 0 0.4 0.1 0.4 0.4 0.1 0.4 0.5 0.7 0.8 0.6 0 0 0.1 0 0.2 0zm-7.9-0.1q0.3-0.2 0.4-0.6c0-0.2 0.1-0.3 0.4-0.3q0.5-0.1 0.6-0.7c0.1-0.2 0.1-0.3 0.4-0.3 0.5-0.1 0.8-0.8 0.4-1.2-0.4-0.5-1.2-0.3-1.3 0.4 0 0.4-0.4 0.4-0.5 0-0.1-0.9-1.3-0.9-1.5 0-0.1 0.5-0.4 0.4-0.5-0.1-0.1-0.5-0.7-0.7-1.2-0.4-0.5 0.3-0.3 1.2 0.3 1.3 0.3 0 0.4 0.1 0.4 0.4q0.1 0.5 0.6 0.6c0.3 0 0.4 0.1 0.4 0.4 0.1 0.5 0.7 0.8 1.1 0.5zm-0.5-1.5c-0.2-0.1 0-0.4 0.2-0.4 0.1 0 0.2 0.1 0.2 0.3 0 0.2-0.3 0.3-0.4 0.1zm-3.5-0.5c0.3-0.1 0.4-0.3 0.4-0.7 0-0.8-1.2-0.9-1.5-0.1-0.1 0.6 0.5 1.1 1.1 0.8zm8.1 0c0.7-0.6 0-1.7-0.8-1.3-0.5 0.3-0.5 1 0 1.3 0.2 0.1 0.6 0.1 0.8 0z"/></svg>