<svg version="1.2" xmlns="http://www.w3.org/2000/svg" viewBox="0 0 24 24" width="24" height="24"><style></style><path  d="m3.8 0q-0.8 0-1.5 0.3-0.7 0.3-1.2 0.8-0.5 0.5-0.8 1.2-0.3 0.7-0.3 1.5v16.4q0 0.8 0.3 1.5 0.3 0.7 0.8 1.2 0.5 0.5 1.2 0.8 0.7 0.3 1.5 0.3h16.4q0.8 0 1.5-0.3 0.7-0.3 1.2-0.8 0.5-0.5 0.8-1.2 0.3-0.7 0.3-1.4v-16.5q0-0.8-0.3-1.5-0.3-0.7-0.8-1.2-0.5-0.5-1.2-0.8-0.7-0.3-1.4-0.3zm1.3 2.9h13.8q0.3 0 0.6 0.2 0 0.1 0 0.2 0.1 0 0.1 0.1 0 0.1 0.1 0.1 0 0.1 0 0.2v9.2q0 0.2 0 0.5-0.1 0.3-0.1 0.5-0.1 0.3-0.2 0.5 0 0.3-0.1 0.5-0.1 0.3-0.2 0.5-0.1 0.2-0.3 0.5-0.1 0.2-0.2 0.4-0.2 0.2-0.3 0.4-0.2 0.2-0.3 0.4-0.2 0.2-0.4 0.4-0.2 0.2-0.4 0.4-0.1 0.2-0.3 0.4-0.9 0.7-1.5 1.2-0.2 0.1-0.4 0.2-0.2 0.2-0.4 0.3-0.1 0.1-0.3 0.2-0.2 0.1-0.4 0.2-0.8 0.5-1.1 0.6 0 0-0.1 0.1-0.1 0-0.1 0-0.1 0.1-0.2 0.1 0 0-0.1 0 0 0.1-0.1 0.1 0 0 0 0-0.1 0-0.1 0 0 0-0.1 0 0 0-0.1 0 0 0 0 0-0.1 0-0.1 0-0.1 0-0.1-0.1-0.1 0-0.1 0-0.1 0-0.2-0.1 0 0-0.1 0 0-0.1-0.1-0.1-0.1-0.1-0.3-0.1-0.1-0.1-0.3-0.2-0.1-0.1-0.2-0.1-0.2-0.1-0.3-0.2-0.2-0.1-0.4-0.2-0.1-0.1-0.3-0.2-0.2-0.1-0.4-0.3-0.2-0.1-0.3-0.2-0.2-0.2-0.4-0.3-0.2-0.2-0.4-0.3-0.2-0.2-0.4-0.3-0.2-0.2-0.3-0.3-0.2-0.2-0.4-0.4-0.2-0.2-0.4-0.4-0.2-0.2-0.3-0.4-0.2-0.2-0.4-0.4-0.1-0.2-0.3-0.4-0.1-0.2-0.2-0.4-0.1-0.3-0.3-0.5-0.1-0.2-0.2-0.5-0.1-0.2-0.1-0.5-0.1-0.2-0.2-0.5 0-0.2 0-0.5-0.1-0.3-0.1-0.5v-9.2q0-0.3 0.3-0.6 0 0 0.1-0.1 0 0 0.1 0 0.1-0.1 0.2-0.1 0 0 0.1 0zm6.9 2.3v13.6q1.4-0.7 2.6-1.6 2.8-2.2 2.8-4.3v-7.7z"/></svg>