<svg xmlns="http://www.w3.org/2000/svg" width="24" height="24" viewBox="0 0 24 24"><path fill="currentColor" d="M3.75 0A3.75 3.75 0 000 3.75V20.25A3.75 3.75 0 003.75 24H20.25A3.75 3.75 0 0024 20.25V3.75A3.75 3.75 0 0020.25 0ZM5.11 2.92H18.91C19.118 2.92 19.298 2.996 19.45 3.148A.737.737 0 0119.677 3.687V12.887A5.51 5.51 0 0119.276 14.929 7.618 7.618 0 0118.281 16.726 11.097 11.097 0 0116.868 18.254C16.321 18.749 15.816 19.16 15.353 19.488A19.57 19.57 0 0113.903 20.416C13.4 20.707 13.043 20.905 12.831 21.009A12.88 12.88 0 0112.321 21.249.687.687 0 0112.011 21.32.688.688 0 0111.699 21.248 13.784 13.784 0 0111.189 21.008 20.61 20.61 0 0110.118 20.416 19.133 19.133 0 018.668 19.488 16.457 16.457 0 017.153 18.254 11.11 11.11 0 015.739 16.726 7.617 7.617 0 014.745 14.929 5.502 5.502 0 014.344 12.887V3.687C4.344 3.479 4.42 3.3 4.571 3.147A.737.737 0 015.111 2.92ZM12.01 5.22V18.84C12.96 18.338 13.811 17.79 14.562 17.2 16.439 15.73 17.377 14.293 17.377 12.887V5.22Z"/></svg>