<svg version="1.2" xmlns="http://www.w3.org/2000/svg" viewBox="0 0 24 24" width="24" height="24"><style></style><path  d="m0.3 17.6c-0.1-0.3-0.5-1.5-0.1-2.4l9.8 5.7q0 0 0.1 0 0 0 0.1 0 0 0 0 0 0.1 0 0.1 0l13.7-7.9v2.3l-13.8 8c0 0-9.9-5.7-9.9-5.7zm-0.1-8.6c-0.3 0.8 0 2 0.1 2.4l9.9 5.7 13.8-8v-2.4l-13.7 7.9q0 0-0.1 0.1 0 0 0 0-0.1 0-0.1 0-0.1-0.1-0.1-0.1c0 0-9.8-5.6-9.8-5.6zm13.2-2q-0.1 0.1-0.2 0.1-0.1 0-0.1-0.1-0.1 0-0.2 0 0-0.1 0-0.2l-0.3-1.1-2.1-0.2q-0.1 0-0.2-0.1-0.1 0-0.1-0.1 0-0.2 0-0.2 0-0.1 0.1-0.2l5.6-3.2-1.7-1-13.5 7.8 9.5 5.5 13.5-7.8-4.4-2.6c0 0-5.9 3.4-5.9 3.4zm-0.2-1.7l0.2 0.9 5.2-3-2-1.1-5 2.8 1.3 0.1q0 0.1 0.1 0.1 0 0 0.1 0 0 0.1 0 0.1 0.1 0 0.1 0.1zm10.8 4.5l-13.7 7.9q0 0.1-0.1 0.1 0 0 0 0-0.1 0-0.1 0-0.1 0-0.1-0.1l-9.8-5.6c-0.4 0.9 0 2.1 0.1 2.4l9.9 5.7 13.8-8c0 0 0-2.4 0-2.4z"/></svg>