<svg xmlns="http://www.w3.org/2000/svg" width="24" height="24" viewBox="0 0 24 24"><path fill="currentColor" d="M.301 17.615C.171 17.275-.221 16.103.168 15.183L9.995 20.857A.329.329 0 0010.325 20.857L24 12.962V15.316L10.16 23.306.3 17.615ZM.191 8.963C-.097 9.84.206 11.021.315 11.389L10.16 17.073 24 9.083V6.726L10.325 14.622A.329.329 0 019.995 14.622L.19 8.963ZM13.361 7.027A.332.332 0 0112.876 6.82L12.596 5.687 10.47 5.511A.33.33 0 0110.332 4.897L15.91 1.677 14.208.694.698 8.494 10.16 13.956 23.67 6.156 19.27 3.616 13.36 7.026ZM13.179 5.298 13.411 6.236 18.609 3.235 16.569 2.057 11.576 4.941 12.886 5.049A.33.33 0 0113.179 5.299ZM24 9.845 10.325 17.74A.329.329 0 019.995 17.74L.168 12.067C-.222 12.986.171 14.158.301 14.497L10.16 20.19 24 12.2V9.844Z"/></svg>