<svg version="1.2" xmlns="http://www.w3.org/2000/svg" viewBox="0 0 24 24" width="24" height="24"><style></style><path  d="m5.4 9.7c-0.3 0-1.9 0-2.9 0h-2.5v0.9c2 0 4.4 0 5.4 0 0.2 0 0.4 0 0.5 0.1 0.2 0.2 0.2 0.4 0.1 0.5 0 0.3-0.3 0.4-0.6 0.4-0.4 0-1.5 0-2.4 0-2 0-1.1 0-3 0v0.8c2 0 4.4 0 5.4 0.1 0.3 0 0.7 0.1 0.7 0.4 0 0.4-0.4 0.5-0.7 0.5-1 0-3.4 0-5.4 0v0.9c2 0 4.6 0 5.4 0 0.5 0 1.1-0.1 1.5-0.7 0.3-0.5 0.2-1.2-0.2-1.6 0.4-0.4 0.5-1.1 0.2-1.6-0.4-0.6-1-0.7-1.5-0.7zm15.9 0c-0.5 0-1.3 0-2 0-1.8 0-0.7 0-2.4 0v0.9c1.8 0 3 0 4.3 0 0.4 0 0.8 0.1 1.2 0.3 0.4 0.3 0.6 0.7 0.6 1.1 0 0.4-0.2 0.8-0.6 1.1-0.3 0.2-0.8 0.3-1.2 0.3-1.3 0-2.5 0-4.2 0l-0.1 0.9c1.8 0 3 0 4.4 0 0.5 0 1.2-0.1 1.8-0.5 0.6-0.4 0.9-1.1 0.9-1.8 0-0.7-0.3-1.4-0.9-1.8-0.6-0.4-1.3-0.5-1.8-0.5zm-12.1 1.4c0-0.5 0-1 0-1.4h-1.1c0 0.4 0 1.3 0.1 1.8 0 0.8 0.3 1.1 1.1 1.1 0.6 0 1.1 0 1.9 0v-0.9c-0.7 0-0.9 0-1.4 0-0.5 0-0.6-0.2-0.6-0.6zm3.8 0.6c0.4 0 1 0 1.2 0 0.5 0 0.7-0.2 0.7-0.6v-1.4h1v1.3q0 0.3 0 0.5c-0.1 0.8-0.3 1.1-1.2 1.1-0.3 0-1.1 0-1.7 0h-0.2v1.7h-1.2v-2.6h1.4z"/></svg>