<svg version="1.2" xmlns="http://www.w3.org/2000/svg" viewBox="0 0 24 24" width="24" height="24"><style></style><path  d="m23.6 4.6c0.3 0.2 0.3 0.4 0.3 0.6-0.1 1.5-0.7 2.8-2.1 3.5q-0.7 0.4-1.5 0.5c-0.2 0-0.3 0.1-0.3 0.2 0 0.3 0.1 0.5 0 0.9-0.6 4.3-2.2 5.6-3.3 6.9 0.4 0.4-0.1 0 2.1 1 0.2 0.1 0.3 0.8-0.5 0.9-0.4 0.1-1 0.2-1.7 0.1-0.8 0-1.3-0.1-1.7-0.4-1.9 1.6-3.5 1.8-5 1.9-2.4 0.1-4.5-0.6-6.4-2.1-1.8-1.5-2.9-3.4-3.3-5.7-0.4-2.1-0.1-4.2 1.2-6q1.7-2.3 4.5-2.6 1.5-0.2 2.9 0.1 0.2 0 0.4-0.1c1-0.4 1.8-0.7 2.7-0.7 0.9 0 1 0.3 0.8 0.4-0.3 0.1-1.4 0.9-0.4 1.8q0.3 0.3 0.7 0.5c0.9 0.7 1.7 1.6 2.6 2.5q0.7 0.7 1.7 1.1c0.2 0.1 0.3 0.1 0.3-0.1q0.1-0.4 0.3-0.8 0-0.2-0.2-0.4-1.8-1.2-1.8-3.3c0-0.7 0.1-1.3 0.4-1.9 0.1-0.1 0.2-0.3 0.4-0.2 0.2 0 0.2 0.1 0.3 0.3 0.1 0.3 0.1 0.5 0.3 0.8 0.2 0.3 0.6 0.5 0.9 0.6 0.7 0.3 1.1 0.8 1.3 1.6 0.6-0.7 1.3-0.9 2.1-0.9 0.6 0.1 1-0.2 1.4-0.6q0.1-0.1 0.1-0.1c0.2-0.2 0.3-0.4 0.5-0.3zm-12.1 13.5c0.9 0.7 2.3 0.7 3.1 0.6q-0.4-0.3-0.9-0.7c-1-0.8-1.8-1.8-2.5-2.9-0.7-1-1.3-2-2.2-2.9-1.5-1.5-3.3-2.4-5.4-2.7q-0.8-0.1-1.5 0c-0.4 0.1-0.5 0.2-0.5 0.6q0.1 2.4 1.3 4.5c0.8 1.4 1.9 2.5 3.3 3.2 0 0.1 1.2 0.6 1.8 0.2 0.4-0.2 0.3-0.4 0.2-0.6-0.2-0.2-0.3-0.4-0.4-0.7-0.1-0.3-0.2-0.8 0.2-0.8 0.4 0 1.4 0.5 3.5 2.2zm4.1-4.8q0.4-0.2 0.3-0.5-0.2-0.5-0.5-0.8c-0.2-0.4-0.3-0.5-0.7-0.9-0.3-0.4-0.6-0.7-1-0.8-0.3-0.2-0.7-0.2-1.1 0 0 0-0.2 0.1-0.2 0.2-0.1 0.1 0 0.3 0.1 0.3q0.1 0.1 0.3 0.1c0.2 0 0.5 0 0.7 0.2 0.2 0.2 0.3 0.4 0.2 0.7 0 0.2 0 0.4 0 0.6 0.1 0.4 0.3 0.5 0.5 0.8 0.2 0.1 0.5 0.2 0.8 0.2q0.3 0 0.6-0.1zm-3.1-1.6c0 0.1 0.2 0.3 0.3 0.3 0.2 0 0.3-0.2 0.3-0.3q0-0.2-0.1-0.2 0-0.1-0.1-0.1 0 0-0.1 0c-0.1 0-0.3 0.1-0.3 0.3z"/></svg>