<svg version="1.2" xmlns="http://www.w3.org/2000/svg" viewBox="0 0 24 24" width="24" height="24"><style></style><path d="m 20.35679,9.802611 v 1.237415 h 0.98342 v 3.145641 h 1.67116 v -3.143036 h 0.98668 V 9.805216 Z m -20.35614,0 v 4.385661 h 2.06649 c 1.26411,0 2.20715,-0.683835 2.20715,-2.184364 0,-1.54156 -0.9769,-2.201949 -2.19934,-2.201949 z m 2.5849,2.18762 c 0,0.666251 -0.34713,0.884426 -0.87271,0.884426 H 1.58259 v -1.812488 h 0.13416 c 0.52558,0 0.86945,0.195382 0.86945,0.927411 M 7.05587,11.643755 V 10.741093 H 4.62663 v 3.447179 h 2.42924 v -0.892893 h -1.1788 v -0.374481 h 1.0238 V 12.018236 H 5.87707 V 11.643755 Z M 17.8533,9.802611 v 4.385661 h 3.03362 V 12.88117 H 19.51925 V 9.802611 Z m -6.26783,2.140728 -0.49302,-2.14138 H 9.64989 L 9.18488,11.943339 8.74267,9.801959 H 7.11449 l 1.21722,4.386313 h 1.51226 l 0.50864,-2.140078 0.52102,2.140078 h 1.54872 l 1.25109,-4.386313 h -1.62818 z m 3.13977,1.57738 h 1.0238 l 0.16738,0.667553 h 1.63209 l -1.4048,-4.386313 h -1.83332 l -1.44192,4.386313 h 1.70438 z m 0.52102,-2.252748 0.27744,1.277143 H 14.95514 Z M 24,9.12594 H 0 V 9.576619 H 23.99805 Z M 0,14.87406 H 23.99674 V 14.423381 H 0 Z"/></svg>
