<svg version="1.2" xmlns="http://www.w3.org/2000/svg" viewBox="0 0 24 24" width="24" height="24"><style></style><path  d="m1.2 6.4c-0.6 0-1.2-0.1-1.2-0.4 0-2.2 3.9-2.3 5.5-2.3 2.2 0 5 0.6 7.3 1.5 3.6 1.3 10.8 5.6 10.8 10.5 0 4.4-4.7 6.5-9 6.5q-0.5 0-0.9 0-0.5-0.1-0.9-0.1-0.4-0.1-0.9-0.1-0.4-0.1-0.8-0.2c-0.1 0.3-0.2 0.5-0.3 1q-0.1 0.1-0.2 0.1-0.1 0-0.2 0-0.2 0-0.3 0-0.1 0-0.2 0h-0.5c-0.4-0.4-0.5-1.1-0.6-1.9-2.2-1.3-3.6-2.3-4.3-3.1-0.5-0.6-1.2-1.3-1.2-2.1 0-0.3 0.3-0.7 0.8-1.1 1.2-0.8 2.6-1.3 4.9-1.7l0.1-0.9c0-0.3 0.3-2.9 0.8-3.3 0.9 0.7 1 1.4 1.1 2.5q0 0.7 0.1 1.5h0.3c1.7 0 6.8 0.5 6.8 2.9 0 0.6-0.8 1.6-1.6 1.6q-0.2 0-0.3 0-0.1 0-0.3 0-0.1-0.1-0.2-0.1-0.2-0.1-0.3-0.2c0.4-0.4 0.9-0.7 1.1-1-0.5-0.6-3.1-1.3-5-1.3q-0.1 0-0.2 0 0 0-0.1 0-0.1 0-0.2 0-0.1 0-0.1 0v5.3c0.8 0.5 1.7 0.5 2.3 0.5 2.6 0 8.1-0.4 8.1-4.7 0-4.2-5.4-7.5-9.4-9q-1.1-0.4-2.1-0.7-1.1-0.3-2.2-0.6-1.1-0.2-2.2-0.3-1.1-0.1-2.2-0.1-0.2 0-0.5 0-0.2 0.1-0.5 0.1-0.2 0-0.5 0.1-0.2 0-0.5 0.1c-0.4 0.1-0.5 0.1-0.5 0.2 0 0.2 0.8 0.3 0.9 0.4q0 0 0.1 0 0 0 0 0 0 0.1 0 0.1 0 0 0 0 0 0.1 0 0.1 0 0 0 0.1 0 0 0 0-0.1 0-0.1 0c-0.1 0-0.3 0.1-0.5 0.1zm7.7 8.4c-2.3 0.2-5 0.4-5 1.3 0 0.6 1.1 1.4 1.8 1.9q0.3 0.3 0.7 0.5 0.4 0.2 0.7 0.4 0.4 0.2 0.8 0.3 0.4 0.1 0.8 0.2zm12.2-10.7c0 0.5 0 1 0 1.9q-0.1 0.5 0 1.1c-0.1 0.2-0.4 0.2-0.5 0.3q-0.1 0-0.1-0.1 0 0-0.1 0 0 0-0.1-0.1 0 0 0 0v-3c0-0.3 0-0.6 0-1.1q0-0.4 0-0.9c0-0.2 0-0.4 0.1-0.8q0.1-0.1 0.1-0.1 0-0.1 0.1-0.1 0 0 0.1-0.1 0 0 0.1 0c0.2 0.1 0.5 0.2 0.6 0.4-0.3 0.9-0.3 1.8-0.3 2.6zm-0.4-0.1c0.4 0 1 0 1.9 0q0.4 0 1.1 0c0.2 0.1 0.2 0.4 0.3 0.5q-0.1 0.2-0.2 0.3h-3c-0.3 0-0.6 0-1.1 0q-0.4 0-0.9 0c-0.2 0-0.4 0-0.9-0.1q0-0.1 0-0.1-0.1 0-0.1-0.1-0.1 0-0.1-0.1 0 0 0-0.1c0.1-0.2 0.2-0.5 0.4-0.6 0.8 0.3 1.8 0.3 2.6 0.3z"/></svg>