<svg version="1.2" xmlns="http://www.w3.org/2000/svg" viewBox="0 0 24 24" width="24" height="24"><style></style><path  d="m24 23c0 0.5-0.5 1-1 1h-22q-0.2 0-0.4-0.1-0.2-0.1-0.3-0.2-0.1-0.1-0.2-0.3-0.1-0.2-0.1-0.4v-22c0-0.5 0.5-1 1-1h22c0.5 0 1 0.5 1 1zm-4.3-9.5h-2.5l-2.7-4.6q0.2 0 0.4-0.2 0.2-0.1 0.3-0.3 0.2-0.1 0.3-0.3 0-0.3 0-0.5v-3.4c0-0.7-0.5-1.3-1.3-1.3h-4.4c-0.8 0-1.3 0.6-1.3 1.3v3.4c0 0.6 0.4 1.2 1 1.3l-2.7 4.6h-2.5c-0.7 0-1.3 0.5-1.3 1.3v3.4c0 0.7 0.6 1.3 1.3 1.3h4.5c0.7 0 1.3-0.6 1.3-1.3v-3.4c0-0.8-0.6-1.3-1.3-1.3h-0.5l2.7-4.6h2l2.7 4.6h-0.4c-0.8 0-1.4 0.5-1.4 1.3v3.4c0 0.7 0.6 1.3 1.3 1.3h4.5c0.7 0 1.3-0.6 1.3-1.3v-3.4c0-0.8-0.6-1.3-1.3-1.3z"/></svg>