<svg version="1.2" xmlns="http://www.w3.org/2000/svg" viewBox="0 0 24 24" width="24" height="24"><style></style><path d="m 13.330044,7.0869033e-4 c -0.07699,-0.00199972 -0.157978,0 -0.238967,0.00899879 -0.29896,0.02899608 -0.687907,0.19697339 -0.902878,0.3509526 -0.275963,0.19697339 -0.647913,0.25296583 -0.902878,0.27596273 -0.181976,0.0169977 -0.461938,0.0159978 -0.827889,-0.0749899 C 10.091482,0.47064522 9.7465283,0.36965886 9.3285847,0.36066008 8.7966565,0.34966156 7.9737677,0.68361646 7.9737677,1.6654839 c 0,0.9818674 0.9588705,1.6367789 1.4048103,1.8567492 0.3829482,0.1879746 0.827888,0.2259695 0.827888,0.2259695 0.104986,-0.064991 0.246967,-0.1689772 0.651912,-0.325956 0.405945,-0.1569788 1.003865,-0.1249831 1.003865,-0.1249831 0.233968,-0.236968 0.597919,-0.4009458 1.003864,-0.4009458 0.404945,0 0.705905,0.1229833 0.927875,0.2009728 0.22197,0.078989 0.37095,0.1059857 0.501932,-0.024997 0.129982,-0.1299821 0.485934,-0.7219021 0.501932,-1.4797997 0.016,-0.69490624 -0.263964,-1.23483332 -0.877881,-1.47980023 C 13.771985,0.05370154 13.565013,0.00870761 13.332044,0.00370829 Z M 16.17666,1.1385551 c -0.823889,0 -1.454804,1.2168356 -1.454804,1.8317526 0,0.6149169 0.426943,0.9278746 0.426943,0.9278746 0.496933,-0.4329415 1.129847,-0.5339278 1.705769,-0.3509526 0.468937,0.1499798 0.752899,0.6859074 0.752899,1.103851 0,0.339954 -0.033,0.5149304 -0.124983,0.8028915 -0.09099,0.2879611 -0.044,0.4189434 0.09999,0.5769221 0.268964,0.2909607 0.44694,0.6419133 0.400946,0.9788678 -0.028,0.2109715 -0.122984,0.4309418 -0.250966,0.5769221 -0.183975,0.2099716 -0.237968,0.273963 -0.250966,0.3509526 -0.042,0.2429672 0.669909,0.3269558 1.153844,0.3009593 1.018862,-0.054993 1.534793,-0.51793 1.730766,-1.0538576 0.19597,-0.5359277 0.04999,-0.9308743 -0.17598,-1.1788408 C 19.928153,5.7179366 19.998144,5.5169637 20.090131,5.2030061 20.181119,4.8890485 20.181119,4.3541208 19.965148,4.0241653 19.697184,3.612221 19.228248,3.3572554 18.384362,3.1712805 17.702454,3.019301 17.610466,2.4683755 17.50648,2.1674161 17.262513,1.4665108 16.883564,1.1385551 16.17666,1.1385551 Z M 6.4669712,1.9664432 c -1.1248481,0 -1.6557764,0.9088773 -1.7557629,1.3548171 -0.1309823,0.5759222 0,0.9848669 0.1249832,1.2298339 0.07299,0.1469801 0.2259694,0.3519524 0.2259694,0.6269153 0,0.2749629 -0.1689771,0.532928 -0.3259559,0.7029051 -0.1569788,0.1709769 -0.6269154,0.6309147 -0.6269154,1.4548035 0,0.8238887 0.4319417,1.4738009 1.2038374,1.7817593 0.6999055,0.2779625 1.3548171,0.024997 1.3548171,0.024997 C 6.2490006,8.8155182 6.0450282,8.2405959 6.091022,7.6876705 6.1160186,7.387711 6.2270036,6.9317726 6.6679441,6.6588095 7.171876,6.3488514 7.3098574,6.1468786 7.3958457,5.8559179 7.4708356,5.5969529 7.4128434,5.3289891 7.3208559,5.0280297 7.2298682,4.7270704 6.9819017,4.1581472 7.3458525,3.6982094 7.7577969,3.1782796 8.4996967,3.4972365 8.4996967,3.4972365 8.3157215,2.3983849 7.2258687,1.9664432 6.4679711,1.9664432 Z M 13.109074,3.145284 c -0.06299,-0.003 -0.127983,-0.003 -0.194973,0 -0.319957,0.015998 -0.771896,0.229969 -0.927875,0.4269424 0,0 -0.507932,-0.004 -0.877882,0.099986 -0.477935,0.132982 -0.964869,0.4019457 -1.3048234,1.0038644 -0.3399541,0.6009188 -0.4769356,1.0928524 -0.4769356,1.680773 0,0.8278882 0.4399406,1.8387516 1.254831,2.4086747 0.129982,0.090988 0.152979,-0.028996 0.124983,-0.2509662 -0.025,-0.2229698 -0.175977,-1.1338468 0.250966,-2.0067289 0.490934,-1.0048638 1.354817,-1.6057826 2.282692,-1.906742 C 13.795981,4.4211117 14.542881,4.3981148 14.895833,4.4501078 14.61887,3.9131803 14.056946,3.1892781 13.109074,3.145284 Z M 8.7756594,3.686211 C 8.7166674,3.684211 8.6566755,3.6872108 8.5986833,3.698209 8.2507303,3.7642004 7.9077766,3.9881702 7.7707951,4.3501213 7.6368132,4.7070731 7.7288008,4.9270434 7.845785,5.2280027 7.9627692,5.5279622 8.0557566,5.9129102 7.5448256,6.3318536 7.0348945,6.7507971 6.5519597,7.0637548 6.5919543,7.8876435 c 0.038995,0.8238887 0.6129172,1.9277397 1.4048103,2.3586815 0.6109175,0.330955 1.0468586,0.364951 1.5057966,0.325956 0,0 0.4009459,1.156844 1.3298208,1.55579 0.646912,0.277962 1.661775,0.37095 2.558654,-0.37595 0.313958,-0.261964 0.66691,-0.989866 0.601919,-1.630779 0,0 -1.083854,0.07799 -2.182705,-0.3009595 C 10.711398,9.4414337 9.6045474,8.6325429 9.2515951,7.6376773 8.8986428,6.6438115 8.7676605,5.1130183 9.8535138,3.9751719 c 0,0 -0.4279422,-0.2379678 -0.902878,-0.2759627 -0.055993,-0.005 -0.1149845,-0.01 -0.1739766,-0.011998 z m 7.5249836,0.036995 c -0.225969,0.005 -0.484934,0.057992 -0.727902,0.1759762 -0.483934,0.2359681 -0.626915,0.8778814 -0.626915,0.8778814 0.326956,0 1.11485,0.2109715 1.304824,0.9538712 0.130982,0.5129307 -0.01,1.0658561 -0.275963,1.5307933 -0.418943,0.7239022 -1.003864,1.0788542 -1.003864,1.0788542 0,0 0.154979,0.1029861 0.978868,0.024997 0.824888,-0.077989 1.234833,-0.5169302 1.429806,-0.777895 0.196974,-0.2619646 0.339955,-0.9098771 0,-1.354817 C 17.039543,5.7879271 17.110534,5.5769556 17.254514,5.0540262 17.398495,4.530097 17.309507,4.0641599 16.853568,3.8241923 16.715587,3.7522021 16.527612,3.7192065 16.301643,3.7242058 Z m -1.881746,1.1788408 c -1.007864,0 -1.505796,0.8778814 -1.505796,0.8778814 0.313957,-0.1169842 0.905877,-0.048993 1.229834,0.1509796 0.137981,0.084989 0.312957,0.2339684 0.426942,0.4269423 0.190974,0.3219566 0.243967,0.8288881 -0.07499,1.2038374 -0.453939,0.5319282 -1.203837,0.5769221 -1.203837,0.5769221 0.185975,0.085988 0.346953,0.1499798 0.752898,0.1759763 0.404945,0.025996 1.03586,-0.1689772 1.4798,-0.9538712 0.44494,-0.784894 0.506932,-1.4877991 0.04999,-2.006729 C 15.28578,5.0270299 14.903832,4.9020468 14.419897,4.9020468 Z m -1.40481,0.049993 c -0.823889,0.3789488 -1.957736,1.4478045 -2.031726,2.8096205 -0.06499,1.2028376 0.473936,1.9417378 2.082719,2.006729 1.609783,0.065991 3.196568,-1.0638563 3.26156,-1.1038509 0.06599,-0.038995 0.05799,-0.1139846 -0.124983,-0.07499 C 16.018681,8.6285434 14.910831,8.7665245 14.244921,8.740528 13.578011,8.714531 12.84311,8.4995606 12.514155,7.9876297 12.154203,7.4277053 12.008223,6.4818331 13.016087,4.9520397 Z m -0.09999,0.9538712 c -0.235969,0.2099716 -0.380949,0.5529253 -0.400946,0.8528848 -0.024,0.3609512 0.08699,0.7199028 0.400946,0.902878 0.312957,0.1839752 0.865883,0.094987 1.10385,-0.1249831 0.267964,-0.2499662 0.288961,-0.5759222 0.275963,-0.6769086 -0.022,-0.1729766 -0.159978,-0.3249561 -0.400946,-0.2759627 -0.189974,0.039995 -0.339954,0.025997 -0.451939,0 -0.126982,-0.029996 -0.430941,-0.1379813 -0.526928,-0.6769086 z m 7.25202,2.2976896 c -0.112985,-0.004 -0.22397,9.999e-4 -0.327956,0.010999 -0.138981,0.012998 -0.270963,0.033995 -0.375949,0.049993 -0.247966,0.038995 -0.497933,0.1739765 -0.601919,0.2259695 0,0 0.357952,0.07199 0.651912,0.5269288 0.261965,0.4049453 0.279963,1.2998241 -0.150979,2.0067291 -0.626916,1.03386 -1.605783,0.927874 -1.605783,0.927874 -0.104986,1.477801 -1.388813,1.78176 -2.082719,1.78176 -1.831753,0 -1.881746,-1.448804 -1.881746,-1.605783 0,-0.157979 -0.08499,-0.177976 -0.15098,-0.124983 -0.44294,0.353952 -0.650912,0.981867 -0.676908,1.504796 -0.026,0.52293 0.08399,0.920876 0.175976,1.078855 0.285962,0.488934 0.726902,0.762897 1.680773,0.526928 0.954871,-0.234968 1.786759,-0.29296 2.583651,-0.175976 0.797892,0.116984 1.190839,-0.131982 1.329821,-0.551925 0.123983,-0.375949 0.391947,-0.685908 0.802891,-0.902878 1.137846,-0.601919 0.956871,-1.488799 0.877882,-1.881746 -0.07599,-0.382948 0.163977,-0.58992 0.325956,-0.777895 0.638913,-0.7379 0.769896,-1.6717742 0.350952,-2.2077018 C 20.856028,8.313586 20.502076,8.2165991 20.165121,8.2036008 Z m -2.560654,0.2059722 c -0.06599,-0.002 -0.124983,0 -0.175976,0.006 -0.248967,0.025996 -0.419944,0.1069856 -0.576922,0.2509661 -0.156979,0.1439806 -1.11585,1.0108635 -2.659641,1.1538442 0.09299,0.2599649 0.252966,0.6319149 0,1.2038379 -0.215971,0.486934 -0.30096,1.33082 0.300959,1.906742 0.601919,0.575922 1.578787,0.452939 1.981733,0.250966 0.470936,-0.235968 0.653911,-0.690906 0.752898,-1.203837 0.04799,-0.251966 0.198973,-0.342954 0.501932,-0.350953 0.302959,-0.007 0.911877,-0.113984 1.304824,-0.752898 0.313957,-0.509931 0.44594,-1.2418325 0.124983,-1.7557631 -0.313958,-0.503932 -1.093852,-0.695906 -1.55479,-0.7079044 z M 6.4409747,9.3684435 c -0.5879206,-0.016998 -1.6277801,0.236968 -1.7817593,1.3298205 -0.1769761,1.25883 0.8278881,1.755763 1.9817323,1.931739 1.2228348,0.186975 1.7097691,0.688907 2.0827187,1.103851 0.1939738,0.216971 0.5589245,0.715903 1.3048236,1.003864 0.7459,0.287961 1.517795,0.172977 1.856749,-0.025 0.81789,-0.476936 1.008864,-1.92874 1.028862,-2.433672 -0.713904,0.421943 -1.579787,0.555925 -2.358682,0.22597 C 9.6035476,12.101074 9.3255851,10.899237 9.3255851,10.899237 8.7346649,10.898237 8.1177482,10.775253 7.5948189,10.447298 7.208871,10.20533 6.8839149,9.742393 6.7419341,9.5194231 6.6919408,9.4404338 6.5239635,9.3704433 6.4409747,9.3684435 Z M 4.143285,12.097075 c -0.07299,0.003 -0.1349817,0.05999 -0.1229833,0.137981 0.07399,0.483935 0.4099446,1.046859 0.4099446,1.046859 -0.1049858,-0.03899 -0.1839752,0.07799 -0.1579787,0.182975 0.1249831,0.501932 0.3139576,0.758898 0.3139576,0.758898 -0.1829753,-0.03899 -0.2089718,0.14498 -0.2089718,0.209971 0,0.548926 0.3789489,0.941873 0.4709364,1.020862 0.090988,0.07799 0.051993,0.103986 -0.012998,0.129983 -0.1919741,0.07699 -0.1579787,0.196973 -0.103986,0.261964 0.1509796,0.187975 0.732901,0.614917 1.0468586,0.758898 0.8038915,0.36795 1.7797597,0.313958 2.2107015,0.274963 0.4319416,-0.03899 0.7458992,0.156979 0.7458992,0.156979 -0.064991,0.026 -1.5317931,0.981867 -1.687772,1.059856 -0.1569788,0.07799 -0.2879611,0.026 -0.3659506,-0.013 -0.2309688,-0.114984 -0.4449399,-0.352952 -0.5499257,-0.457938 -0.103986,-0.103986 -0.1959736,-0.05199 -0.1959736,0.06499 0,0.117984 -0.025996,0.627916 -0.012998,0.758898 0.012998,0.129982 -0.07799,0.183975 -0.1299824,0.209971 -1.5597894,0.779895 -2.4076749,0.483935 -2.643643,0.457939 -0.2359681,-0.026 -0.4189434,-0.026 -0.4709364,0.117984 -0.051993,0.14398 0.084989,0.265964 0.6299149,0.486934 0.6449129,0.261965 1.0728551,0.583921 1.4498042,0.820889 0.2919606,0.183975 0.4449399,0.026 0.5489259,-0.07799 0.8508851,-0.850886 1.7377653,-1.383814 1.9937307,-1.529794 0.046994,-0.027 0.1199838,-0.026 0.1419808,-0.017 0.1979733,0.08499 0.2719633,0.276963 0.2719633,0.276963 0.084988,0.273963 -0.07199,0.434941 -0.2359681,0.772896 -0.2289691,0.473936 -0.2709634,0.849885 -0.2189705,1.020862 0.051993,0.169977 0.1869748,0.119984 0.2389678,0.08099 0.048993,-0.037 0.083989,-0.013 0.083989,0.05199 0.01,0.758897 0.4199433,1.238833 0.5239293,1.33082 0.1039859,0.09199 0.1169842,0.09199 0.1839751,0.026 0.064991,-0.06499 0.1299825,-0.195974 0.1299825,-0.195974 0.038995,0.09099 0.2089717,0.483935 0.4449399,0.745899 0.2359681,0.261965 0.3339549,0.578922 0.391947,0.824889 0.042994,0.176976 0.078989,0.195973 0.1709769,0.03799 0.090988,-0.156979 0.4909337,-0.958871 0.4909337,-0.958871 0.1829752,0.130983 0.2159712,0.160979 0.3069592,0.06899 0.542926,-0.542927 0.581921,-1.63178 0.581921,-1.749764 0,-0.116984 0,-0.130982 0.07799,-0.09099 0.07899,0.03899 0.137981,0 0.14498,-0.09099 0.013,-0.170977 0.103986,-0.693906 -0.209972,-1.360816 -0.394946,-0.841887 -1.0468586,-0.941873 -1.909742,-0.981868 -1.0068641,-0.04599 -0.9878666,-0.224969 -0.9878666,-0.224969 0.7458992,-0.471937 2.3146876,-1.374815 2.4586686,-1.439806 0.14498,-0.06499 0.186974,-0.120984 0.432941,-0.026 0.176976,0.06899 0.411944,0.225969 0.457938,0.428942 0.04899,0.21997 0.04999,0.564923 -0.185975,1.009863 -0.226969,0.428942 -0.138981,0.915877 -0.08799,1.10985 0.014,0.05399 0.05999,0.09399 0.07699,0.09799 0.116984,0.029 0.202972,0.03899 0.202972,0.03899 -0.06499,0.679908 0.484935,1.379814 0.562924,1.457803 0.07799,0.07899 0.157979,0.05899 0.248967,0.02 0.09099,-0.03899 0.129982,-0.05899 0.129982,-0.05899 0.130983,0.22297 0.484935,0.484935 0.614917,0.536928 0.129983,0.05199 0.143981,0.03299 0.22297,-0.02 0.07799,-0.05199 0.156979,-0.116984 0.156979,-0.116984 0.627915,0.862884 1.651777,1.116849 1.909742,1.163843 0.14498,0.026 0.183975,-0.07799 0.09199,-0.195973 -0.09199,-0.117985 -0.254966,-0.306959 -0.320957,-0.643913 -0.118984,-0.615917 0,-0.836887 0.104986,-0.863884 0.103986,-0.026 0.116984,-0.07799 0.103986,-0.234968 -0.04499,-0.535928 -0.22297,-0.968869 -0.287961,-1.099852 -0.06499,-0.129982 0,-0.14298 0.103986,-0.129982 0.153979,0.019 0.156978,0.007 0.130982,-0.142981 -0.08499,-0.511931 -0.575922,-0.981867 -0.746899,-1.124848 -0.169977,-0.14498 -0.116985,-0.159978 0.05299,-0.183975 0.163977,-0.023 0.169977,-0.05199 0.107985,-0.230969 -0.07599,-0.223969 -0.402946,-0.733901 -1.10985,-1.047858 -0.755898,-0.335955 -1.992731,-0.178976 -1.992731,-0.178976 0.279962,-0.174976 0.95987,-0.449939 1.445805,-0.569923 0.641913,-0.160978 1.319821,-0.011 1.779759,0.330955 0.535928,0.396947 0.797893,1.651777 0.977868,2.14571 0.236968,0.651912 0.615917,0.664911 0.615917,0.664911 0.117984,-0.03899 0.168977,-0.211972 0.168977,-0.211972 0.52293,0.557925 1.4808,0.878882 1.831753,0.940873 0.127983,0.023 0.211971,0.03 0.211971,-0.08799 0,-0.104986 0.015,-0.119984 0.015,-0.119984 0.191974,0.017 0.470937,0.034 0.976868,0.29596 0.505932,0.261965 0.715904,0.627916 0.784894,0.837887 0.06999,0.208972 0.209972,0.120984 0.22697,-0.018 0.14198,-1.127848 -0.178976,-2.031726 -0.178976,-2.031726 0,0 0.178976,0.024 0.283961,0.024 0.103986,0 0.120984,-0.06699 0.103986,-0.172977 -0.124983,-0.752898 -0.575922,-1.464802 -0.575922,-1.464802 0.14698,0.005 0.22197,0.02 0.250966,-0.022 0.03599,-0.05399 -0.06099,-0.230969 -0.09999,-0.279962 -1.310823,-1.637779 -2.906608,-1.668775 -3.534523,-1.668775 -0.627915,0 -1.202837,0.103986 -1.970734,0.278962 -0.767896,0.174977 -1.131847,0.04599 -1.447804,-0.139981 -0.396947,-0.233968 -0.550926,-0.816889 -0.550926,-0.816889 -0.88988,1.03386 -1.958735,0.724902 -1.958735,0.724902 -0.540927,0.766896 -1.5547905,1.487799 -1.5547905,1.487799 -0.1299824,-0.252966 -0.1219835,-0.696906 -0.086988,-0.941873 0.034995,-0.243967 0,-0.684907 -0.103986,-1.063856 C 8.822653,14.175794 8.2467308,13.61387 7.9167754,13.3909 7.393846,13.037948 6.490968,12.820977 5.9220448,12.772984 5.4511084,12.733989 5.1911435,12.667998 4.9081817,12.567011 4.5372318,12.436029 4.3692545,12.254054 4.2652686,12.149068 c -0.032996,-0.033 -0.07099,-0.04799 -0.1069856,-0.04999 -0.01,0 -0.01,0 -0.014998,0 z m 0.2899609,0.482935 c 0,0 0.6049183,1.117849 1.6557763,1.881746 1.0278612,0.746899 0.281962,0.237967 1.680773,1.203837 0.873882,0.604918 1.103851,0.852885 1.103851,0.852885 L 8.0207613,15.991549 c 0,0 -0.8818808,-0.52193 -1.7817593,-1.178841 C 5.032165,13.930827 4.432246,12.58001 4.432246,12.58001 Z m 10.5875701,3.236563 c 1.269828,0.209971 2.138711,0.706904 2.935604,1.4798 0.888879,0.862883 1.298824,1.62578 1.730766,2.358681 0,0 -1.161843,-1.490799 -2.182705,-2.458668 -1.03686,-0.983867 -2.012729,-1.221835 -2.483665,-1.379813 z m -3.612512,1.128847 c 0,0 0.827888,0.451939 1.279827,2.282692 0.377949,1.535792 1.530793,2.684637 1.530793,2.684637 0,0 -0.457938,-0.264964 -1.028861,-1.003864 -0.571922,-0.737901 -0.80889,-2.174707 -0.978868,-2.659641 C 11.936233,17.46435 11.408304,16.94442 11.408304,16.94442 Z m -3.4115394,1.856749 c 0,0 0.9458722,0.14698 1.354817,1.906743 0.3139576,1.351817 0.07499,2.333685 0.07499,2.333685 0,0 0.011998,-1.233834 -0.1249831,-1.806756 C 8.8516491,19.370093 7.9967646,18.802169 7.9967646,18.802169 Z"/></svg>
