<svg version="1.2" xmlns="http://www.w3.org/2000/svg" viewBox="0 0 24 24" width="24" height="24"><style></style><path d="M 13.098801,9.9991669e-4 C 13.034807,0 12.967812,0.00199983 12.900818,0.00799933 12.653839,0.03199733 12.331865,0.17098575 12.15388,0.29897509 11.925899,0.46196151 11.617925,0.50795768 11.406942,0.5269561 11.256955,0.54095493 11.024974,0.53995501 10.722,0.46496126 10.419025,0.3889676 10.134048,0.3059745 9.7880773,0.29897509 9.3481139,0.28997584 8.6671706,0.56595285 8.6671706,1.3778852 c 0,0.8119323 0.792934,1.3538872 1.1619033,1.535872 0.3169731,0.1549871 0.6849431,0.1869844 0.6849431,0.1869844 0.08699,-0.053996 0.203983,-0.1399883 0.539955,-0.2699775 0.335972,-0.1299892 0.829931,-0.1039913 0.829931,-0.1039913 0.192984,-0.1959837 0.494958,-0.3319724 0.829931,-0.3319724 0.334972,0 0.583951,0.1009916 0.767936,0.1659862 0.182984,0.065994 0.306974,0.087993 0.414965,-0.020998 C 14.004726,2.4317976 14.298701,1.9428383 14.3117,1.3148906 14.3247,0.74093847 14.093719,0.2939757 13.585761,0.0899927 13.463771,0.04099658 13.291785,0.00399967 13.098801,0 Z M 15.452605,0.94292144 c -0.681943,0 -1.203899,1.00591616 -1.203899,1.51487376 0,0.5089576 0.35297,0.767936 0.35297,0.767936 0.410966,-0.3579702 0.934922,-0.4419632 1.410883,-0.2909758 0.387967,0.1239897 0.622948,0.5669528 0.622948,0.912924 0,0.2809765 -0.027,0.4259645 -0.103992,0.6639446 -0.07499,0.2379803 -0.036,0.3469712 0.08299,0.4769604 0.221982,0.2409799 0.36897,0.5309557 0.331973,0.8089326 -0.023,0.1739855 -0.101992,0.3559703 -0.207983,0.4769602 -0.151987,0.1739855 -0.196983,0.2269811 -0.207983,0.2909758 -0.035,0.2009832 0.554954,0.2709774 0.954921,0.2489792 0.84293,-0.045996 1.268894,-0.4279643 1.431881,-0.8719273 0.161989,-0.4429631 0.042,-0.7699358 -0.144985,-0.9749188 C 18.555347,4.729606 18.613342,4.5636198 18.689336,4.3036414 18.764329,4.043663 18.764329,3.6016999 18.585344,3.3287226 18.363363,2.9887509 17.976395,2.7767686 17.277453,2.6227814 16.7125,2.4977919 16.637507,2.0418298 16.551514,1.7928506 16.349531,1.2138988 16.035557,0.94192153 15.451605,0.94192153 Z M 7.4212745,1.6268644 c -0.9309225,0 -1.3698859,0.7519374 -1.452879,1.1209066 -0.1089909,0.4769603 0,0.8139322 0.1039914,1.0169153 0.060995,0.1209899 0.1869844,0.2909757 0.1869844,0.5189567 0,0.2269811 -0.1389884,0.4409634 -0.2699775,0.5809517 C 5.8594046,5.005583 5.470437,5.3865512 5.470437,6.0684944 c 0,0.6819432 0.3569703,1.2198983 0.995917,1.4738772 0.5789518,0.2299808 1.1209066,0.020998 1.1209066,0.020998 C 7.2412895,7.2923924 7.0713036,6.817432 7.1103004,6.3594701 7.1312986,6.1114908 7.222291,5.7345222 7.5872606,5.5085411 8.0042259,5.2515625 8.1182164,5.0855763 8.1892105,4.8445964 8.2512053,4.6306142 8.2032093,4.4086326 8.1272156,4.1596534 8.0522219,3.9106741 7.846239,3.4397134 8.1482139,3.059745 8.4881856,2.6297809 9.1031343,2.8937589 9.1031343,2.8937589 8.951147,1.9848346 8.0492221,1.6278643 7.4222744,1.6278643 Z m 5.4945425,0.9749188 c -0.052,-0.002 -0.105991,-0.002 -0.160987,0 -0.264978,0.012999 -0.637947,0.1899842 -0.767936,0.3529706 0,0 -0.419965,-0.003 -0.725939,0.082993 -0.394967,0.1099908 -0.797934,0.3319723 -1.078911,0.8299308 -0.2809761,0.4969586 -0.3939667,0.9039248 -0.3939667,1.3908842 0,0.6849429 0.3639697,1.5208732 1.0379137,1.991834 0.107991,0.075994 0.125989,-0.023998 0.103991,-0.2079827 -0.021,-0.1839846 -0.144988,-0.9379218 0.207983,-1.6598616 0.405966,-0.8309308 1.120906,-1.3278895 1.888842,-1.5768687 0.459962,-0.1489876 1.077911,-0.167986 1.369886,-0.1249896 -0.228981,-0.443963 -0.693942,-1.0429131 -1.477877,-1.07991 z M 9.3311153,3.0487459 c -0.048996,-9.999e-4 -0.097992,10e-4 -0.1459878,0.01 -0.287976,0.053996 -0.5719524,0.23998 -0.6849429,0.539955 -0.1109908,0.2959745 -0.034997,0.4769595 0.061995,0.7259387 0.096992,0.2479794 0.1729856,0.565953 -0.2489793,0.912924 -0.4219648,0.3459712 -0.8209316,0.6049496 -0.7889342,1.2868928 0.031997,0.6819432 0.5069577,1.5948671 1.1619032,1.9508374 0.5059578,0.2739772 0.8659279,0.3019749 1.2448963,0.2699775 0,0 0.3319724,0.9569204 1.0999084,1.2868927 0.534955,0.229981 1.374885,0.306974 2.116823,-0.3109739 0.259979,-0.216982 0.551954,-0.8189319 0.497959,-1.3488877 0,0 -0.896925,0.064995 -1.80585,-0.2489792 C 10.930982,7.8093493 10.015058,7.1404051 9.7230827,6.3174736 9.431107,5.4955421 9.323116,4.2286476 10.221041,3.287726 c 0,0 -0.3539703,-0.1969836 -0.7469376,-0.227981 -0.046996,-0.004 -0.094992,-0.008 -0.143988,-0.01 z m 6.2244817,0.029997 c -0.186985,0.004 -0.400967,0.047996 -0.60195,0.144988 -0.399967,0.1949837 -0.518957,0.7259395 -0.518957,0.7259395 0.270978,0 0.921923,0.1739855 1.07891,0.7889343 0.108991,0.4239647 -0.008,0.8819265 -0.227981,1.2658945 -0.345971,0.5989501 -0.829931,0.8919257 -0.829931,0.8919257 0,0 0.12799,0.085993 0.808933,0.020998 0.681943,-0.064995 1.020915,-0.4279643 1.182901,-0.6429464 0.162987,-0.2169819 0.280977,-0.7529372 0,-1.1209066 -0.280976,-0.3679693 -0.221981,-0.5429547 -0.103991,-0.9749188 0.11899,-0.4329639 0.046,-0.8189318 -0.331972,-1.0169153 -0.113991,-0.058995 -0.269978,-0.086993 -0.456962,-0.082993 z m -1.556871,0.9749188 c -0.83393,0 -1.244896,0.7259396 -1.244896,0.7259396 0.259979,-0.096992 0.749938,-0.040997 1.016915,0.1249896 0.113991,0.070994 0.258979,0.1929839 0.352971,0.3529706 0.157987,0.2659778 0.201983,0.6859428 -0.06199,0.995917 -0.374969,0.4399633 -0.995917,0.4769602 -0.995917,0.4769602 0.153987,0.070994 0.286976,0.1239897 0.622948,0.1449879 0.334972,0.021998 0.856929,-0.1389884 1.224898,-0.7889342 0.36797,-0.6489459 0.418965,-1.2308974 0.042,-1.6598618 C 14.717667,4.1556537 14.400693,4.0526623 14.000726,4.0526623 Z m -1.161903,0.040997 c -0.681943,0.3139738 -1.619865,1.1979003 -1.68086,2.3248063 -0.054,0.9949171 0.391968,1.6058662 1.722857,1.6598617 1.331889,0.054995 2.643779,-0.8799267 2.697775,-0.9129239 0.055,-0.031997 0.048,-0.094992 -0.103991,-0.061995 -0.150988,0.031998 -1.067911,0.1459881 -1.618865,0.1249899 C 13.301785,7.2073995 12.693835,7.0304142 12.421858,6.6064496 12.123883,6.1434881 12.003893,5.3615533 12.836823,4.0956587 Z m -0.08299,0.7889343 c -0.194984,0.1729856 -0.314974,0.456962 -0.331972,0.7059412 -0.02,0.2989751 0.07199,0.5949504 0.331972,0.7469378 0.258979,0.1519873 0.715941,0.078993 0.912924,-0.1039914 0.221982,-0.2069827 0.23898,-0.4769602 0.227981,-0.5599533 -0.018,-0.1429881 -0.131989,-0.2689776 -0.331972,-0.227981 -0.156987,0.032997 -0.280977,0.021998 -0.373969,0 C 13.083803,5.4195483 12.832824,5.3305559 12.75283,4.8845931 Z m 5.9995,1.9008416 c -0.09299,-0.004 -0.184984,9.999e-4 -0.270977,0.009 -0.114991,0.010999 -0.223982,0.027998 -0.310974,0.041996 -0.204983,0.031997 -0.411966,0.143988 -0.497959,0.1869844 0,0 0.295976,0.059995 0.539955,0.4359637 0.216982,0.3349721 0.231981,1.0749104 -0.124989,1.6598616 -0.518957,0.8549289 -1.32789,0.7679362 -1.32789,0.7679362 -0.08699,1.2228975 -1.148904,1.4738765 -1.722856,1.4738765 -1.514874,0 -1.55687,-1.1989 -1.55687,-1.327889 0,-0.1299889 -0.07099,-0.1469875 -0.12499,-0.103991 -0.365969,0.292975 -0.538955,0.811932 -0.559953,1.244896 -0.022,0.432964 0.06999,0.761936 0.144988,0.891926 0.23698,0.403966 0.60095,0.630947 1.390884,0.435963 0.789934,-0.193984 1.477877,-0.24198 2.137822,-0.144988 0.659945,0.09699 0.984917,-0.108991 1.099908,-0.456962 0.102991,-0.310974 0.324973,-0.567952 0.663945,-0.746937 0.940921,-0.497959 0.790934,-1.2318974 0.725939,-1.5568703 -0.063,-0.3169737 0.134989,-0.4879594 0.269978,-0.6429465 0.528952,-0.6099493 0.636943,-1.3828849 0.290972,-1.825848 C 19.325283,6.8764271 19.033307,6.7964337 18.75433,6.7854346 Z M 16.63551,6.9544205 c -0.055,-0.001 -0.103992,0 -0.145988,0.005 -0.205983,0.021998 -0.346971,0.088993 -0.47696,0.2079827 -0.12999,0.1189901 -0.922923,0.8359304 -2.199817,0.9549204 0.07699,0.2149821 0.208983,0.5229565 0,0.995917 -0.177985,0.4029666 -0.248979,1.1009074 0.248979,1.5768684 0.497959,0.47696 1.305891,0.373969 1.639864,0.207982 0.388967,-0.194983 0.540954,-0.570952 0.622948,-0.995916 0.04,-0.2079827 0.163986,-0.2839763 0.414965,-0.2909757 0.250979,-0.006 0.754937,-0.094992 1.07891,-0.6229482 C 18.078389,8.5712862 18.18738,7.9653367 17.922402,7.5403721 17.662421,7.1234065 17.017475,6.9644197 16.636507,6.9544206 Z M 7.4002762,7.7473545 C 6.9143167,7.7333557 6.0533885,7.9433382 5.926399,8.8472628 5.7804112,9.8881762 6.611342,10.300142 7.5662624,10.44513 c 1.0119157,0.153987 1.4148821,0.569952 1.7228564,0.912923 0.1599867,0.178986 0.4619616,0.591951 1.0789102,0.829931 0.616949,0.237981 1.254895,0.142988 1.535872,-0.021 0.676944,-0.393967 0.833931,-1.595867 0.850929,-2.012832 -0.589951,0.348971 -1.306891,0.459961 -1.950837,0.186984 C 10.016058,10.006166 9.7870774,9.013249 9.7870774,9.013249 9.2981181,9.0122491 8.7871606,8.9102576 8.3551966,8.6392802 8.0352233,8.4392968 7.7672456,8.0563287 7.6492555,7.8713442 7.607259,7.8053497 7.4692705,7.7483544 7.4002762,7.7463546 Z M 5.5004345,10.004166 c -0.060995,0.002 -0.1109907,0.049 -0.1019915,0.113991 0.060995,0.399966 0.3399717,0.865928 0.3399717,0.865928 -0.086993,-0.032 -0.1519873,0.06499 -0.1299892,0.150987 0.1039914,0.414965 0.2599784,0.627948 0.2599784,0.627948 -0.1509875,-0.032 -0.1729856,0.11999 -0.1729856,0.172985 0,0.453963 0.3139738,0.779935 0.3889676,0.84393 0.074994,0.06499 0.042996,0.08599 -0.010999,0.107991 -0.1589868,0.064 -0.1299892,0.162986 -0.085993,0.216982 0.1249895,0.154987 0.6059495,0.508958 0.8659278,0.627948 0.6649446,0.304974 1.4718773,0.259978 1.8288476,0.226981 0.3569702,-0.032 0.6169486,0.128989 0.6169486,0.128989 -0.053995,0.022 -1.2668945,0.811932 -1.3958837,0.876927 -0.1299892,0.06499 -0.2379802,0.022 -0.3029748,-0.011 -0.190984,-0.09599 -0.3679693,-0.291976 -0.454962,-0.378969 -0.085993,-0.08599 -0.1619865,-0.043 -0.1619865,0.054 0,0.09799 -0.021998,0.519957 -0.010999,0.627948 0.010999,0.107991 -0.064995,0.151987 -0.107991,0.172985 -1.2898925,0.644946 -1.991834,0.399967 -2.1868178,0.378969 -0.1949838,-0.022 -0.3459713,-0.022 -0.3889677,0.09799 -0.042996,0.11899 0.070994,0.219982 0.5209567,0.402967 0.5339555,0.216982 0.8869261,0.48296 1.1999,0.678943 0.2419799,0.151988 0.3679694,0.022 0.4539622,-0.06499 0.7039413,-0.703942 1.4378802,-1.144905 1.6498625,-1.264895 0.038997,-0.022 0.099992,-0.022 0.1169902,-0.014 0.1639864,0.07099 0.2249813,0.228981 0.2249813,0.228981 0.070994,0.226981 -0.059995,0.35897 -0.1949838,0.638947 -0.1889842,0.391967 -0.2239813,0.702941 -0.1809849,0.84393 0.042996,0.139988 0.1539872,0.09999 0.1979835,0.06699 0.040997,-0.031 0.069994,-0.011 0.069994,0.043 0.008,0.627948 0.3469711,1.024915 0.4329639,1.100909 0.085993,0.07599 0.096992,0.07599 0.1519874,0.022 0.053995,-0.054 0.107991,-0.161987 0.107991,-0.161987 0.031997,0.07499 0.1729855,0.399967 0.3679693,0.616949 0.1949838,0.216982 0.2759771,0.47896 0.324973,0.681943 0.035997,0.145988 0.065995,0.161987 0.1409883,0.032 0.074994,-0.129989 0.405966,-0.792934 0.405966,-0.792934 0.150988,0.108991 0.177985,0.132989 0.253979,0.057 0.448963,-0.448963 0.48196,-1.349888 0.48196,-1.44788 0,-0.09699 0,-0.107991 0.06499,-0.07599 0.06599,0.032 0.11399,0 0.11999,-0.07499 0.011,-0.140988 0.08599,-0.573952 -0.173986,-1.125906 -0.326973,-0.696942 -0.865928,-0.779935 -1.5798686,-0.811933 -0.8329305,-0.038 -0.8169319,-0.185984 -0.8169319,-0.185984 0.6169486,-0.389968 1.9148405,-1.136905 2.0338305,-1.190901 0.11999,-0.054 0.153988,-0.09999 0.357971,-0.022 0.145987,0.057 0.339971,0.186984 0.378968,0.353971 0.041,0.181984 0.042,0.466961 -0.153987,0.83493 -0.187985,0.35397 -0.114991,0.757937 -0.07299,0.917923 0.012,0.045 0.05,0.07799 0.064,0.08099 0.09699,0.024 0.167986,0.032 0.167986,0.032 -0.054,0.562953 0.400966,1.140905 0.465961,1.2059 0.06499,0.06599 0.129989,0.049 0.205983,0.017 0.07499,-0.032 0.107991,-0.049 0.107991,-0.049 0.10899,0.183985 0.400966,0.400967 0.508957,0.443963 0.107991,0.043 0.11899,0.027 0.183985,-0.017 0.06499,-0.043 0.129989,-0.09699 0.129989,-0.09699 0.519957,0.71394 1.365886,0.923923 1.579868,0.962919 0.11999,0.022 0.151988,-0.06499 0.07599,-0.161986 -0.07599,-0.09799 -0.210982,-0.253979 -0.265978,-0.532956 -0.09899,-0.509957 0,-0.691942 0.08699,-0.71494 0.08599,-0.022 0.09699,-0.06499 0.08599,-0.193984 -0.037,-0.442963 -0.183985,-0.800933 -0.23798,-0.909924 -0.054,-0.107991 0,-0.11899 0.08599,-0.107991 0.12699,0.016 0.12999,0.006 0.108991,-0.11899 -0.07099,-0.422965 -0.47696,-0.811932 -0.617948,-0.930923 -0.139989,-0.11999 -0.09699,-0.131989 0.044,-0.151987 0.134989,-0.019 0.139988,-0.043 0.08999,-0.190984 -0.06299,-0.184985 -0.333973,-0.606949 -0.917924,-0.866928 -0.624948,-0.277977 -1.648862,-0.147987 -1.648862,-0.147987 0.23198,-0.143988 0.793933,-0.371969 1.1959,-0.471961 0.530956,-0.132989 1.091909,-0.009 1.471877,0.273977 0.442963,0.328973 0.659945,1.366886 0.808933,1.774852 0.195983,0.539955 0.509957,0.549954 0.509957,0.549954 0.09799,-0.032 0.138989,-0.174985 0.138989,-0.174985 0.432964,0.461961 1.224898,0.726939 1.514873,0.778935 0.105992,0.019 0.174986,0.025 0.174986,-0.07299 0,-0.08699 0.013,-0.09999 0.013,-0.09999 0.158987,0.014 0.388967,0.028 0.807932,0.24498 0.417966,0.216982 0.591951,0.519957 0.648946,0.692942 0.058,0.172986 0.172986,0.09999 0.187985,-0.015 0.11699,-0.932923 -0.147988,-1.68086 -0.147988,-1.68086 0,0 0.147988,0.02 0.23498,0.02 0.08599,0 0.09999,-0.05599 0.08599,-0.142988 -0.103991,-0.622948 -0.47696,-1.211899 -0.47696,-1.211899 0.12099,0.004 0.182985,0.017 0.207983,-0.018 0.03,-0.045 -0.051,-0.190984 -0.08299,-0.23198 -1.08391,-1.354887 -2.4038,-1.380885 -2.923757,-1.380885 -0.519956,0 -0.994917,0.08599 -1.629864,0.230981 -0.634947,0.143988 -0.935922,0.038 -1.1979,-0.114991 -0.328973,-0.192984 -0.455962,-0.675944 -0.455962,-0.675944 -0.735939,0.854929 -1.620865,0.598951 -1.620865,0.598951 -0.446963,0.633947 -1.285893,1.230897 -1.285893,1.230897 -0.107991,-0.208983 -0.1009916,-0.576952 -0.071994,-0.778935 0.028998,-0.201983 0,-0.565953 -0.085993,-0.879927 C 9.3751116,11.716024 8.8981514,11.251062 8.6251741,11.067078 8.1922102,10.775102 7.4452725,10.595117 6.9753116,10.55612 6.586344,10.524123 6.371362,10.469128 6.1373815,10.386134 5.830407,10.277144 5.6914186,10.127156 5.6054258,10.041163 c -0.026998,-0.027 -0.058995,-0.04 -0.088993,-0.041996 -0.004,0 -0.008,0 -0.011999,0 z m 0.23998,0.399967 c 0,0 0.5009583,0.924923 1.3698859,1.55687 0.8499291,0.617949 0.2329806,0.196984 1.3908841,0.995917 0.7229397,0.500959 0.9129239,0.705941 0.9129239,0.705941 L 8.7081672,13.226898 c 0,0 -0.7299392,-0.431964 -1.4738772,-0.974919 C 6.2353733,11.52204 5.7404145,10.405133 5.7404145,10.405133 Z m 8.7572705,2.676777 c 1.049912,0.173985 1.768852,0.583951 2.427798,1.224898 0.735938,0.71394 1.07391,1.344888 1.43188,1.950837 0,0 -0.96092,-1.232897 -1.805849,-2.03383 -0.857929,-0.813932 -1.664862,-1.010916 -2.054829,-1.140905 z m -2.988751,0.933922 c 0,0 0.684943,0.373969 1.057912,1.888843 0.312974,1.269894 1.265894,2.220815 1.265894,2.220815 0,0 -0.378968,-0.218982 -0.850929,-0.829931 -0.47296,-0.609949 -0.668944,-1.79885 -0.808932,-2.199817 -0.226981,-0.648946 -0.663945,-1.07891 -0.663945,-1.07891 z m -2.821765,1.537872 c 0,0 0.7829347,0.12099 1.1209067,1.576869 0.2599783,1.117906 0.061995,1.929839 0.061995,1.929839 0,0 0.01,-1.020915 -0.1039913,-1.493876 C 9.3941103,16.022665 8.6871692,15.552704 8.687169,15.552704 Z m 8.28031,2.842763 c -0.229981,0 -0.393967,0.164986 -0.393967,0.393967 0,0.228981 0.163986,0.414966 0.393967,0.414966 0.229981,0 0.414965,-0.185985 0.414965,-0.414966 0,-0.228981 -0.184984,-0.393967 -0.414965,-0.393967 z m 0,0.06199 c 0.187984,0 0.352971,0.137988 0.352971,0.331972 0,0.192984 -0.163987,0.352971 -0.352971,0.352971 -0.187984,0 -0.331972,-0.158987 -0.331972,-0.352971 0,-0.193984 0.143988,-0.331972 0.331972,-0.331972 z m -0.144988,0.103991 v 0.47696 h 0.06199 v -0.227981 h 0.08299 l 0.12499,0.227981 h 0.08299 l -0.12499,-0.227981 c 0.06199,-0.002 0.12499,-0.034 0.12499,-0.124989 0,-0.09699 -0.08199,-0.12499 -0.165986,-0.12499 z m 0.06199,0.08299 h 0.12499 c 0.055,0 0.103991,0.004 0.103991,0.062 0,0.06299 -0.103991,0.042 -0.165986,0.042 h -0.06199 z m -6.205483,1.410883 c -0.632947,0 -1.07891,0.35997 -1.07891,0.871927 0,0.47696 0.3889676,0.850929 1.057912,0.850929 0.211982,0 0.433964,-0.028 0.642946,-0.06199 v -0.808932 h -0.456962 c 0.11899,0.044 0.12499,0.163986 0.12499,0.269977 v 0.393967 c -0.11599,0.032 -0.212982,0.041 -0.331972,0.041 -0.412966,0 -0.60195,-0.423965 -0.60195,-0.72594 0,-0.285976 0.171985,-0.663944 0.580951,-0.663944 0.159987,0 0.515957,0.09799 0.622948,0.207982 v -0.290975 c -0.140988,-0.034 -0.372968,-0.08299 -0.559953,-0.08299 z m -4.5656195,0.042 v 1.639864 h 1.2038996 l 0.1249896,-0.331973 c 0,0 -0.131989,0.12499 -0.5599533,0.12499 H 6.5293488 v -0.60195 h 0.2079827 c 0.085993,0 0.3299725,0.012 0.3739688,0.08299 V 20.76227 H 6.5303487 v -0.457962 h 0.2909758 c 0.1259895,0 0.370969,-0.026 0.4569619,0.06199 V 20.09632 Z m 1.5568702,0 v 1.32789 c 0,0.133988 -0.008,0.214982 -0.1449879,0.290975 v 0.021 H 7.919228 v -1.223898 l 0.9339221,0.995917 c 0.1409883,0.148987 0.2809766,0.227981 0.4979585,0.290975 v -1.391884 c 0,-0.135988 0.008,-0.23798 0.144988,-0.310974 H 9.1021344 v 1.120907 l -0.9549204,-1.016915 -0.020998,-0.042 c -0.018998,-0.019 -0.028998,-0.033 -0.041996,-0.06199 z m 3.9226733,0 v 1.639864 h 1.161903 l 0.144988,-0.331973 c 0,0 -0.149987,0.12699 -0.497958,0.12499 h -0.393968 v -1.07891 c 0,-0.111991 -0.008,-0.311974 0.12499,-0.352971 z m 1.867844,0 c 0.131989,0.036 0.08199,0.139989 0.042,0.227981 l -0.642947,1.410883 h 0.435964 c -0.130989,-0.046 -0.09999,-0.12899 -0.042,-0.269978 l 0.144987,-0.35297 h 0.663945 l 0.248979,0.622948 h 0.580952 c -0.158987,-0.07299 -0.205983,-0.209983 -0.269978,-0.352971 l -0.580945,-1.286889 z m 1.618865,0 v 1.32789 c 0,0.133988 -0.008,0.214982 -0.144988,0.290975 v 0.021 h 0.393968 v -1.223898 l 0.912924,0.995917 c 0.140988,0.148987 0.301974,0.227981 0.518956,0.290975 v -1.391884 c 0,-0.135988 0.008,-0.23798 0.144988,-0.310974 h -0.393967 v 1.120907 l -0.95492,-1.016915 -0.042,-0.042 c -0.019,-0.019 -0.029,-0.033 -0.042,-0.06199 z m 2.054829,0 v 1.639864 h 0.684943 c 0.613949,0 1.07891,-0.338972 1.07891,-0.829931 0,-0.495959 -0.453962,-0.808933 -1.07891,-0.808933 z m 0.414966,0.207983 h 0.248979 c 0.456962,-0.002 0.663944,0.220981 0.663944,0.622948 0,0.402966 -0.296975,0.59895 -0.705941,0.60195 h -0.207982 z m -3.818682,0.021 0.248979,0.60195 h -0.518957 z m -0.829931,1.950838 c -0.632947,0 -1.07891,0.360969 -1.07891,0.871927 0,0.47696 0.388967,0.850929 1.057912,0.850929 0.211982,0 0.412965,-0.028 0.622948,-0.06199 h 0.021 v -0.808932 h -0.47696 c 0.11899,0.044 0.124989,0.162986 0.124989,0.269977 v 0.393967 c -0.11599,0.032 -0.192984,0.042 -0.310974,0.042 -0.413965,0 -0.60195,-0.403967 -0.60195,-0.705941 0,-0.286977 0.151988,-0.663945 0.559954,-0.663945 0.160986,0 0.515957,0.07799 0.622948,0.186984 h 0.021 v -0.269977 c -0.140988,-0.033 -0.373969,-0.103992 -0.559953,-0.103992 z m -4.7936007,0.042 v 1.639863 h 0.539955 c -0.1389834,-0.046 -0.1249846,-0.217983 -0.1249846,-0.331974 v -0.518957 -0.60195 h 0.1869844 c 0.1849846,0 0.3529706,0.06999 0.3529706,0.24898 0,0.228981 -0.3229731,0.318973 -0.539955,0.35297 l 0.3109741,0.352971 0.3319723,0.373969 c 0.082993,0.09199 0.1859845,0.124989 0.3319724,0.124989 H 9.8290739 C 9.6740868,23.870011 9.5490972,23.75702 9.4351066,23.628031 L 9.0411395,23.171069 c 0.2229814,-0.046 0.4569619,-0.171986 0.4569619,-0.414965 0,-0.272978 -0.3169736,-0.435964 -0.6849429,-0.435964 z m 1.7228565,0 v 1.016915 c 0,0.174986 -0.011999,0.340972 0.1249896,0.476961 C 10.125049,23.983001 10.387027,24 10.59801,24 c 0.174985,0 0.381968,-0.045 0.497958,-0.186984 v 0.144987 h 0.518957 c -0.135989,-0.046 -0.124989,-0.222981 -0.124989,-0.331972 v -0.95492 c 0,-0.111991 -0.012,-0.285976 0.124989,-0.331973 v -0.021 h -0.518957 v 1.120907 c 0,0.08699 -0.008,0.155987 -0.06199,0.227981 -0.08999,0.11499 -0.221982,0.165986 -0.373969,0.165986 -0.274977,0 -0.435964,-0.174986 -0.435964,-0.497959 V 22.31814 Z m 4.0256642,0 v 1.639863 h 0.435964 c 0.203983,0 0.464961,10e-4 0.663945,-0.06199 0.23798,-0.07499 0.373969,-0.257979 0.373969,-0.435964 0,-0.227981 -0.210983,-0.410966 -0.456962,-0.456962 0.154987,-0.063 0.290975,-0.145988 0.290975,-0.310974 0,-0.255979 -0.280976,-0.373969 -0.642946,-0.373969 z m 1.431881,0 0.622948,0.933922 v 0.705941 h 0.539955 c -0.140988,-0.09199 -0.144988,-0.162986 -0.144988,-0.310974 v -0.393967 l 0.684943,-0.933922 h -0.539955 v 0.021 c 0.153987,0.06799 0.108991,0.185985 0.06199,0.248979 l -0.290976,0.393968 -0.456962,-0.663945 z m -0.871927,0.165986 c 0.172985,0 0.310974,0.07599 0.310974,0.248979 0,0.215982 -0.213982,0.24898 -0.393967,0.24898 h -0.08299 v -0.476961 z m -0.165986,0.663945 h 0.186984 c 0.24098,0 0.456962,0.07099 0.456962,0.310974 0,0.23598 -0.181985,0.310974 -0.414966,0.310974 H 14.2507 Z"/></svg>
