<svg version="1.2" xmlns="http://www.w3.org/2000/svg" viewBox="0 0 24 24" width="24" height="24"><style></style><path  d="m13.1 0.7q-0.3-0.2-0.5-0.3-0.3-0.1-0.6-0.1-0.3 0-0.6 0.1-0.2 0.1-0.5 0.3l-9.8 9.9q-0.3 0.3-0.5 0.6-0.2 0.3-0.3 0.6-0.1 0.3-0.2 0.7-0.1 0.3-0.1 0.7v9q0 0.3 0.1 0.6 0.1 0.2 0.3 0.4 0.3 0.3 0.5 0.4 0.3 0.1 0.6 0.1h5.9v-14.9q0-0.2 0-0.3 0.1-0.1 0.2-0.2 0.1 0 0.2-0.1 0.1 0 0.2 0h8q0.1 0 0.2 0 0.1 0.1 0.2 0.1 0.1 0.1 0.2 0.2 0 0.1 0 0.3v2.4q0 0.1 0 0.2-0.1 0.1-0.2 0.2-0.1 0.1-0.2 0.1-0.1 0.1-0.2 0.1h-5v1.2h5q0.1 0 0.2 0 0.1 0.1 0.2 0.1 0.1 0.1 0.2 0.2 0 0.1 0 0.3v2.4q0 0.1 0 0.2-0.1 0.1-0.2 0.2-0.1 0.1-0.2 0.1-0.1 0.1-0.2 0.1h-5v1.2h5q0.1 0 0.2 0 0.1 0.1 0.2 0.1 0.1 0.1 0.2 0.2 0 0.1 0 0.3v2.4q0 0.1 0 0.2-0.1 0.1-0.2 0.2-0.1 0.1-0.2 0.1-0.1 0.1-0.2 0.1h-5.6q-0.2 0-0.4-0.2-0.2-0.2-0.2-0.4 0-0.3 0.2-0.5 0.2-0.1 0.4-0.1h5v-1.2h-5q-0.1 0-0.2-0.1-0.1 0-0.2-0.1-0.1-0.1-0.2-0.2 0-0.1 0-0.2v-2.4q0-0.2 0-0.3 0.1-0.1 0.2-0.2 0.1 0 0.2-0.1 0.1 0 0.2 0h5v-1.2h-5q-0.1 0-0.2-0.1-0.1 0-0.2-0.1-0.1-0.1-0.2-0.2 0-0.1 0-0.2v-2.4q0-0.2 0-0.3 0.1-0.1 0.2-0.2 0.1 0 0.2-0.1 0.1 0 0.2 0h5v-1.2h-6.8v14.3h13.9q0.3 0 0.6-0.1 0.2-0.1 0.5-0.4 0.2-0.2 0.3-0.4 0.1-0.3 0.1-0.6v-9q0-0.4-0.1-0.7-0.1-0.4-0.2-0.7-0.1-0.3-0.3-0.6-0.2-0.3-0.5-0.6z"/></svg>