<svg version="1.2" xmlns="http://www.w3.org/2000/svg" viewBox="0 0 24 24" width="24" height="24"><style></style><path  d="m18.9 8.7c0.2 0 0.4 0.1 0.5 0.3l1.9 4.7c0.7-2 1.7-4.6 1.8-4.7 0.1-0.3 0.3-0.4 0.6-0.3 0.2 0.1 0.3 0.4 0.2 0.6 0 0.1-1.8 4.6-2.4 6.4-0.6 1.8-1.8 2-2.3 2q0 0 0 0c-0.3 0-0.5-0.2-0.5-0.5 0-0.2 0.2-0.4 0.5-0.4q0 0 0 0c0.1 0 1 0 1.4-1.4q0.1-0.2 0.2-0.4l-2.3-5.7c-0.1-0.2 0-0.5 0.2-0.6q0.1 0 0.2 0zm-10.8 0c0.3 0 0.5 0.2 0.5 0.5v3.7c0 0.8 0.7 1.5 1.5 1.5 0.9 0 1.6-0.7 1.6-1.5v-3.7c0-0.3 0.2-0.5 0.5-0.5 0.2 0 0.4 0.2 0.4 0.5v3.7c0 1.4-1.1 2.5-2.5 2.5-1.3 0-2.5-1.1-2.5-2.5v-3.7c0-0.3 0.2-0.5 0.5-0.5zm-4.8 0c1.1 0 2 0.4 2.6 1.2q0 0 0 0 0.1 0 0.1 0.1 0 0 0 0 0 0 0 0 0 0 0 0 0 0 0 0 0 0 0 0 0 0.1 0 0.1 0 0 0 0 0 0 0 0 0 0 0 0 0 0.1 0 0.1 0 0 0 0 0 0 0 0 0 0 0 0.1 0 0 0 0 0 0 0 0 0 0 0 0 0 0 0 0.1 0 0 0 0 0 0 0 0 0 0 0 0 0 0 0 0 0 0 0 0 0 0.1 0 0.1 0 0 0 0 0 0 0 0-0.1 0-0.1 0 0 0 0 0 0 0 0 0.1 0 0 0 0l-1.8 1.7q-0.1 0.1-0.3 0.1-0.2 0-0.3-0.1c-0.2-0.2-0.2-0.5 0-0.7l1.4-1.4c-0.4-0.4-1-0.6-1.6-0.6-1.3 0-2.4 1.1-2.4 2.4 0 1.4 1.1 2.4 2.4 2.4 1.4 0 2.5-1 2.5-2.4 0-0.2 0.2-0.4 0.4-0.4 0.3 0 0.5 0.2 0.5 0.4 0 1.9-1.5 3.4-3.4 3.4-1.8 0-3.3-1.5-3.3-3.4 0-1.8 1.5-3.3 3.3-3.3zm13.2-2.4q0.3 0 0.7 0.1c0.2 0 0.4 0.3 0.3 0.5 0 0.3-0.3 0.4-0.5 0.4-0.8-0.2-1.2 0-1.4 0.2q-0.5 0.4-0.6 1.4h2.1c0.2 0 0.4 0.2 0.4 0.5 0 0.2-0.2 0.4-0.4 0.4h-2.1v5.1c0 0.3-0.2 0.5-0.5 0.5-0.2 0-0.4-0.2-0.4-0.5v-5.5q0 0 0 0 0-0.1 0-0.1v-0.1c0-1.4 0.5-2.1 0.9-2.4q0.6-0.5 1.5-0.5z"/></svg>