<svg version="1.2" xmlns="http://www.w3.org/2000/svg" viewBox="0 0 24 24" width="24" height="24"><style></style><path  d="m12 0c-6.6 0-12 5.4-12 12 0 6.6 5.4 11.9 12 11.9 6.6 0 11.9-5.3 11.9-11.9 0-1-0.7-1.7-1.6-1.7-1 0-1.7 0.7-1.7 1.7 0 4.7-3.9 8.6-8.6 8.6-4.8 0-8.7-3.9-8.7-8.6 0-4.8 3.9-8.7 8.7-8.7 2.1 0 4 0.8 5.6 2.1l-5.2 5c-0.6 0.7-0.7 1.7 0 2.4 0.3 0.3 0.7 0.5 1.2 0.5q0.6 0 1.1-0.5l6.4-6.1q0 0 0 0 0.1-0.1 0.1-0.1 0 0 0-0.1 0.1 0 0.1 0 0 0 0-0.1 0.1 0 0.1 0 0-0.1 0-0.1 0 0 0-0.1 0.1 0 0.1-0.1 0 0 0 0 0-0.1 0.1-0.1 0 0 0 0 0-0.1 0-0.2 0 0 0 0 0-0.1 0-0.1 0-0.1 0-0.1 0 0 0-0.1 0-0.1 0-0.2 0 0 0 0 0-0.1 0-0.1 0 0 0-0.1 0 0 0-0.1 0 0-0.1 0 0-0.1 0-0.1 0-0.1 0-0.1 0 0-0.1-0.1 0 0 0 0 0-0.1 0-0.1-0.1 0-0.1-0.1 0 0 0-0.1 0 0 0 0c-2.3-2.8-5.7-4.4-9.3-4.4z"/></svg>