<svg version="1.2" xmlns="http://www.w3.org/2000/svg" viewBox="0 0 24 24" width="24" height="24"><style></style><path  d="m0.1 0.2v23.7h23.7v-23.7zm20.8 9c0.4 0 0.7 0.3 0.7 0.7 0 0.4-0.3 0.7-0.7 0.7-0.4 0-0.8-0.3-0.8-0.7 0-0.4 0.4-0.7 0.8-0.7zm-18.9 0h4.9v1.5h-1v-0.6h-2.3v1.6h2.1v0.8h-2.1v1.6h2.3v-0.7h1v1.6h-4.9v-0.9h0.5v-4h-0.5zm5.3 0h1.5l1.5 4.1 1.6-4.1h0.6l-2.3 5.8h-0.6c0 0-2.3-5.8-2.3-5.8zm5.6 0h3.9c0.8 0 1.4 0.2 1.7 0.5q0.5 0.4 0.5 1.2c0 1-0.7 1.6-1.5 1.7l2 2.4h-1l-2-2.3h-2.8v2.3h-0.8c0 0 0-5.8 0-5.8zm0.8 0.7v2.1h3.1c0.6 0 0.8-0.1 1-0.3q0.3-0.3 0.3-0.8 0-0.5-0.3-0.7c-0.2-0.2-0.5-0.3-1-0.3 0 0-3.1 0-3.1 0zm6.1 1.2h1.7v3.1c0 0.3 0.1 0.5 0.4 0.6v0.2h-2.1v-0.2c0.4-0.1 0.5-0.3 0.5-0.6v-2.2c0-0.3-0.1-0.5-0.5-0.7 0 0 0-0.2 0-0.2z"/></svg>