<svg version="1.2" xmlns="http://www.w3.org/2000/svg" viewBox="0 0 24 24" width="24" height="24"><style></style><path  d="m12 0.2c-6.5 0-11.8 5.3-11.8 11.8 0 6.5 5.3 11.8 11.8 11.8 6.5 0 11.8-5.3 11.8-11.8 0-6.5-5.3-11.8-11.8-11.8zm0 1.5c5.7 0 10.3 4.6 10.3 10.3 0 5.7-4.6 10.3-10.3 10.3-5.7 0-10.3-4.6-10.3-10.3 0-5.7 4.6-10.3 10.3-10.3zm-6.4 2.7c-1.2 0-2.1 0.9-2.1 2.1v0.5c0 1.2 0.9 2.2 2.1 2.2h1.9c0.9 0 1.8-0.6 2-1.4h5.9c1 0 1.8 0.8 1.8 1.8 0 1-0.8 1.8-1.8 1.8h-7c-1.8 0-3.1 1.4-3.1 3.2 0 1.7 1.3 3.1 3.1 3.1h5.7c0 1.1 0.9 2.1 2.1 2.1h1.9c1.2 0 2.2-1 2.2-2.2v-0.5c0-1.2-1-2.1-2.2-2.1h-1.9c-0.9 0-1.7 0.6-2 1.4h-5.8c-1 0-1.9-0.8-1.9-1.8 0-1.1 0.9-1.9 1.9-1.9h7c1.7 0 3.1-1.4 3.1-3.1 0-1.7-1.4-3.1-3.1-3.1h-5.7c0-1.2-1-2.1-2.2-2.1zm12.6 10.7h-2c-0.9 0-1.6 0.6-1.9 1.5h-5.9c-1.1 0-2-0.9-2-2 0-1.1 0.9-2.1 2-2.1h7c1.6 0 2.9-1.3 2.9-2.9 0-1.6-1.3-2.9-2.9-2.9h-5.9v-0.2c0-1.1-0.8-2-1.9-2h-2c-1.1 0-1.9 0.9-1.9 2v0.5c0 1.1 0.8 2 1.9 2h2c0.8 0 1.6-0.6 1.9-1.4h5.9c1.1 0 2 0.9 2 2 0 1.1-0.9 2-2 2h-7c-1.6 0-2.9 1.3-2.9 3 0 1.6 1.3 2.9 2.9 2.9h5.9v0.1c0 1.1 0.8 2 1.9 2h2c1.1 0 1.9-0.9 1.9-2v-0.5c0-1.1-0.9-2-1.9-2zm-12.6-10.4h2c1 0 1.8 0.8 1.8 1.8v0.3h6c1.5 0 2.8 1.3 2.8 2.8 0 1.5-1.3 2.8-2.8 2.8h-7c-1.2 0-2.2 1-2.2 2.2 0 1.1 1 2.1 2.2 2.1h6.1v-0.1c0.2-0.7 0.9-1.3 1.7-1.3h2c0.9 0 1.8 0.8 1.8 1.8v0.5c0 1-0.8 1.8-1.8 1.8h-2c-1 0-1.8-0.8-1.8-1.8v-0.3h-6c-1.5 0-2.8-1.2-2.8-2.7 0-1.6 1.3-2.8 2.8-2.8h7c1.2 0 2.2-1 2.2-2.2 0-1.2-1-2.2-2.2-2.2h-6.1v0.1c-0.2 0.8-0.9 1.3-1.7 1.3h-2c-1 0-1.8-0.8-1.8-1.8v-0.5c0-1 0.8-1.8 1.8-1.8zm10.6 11.2c-0.7 0-1.2 0.6-1.2 1.2v0.5c0 0.7 0.6 1.2 1.2 1.2h2c0.6 0 1.2-0.5 1.2-1.2v-0.5c0-0.7-0.6-1.2-1.2-1.2zm-10.6-10.5c-0.7 0-1.2 0.5-1.2 1.2v0.5c0 0.6 0.5 1.2 1.2 1.2h1.9c0.7 0 1.2-0.6 1.2-1.2v-0.5c0-0.7-0.6-1.2-1.2-1.2zm3 1.7c0 0.5-0.5 1-1.1 1h-1.9c-0.6 0-1.1-0.4-1.1-1v-0.5c0-0.6 0.5-1.1 1.1-1.1h1.9c0.6 0 1.1 0.5 1.1 1.1zm10.6 10.5c0 0.6-0.5 1.1-1.1 1.1h-1.9c-0.6 0-1.1-0.5-1.1-1.1v-0.5c0-0.5 0.5-1 1.1-1h1.9c0.6 0 1.1 0.4 1.1 1zm-13.6-11.9h1.9c0.5 0 0.9 0.3 0.9 0.9v0.5c0 0.4-0.4 0.8-0.9 0.8h-1.9c-0.5 0-0.9-0.3-0.9-0.8v-0.5c0-0.5 0.4-0.9 0.9-0.9zm10.6 10.5h1.9c0.5 0 0.9 0.4 0.9 0.9v0.5c0 0.5-0.4 0.9-0.9 0.9h-1.9c-0.5 0-0.9-0.4-0.9-0.9v-0.5c0-0.5 0.4-0.9 0.9-0.9z"/></svg>