<svg version="1.2" xmlns="http://www.w3.org/2000/svg" viewBox="0 0 24 24" width="24" height="24"><style></style><path  d="m20.2 15.1c0.3 0.4-0.3 1.7-0.5 2.4-0.1 0.2 0 0.2 0.2 0.1 1.1-0.9 1.4-2.9 1.2-3.2-0.2-0.2-2.2-0.5-3.4 0.4-0.1 0.1-0.1 0.3 0.1 0.2 0.7 0 2.1-0.2 2.4 0.1zm-0.9 1c-2 1.5-5 2.3-7.6 2.3-3.6 0-6.9-1.3-9.3-3.5-0.2-0.2 0-0.4 0.2-0.3 2.6 1.5 5.9 2.5 9.3 2.5 2.3 0 4.8-0.5 7.1-1.5 0.4-0.1 0.7 0.2 0.3 0.5zm2.1-3.2q-0.1 0-0.1 0 0 0 0 0-0.1 0-0.1 0 0 0 0 0-0.1 0-0.2-0.2l-1.7-4.4v-0.1q0 0-0.1 0 0 0 0 0 0-0.1 0-0.1 0 0 0 0 0-0.1 0.2-0.1h0.6q0.1 0 0.2 0 0 0.1 0.1 0.2l1.3 3.9 1.4-3.9q0-0.1 0.1-0.2 0 0 0.1 0 0 0 0 0 0 0 0.1 0 0 0 0 0h0.6q0.1 0 0.1 0.1 0 0 0 0 0 0 0 0.1 0 0 0 0 0 0 0 0-0.1 0.1-0.1 0.1l-1.7 4.4q-0.1 0.2-0.1 0.2-0.1 0-0.1 0 0 0 0 0-0.1 0-0.1 0 0 0 0 0zm-3.7 0.1q-1.4 0-1.4-1.4v-2.9h-0.7q-0.2 0-0.2-0.2v-0.2q0 0 0 0 0-0.1 0-0.1 0 0 0.1 0 0 0 0 0 0-0.1 0.1-0.1l0.8-0.1 0.1-1.2q0-0.2 0.2-0.2h0.4q0.2 0 0.2 0.2v1.2h1.3q0.2 0 0.2 0.2v0.3q0 0.2-0.2 0.2h-1.3v2.9q0 0.3 0.2 0.5 0.1 0.1 0.5 0.1 0.2 0 0.5 0 0.1 0 0.2 0 0.1 0 0.1 0 0 0 0 0.1v0.3q0 0 0 0.1 0 0 0 0 0 0 0 0 0 0.1 0 0.1-0.1 0.1-0.2 0.1-0.1 0-0.2 0.1-0.1 0-0.2 0-0.1 0-0.2 0-0.2 0-0.3 0zm-5.6 0.1q-1.2 0-1.8-0.7-0.6-0.6-0.6-1.9 0-1.3 0.6-2 0.6-0.7 1.7-0.7 1 0 1.5 0.6 0.5 0.5 0.5 1.5 0 0.3-0.1 0.6 0 0.1-0.1 0.1 0 0.1-0.1 0.1h-3.1q0 0.8 0.4 1.2 0.4 0.4 1.3 0.4 0.3 0 0.5 0 0.1 0 0.2 0 0.1-0.1 0.2-0.1 0.1 0 0.1 0 0.1 0 0.2-0.1h0.1q0 0 0.1 0 0 0 0 0 0 0 0 0 0 0 0 0 0.1 0 0.1 0.2v0.2q0 0.2 0 0.2 0 0 0 0 0 0.1-0.1 0.1 0 0 0 0 0 0-0.1 0 0 0.1-0.1 0.1-0.1 0-0.2 0-0.1 0.1-0.2 0.1-0.1 0-0.2 0-0.1 0-0.2 0.1-0.1 0-0.2 0-0.1 0-0.2 0-0.1 0-0.2 0zm1-3.1q0 0 0-0.2 0-0.6-0.3-0.9-0.3-0.3-0.8-0.3-0.6 0-1 0.3-0.3 0.4-0.4 1.1zm-6.3 3q-0.2 0-0.2-0.2v-4.6q0-0.2 0.2-0.2h0.4q0.1 0 0.1 0 0.1 0.1 0.1 0.2l0.1 0.5q0.2-0.3 0.5-0.4 0.1-0.1 0.2-0.2 0.1 0 0.3-0.1 0.1 0 0.2 0 0.2-0.1 0.3-0.1 0.1 0 0.2 0.1 0.2 0 0.2 0.1v0.6q0 0.1-0.2 0.1-0.1 0-0.1 0-0.1 0-0.1 0 0 0 0 0-0.1 0-0.1 0 0 0 0 0-0.8 0-1.4 0.5v3.5q0 0.2-0.2 0.2zm-2.2 0q-0.2 0-0.2-0.2v-4.6q0-0.2 0.2-0.2h0.6q0.2 0 0.2 0.2v4.6q0 0.2-0.2 0.2zm0.3-5.9q-0.3 0-0.5-0.2 0 0-0.1 0 0-0.1 0-0.2 0 0 0-0.1 0 0 0-0.1 0-0.2 0.1-0.4 0.2-0.2 0.5-0.2 0.2 0 0.4 0.2 0.2 0.2 0.2 0.4 0 0.1 0 0.1 0 0.1-0.1 0.1 0 0.1 0 0.2-0.1 0-0.1 0 0 0.1-0.1 0.1 0 0-0.1 0.1-0.1 0-0.1 0-0.1 0-0.1 0zm-3.7 5.9q-0.2 0-0.2-0.2v-4h-0.7q-0.2 0-0.2-0.2v-0.3q0-0.1 0.1-0.1 0-0.1 0.1-0.1l0.7-0.1v-0.8q0-1.6 1.6-1.6 0.4 0 0.8 0.1 0.1 0 0.1 0.1 0.1 0 0.1 0.2v0.2q0 0.2-0.2 0.2 0 0-0.2 0-0.2 0-0.4-0.1-0.4 0-0.6 0.2-0.2 0.2-0.2 0.6v0.9h1.3q0.2 0 0.2 0.2v0.4q0 0.2-0.2 0.2h-1.3v4q0 0.2-0.2 0.2z"/></svg>