<svg version="1.2" xmlns="http://www.w3.org/2000/svg" viewBox="0 0 24 24" width="24" height="24"><style></style><path  d="m13.3 1.8c0 1-0.8 1.8-1.8 1.8q-0.3 0-0.7-0.1-0.3-0.2-0.5-0.4-0.3-0.3-0.4-0.6-0.2-0.3-0.2-0.7c0-0.9 0.8-1.8 1.8-1.8 1 0 1.8 0.9 1.8 1.8zm-1.8 3.3c-1 0-1.9 0.8-1.9 1.8 0 1.1 0.9 1.9 1.9 1.9 1.1 0 1.9-0.8 1.9-1.9 0-1-0.8-1.8-1.9-1.8zm0 5c-1 0-1.9 0.9-1.9 1.9 0 1.1 0.9 2 1.9 2 1.1 0 2-0.9 2-2 0-1-0.9-1.9-2-1.9zm0 5.1c-1 0-1.9 0.8-1.9 1.9 0 1 0.9 1.8 1.9 1.8q0.4 0 0.7-0.1 0.4-0.1 0.6-0.4 0.3-0.3 0.4-0.6 0.2-0.4 0.2-0.7c0-1-0.8-1.9-1.9-1.9zm0 5.2q-0.3 0-0.7 0.1-0.3 0.2-0.5 0.4-0.3 0.3-0.4 0.6-0.2 0.3-0.2 0.7 0 0.3 0.2 0.7 0.1 0.3 0.4 0.5 0.2 0.3 0.5 0.4 0.4 0.2 0.7 0.2c1 0 1.8-0.8 1.8-1.8 0-1-0.8-1.8-1.8-1.8zm5-15.6c-1.2 0-2.1 1-2.1 2.1 0 1.2 0.9 2.1 2.1 2.1 1.1 0 2.1-0.9 2.1-2.1 0-1.1-1-2.1-2.1-2.1zm0 5.1c-1.3 0-2.2 0.9-2.2 2.1q0 0.5 0.1 0.9 0.2 0.4 0.5 0.7 0.3 0.3 0.7 0.5 0.4 0.1 0.9 0.1 0.4 0 0.8-0.1 0.4-0.2 0.7-0.5 0.3-0.3 0.5-0.7 0.1-0.4 0.1-0.9 0-0.4-0.1-0.8-0.2-0.4-0.5-0.7-0.3-0.3-0.7-0.5-0.4-0.1-0.8-0.1zm0 5.1c-1.2 0-2.1 0.9-2.1 2.1 0 1.1 0.9 2.1 2.1 2.1 1.1 0 2.1-1 2.1-2.1 0-1.2-1-2.1-2.1-2.1zm5.1-5.4q-0.5 0-1 0.2-0.4 0.2-0.8 0.5-0.3 0.4-0.5 0.8-0.2 0.5-0.2 0.9c0 1.3 1.1 2.5 2.5 2.5 1.3 0 2.4-1.1 2.4-2.5-0.1-1.4-1.1-2.4-2.4-2.4zm-15.1-4.3c-0.9 0-1.6 0.7-1.6 1.6 0 0.9 0.7 1.7 1.6 1.7 0.9 0 1.6-0.8 1.6-1.7 0-0.9-0.7-1.6-1.6-1.6zm0 5c-1 0-1.7 0.8-1.7 1.7 0 1 0.7 1.7 1.7 1.7 1 0 1.7-0.7 1.7-1.7 0-0.9-0.8-1.7-1.7-1.7zm0 5.1c-0.9 0-1.7 0.8-1.7 1.7 0 0.9 0.8 1.6 1.7 1.6 0.9 0 1.6-0.7 1.6-1.6 0-0.9-0.7-1.7-1.6-1.7zm-5.1-4.8c-0.8 0-1.4 0.6-1.4 1.4 0 0.8 0.6 1.5 1.4 1.5 0.8 0 1.5-0.7 1.5-1.5 0-0.8-0.7-1.4-1.5-1.4z"/></svg>