<svg version="1.2" xmlns="http://www.w3.org/2000/svg" viewBox="0 0 24 24" width="24" height="24"><style></style><path  d="m12 0c-1.6 0-3.1 0.3-4.6 0.9-1.4 0.6-2.8 1.5-3.9 2.6-1.1 1.1-2 2.4-2.6 3.9-0.6 1.5-0.9 3-0.9 4.6 0 1.6 0.3 3.1 0.9 4.6 0.6 1.4 1.5 2.7 2.6 3.9 1.1 1.1 2.5 2 3.9 2.6 1.5 0.6 3 0.9 4.6 0.9 1.6 0 3.1-0.3 4.6-0.9 1.4-0.6 2.8-1.5 3.9-2.6 1.1-1.2 2-2.5 2.6-3.9 0.6-1.5 0.9-3 0.9-4.6 0-1.6-0.3-3.1-0.9-4.6-0.6-1.5-1.5-2.8-2.6-3.9-1.1-1.1-2.5-2-3.9-2.6-1.5-0.6-3-0.9-4.6-0.9zm-3 5.8l9.1 5.6-9.1 6.8z"/></svg>