<svg version="1.2" xmlns="http://www.w3.org/2000/svg" viewBox="0 0 24 24" width="24" height="24"><style></style><path d="m -230.492,1061.056 h -0.84 c -0.048,0 -0.072,0.048 -0.072,0.072 v 1.828 h -0.84 v -1.828 c 0,-0.048 -0.048,-0.072 -0.072,-0.072 h -0.84 c -0.048,0 -0.072,0.048 -0.072,0.072 v 4.692 c 0,0.048 0.048,0.072 0.072,0.072 h 0.84 c 0.048,0 0.072,-0.048 0.072,-0.072 v -1.876 h 0.84 v 1.876 c 0,0.048 0.048,0.072 0.072,0.072 h 0.84 c 0.048,0 0.072,-0.048 0.072,-0.072 v -4.692 c 0,-0.024 -0.024,-0.072 -0.072,-0.072 m -7.08,0 h -0.84 c -0.048,0 -0.072,0.024 -0.072,0.072 v 3.324 c 0,0.168 -0.048,0.288 -0.12,0.384 -0.072,0.096 -0.168,0.12 -0.288,0.12 -0.116,0 -0.216,-0.048 -0.288,-0.12 -0.072,-0.096 -0.12,-0.216 -0.12,-0.384 v -3.324 c 0,-0.048 -0.048,-0.072 -0.072,-0.072 h -0.84 c -0.048,0 -0.072,0.024 -0.072,0.072 v 3.348 c 0,0.432 0.096,0.84 0.36,1.108 0.264,0.264 0.624,0.408 1.036,0.408 0.432,0 0.796,-0.144 1.036,-0.408 0.264,-0.264 0.36,-0.648 0.36,-1.108 v -3.348 c -0.004,-0.024 -0.028,-0.072 -0.08,-0.072 m -8.232,-0.072 c -0.432,0 -0.796,0.144 -1.036,0.408 -0.264,0.264 -0.36,0.648 -0.36,1.108 v 2 c 0,0.432 0.096,0.84 0.36,1.108 0.264,0.264 0.624,0.408 1.036,0.408 0.432,0 0.796,-0.144 1.036,-0.408 0.264,-0.264 0.36,-0.648 0.36,-1.108 v -1.104 c 0,-0.048 -0.048,-0.096 -0.096,-0.096 h -1.228 c -0.048,0 -0.096,0.048 -0.096,0.096 v 0.82 c 0,0.048 0.048,0.096 0.096,0.096 h 0.316 v 0.192 c 0,0.168 -0.048,0.316 -0.12,0.408 -0.072,0.096 -0.168,0.12 -0.288,0.12 -0.116,0 -0.216,-0.048 -0.288,-0.12 -0.072,-0.096 -0.12,-0.24 -0.12,-0.408 v -1.976 c 0,-0.168 0.048,-0.316 0.12,-0.408 0.072,-0.096 0.168,-0.12 0.288,-0.12 0.116,0 0.216,0.048 0.288,0.12 0.072,0.096 0.12,0.24 0.12,0.408 v 0.192 c 0,0.048 0.048,0.072 0.072,0.072 h 0.84 c 0.048,0 0.072,-0.024 0.072,-0.072 v -0.192 c 0,-0.432 -0.096,-0.84 -0.36,-1.108 -0.216,-0.292 -0.604,-0.436 -1.012,-0.436 m 10.832,3.828 c -0.072,0.096 -0.168,0.12 -0.316,0.12 h -0.48 v -1.016 h 0.48 c 0.12,0 0.216,0.048 0.288,0.12 0.072,0.096 0.12,0.216 0.12,0.36 0.008,0.2 -0.016,0.316 -0.092,0.416 z m -0.796,-2.768 h 0.432 c 0.12,0 0.216,0.024 0.288,0.12 0.072,0.072 0.096,0.192 0.096,0.34 0,0.148 -0.024,0.264 -0.096,0.36 -0.072,0.072 -0.168,0.12 -0.264,0.12 h -0.432 v -0.94 z m 1.396,1.372 c 0.144,-0.144 0.408,-0.48 0.408,-0.916 0,-0.508 -0.192,-0.82 -0.34,-0.988 -0.264,-0.288 -0.624,-0.432 -1.036,-0.432 h -1.316 c -0.048,0 -0.072,0.048 -0.072,0.072 v 4.696 c 0,0.048 0.048,0.072 0.072,0.072 h 1.396 c 0.432,0 0.84,-0.168 1.108,-0.508 0.144,-0.192 0.316,-0.508 0.316,-0.988 -0.028,-0.576 -0.388,-0.916 -0.536,-1.008 z m -7.652,-0.46 c -0.072,0.096 -0.192,0.144 -0.34,0.144 h -0.408 v -1.056 h 0.408 c 0.144,0 0.264,0.048 0.34,0.144 0.096,0.096 0.12,0.216 0.12,0.384 0,0.168 -0.02,0.288 -0.12,0.384 z m 0.532,0.868 c 0.096,-0.072 0.168,-0.12 0.24,-0.216 0.168,-0.192 0.384,-0.532 0.384,-1.06 0,-0.508 -0.192,-0.84 -0.384,-1.036 -0.24,-0.288 -0.6,-0.432 -1.012,-0.456 h -1.396 c -0.048,0 -0.072,0.048 -0.072,0.072 v 4.692 c 0,0.048 0.048,0.072 0.072,0.072 h 0.84 c 0.048,0 0.072,-0.048 0.072,-0.072 v -1.736 h 0.288 l 0.532,1.78 c 0,0.024 0.048,0.048 0.072,0.048 h 0.888 c 0.024,0 0.048,-0.024 0.072,-0.024 0.024,0 0.024,-0.048 0.024,-0.072 z m 17.136,0.988 c -0.072,0.096 -0.168,0.12 -0.316,0.12 h -0.48 v -1.016 h 0.48 c 0.12,0 0.216,0.048 0.288,0.12 0.072,0.096 0.12,0.216 0.12,0.36 0.028,0.2 -0.016,0.316 -0.092,0.416 z m -0.772,-2.768 h 0.432 c 0.12,0 0.216,0.024 0.288,0.12 0.072,0.072 0.096,0.192 0.096,0.34 0,0.148 -0.024,0.264 -0.096,0.36 -0.072,0.072 -0.168,0.12 -0.264,0.12 h -0.432 v -0.94 z m 1.396,1.372 c 0.144,-0.144 0.408,-0.48 0.408,-0.916 0,-0.508 -0.192,-0.82 -0.34,-0.988 -0.264,-0.288 -0.624,-0.432 -1.036,-0.432 h -1.328 c -0.048,0 -0.072,0.048 -0.072,0.072 v 4.696 c 0,0.048 0.048,0.072 0.072,0.072 h 1.404 c 0.432,0 0.84,-0.168 1.108,-0.508 0.144,-0.192 0.316,-0.508 0.316,-0.988 -0.048,-0.576 -0.408,-0.916 -0.532,-1.008 z m -3.224,-2.36 h -0.84 c -0.048,0 -0.072,0.024 -0.072,0.072 v 3.324 c 0,0.168 -0.048,0.288 -0.12,0.384 -0.072,0.096 -0.168,0.12 -0.288,0.12 -0.116,0 -0.216,-0.048 -0.288,-0.12 -0.072,-0.096 -0.12,-0.216 -0.12,-0.384 v -3.324 c 0,-0.048 -0.048,-0.072 -0.072,-0.072 h -0.844 c -0.048,0 -0.072,0.024 -0.072,0.072 v 3.348 c 0,0.432 0.096,0.84 0.36,1.108 0.264,0.264 0.624,0.408 1.036,0.408 0.432,0 0.796,-0.144 1.036,-0.408 0.264,-0.264 0.36,-0.648 0.36,-1.108 v -3.348 c 0.024,-0.024 -0.024,-0.072 -0.076,-0.072"/></svg>
