<svg version="1.2" xmlns="http://www.w3.org/2000/svg" viewBox="0 0 24 24" width="24" height="24"><style></style><path  d="m22.9 10.6l-9.8-9.9q-0.3-0.2-0.5-0.3-0.3-0.1-0.6-0.1-0.3 0-0.6 0.1-0.2 0.1-0.5 0.3l-9.8 9.9c-0.6 0.6-1.1 1.8-1.1 2.6v9c0 0.8 0.7 1.5 1.5 1.5h9.2l-4-4.1q-0.1 0.1-0.2 0.1-0.1 0-0.2 0 0 0-0.1 0-0.1 0-0.2 0c-1.1 0-2-0.9-2-2 0-1.1 0.9-2.1 2-2.1 1.1 0 2.1 1 2.1 2.1q-0.1 0.3-0.2 0.7l3.2 3.1v-11.6q-0.3-0.1-0.5-0.3-0.2-0.2-0.3-0.4-0.2-0.3-0.3-0.5 0-0.3 0-0.6c0-1.1 0.9-2.1 2-2.1 1.1 0 2.1 1 2.1 2.1q-0.1 0.3-0.1 0.6-0.1 0.2-0.3 0.5-0.1 0.2-0.3 0.4-0.2 0.2-0.5 0.3v8.2l3.1-3.2q-0.1-0.5 0-0.9 0.1-0.5 0.3-0.9 0.3-0.4 0.8-0.6 0.4-0.3 0.9-0.3c1.1 0 2.1 1 2.1 2.1 0 1.1-1 2-2.1 2q-0.1 0-0.2 0-0.1 0-0.2 0 0 0-0.1 0-0.1-0.1-0.2-0.1l-4.4 4.4v3.1h9.6c0.8 0 1.5-0.7 1.5-1.5v-9c0-0.8-0.5-2-1.1-2.6z"/></svg>