<svg version="1.2" xmlns="http://www.w3.org/2000/svg" viewBox="0 0 24 24" width="24" height="24"><style></style><path  d="m19.1 1.2c-2.7 0-4.1 2-4.4 2.8 0-1.2-1.2-2.6-2.6-2.7l-4.5 0.1v9.6h4.2c1.7 0 2.9-1.5 2.9-2.7 0.3 0.8 1.7 2.8 4.4 2.8 2.7 0 4.9-2.3 4.9-5 0-2.8-2.2-4.9-4.9-4.9zm-19.1 0.2v9.6h2.7v-3.7h1.7v3.7h2.6v-9.6h-2.6v3.6h-1.7v-3.6zm10.1 2.1h1.3c0.4 0 0.7 0.4 0.7 0.8 0 0.4-0.3 0.8-0.7 0.8h-1.3zm9 0.2c1.3 0 2.5 1.1 2.5 2.5 0 1.3-1.2 2.4-2.5 2.4-1.4 0-2.5-1.1-2.5-2.4 0-1.4 1.1-2.5 2.5-2.5zm-0.3 1c-0.7 0.1-1.2 0.7-1.2 1.5 0 0.8 0.7 1.5 1.5 1.5 0.8 0 1.5-0.7 1.5-1.5 0-0.9-0.7-1.5-1.5-1.5q-0.2-0.1-0.3 0zm-4.6 0.8c-0.1 0.3-0.1 1.1 0 1.4-0.2-0.3-0.7-0.7-1-0.7 0.3-0.1 0.8-0.4 1-0.7zm-4.1 1.7h1.3c0.4 0 0.7 0.4 0.7 0.8 0 0.4-0.3 0.8-0.7 0.8h-1.3zm-2.9 6c-2.7 0-4.8 2.1-4.8 4.8 0 2.7 2.1 4.9 4.8 4.9 2.4 0 4.3-1.6 4.8-3.8 0.5 2.2 2.4 3.8 4.8 3.8 2.7 0 4.8-2.2 4.8-4.9 0-2.7-2.1-4.8-4.8-4.8-2.6 0-4.6 1.9-4.9 4.3h-5.1v1.9h2.7c-0.6 1.7-2.3 1.4-2.3 1.4-1.3 0-2-1.1-2-1.1-1.1-2 0-3.4 0-3.4 0.6-0.9 1.9-1 1.9-1 1.7 0 2.2 1.2 2.2 1.2h2.6c-0.7-2-2.5-3.3-4.7-3.3zm9.6 2.4c1.3 0 2.4 1.1 2.4 2.5 0 1.3-1.1 2.4-2.4 2.4-1.4 0-2.5-1.1-2.5-2.4 0-1.4 1.1-2.5 2.5-2.5zm0 0.9c-0.9 0-1.5 0.7-1.5 1.5 0 0.9 0.6 1.5 1.5 1.5 0.8 0 1.5-0.6 1.5-1.5 0-0.8-0.7-1.5-1.5-1.5z"/></svg>