<svg version="1.2" xmlns="http://www.w3.org/2000/svg" viewBox="0 0 24 24" width="24" height="24"><style></style><path  d="m2 0c-0.8 0.2-1.4 0.8-1.6 1.8 0 0.1 0 20.1 0 22.1 0 0.2 0 0.2 0.9-0.6 0.5-0.4 1.3-1.1 1.8-1.5 0.4-0.3 0.6-0.6 0.6-0.6 0.1 0 0.1-1.1 0.1-2.5v-2.3h1.5c0.8 0 1.5 0 1.5 0 0 0 0 0.5 0 1.1 0 0.6 0 1.1 0.1 1.1 0 0 0.6-0.5 0.7-0.6 0 0 0.4-0.3 0.8-0.7 1-0.7 0.9-0.7 1.4-1.1 0.3-0.3 0.3-0.3 0.4-0.2 0.1 0 2.9 2.4 3.6 3q0.5 0.4 1 0.8 0.5 0.4 1 0.8 0.5 0.5 1 0.9 0.5 0.4 0.9 0.8c0 0 2.1 1.7 2.1 1.7 0 0 0.1-3.3 0.1-7.4 0-6.6 0-7.3 0-7.4 0.1 0 0.9 0 1.9 0h1.8v-3.7c0-2.1 0-3.9 0-3.9-0.2-0.5-0.6-1-0.9-1.3-0.5-0.3 0.1-0.3-10.6-0.3-5.4 0-10 0-10.1 0z"/></svg>