<svg version="1.2" xmlns="http://www.w3.org/2000/svg" viewBox="0 0 24 24" width="24" height="24"><style></style><path  d="m1.2 10v1.2h0.7v-1.2h1.3v3h-1.3v-1.5h-0.7v1.5h-1.2v-3zm21.4 0v3h-0.9v-3zm1.4 0v3h-0.9v-3zm-19.2 3.2c-0.7 0-1.3-0.6-1.3-1.2 0-0.7 0.6-1.2 1.3-1.2 0.8 0 1.4 0.5 1.4 1.2 0 0.6-0.6 1.2-1.4 1.2zm7.4-1.2q0 0.1 0 0.2h-1.7v0.3c0 0.2 0.1 0.4 0.3 0.4 0.4 0 0.7-0.2 0.9-0.4l0.3 0.1c-0.2 0.3-0.7 0.6-1.2 0.6-0.7 0-1.4-0.6-1.4-1.2 0-0.7 0.7-1.2 1.4-1.2 0.8 0 1.4 0.5 1.4 1.2zm9.2 0q0 0.1 0 0.2h-1.7v0.3c0 0.2 0.1 0.4 0.3 0.4 0.4 0 0.7-0.2 0.9-0.4l0.3 0.1c-0.2 0.3-0.7 0.6-1.2 0.6-0.8 0-1.4-0.6-1.4-1.2 0-0.7 0.6-1.2 1.4-1.2 0.8 0 1.4 0.5 1.4 1.2zm-12.2-0.3v1.3h-1v-1.4c0-0.2-0.2-0.3-0.3-0.3-0.2 0-0.4 0.2-0.4 0.5v1.2h-1v-2.1h1l0.1 0.2c0.2-0.2 0.5-0.3 0.8-0.2 0.4 0 0.8 0.3 0.8 0.8zm4-0.8l0.7 1.1 0.5-1.1h1.3l0.5 1.3 0.4-1.3h0.7l0.5 1.2 0.4-1.2h0.4l-0.8 2.1h-0.7l-0.4-1.2-0.4 1.2h-0.8l-0.8-2.1-1.1 2.5c0 0.2-0.2 0.5-0.7 0.6-0.5 0-0.7-0.3-0.7-0.5 0-0.2 0.2-0.4 0.4-0.4 0.2 0 0.4 0.2 0.4 0.4 0 0.1 0.2 0.1 0.2 0l0.2-0.4-1.3-2.2zm-8.7 0.5v1.1c0 0.2 0.1 0.4 0.3 0.4 0.2 0 0.3-0.2 0.3-0.4v-1.1c0-0.1-0.1-0.3-0.3-0.3-0.2 0-0.3 0.2-0.3 0.3zm5.9 0v0.5h0.7v-0.5c0-0.1-0.1-0.3-0.3-0.3-0.2 0-0.4 0.2-0.4 0.3zm9.2 0v0.5h0.7v-0.5c0-0.1-0.1-0.3-0.3-0.3-0.2 0-0.4 0.2-0.4 0.3z"/></svg>