<svg version="1.2" xmlns="http://www.w3.org/2000/svg" viewBox="0 0 24 24" width="24" height="24"><style></style><path  d="m23.8 14.5l-2.3-10c-0.1-0.5-0.6-1.1-1.2-1.2l-10.4-3.2q-0.2-0.1-0.5-0.1c-0.4 0-0.9 0.2-1.2 0.4l-7.5 7c-0.4 0.4-0.6 1.1-0.5 1.6l2.5 10.7c0.1 0.5 0.6 1.1 1.1 1.2l9.8 3q0.2 0.1 0.5 0.1c0.4 0 0.9-0.2 1.2-0.4l8-7.5c0.4-0.4 0.6-1.1 0.5-1.6zm-12.8-12.1l7.1 2.2c0.3 0.1 0.3 0.2 0 0.3l-3.7 0.9c-0.3 0.1-0.7-0.1-0.9-0.3l-2.6-2.8c-0.3-0.3-0.2-0.4 0.1-0.3zm4.4 12.9c0.1 0.3-0.1 0.4-0.4 0.4l-7.7-2.4c-0.3-0.1-0.3-0.4-0.1-0.6l5.9-5.5c0.2-0.2 0.4-0.1 0.5 0.2zm-12.8-7l6.3-5.9c0.3-0.2 0.6-0.2 0.8 0l3.1 3.4c0.3 0.3 0.2 0.6 0 0.8l-6.3 5.8c-0.2 0.3-0.5 0.2-0.7 0l-3.2-3.4q-0.1-0.1-0.1-0.2 0-0.1 0-0.2 0-0.1 0-0.2 0.1-0.1 0.1-0.1zm1.6 9.2l-1.7-7.3c-0.1-0.2 0.1-0.3 0.3-0.1l2.6 2.8c0.2 0.3 0.3 0.7 0.2 1l-1.2 3.6c0 0.3-0.2 0.3-0.2 0zm9.2 4.3l-8.2-2.5q-0.1 0-0.2-0.1-0.1-0.1-0.2-0.2 0-0.1 0-0.2 0-0.1 0-0.2l1.4-4.4q0-0.1 0.1-0.2 0.1-0.1 0.1-0.1 0.1-0.1 0.2-0.1 0.2 0 0.3 0l8.2 2.5c0.3 0.1 0.4 0.4 0.3 0.7l-1.3 4.4q-0.1 0.1-0.1 0.2-0.1 0.1-0.2 0.2-0.1 0-0.2 0-0.1 0-0.2 0zm7.3-6l-5.5 5.1c-0.2 0.2-0.3 0.2-0.3-0.1l1.2-3.7c0.1-0.3 0.4-0.6 0.7-0.6l3.7-0.9c0.3-0.1 0.4 0 0.2 0.2zm0.6-1.1l-4.6 1.1q-0.1 0-0.2 0-0.1 0-0.2-0.1-0.1 0-0.1-0.1-0.1-0.1-0.1-0.2l-1.9-8.4q-0.1-0.1 0-0.2 0-0.1 0-0.2 0.1-0.1 0.2-0.1 0.1-0.1 0.2-0.1l4.5-1.1q0.1 0 0.2 0 0.1 0 0.2 0.1 0.1 0 0.1 0.1 0.1 0.1 0.1 0.2l2 8.4c0 0.3-0.1 0.6-0.4 0.6z"/></svg>