<svg version="1.2" xmlns="http://www.w3.org/2000/svg" viewBox="0 0 24 24" width="24" height="24"><style></style><path d="m0 9.9v0.7h0.9v-0.7zm1.5 0v4.2h0.9v-1.4h0.6q0.6 0 0.9-0.2 0.4-0.2 0.6-0.5 0.2-0.3 0.2-0.7 0-0.7-0.4-1.1-0.5-0.3-1.3-0.3zm3.8 0v4.2h2.9v-0.8h-2v-3.4zm5 0q-0.5 1-0.9 2-0.4 1.1-0.8 2.2h1q0.1-0.5 0.3-0.9h1.7q0.2 0.4 0.3 0.9h1q-0.4-1.1-0.8-2.1-0.4-1.1-0.8-2.1zm2 0l1.6 2.8v1.4h0.9v-1.4l1.6-2.8h-1l-1 2.1-1.1-2.1zm4.5 0v4.2h3v-0.8h-2.1v-1h1.8v-0.8h-1.8v-0.9h2v-0.7zm3.6 0v4.2h0.9v-1.5h0.7q0.5 0.7 0.9 1.5h1.1q-0.3-0.4-0.5-0.9-0.3-0.4-0.6-0.8 0.4-0.2 0.6-0.5 0.2-0.3 0.2-0.7 0-0.6-0.5-1-0.4-0.3-1.2-0.3zm-18 0.7h0.5q0.4 0 0.6 0.1 0.3 0.2 0.3 0.6 0 0.3-0.3 0.5-0.2 0.1-0.6 0.1h-0.5zm18.9 0h0.6q0.4 0 0.6 0.2 0.2 0.1 0.2 0.5 0 0.3-0.2 0.5-0.2 0.1-0.6 0.1h-0.6zm-10.6 0.2q0.1 0.4 0.3 0.8 0.2 0.4 0.3 0.8h-1.2q0.3-0.8 0.6-1.6zm-10.7 0.4v2.9h0.8v-2.9z"/></svg>