<svg version="1.2" xmlns="http://www.w3.org/2000/svg" viewBox="0 0 24 24" width="24" height="24"><style></style><path  d="m11.8 7c0 0-0.1 0-0.3 0.1-0.2 0-0.3 0-0.3 0q-0.1 0-0.2 0c-0.3 0.1-0.9 0.3-1.2 0.4-0.2 0.1-0.6 0.4-0.6 0.4q0 0-0.2 0.1c0 0.1-0.1 0.1-0.2 0.2-0.1 0.1-0.2 0.1-0.2 0.2-0.3 0.2-0.6 0.6-0.8 0.9-0.2 0.3-0.4 0.9-0.5 1.1 0 0.1-0.1 0.3-0.1 0.3q0 0 0 0.1 0 0 0 0.1c0 0-0.1 0.2-0.1 0.2 0 0.1 0 0.2 0 0.2 0 0.1 0 0.3 0 0.6 0 0.4 0 0.8 0.1 1.1q0 0.1 0 0.2c0 0 0 0.2 0.1 0.3l0.1 0.2-3.5 3.5c-1.9 1.8-3.5 3.5-3.5 3.5-0.1 0.1-0.1 0.2-0.1 0.2q0 0.1-0.1 0.1c0 0-0.1 0.2-0.1 0.3q0 0 0 0c-0.1 0.2-0.1 0.7-0.1 1 0.1 0.2 0.2 0.6 0.3 0.6q0 0.1 0 0.1c0.1 0.2 0.4 0.5 0.6 0.6q0.5 0.4 1.2 0.4c0.4 0 0.6-0.1 1-0.3 0.2-0.1 0.5-0.3 3.7-3.6l3.5-3.5 0.1 0.1c0.1 0 0.2 0.1 0.3 0.1q0.1 0 0.1 0c0.5 0.1 0.7 0.1 1.2 0.1 0.5 0 0.7 0 1.1-0.1 0.3 0 0.8-0.2 0.9-0.3q0.1 0 0.1 0c0.1 0 0.8-0.5 0.9-0.5 0 0 0.1-0.1 0.1-0.2 0.5-0.3 0.9-0.8 1.2-1.3 0.2-0.3 0.4-0.8 0.4-1q0.1-0.1 0.1-0.1c0-0.1 0.1-0.5 0.1-0.7 0-0.2 0.1-0.3 0.1-0.7 0-0.3-0.1-0.8-0.1-0.8q0 0 0-0.2c-0.1-0.5-0.6-0.7-1-0.5q-0.1 0.1-1 0.9c-0.4 0.5-0.9 0.9-1 1-0.4 0.3-1 0.4-1.5 0.3-0.2-0.1-0.3-0.1-0.3-0.1q0-0.1-0.1-0.1c-0.1-0.1-0.4-0.3-0.5-0.5-0.3-0.5-0.4-1.1-0.1-1.7 0.1-0.2 0.3-0.3 1.1-1.2 0.5-0.5 1-1 1-1 0.1-0.1 0.1-0.2 0.1-0.3q0-0.3-0.3-0.5c-0.1-0.1-0.5-0.2-0.9-0.3-0.2 0-0.6 0-0.6 0zm-1-6.9q-0.6 0.2-0.8 0.8c0 0.1-0.1 0.2-0.1 0.7 0 0.5 0 0.7 0 0.7q0 0 0 0-0.1 0-0.2 0c-0.1 0.1-0.2 0.1-0.3 0.1q0 0-0.1 0-0.1 0.1-0.1 0.1 0 0-0.1 0c0 0-0.2 0-0.3 0.1-0.2 0-0.3 0.1-0.3 0.1q-0.1 0-0.1 0c0 0-0.2 0.1-0.4 0.2q-0.1 0-0.1 0 0 0 0 0c0 0.1-0.3 0.2-0.4 0.2 0 0-0.1 0.1-0.3 0.2-0.2 0.1-0.3 0.2-0.3 0.2q-0.1 0-0.1 0c0 0-0.1 0.1-0.2 0.1 0 0-0.2-0.2-0.5-0.4-0.4-0.4-0.5-0.5-0.8-0.6-0.3-0.1-0.8 0-1 0.2-0.2 0.1-1.5 1.4-1.5 1.5-0.2 0.3-0.3 0.8-0.1 1.1q0 0.1 0 0.1 0 0.1 0.6 0.7c0.2 0.2 0.4 0.4 0.4 0.4q0 0-0.1 0.2c-0.1 0-0.1 0.1-0.1 0.2q-0.1 0-0.1 0 0 0.1-0.1 0.1 0 0.1 0 0.2c0 0-0.3 0.5-0.3 0.5q0 0.1-0.1 0.2c-0.1 0.3-0.3 0.8-0.3 0.9q0 0.1-0.1 0.1c0 0.1-0.1 0.6-0.2 0.8q0 0.1 0 0.1c0 0-0.3 0-0.7 0-0.3 0-0.7 0.1-0.7 0.1-0.4 0.1-0.8 0.5-0.9 0.9 0 0.1 0 0.6 0 1.2 0 0.9 0 1 0.1 1.2q0.2 0.5 0.7 0.7c0.2 0 0.3 0.1 0.9 0.1h0.6v0.1c0.1 0.1 0.1 0.2 0.1 0.3q0 0 0 0.1 0 0 0.1 0.1c0 0.2 0.3 1.1 0.4 1.1 0 0 0.6-0.6 1.3-1.3l1.3-1.3v-0.1c-0.1-0.4-0.1-1.4-0.1-1.8 0.1-0.2 0.1-0.3 0.1-0.3 0-0.4 0.3-1.2 0.4-1.6 0.3-0.5 0.5-1 0.8-1.3 0-0.1 0.1-0.1 0.1-0.2 0.3-0.4 0.8-0.9 1.3-1.2 0.3-0.3 1-0.7 1.4-0.8 0.4-0.2 0.5-0.2 0.5-0.2 0.1 0 0.1-0.1 0.2-0.1 0.1 0 0.3-0.1 0.4-0.1q0.1 0 0.1 0 0.1 0 0.2 0 0.1 0 0.1-0.1c0.4 0 1.2 0 1.6 0 1 0.1 1.9 0.4 2.7 0.9 0.2 0 0.3 0.1 0.3 0.1 0 0 0.1 0.1 0.1 0.1q0.2 0.1 0.2 0.2 0 0 0 0c0.1 0 0.3 0.2 0.6 0.4 0.1 0.1 0.2 0.2 0.5 0.5 0.1 0.2 0.4 0.6 0.6 0.9 0.3 0.4 0.7 1.4 0.8 1.8 0 0 0 0.1 0 0.2 0.1 0 0.1 0.1 0.1 0.2 0 0 0 0.1 0 0.2 0 0.1 0.1 0.3 0.1 0.5 0 0.2 0 1 0 1.2-0.1 0.6-0.1 0.7-0.3 1.3-0.1 0.4-0.4 1-0.6 1.4 0 0.1-0.1 0.2-0.1 0.2q-0.1 0.1-0.1 0.1c0 0 0 0.1-0.1 0.2-0.1 0.2-0.6 0.7-0.7 0.9-0.3 0.2-0.6 0.5-0.8 0.6-0.5 0.4-0.9 0.6-1.4 0.8-0.2 0.1-0.7 0.3-0.8 0.3-0.8 0.2-1.1 0.2-1.7 0.2-0.5 0-1 0-1.2-0.1 0 0-0.3 0.3-1.3 1.3-0.7 0.7-1.3 1.3-1.3 1.3 0 0 0 0.1 0.1 0.1 0.1 0 0.2 0.1 0.2 0.1 0.1 0 0.2 0.1 0.4 0.1 0.2 0.1 0.4 0.1 0.5 0.2 0 0 0.1 0 0.2 0 0.4 0.1 0.3 0 0.3 0.8 0 0.4 0.1 0.6 0.1 0.7q0 0 0 0 0 0.1 0.1 0.2c0.1 0.2 0.3 0.5 0.4 0.5q0 0 0 0 0 0 0.1 0.1c0.1 0 0.2 0 0.2 0 0 0.1 0.4 0.1 1.2 0.1 1 0 1.1 0 1.3-0.1 0.1 0 0.2-0.1 0.2-0.1q0 0 0 0c0.1 0 0.4-0.3 0.4-0.5 0.2-0.2 0.2-0.3 0.2-1 0-0.3 0-0.6 0-0.6q0 0 0.1 0c0.4-0.1 1.3-0.4 1.7-0.6 0.2-0.1 0.3-0.1 0.3-0.1q0 0 0 0c0 0 0.1-0.1 0.3-0.2 0.1 0 0.3-0.1 0.3-0.1q0 0 0.1-0.1c0 0 0.1 0 0.2-0.1 0.3-0.2 0.3-0.2 0.8 0.3 0.4 0.4 0.6 0.5 0.8 0.6 0.3 0.1 0.6 0 0.9-0.1 0.2-0.1 1.5-1.4 1.6-1.6 0.3-0.4 0.3-0.9 0.1-1.3 0 0-0.3-0.3-0.5-0.6l-0.5-0.4 0.1-0.1q0.1-0.2 0.2-0.4 0.1-0.1 0.1-0.2c0.1 0 0.4-0.6 0.4-0.7 0 0 0-0.1 0.1-0.2 0-0.1 0-0.2 0.1-0.2 0-0.2 0.2-0.7 0.2-0.9 0.1-0.2 0.2-0.5 0.2-0.6 0 0 0.1 0 0.6 0 0.7 0 0.8-0.1 1-0.2 0.1 0 0.2-0.1 0.4-0.2 0-0.1 0.2-0.4 0.2-0.4 0 0 0-0.1 0.1-0.2 0-0.2 0-2.1 0-2.3-0.2-0.4-0.5-0.8-0.9-0.8-0.1 0-0.4-0.1-0.7-0.1-0.7 0-0.7 0-0.7-0.2-0.1-0.1-0.1-0.3-0.1-0.4-0.1-0.2-0.1-0.3-0.1-0.3q0-0.1 0-0.1-0.1 0-0.1 0 0 0 0-0.1c0 0 0-0.1-0.1-0.2 0-0.1 0-0.2-0.1-0.2q0-0.1 0-0.2c0-0.1-0.5-1-0.7-1.3l-0.2-0.3 0.5-0.5q0.4-0.4 0.5-0.6c0.2-0.5 0.2-1-0.2-1.4-0.4-0.4-1.3-1.3-1.4-1.4-0.3-0.2-0.8-0.2-1.1-0.1q-0.1 0.1-0.2 0.1c0 0-0.2 0.2-0.6 0.6-0.2 0.2-0.4 0.3-0.4 0.3q-0.1 0-0.1 0-0.1-0.1-0.1-0.1 0 0 0 0c-0.1 0-0.6-0.3-1-0.5-0.2-0.1-0.8-0.4-0.9-0.4q0 0 0 0c-0.1 0-0.2 0-0.3-0.1-0.1 0-0.3-0.1-0.4-0.1-0.1 0-0.3-0.1-0.4-0.1h-0.1v-0.7-0.7l-0.1-0.2c-0.1-0.2-0.4-0.5-0.5-0.5q-0.1 0-0.1-0.1c0 0-0.1 0-0.2 0-0.1-0.1-0.3-0.1-1.2-0.1-1 0-1.1 0-1.2 0.1z"/></svg>