<svg version="1.2" xmlns="http://www.w3.org/2000/svg" viewBox="0 0 24 24" width="24" height="24"><style></style><path  d="m 11.99772,0.00439477 c -2.23838,-0.0677 -3.62412,0.66201 -3.70203,0.84532 -0.0891,0.22039003 0.061,1.59907003 0.0422,1.57562003 -3.80288,0.35637 -5.94584,2.12412 -5.94584,2.12412 L 1.2901,23.962425 l 3.18861,0.0376 c 0,0 0.91434,-11.13671 0.90027,-11.17422 0.41265,-0.27666 0.78781,0.0376 0.78781,0.0376 l 0.11723,4.37023 2.16634,0.35635 -0.0375,0.78781 -2.08666,-0.43136 c 0,0 0.0281,3.3199 0,3.30583 1.51928,0.98941 5.23771,1.2613 5.23771,1.2613 L 11.36701,1.6798448 c 0,0 -1.67406,0.075 -1.88975,-0.0798 -0.21102,-0.15005 -0.18284,-0.63772003 0.0375,-0.75026003 0.42303,-0.21151 1.36125,-0.34662 2.32579,-0.3504 v 0.003 c 0.0523,-0.001 0.10468,-0.002 0.15707,-0.003 0.0524,5.8e-4 0.10476,0.002 0.15707,0.003 v -0.003 c 0.96454,0.004 1.90285,0.13889 2.32587,0.3504 0.22039,0.11254 0.24845,0.60021003 0.0421,0.75026003 -0.2157,0.15474 -1.88966,0.0798 -1.88966,0.0798 L 12.436,22.513565 c 0,0 3.71853,-0.27189 5.23781,-1.2613 -0.0281,0.0141 0,-3.30583 0,-3.30583 l -2.08666,0.43136 -0.0376,-0.78781 2.16643,-0.35635 0.11723,-4.37023 c 0,0 0.37507,-0.31421 0.78772,-0.0376 -0.0141,0.0375 0.90036,11.17422 0.90036,11.17422 l 3.18861,-0.0376 -1.10195,-19.4129702 c 0,0 -2.14296,-1.76775 -5.94584,-2.12412 -0.0188,0.0235 0.13133,-1.35523 0.0376,-1.57562003 -0.0779,-0.18331 -1.46374,-0.91302 -3.70212,-0.84532 z"/></svg>
