<svg version="1.2" xmlns="http://www.w3.org/2000/svg" viewBox="0 0 24 24" width="24" height="24"><style></style><path class="a" d="m12 0.3c-1.5 0-3.1 0.3-4.5 0.9-1.4 0.6-2.7 1.4-3.8 2.5-1.1 1.1-1.9 2.4-2.5 3.8-0.6 1.4-0.9 3-0.9 4.5 0 1.5 0.3 3.1 0.9 4.5 0.6 1.4 1.4 2.7 2.5 3.8 1.1 1.1 2.4 1.9 3.8 2.5 1.4 0.6 3 0.9 4.5 0.9 1.5 0 3.1-0.3 4.5-0.9 1.4-0.6 2.7-1.4 3.8-2.5 1.1-1.1 1.9-2.4 2.5-3.8 0.6-1.4 0.9-3 0.9-4.5 0-1.5-0.3-3.1-0.9-4.5-0.6-1.4-1.4-2.7-2.5-3.8-1.1-1.1-2.4-1.9-3.8-2.5-1.4-0.6-3-0.9-4.5-0.9zm-1.7 4.6h3.5c0.4 0 0.6 0.3 0.6 0.6v9.3l-2.2-2.2-2.6 2.5v-9.6c0-0.3 0.3-0.6 0.7-0.6zm6 4.7h3.6q0.2 0 0.4 0.1l-4.6 4.7v-4.2c0-0.3 0.3-0.6 0.6-0.6zm-12.2 0h3.6c0.3 0 0.6 0.3 0.6 0.7v6.1l-1.2 1.2-1.2-1.2-2.3 2.3q-0.1-0.1-0.1-0.3v-8.1c0-0.4 0.3-0.7 0.6-0.7zm16.3 0.4q0.1 0.1 0.1 0.2v8.2c0 0.3-0.3 0.6-0.6 0.6h-3.6c-0.3 0-0.6-0.3-0.6-0.6v-3.6zm-8.3 3l2.3 2.2v3.2c0 0.4-0.3 0.7-0.7 0.7h-3.5c-0.3 0-0.6-0.3-0.6-0.7v-2.9zm-3.9 3.8v1.6c0 0.4-0.3 0.7-0.6 0.7h-3.5q-0.3-0.1-0.5-0.2l2.2-2.1 1.2 1.2z"/></svg>