<svg version="1.2" xmlns="http://www.w3.org/2000/svg" viewBox="0 0 24 24" width="24" height="24"><style></style><path d="m12 1.1q-0.1 0-0.1 0-0.1 0-0.2 0 0 0.1-0.1 0.1-0.1 0-0.1 0.1l-9.1 6.3q-0.1 0-0.2 0.1-0.1 0.1-0.1 0.2-0.1 0.1-0.1 0.3 0 0.1 0 0.2v8.6c-1.2 0.4-2 1.5-2 2.8 0 1.7 1.4 3 3 3 1.7 0 3-1.3 3-3 0-1.3-0.8-2.4-1.9-2.8v-8l8-5.6 6.2 4.4q0 0.3 0 0.6c0 1.2 0.7 2.3 1.8 2.7v9.3h-9.7v-7h4.2v4.5h2.1v-5.5q0-0.3-0.1-0.4-0.1-0.2-0.2-0.4-0.2-0.1-0.4-0.2-0.2-0.1-0.4-0.1h-6.3q-0.2 0-0.4 0.1-0.2 0.1-0.3 0.2-0.2 0.2-0.2 0.4-0.1 0.1-0.1 0.4v9q0 0.2 0.1 0.4 0 0.2 0.2 0.3 0.1 0.2 0.3 0.3 0.2 0.1 0.4 0.1h11.8q0.2 0 0.4-0.1 0.2-0.1 0.4-0.3 0.1-0.1 0.2-0.3 0.1-0.2 0.1-0.4v-10.3c1-0.4 1.8-1.5 1.8-2.7 0-1.6-1.3-2.8-2.9-2.8-0.6 0-1.1 0.1-1.6 0.5l-6.8-4.8q-0.1-0.1-0.2-0.1-0.1-0.1-0.1-0.1-0.1 0-0.2 0-0.1 0-0.2 0zm9.1 6.2c0.6 0 1.1 0.5 1.1 1.1 0 0.6-0.5 1.1-1.1 1.1-0.6 0-1-0.5-1-1.1 0-0.6 0.4-1.1 1-1.1zm-18.1 11.6c0.5 0 0.9 0.4 0.9 0.9 0 0.6-0.4 1-0.9 1-0.5 0-0.9-0.4-0.9-1 0-0.5 0.4-0.9 0.9-0.9z"/></svg>