<svg version="1.2" xmlns="http://www.w3.org/2000/svg" viewBox="0 0 24 24" width="24" height="24"><style></style><path d="M 23.895837,2.4068977 A 1.575853,1.575853 0 0 0 23.100414,2.6862426 L 4.6825804,15.50297 A 1.575853,1.575853 0 0 0 4.0055237,16.795534 V 34.664147 C 1.7001267,35.351032 -1.2120733e-7,37.502373 0,40.019049 c 0,3.063299 2.5188677,5.577431 5.5821661,5.577431 3.0632991,10e-7 5.5774309,-2.514132 5.5774309,-5.577431 0,-2.517465 -1.6948586,-4.66872 -4.0007883,-5.354902 V 17.619365 L 24,5.9010779 37.124482,15.029504 c -0.187131,0.555415 -0.284079,1.150671 -0.284079,1.76603 0,2.517464 1.69486,4.664554 4.000788,5.350167 V 41.647773 H 19.970803 v -15.75222 h 9.658709 v 11.817716 1.571908 h 3.153286 V 37.713269 24.318911 A 1.575853,1.575853 0 0 0 31.206155,22.747003 H 18.394161 a 1.575853,1.575853 0 0 0 -1.576642,1.571908 v 18.905504 a 1.575853,1.575853 0 0 0 1.576642,1.571908 h 24.023672 a 1.575853,1.575853 0 0 0 1.576644,-1.571908 V 22.145701 C 46.299873,21.459386 48,19.312209 48,16.795534 c 0,-3.063297 -2.518867,-5.582165 -5.582167,-5.582165 -1.312441,0 -2.523184,0.466291 -3.479975,1.235745 L 24.899586,2.6862426 A 1.575853,1.575853 0 0 0 23.895837,2.4068977 Z M 42.417833,14.366652 c 1.360163,0 2.428883,1.068722 2.428883,2.428882 0,1.323079 -1.012924,2.37276 -2.319985,2.428881 h -0.217794 c -1.30706,-0.05612 -2.319985,-1.105802 -2.319985,-2.428881 0,-1.36016 1.068722,-2.428882 2.428881,-2.428882 z M 5.5821661,37.590168 c 1.3601605,0 2.4288817,1.06872 2.4288817,2.428881 0,1.36016 -1.0687212,2.428882 -2.4288817,2.428882 -1.3601605,0 -2.4288815,-1.068722 -2.4288815,-2.428882 0,-1.360161 1.068721,-2.428881 2.4288815,-2.428881 z"/></svg>
