<svg version="1.2" xmlns="http://www.w3.org/2000/svg" viewBox="0 0 24 24" width="24" height="24"><style></style><path  d="m0.2 12.8v-1.9h0.5 0.6v1.5 1.6h0.7 0.7v0.4 0.4h-1.2-1.3zm3 0.5v-1.4h0.4 0.5v1.4 1.4h-0.5-0.4zm1.8 0v-1.4h0.4 0.4l1 0.8c0.5 0.4 0.9 0.7 0.9 0.7 0 0 0-0.3 0-0.7v-0.8h0.5 0.5v1.4 1.4h-0.5-0.5l-0.9-0.8-1-0.8v0.8 0.8h-0.4-0.4zm4.5 0v-1.4h0.6 0.5v0.6c0 0.4 0 0.6 0 0.6 0 0 0.3-0.2 0.6-0.6l0.5-0.6h0.6 0.6l-0.1 0.1c0 0-0.2 0.2-0.3 0.3-0.1 0.1-0.3 0.3-0.4 0.4-0.1 0.1-0.3 0.3-0.4 0.4l-0.2 0.2h0.1c0 0 0.3 0.4 0.7 0.7 0.3 0.3 0.6 0.6 0.7 0.7h-0.6-0.6-0.1c0 0-0.2-0.2-0.3-0.4-0.2-0.2-0.5-0.4-0.6-0.5-0.1-0.1-0.2-0.2-0.2-0.2 0 0 0 0.2 0 0.6v0.5h-0.5-0.6zm4.7-0.1v-1.6h-0.6-0.6v-0.4-0.4h1.7 1.7v0.4 0.4h-0.6-0.6v1.6 1.5h-0.5-0.5zm2.9 0.3c0.4-0.7 0.7-1.4 0.8-1.4v-0.1h0.6 0.5l0.7 1.4c0.4 0.7 0.8 1.4 0.8 1.4 0 0-0.1 0-0.5 0h-0.6l-0.1-0.3-0.2-0.4h-0.7-0.6l-0.2 0.4-0.2 0.3h-0.5-0.5zm1.5 0.3q0.2-0.1 0.3-0.3c0-0.2-0.1-0.6-0.3-0.8-0.1-0.2-0.2-0.2-0.3-0.1q-0.1 0.1-0.2 0.4-0.2 0.4 0.1 0.7 0.2 0.2 0.4 0.1zm2.3-0.4v-1.4h1.1c1.3 0 1.3 0 1.5 0.1q0.3 0.1 0.4 0.3c0 0.1 0.1 0.2 0.1 0.6 0 0.5-0.1 0.5-0.1 0.7-0.1 0.1-0.3 0.2-0.4 0.3-0.2 0.1-0.3 0.1-0.9 0.1h-0.7v0.4 0.3h-0.5-0.5zm1.9-0.1q0.2 0 0.3-0.1c0-0.1 0-0.3 0-0.4q-0.1-0.1-0.2-0.1c-0.1 0-0.2 0-0.5 0-0.2 0-0.4 0-0.4 0h-0.1v0.3 0.4h0.3c0.2 0 0.3 0 0.4 0 0.1 0 0.2 0 0.2-0.1zm-19.3-1.6q-0.2-0.1-0.3-0.2c0-0.1 0-0.2 0-0.3q0 0 0 0 0-0.1 0.1-0.1 0.1-0.1 0.1-0.1 0 0 0 0 0-0.1 0.2-0.1c0.2 0 0.4 0.1 0.4 0.3 0 0.1 0 0.2 0 0.3 0 0.1-0.1 0.1-0.2 0.2-0.1 0-0.2 0-0.3 0zm-0.8-0.7q-0.2 0-0.2-0.2c0 0 0 0 0.1-0.1 0.4-0.6 1.4-0.7 1.9-0.2q0.2 0.2 0.2 0.3c0 0.2-0.2 0.3-0.3 0.2q-0.1 0-0.2-0.1-0.2-0.2-0.5-0.3-0.4 0-0.7 0.3-0.2 0.2-0.3 0.1zm-0.7-0.4q-0.1-0.1-0.1-0.3c0-0.1 0.3-0.4 0.5-0.5 0.3-0.2 0.6-0.4 1-0.4 0.4 0 0.8 0 1.1 0.2 0.1 0 0.2 0.1 0.3 0.1 0.1 0.1 0.4 0.4 0.5 0.5 0 0.1 0 0.1 0 0.2 0 0.1-0.1 0.2-0.2 0.2-0.1 0-0.2 0-0.3-0.1q-0.5-0.6-1.3-0.6-0.3 0-0.5 0.1-0.4 0.2-0.6 0.5-0.1 0-0.1 0.1c-0.1 0-0.2 0-0.3 0z"/></svg>