<svg version="1.2" xmlns="http://www.w3.org/2000/svg" viewBox="0 0 24 24" width="24" height="24"><style></style><path d="m16.6 0.9c1.4 0.6 2.8 1.5 3.9 2.6 1.1 1.1 2 2.4 2.6 3.9 0.6 1.5 0.9 3 0.9 4.6 0 1.6-0.3 3.1-0.9 4.6-0.6 1.4-1.5 2.8-2.6 3.9-1.1 1.1-2.5 2-3.9 2.6-1.5 0.6-3 0.9-4.6 0.9-1.6 0-3.1-0.3-4.6-0.9-1.5-0.6-2.8-1.5-3.9-2.6-1.1-1.1-2-2.5-2.6-3.9-0.6-1.5-0.9-3-0.9-4.6 0-1.6 0.3-3.1 0.9-4.6 0.6-1.5 1.5-2.8 2.6-3.9 1.1-1.1 2.4-2 3.9-2.6 1.5-0.6 3-0.9 4.6-0.9 1.6 0 3.1 0.3 4.6 0.9zm-11.4 10.4c0 0-0.6 0.7-0.9 1.6-0.3 1-0.2 2.5 1.1 3.8 1.3 1.3 2.7 1.4 3.7 1.1 1-0.3 1.6-1 1.6-1l6-5.9-1-1.1-6 6q0 0 0 0 0 0 0 0 0 0 0 0 0 0 0 0c0 0-0.4 0.4-1 0.6-0.6 0.2-1.3 0.2-2.3-0.8-0.9-0.9-0.9-1.7-0.7-2.3 0.2-0.5 0.5-0.9 0.5-0.9q0 0 0.1 0 0 0 0 0 0 0 0 0 0 0 0 0l5.9-6-1-1zm9.6-5.2c-1 0.3-1.6 1-1.6 1l-5.9 6 1 1 5.9-6q0 0 0 0 0 0 0 0 0 0 0 0 0 0 0 0c0 0 0.4-0.4 1-0.6 0.6-0.2 1.3-0.2 2.3 0.8 1 0.9 0.9 1.7 0.8 2.3-0.2 0.5-0.6 0.9-0.6 0.9q0 0 0 0 0 0 0 0 0 0 0 0 0 0 0 0l-5.9 6 1 1.1 5.9-6c0 0 0.7-0.7 1-1.6 0.2-1 0.1-2.5-1.2-3.8-0.9-0.9-2-1.2-2.9-1.2q-0.4 0-0.8 0.1z"/></svg>