<svg version="1.2" xmlns="http://www.w3.org/2000/svg" viewBox="0 0 24 24" width="24" height="24"><style></style><path  d="m24 5.1q0 0.3-0.1 0.5-0.1 0.3-0.3 0.5-0.2 0.1-0.4 0.2-0.3 0.1-0.6 0.1-0.2 0-0.5-0.1-0.2-0.1-0.4-0.2-0.2-0.2-0.3-0.5-0.1-0.2-0.1-0.5 0-0.3 0.1-0.5 0.1-0.3 0.3-0.5 0.2-0.1 0.4-0.3 0.3-0.1 0.5-0.1 0.3 0 0.6 0.1 0.2 0.2 0.4 0.3 0.2 0.2 0.3 0.5 0.1 0.2 0.1 0.5zm-7.5 13.2q-0.4 0-0.8-0.2-0.5-0.1-0.8-0.5-0.3-0.3-0.5-0.7-0.2-0.4-0.2-0.9h-2c0 2.4 1.9 4.3 4.3 4.3 2.4 0 4.4-1.9 4.4-4.3h-2c-0.1 1.3-1.1 2.3-2.4 2.3zm5.2-2.8h1.9v-8.1h-1.9zm-21.7 0h2v-11.5h-2zm7.1-8.4c-2.4 0-4.3 1.9-4.3 4.3q0 0.9 0.3 1.7 0.4 0.7 1 1.4 0.6 0.6 1.4 0.9 0.8 0.3 1.6 0.3c2.4 0 4.3-1.9 4.3-4.3 0-2.4-1.8-4.3-4.3-4.3zm0 6.7c-1.3 0-2.3-1-2.3-2.4q0-0.5 0.2-0.9 0.2-0.4 0.5-0.8 0.3-0.3 0.7-0.5 0.5-0.1 0.9-0.1 0.5 0 0.9 0.1 0.5 0.2 0.8 0.5 0.3 0.4 0.5 0.8 0.2 0.4 0.2 0.9c0 1.3-1 2.4-2.4 2.4zm13.7-4.8v-1.6h-2.9c-0.4-0.2-0.9-0.3-1.4-0.3-2.4 0-4.3 1.9-4.3 4.3 0 2.5 1.9 4.3 4.3 4.3 2.4 0 4.3-1.9 4.3-4.3 0-0.8-0.2-1.6-0.7-2.2zm-4.2 4.8c-1.3 0-2.3-1-2.3-2.3q0-0.5 0.2-0.9 0.1-0.5 0.5-0.8 0.3-0.3 0.7-0.5 0.5-0.2 0.9-0.2 0.5 0 0.9 0.2 0.4 0.2 0.8 0.5 0.3 0.3 0.5 0.8 0.1 0.4 0.1 0.9c0 1.3-1 2.3-2.3 2.3z"/></svg>