<svg version="1.2" xmlns="http://www.w3.org/2000/svg" viewBox="0 0 24 24" width="24" height="24"><style></style><path  d="m23.2 4.4c-0.7 0.3-0.8 0.3-1.7 0.4-0.7 0-0.8 0-1.2 0.2-0.8 0.2-1.4 0.7-2 1.6-0.3 0.4-1.3 1.9-1.3 2 0 0-0.6 1-0.9 1.3-0.6 0.7-1.1 1.1-2.2 1.6-0.7 0.3-1.2 0.5-4.1 1.5-1 0.3-2.1 0.7-2.3 0.8-0.9 0.5-1.5 1.1-2.2 2-1 1.3-1 1.3-3.1 0.9q-0.1 0-0.1 0-0.1 0-0.2 0-0.1 0-0.2 0-0.1-0.1-0.1-0.1c-0.7 0-1.1 0.1-1.4 0.4l-0.2 0.2 0.2 0.1c0.1 0 0.3 0.2 0.5 0.4 0.3 0.1 0.5 0.3 0.6 0.4 0.1 0 0.2 0.1 0.2 0.1 0 0-0.1 0.1-0.3 0.3-0.4 0.6-0.5 0.9-0.5 1.1 0 0.1 0 0.1 0.4 0.1 0.5 0 0.8 0 1.3-0.2 0.6-0.2 2-0.9 2.7-1.4 0.8-0.5 1.8-1 2-1 0.1 0 0.4-0.1 0.6-0.1 0.6-0.1 1.5-0.1 2.6 0 0.1 0 0.4 0.1 0.6 0.1 0.2 0 0.4 0 0.4 0.1 0.1 0 0.5 0 1 0 1 0.1 1.1 0 1.3-0.2 0.2-0.1 0.4-0.6 0.5-0.9 0.2-0.7 0.4-1 0.4-0.5-0.1 0.9-0.3 1.7-0.7 2.4-0.3 0.5-0.7 1.1-0.9 1.4-0.4 0.3-0.4 0.3 0 0.3 0.7-0.1 1.5-0.4 2.1-0.8 0.9-0.6 1.7-1.7 2.2-3.1 0.1-0.2 0.2-0.2 0.2 0.1 0 0.1 0 0.3 0 0.5l-0.1 0.3 0.4-0.2c0.8-0.4 1.4-1.2 2.1-2.8 0.2-0.6 0.9-3 1.1-4q0-0.2 0-0.3 0.1-0.1 0.1-0.2 0-0.2 0.1-0.3 0-0.1 0-0.3c0.2-0.4 0.2-0.5 0.5-0.8 0.2-0.2 0.6-0.6 1-0.8 0.7-0.5 1-0.8 1.2-1.2 0.2-0.5 0.3-1.2 0.1-1.4-0.1-0.2-0.3-0.2-0.7 0z"/></svg>