<svg version="1.2" xmlns="http://www.w3.org/2000/svg" viewBox="0 0 24 24" width="24" height="24"><style></style><path  d="m9.6 6.3c-1.6 0-2.8 1.2-2.8 2.7 0 1.5 1.2 2.8 2.8 2.8h4.1c1.5 0 2.8-1.3 2.8-2.8 0-1.5-1.3-2.7-2.8-2.7zm0 1.1h4.1c1 0 1.7 0.7 1.7 1.6 0 0.9-0.7 1.7-1.7 1.7h-4.1c-0.9 0-1.6-0.8-1.6-1.7 0-0.9 0.7-1.6 1.6-1.6zm4.1 1.1c-0.3 0-0.6 0.2-0.6 0.5 0 0.3 0.3 0.6 0.6 0.6 0.3 0 0.6-0.3 0.6-0.6 0-0.3-0.3-0.5-0.6-0.5zm-4.1 0c-0.3 0-0.6 0.2-0.6 0.5 0 0.4 0.3 0.6 0.6 0.6 0.3 0 0.6-0.2 0.6-0.6 0-0.3-0.3-0.5-0.6-0.5zm7.2 4.2v2.7 0.2c0 1.1 0.7 1.8 1.7 1.8 0.4 0 0.8-0.1 1.1-0.4 0.3-0.3 0.5-0.8 0.5-1.2 0-0.5-0.2-0.9-0.5-1.2-0.3-0.3-0.7-0.5-1.1-0.5q-0.6 0-1 0.3v-1.7zm-11.5 0.1c-0.2 0-0.4 0.2-0.4 0.5 0 0.2 0.2 0.4 0.4 0.4 0.3 0 0.5-0.2 0.5-0.4 0-0.3-0.2-0.5-0.5-0.5zm15.7 0c-0.3 0-0.4 0.2-0.4 0.5 0 0.2 0.1 0.4 0.4 0.4 0.2 0 0.4-0.2 0.4-0.4 0-0.3-0.2-0.5-0.4-0.5zm1.3 0.7v0.7h-0.3v0.7h0.3v0.8c0 1.1 0.4 1.5 1.4 1.7h0.1v-0.6h-0.1c-0.5-0.1-0.7-0.4-0.7-1v-0.9h0.8v-0.7h-0.8v-0.7zm-20.9 0.6c-0.7 0-1.2 0.6-1.2 1.4v1.9h0.7v-1.9c0-0.4 0.2-0.7 0.5-0.7 0.3 0 0.6 0.2 0.6 0.7v1.9h0.6v-1.9c0-0.4 0.3-0.7 0.6-0.7 0.3 0 0.6 0.3 0.6 0.7v1.9h0.6 0.1v-1.9c0-0.8-0.5-1.4-1.3-1.4q-0.5 0-0.9 0.4-0.4-0.4-0.9-0.4zm14.3 0c-0.3 0-0.5 0.2-0.5 0.5 0 0.2 0.2 0.4 0.5 0.4 0.2 0 0.5-0.2 0.4-0.4 0-0.3-0.2-0.5-0.4-0.5zm-7.9 0c-0.4 0-0.8 0.2-1.1 0.5q-0.5 0.5-0.5 1.2c0 0.4 0.2 0.9 0.5 1.2 0.3 0.3 0.7 0.4 1.1 0.4q0.6 0 1.2-0.4l0.1-0.1-0.5-0.5-0.1 0.1c-0.2 0.2-0.4 0.3-0.7 0.3-0.5 0-1-0.5-1-1 0-0.6 0.5-1 1-1q0.4 0 0.7 0.3l0.1 0.1 0.5-0.5-0.1-0.1q-0.5-0.5-1.2-0.5zm5.2 0c-0.5 0-0.9 0.2-1.2 0.5-0.3 0.3-0.5 0.7-0.5 1.2 0 0.4 0.2 0.8 0.5 1.2 0.3 0.3 0.7 0.4 1.2 0.4 0.4 0 0.8-0.1 1.1-0.4 0.3-0.3 0.5-0.8 0.5-1.2 0-0.5-0.2-0.9-0.5-1.2-0.3-0.3-0.7-0.5-1.1-0.5zm-1.9 0.1h-0.1c-1 0.1-1.5 0.6-1.5 1.6v1.6h0.7v-1.7c0-0.6 0.2-0.8 0.8-0.9h0.1zm-6.1 0v3.2h0.7v-3.2zm15.6 0v3.2h0.7v-3.2zm-7.7 0.6c0.5 0 0.9 0.5 0.9 1 0 0.6-0.4 1-0.9 1-0.5 0-0.9-0.4-0.9-1 0-0.5 0.4-1 0.9-1zm5.4 0c0.6 0 1 0.5 1 1.1 0 0.5-0.4 0.9-1 0.9-0.5 0-0.9-0.4-0.9-0.9 0-0.6 0.4-1.1 0.9-1.1zm-2.7 1.7c-0.3 0-0.5 0.2-0.5 0.5 0 0.2 0.2 0.4 0.5 0.4 0.3 0 0.5-0.2 0.5-0.4 0-0.3-0.2-0.5-0.5-0.5z"/></svg>