<svg version="1.2" xmlns="http://www.w3.org/2000/svg" viewBox="0 0 24 24" width="24" height="24"><style></style><path  d="m16.7 9.6v2.7 0.2c0 1.1 0.7 1.8 1.7 1.8 0.4 0 0.8-0.1 1.1-0.4 0.4-0.4 0.5-0.8 0.5-1.2 0-0.5-0.1-0.9-0.5-1.2-0.3-0.3-0.7-0.5-1.1-0.5q-0.6 0-1 0.3v-1.7zm-11.5 0.1c-0.3 0-0.5 0.2-0.5 0.4 0 0.3 0.2 0.5 0.5 0.5 0.2 0 0.4-0.2 0.4-0.5 0-0.2-0.2-0.4-0.4-0.4zm15.7 0c-0.2 0-0.4 0.2-0.4 0.4 0 0.3 0.2 0.5 0.4 0.5 0.3 0 0.5-0.2 0.5-0.5 0-0.2-0.2-0.4-0.5-0.4zm1.4 0.7v0.7h-0.3v0.7h0.3v0.7c0 1.1 0.4 1.6 1.4 1.8h0.1v-0.6l-0.1-0.1c-0.5 0-0.7-0.3-0.7-0.9v-0.9h0.8v-0.7h-0.8v-0.7zm-21.1 0.6c-0.7 0-1.2 0.6-1.2 1.4v1.9h0.6v-1.9c0-0.5 0.3-0.8 0.6-0.8 0.3 0 0.6 0.3 0.6 0.8v1.9h0.6v-1.9c0-0.5 0.3-0.8 0.6-0.8 0.3 0 0.6 0.3 0.6 0.8v1.9h0.7v-1.9c0-0.8-0.5-1.4-1.3-1.4q-0.5 0-0.9 0.4-0.4-0.4-0.9-0.4zm14.4 0c-0.3 0-0.5 0.2-0.5 0.5 0 0.2 0.2 0.4 0.5 0.4 0.2 0 0.5-0.2 0.5-0.4 0-0.3-0.3-0.5-0.5-0.5zm-7.9 0c-0.5 0-0.9 0.2-1.2 0.5q-0.5 0.5-0.5 1.2c0 0.4 0.2 0.8 0.5 1.2 0.3 0.3 0.7 0.4 1.2 0.4q0.6 0 1.1-0.4l0.1-0.2-0.5-0.4-0.1 0.1c-0.2 0.2-0.4 0.3-0.6 0.3-0.6 0-1-0.5-1-1 0-0.6 0.4-1 1-1q0.3 0 0.6 0.3h0.1l0.5-0.4-0.1-0.1q-0.4-0.5-1.1-0.5zm5.1 0c-0.4 0-0.8 0.2-1.1 0.5-0.3 0.3-0.5 0.7-0.5 1.2 0 0.4 0.2 0.8 0.5 1.2 0.3 0.3 0.7 0.4 1.1 0.4 0.5 0 0.9-0.1 1.2-0.4 0.3-0.4 0.5-0.8 0.5-1.2 0-0.5-0.2-0.9-0.5-1.2-0.3-0.3-0.7-0.5-1.2-0.5zm-1.8 0h-0.2c-1 0.1-1.4 0.6-1.4 1.7v1.6h0.7v-1.7c0-0.6 0.2-0.8 0.7-0.9h0.2zm-6.2 0v3.2h0.7v-3.2zm15.8 0v3.2h0.6v-3.2zm-7.7 0.6c0.5 0 0.9 0.5 0.9 1 0 0.6-0.4 1-0.9 1-0.5 0-1-0.4-1-1 0-0.5 0.5-1 1-1zm5.5 0c0.5 0 1 0.5 1 1 0 0.6-0.5 1-1 1-0.6 0-1-0.4-1-1 0-0.5 0.4-1 1-1zm-2.8 1.7c-0.2 0-0.4 0.2-0.4 0.5 0 0.2 0.2 0.4 0.4 0.4 0.3 0 0.5-0.2 0.5-0.4 0-0.3-0.2-0.5-0.5-0.5z"/></svg>