<svg version="1.2" xmlns="http://www.w3.org/2000/svg" viewBox="0 0 24 24" width="24" height="24"><style></style><path  d="m1.9 2.3c-1 0-1.9 0.9-1.9 1.9v15.5c0 1 0.9 1.9 1.9 1.9h0.7q0.2 0 0.3-0.2 0.1-0.2 0.4-0.2 0.2-0.1 0.4 0.1 0.2 0 0.2 0.1 0.1 0.2 0.3 0.2h2.7q0.2 0 0.3-0.2c0.2-0.2 0.6-0.3 0.8-0.1q0.2 0 0.2 0.1 0.1 0.2 0.3 0.2h2.7q0.2 0 0.3-0.2c0.2-0.2 0.6-0.3 0.9-0.1q0.1 0 0.1 0.1 0.1 0.2 0.3 0.2h2.7q0.2 0 0.3-0.2c0.2-0.2 0.6-0.3 0.9-0.1q0.1 0 0.1 0.1 0.1 0.2 0.3 0.2h2.7q0.2 0 0.3-0.2c0.2-0.2 0.6-0.3 0.9-0.1q0.1 0 0.1 0.1 0.1 0.2 0.3 0.2h0.7q0.1 0 0.3 0c0.9-0.2 1.6-0.9 1.6-1.9v-15.5c0-1-0.9-1.9-1.9-1.9zm4.6 0.7v2.9l3-2.9v1.3l1.4-1.3h11.2c0.6 0 1.2 0.5 1.2 1.2v15.5c0 0.7-0.6 1.3-1.2 1.3h-0.6q-0.1-0.2-0.2-0.3c-0.6-0.3-1.3-0.2-1.7 0.3h-2.4q-0.1-0.2-0.2-0.3c-0.6-0.3-1.3-0.2-1.7 0.3h-2.4q-0.1-0.2-0.2-0.3c-0.6-0.3-1.3-0.2-1.7 0.3h-2.4q-0.1-0.2-0.2-0.3c-0.6-0.3-1.3-0.2-1.7 0.2h-2.4q-0.1-0.1-0.3-0.2c-0.2-0.2-0.6-0.2-0.9-0.1q-0.4 0-0.7 0.3h-0.5c-0.7 0-1.3-0.5-1.3-1.2v-10.9zm4.6 1.5c-0.6 0-1.1 0.5-1.1 1.1 0 0.6 0.5 1.1 1.2 1.1h1.7c0.6 0 1.1-0.5 1.1-1.1 0-0.6-0.5-1.1-1.1-1.1h-1.7zm0 0.4h1.7 0.1c0.3 0 0.6 0.3 0.6 0.7 0 0.4-0.3 0.7-0.7 0.7h-1.7c-0.4-0.1-0.7-0.4-0.7-0.7 0-0.4 0.4-0.7 0.7-0.7zm0 0.5c-0.1 0-0.2 0.1-0.2 0.2 0 0.1 0.1 0.2 0.2 0.2 0.1 0 0.2-0.1 0.2-0.2 0-0.1-0.1-0.2-0.2-0.2zm1.7 0c-0.1 0-0.2 0.1-0.2 0.2 0 0.1 0.1 0.2 0.2 0.2 0.1 0 0.2-0.1 0.2-0.2 0-0.1-0.1-0.2-0.2-0.2zm-4.1 3c-0.1 0-0.2 0.2-0.2 0.3 0 0.1 0.1 0.2 0.2 0.2 0.1 0 0.2-0.1 0.2-0.2 0-0.1-0.1-0.3-0.2-0.3zm1.6 0c-0.1 0-0.2 0.2-0.2 0.3 0 0.1 0.1 0.2 0.2 0.2 0.2 0 0.3-0.1 0.3-0.2 0-0.1-0.1-0.3-0.3-0.3zm1.7 0c-0.2 0-0.3 0.2-0.3 0.3 0 0.1 0.1 0.2 0.3 0.2 0.1 0 0.2-0.1 0.2-0.2 0-0.1-0.1-0.3-0.2-0.3zm1.6 0c-0.1 0-0.2 0.2-0.2 0.3 0 0.1 0.1 0.2 0.2 0.2 0.1 0 0.3-0.1 0.3-0.2 0-0.1-0.2-0.3-0.3-0.3zm1.7 0c-0.2 0-0.3 0.2-0.3 0.3 0 0.1 0.1 0.2 0.3 0.2 0.1 0 0.2-0.1 0.2-0.2 0-0.1-0.1-0.3-0.2-0.3zm-6.6 1.7c-0.1 0-0.2 0.1-0.2 0.2 0 0.2 0.1 0.3 0.2 0.3 0.1 0 0.2-0.1 0.2-0.3 0-0.1-0.1-0.2-0.2-0.2zm1.6 0c-0.1 0-0.2 0.1-0.2 0.2 0 0.2 0.1 0.3 0.2 0.3 0.2 0 0.3-0.1 0.3-0.3 0-0.1-0.1-0.2-0.3-0.2zm1.7 0c-0.2 0-0.3 0.1-0.3 0.2 0 0.2 0.1 0.3 0.3 0.3 0.1 0 0.2-0.1 0.2-0.3 0-0.1-0.1-0.2-0.2-0.2zm1.6 0c-0.1 0-0.2 0.1-0.2 0.2 0 0.2 0.1 0.3 0.2 0.3 0.1 0 0.3-0.1 0.3-0.3 0-0.1-0.2-0.2-0.3-0.2zm1.7 0c-0.2 0-0.3 0.1-0.3 0.2 0 0.2 0.1 0.3 0.3 0.3 0.1 0 0.2-0.1 0.2-0.3 0-0.1-0.1-0.2-0.2-0.2zm4.2 0.4c-0.2 0-0.4 0.2-0.4 0.4v2.2c0 0.2 0.2 0.3 0.4 0.3h2.2q0 0 0.1 0c0.1 0 0.2-0.1 0.2-0.3v-2.2c0-0.2-0.1-0.4-0.3-0.4zm-17.2 0c-0.2 0-0.4 0.2-0.4 0.4v2.2c0 0.2 0.2 0.3 0.4 0.3h2.2q0 0 0.1 0c0.1 0 0.3-0.1 0.3-0.3v-2.2c0-0.2-0.2-0.4-0.4-0.4zm6.5 1.2c-0.2 0-0.3 0.1-0.3 0.3 0 0.1 0.1 0.2 0.3 0.2 0.1 0 0.2-0.1 0.2-0.2 0-0.2-0.1-0.3-0.2-0.3zm1.6 0c-0.1 0-0.2 0.1-0.2 0.3 0 0.1 0.1 0.2 0.2 0.2 0.1 0 0.2-0.1 0.2-0.2 0-0.2-0.1-0.3-0.2-0.3zm1.6 0c-0.1 0-0.2 0.1-0.2 0.3 0 0.1 0.1 0.2 0.2 0.2 0.2 0 0.3-0.1 0.3-0.2 0-0.2-0.1-0.3-0.3-0.3zm1.7 0c-0.1 0-0.2 0.1-0.2 0.3 0 0.1 0.1 0.2 0.2 0.2 0.1 0 0.2-0.1 0.2-0.2 0-0.2-0.1-0.3-0.2-0.3zm1.6 0c-0.1 0-0.2 0.1-0.2 0.3 0 0.1 0.1 0.2 0.2 0.2 0.2 0 0.3-0.1 0.3-0.2 0-0.2-0.1-0.3-0.3-0.3zm-6.5 1.7c-0.2 0-0.3 0.1-0.3 0.2 0 0.1 0.1 0.2 0.3 0.2 0.1 0 0.2-0.1 0.2-0.2 0-0.1-0.1-0.2-0.2-0.2zm1.6 0c-0.1 0-0.2 0.1-0.2 0.2 0 0.1 0.1 0.2 0.2 0.2 0.1 0 0.2-0.1 0.2-0.2 0-0.1-0.1-0.2-0.2-0.2zm1.6 0c-0.1 0-0.2 0.1-0.2 0.2 0 0.1 0.1 0.2 0.2 0.2 0.2 0 0.3-0.1 0.3-0.2 0-0.1-0.1-0.2-0.3-0.2zm1.7 0c-0.1 0-0.2 0.1-0.2 0.2 0 0.1 0.1 0.2 0.2 0.2 0.1 0 0.2-0.1 0.2-0.2 0-0.1-0.1-0.2-0.2-0.2zm1.6 0c-0.1 0-0.2 0.1-0.2 0.2 0 0.1 0.1 0.2 0.2 0.2 0.2 0 0.3-0.1 0.3-0.2 0-0.1-0.1-0.2-0.3-0.2zm-6.5 1.6c-0.2 0-0.3 0.1-0.3 0.3 0 0.1 0.1 0.2 0.3 0.2 0.1 0 0.2-0.1 0.2-0.2 0-0.2-0.1-0.3-0.2-0.3zm1.6 0c-0.1 0-0.2 0.1-0.2 0.3 0 0.1 0.1 0.2 0.2 0.2 0.1 0 0.2-0.1 0.2-0.2 0-0.2-0.1-0.3-0.2-0.3zm1.6 0c-0.1 0-0.2 0.1-0.2 0.3 0 0.1 0.1 0.2 0.2 0.2 0.2 0 0.3-0.1 0.3-0.2 0-0.2-0.1-0.3-0.3-0.3zm1.7 0c-0.1 0-0.2 0.1-0.2 0.3 0 0.1 0.1 0.2 0.2 0.2 0.1 0 0.2-0.1 0.2-0.2 0-0.2-0.1-0.3-0.2-0.3zm1.6 0c-0.1 0-0.2 0.1-0.2 0.3 0 0.1 0.1 0.2 0.2 0.2 0.2 0 0.3-0.1 0.3-0.2 0-0.2-0.1-0.3-0.3-0.3zm-3.3 2.3c-0.5 0-1 0.5-1 1 0 0.6 0.5 1.1 1 1.1q0.1 0 0.2 0 0.3-0.1 0.6-0.3 0.3-0.3 0.3-0.8c0-0.5-0.5-1-1.1-1zm4.4 0c-0.6 0-1.1 0.5-1.1 1q0 0.5 0.3 0.8 0.3 0.3 0.8 0.3 0 0 0.1 0 0.4-0.1 0.6-0.3 0.3-0.3 0.3-0.8c0-0.5-0.5-1-1-1zm4.3 0c-0.6 0-1.1 0.5-1.1 1q0 0.5 0.3 0.8 0.3 0.3 0.8 0.3 0 0 0.1 0 0.4-0.1 0.6-0.3 0.3-0.3 0.3-0.8c0-0.5-0.5-1-1-1zm-17.3 0c-0.5 0-1 0.5-1 1q0 0.5 0.3 0.8 0.3 0.3 0.7 0.3 0.1 0 0.2 0c0.5-0.1 0.9-0.5 0.9-1.1q0-0.4-0.3-0.7-0.3-0.3-0.8-0.3zm4.3 0c-0.5 0-1 0.5-1 1 0 0.6 0.5 1.1 1 1.1q0.1 0 0.2 0 0.3-0.1 0.6-0.3 0.3-0.3 0.3-0.8 0-0.4-0.3-0.7-0.3-0.3-0.8-0.3zm-4.3 0.2c0.5 0 0.8 0.4 0.8 0.8 0 0.5-0.3 0.8-0.8 0.8q-0.3 0-0.5-0.2-0.3-0.2-0.3-0.6c0-0.4 0.3-0.7 0.7-0.7q0.1-0.1 0.1-0.1zm13 0c0.4 0 0.7 0.4 0.7 0.8q0 0.4-0.2 0.6-0.2 0.2-0.5 0.2-0.4 0-0.6-0.2-0.2-0.2-0.2-0.6c0-0.4 0.3-0.7 0.6-0.7q0.1-0.1 0.2-0.1zm4.3 0c0.4 0 0.8 0.4 0.8 0.8q0 0.4-0.3 0.6-0.2 0.2-0.5 0.2-0.4 0-0.6-0.2-0.2-0.2-0.2-0.6c0-0.4 0.3-0.7 0.6-0.7q0.1-0.1 0.2-0.1zm-8.7 0c0.5 0 0.8 0.4 0.8 0.8q0 0.4-0.2 0.6-0.2 0.2-0.6 0.2c-0.4 0-0.7-0.3-0.7-0.8 0-0.4 0.3-0.7 0.6-0.7q0.1-0.1 0.1-0.1zm-4.3 0q0.4 0 0.6 0.3 0.2 0.2 0.2 0.5 0 0.4-0.2 0.6-0.2 0.2-0.6 0.2c-0.4 0-0.8-0.3-0.8-0.8 0-0.4 0.3-0.7 0.7-0.7q0.1-0.1 0.1-0.1z"/></svg>