<svg version="1.2" xmlns="http://www.w3.org/2000/svg" viewBox="0 0 24 24" width="24" height="24"><style></style><path d="M 3.1740957,0 C 1.4214682,8.78e-6 0,1.423268 0,3.1759043 0,4.9285406 1.4214594,6.3499912 3.1740957,6.3499912 4.9267408,6.35 6.35,4.9285406 6.35,3.1759043 6.35,1.423268 4.926732,0 3.1740957,0 Z m 0,0.16786678 c 1.6615914,0 3.007581,1.34644612 3.007581,3.00803752 8.8e-6,1.6615914 -1.3459896,3.0057636 -3.007581,3.0057636 -1.6615826,0 -3.00622014,-1.3441722 -3.00622014,-3.0057636 C 0.16788434,1.5143217 1.5125131,0.16786678 3.1740957,0.16786678 Z M 4.5143258,0.92827171 A 0.16362167,0.16362167 0 0 0 4.3509893,1.0920559 v 0.018604 L 3.8523758,1.1102035 c -0.099508,-7.03e-5 -0.1801934,0.080597 -0.1801231,0.1801231 v 0.498157 H 3.0375283 V 1.6269733 A 0.17157802,0.19905553 0 0 0 2.8660268,1.4277983 H 2.4667725 A 0.17157802,0.19905553 0 0 0 2.295271,1.6269733 V 1.7834967 L 1.7980183,1.7830402 C 1.6984573,1.78297 1.6177547,1.8634612 1.6179039,1.9627068 v 0.906946 0.1120721 H 1.3066568 V 2.8265535 A 0.17157802,0.19905553 0 0 0 1.1347075,2.6273785 H 0.7359097 a 0.17157802,0.19905553 0 0 0 -0.1719581,0.199175 v 0.6651282 a 0.17157802,0.19905553 0 0 0 0.1719581,0.199175 H 1.1347075 A 0.17157802,0.19905553 0 0 0 1.3066568,3.4916817 V 3.3451319 h 0.3112471 c -0.00269,0.042599 -0.00254,0.079561 0,0.1116156 v 0.906946 c -1.492e-4,0.099245 0.080553,0.1797368 0.1801144,0.1796666 L 2.295271,4.5429035 V 4.699427 A 0.17157802,0.19905553 0 0 0 2.4667725,4.898602 H 2.8660268 A 0.17157802,0.19905553 0 0 0 3.0375283,4.699427 V 4.5379167 h 0.6347244 v 0.498157 c -7.03e-5,0.099526 0.080615,0.1801934 0.1801231,0.1801231 l 0.4986135,-4.565e-4 v 0.018604 A 0.16362167,0.16362167 0 0 0 4.5143258,5.3981286 L 4.894976,5.3985852 A 0.16362167,0.16362167 0 0 0 5.0587691,5.2348009 V 4.687636 A 0.16362167,0.16362167 0 0 0 4.894976,4.5242995 H 4.5143258 A 0.16362167,0.16362167 0 0 0 4.3509893,4.687636 V 4.8455203 H 4.0315859 V 3.8655277 H 4.3509893 V 4.0324902 A 0.16362167,0.16362167 0 0 0 4.5143258,4.1962744 H 4.894976 A 0.16362167,0.16362167 0 0 0 5.0587691,4.0324902 V 3.4857818 A 0.16362167,0.16362167 0 0 0 4.894976,3.3219976 H 4.5143258 A 0.16362167,0.16362167 0 0 0 4.3509893,3.4857818 v 0.00953 H 3.8523758 C 3.7528498,3.4952375 3.6721824,3.5759224 3.6722527,3.6754309 V 4.1735878 H 3.0375283 V 4.0343076 A 0.17157802,0.19905553 0 0 0 2.8660268,3.8355891 H 2.4667725 A 0.17157802,0.19905553 0 0 0 2.295271,4.0343076 V 4.1740444 H 1.9772284 V 3.424535 2.9023218 2.1528124 H 2.295271 V 2.2925493 A 0.17157802,0.19905553 0 0 0 2.4667725,2.4912677 H 2.8660268 A 0.17157802,0.19905553 0 0 0 3.0375283,2.2925493 V 2.1532602 H 3.6722527 V 2.651426 c -7.03e-5,0.099508 0.080597,0.1801934 0.1801231,0.1801231 h 0.4986135 v 0.00953 A 0.16362167,0.16362167 0 0 0 4.5143258,3.0048593 H 4.894976 A 0.16362167,0.16362167 0 0 0 5.0587691,2.841075 V 2.2943666 A 0.16362167,0.16362167 0 0 0 4.894976,2.1305824 H 4.5143258 A 0.16362167,0.16362167 0 0 0 4.3509893,2.2943666 V 2.4613291 H 4.0315859 V 1.4813365 H 4.3509893 V 1.6392209 A 0.16362167,0.16362167 0 0 0 4.5143258,1.8025486 H 4.894976 A 0.16362167,0.16362167 0 0 0 5.0587691,1.6392209 V 1.0920559 A 0.16362167,0.16362167 0 0 0 4.894976,0.92827171 Z" /></svg>
