<svg version="1.2" xmlns="http://www.w3.org/2000/svg" viewBox="0 0 24 24" width="24" height="24"><style></style><path d="m 10.9394,0.73809125 c 0.5848,-0.58419 1.5394,-0.58419 2.1212,0 l 9.8788,9.88875975 c 0.5848,0.5842 1.0606,1.7374 1.0606,2.5638 v 9.011 l -5e-4,0.0356 c -0.0206,0.8086 -0.6881,1.4628 -1.4995,1.4628 h -21 c -0.82424,0 -1.5,-0.6781 -1.5,-1.5014 v -9.011 c 1e-5,-0.8264 0.47883,-1.9796 1.06064,-2.5638 z M 3.6,12.300051 c -0.44183,0 -0.8,0.3581 -0.8,0.8 v 7.8 h 1.6 v -7.8 c 0,-0.4419 -0.35817,-0.8 -0.8,-0.8 z m 3.2,0 c -0.44183,0 -0.8,0.3581 -0.8,0.8 v 7.8 h 1.6 v -7.8 c 0,-0.4419 -0.35817,-0.8 -0.8,-0.8 z m 3.2,0 c -0.44183,0 -0.8,0.3581 -0.8,0.8 v 7.8 h 1.6 v -7.8 c 0,-0.4419 -0.3582,-0.8 -0.8,-0.8 z m 5.8393,0.0426 c -0.4193,-0.1395 -0.8722,0.0873 -1.0118,0.5065 l -2.6796,8.0509 h 1.6863 l 2.5114,-7.5457 c 0.1395,-0.4192 -0.0872,-0.8721 -0.5063,-1.0117 z m 3.0315,0.5065 c -0.1395,-0.4192 -0.5925,-0.646 -1.0117,-0.5065 -0.4192,0.1396 -0.646,0.5925 -0.5065,1.0117 l 2.5116,7.5457 h 1.6862 z"/></svg>
