<svg version="1.2" xmlns="http://www.w3.org/2000/svg" viewBox="0 0 24 24" width="24" height="24"><style></style><path  d="m1.5 0q-0.3 0-0.6 0.1-0.2 0.1-0.4 0.3-0.2 0.2-0.4 0.5-0.1 0.3-0.1 0.6v21q0 0.3 0.1 0.6 0.2 0.3 0.4 0.5 0.2 0.2 0.4 0.3 0.3 0.1 0.6 0.1h21q0.3 0 0.6-0.1 0.3-0.1 0.5-0.3 0.2-0.3 0.3-0.6 0.2-0.3 0.2-0.6v-20.9q0-0.3-0.2-0.5-0.1-0.3-0.3-0.5-0.2-0.3-0.5-0.4-0.3-0.1-0.6-0.1zm1 6.8h1.3v11.3h-1.3zm2.7 0.1h1.3v11.3h-1.3zm2.7 0h1.3v11.4h-1.3zm6.3 0h1.3l-4.2 11.3h-1.3zm2 0h1.3l4.3 11.3h-1.3z"/></svg>