<svg version="1.2" xmlns="http://www.w3.org/2000/svg" viewBox="0 0 24 24" width="24" height="24"><style></style><path d="M 12,0 A 12,12 0 0 0 0,12 12,12 0 0 0 3.487032,20.457657 L 11.985937,11.985938 8.818125,8.818125 A 4.4999998,4.4999998 0 0 1 12,7.5 4.4999998,4.4999998 0 0 1 15.181875,8.818125 L 12,12 20.485312,20.485313 A 12,12 0 0 0 24,12 12,12 0 0 0 12,0 Z m 0,0.36 a 11.64,11.64 0 0 1 8.230781,3.409219 L 17.727656,6.272344 A 8.0999998,8.0999998 0 0 0 12,3.9 8.0999998,8.0999998 0 0 0 6.272344,6.272344 L 3.769219,3.769219 A 11.64,11.64 0 0 1 12,0.36 Z m -0.01406,15.218438 -3.060469,3.050625 h 6.111095 z m -5.876249,5.8575 -0.636094,0.634219 A 12,12 0 0 0 12,24 12,12 0 0 0 18.496406,22.089375 l -0.653437,-0.653437 z"/></svg>
