<svg version="1.2" xmlns="http://www.w3.org/2000/svg" viewBox="0 0 24 24" width="24" height="24"><style></style><path  d="m18.3 0c-1.3 0.2-3 0.3-4.3 0.5-3.4 0.3-6.7 1-9.5 3.6-0.7 0.8-1.3 1.5-1.9 2.4v-0.2l-0.8 0.1c-1.1 4.9-1.7 9.8 3.5 15.3l-1.4 0.8 0.4 0.7 0.8 0.4 1.7-1.1c3 1 5.1 1.9 8.9 0.5 1.7-1 2.5-1.5 4.4-3.9l2.9-3.2-0.3-0.7-0.8 0.4 0.6-2.8c0.4-2.7-0.5-7.1-3.1-10.4zm-0.5 1.1c0.3 0 0.3 0.6-0.1 1.3 0 0-2.2 5.5-2.9 6.9 1.1 0.3 3.5 0.5 3.8 1 0.1 0.3-1.7 2.1-3.9 4l-4.9 2.6 0.1-2.8 0.9-2c0 0-3.7-0.5-3.9-1-0.3-0.7 9.8-9.2 9.8-9.2 0.6-0.6 0.9-0.8 1.1-0.8zm-15.7 6.2l0.7 4.7 3.2-2.3-1 5.4 3.9-1.6v5.1l7.4-4.3-1.7 5.3 5.2-5.2-1.5 3.9 3.9-2.3c-2.1 2.7-4.2 5.5-6.8 6.5-2.2 1-4.1 0.8-7.7-0.2-0.8-0.2-1.6-0.4-2.2-0.9-4.1-4.9-4.4-8.8-3.4-14.1zm3.3 14.8l0.5 0.5-0.8 0.5-0.4-0.2-0.1-0.2z"/></svg>