<svg version="1.2" xmlns="http://www.w3.org/2000/svg" viewBox="0 0 24 24" width="24" height="24"><style></style><path  d="m0 7.1v9.8h24v-9.8zm20.8 0.8c0.9 0 1.8 0.1 2.4 0.4l-0.5 1.5q-0.2 0-0.4-0.1-0.2-0.1-0.5-0.1-0.2-0.1-0.4-0.1-0.2 0-0.4 0c-0.9 0-1.5 0.1-1.5 0.7 0 1.2 3 0.7 3 3.1 0 2.2-2 2.7-3.8 2.7q-0.3 0-0.6 0-0.4 0-0.7-0.1-0.3 0-0.6-0.1-0.3-0.1-0.6-0.2l0.5-1.6c0.4 0.3 1.3 0.5 2 0.5 0.6 0 1.6-0.1 1.6-0.9 0-1.3-3-0.8-3-3 0-2.1 1.8-2.7 3.5-2.7zm-18.4 0.2h2.6l1.6 5.4 1.1-5.4h2l-1.7 7.8h-2.6l-1.6-5.4-1.1 5.4h-2zm8.1 0h2.1l-0.6 3h2.5l0.6-3h2.1l-1.6 7.8h-2.2l0.7-3.3h-2.4l-0.7 3.3h-2.1z"/></svg>