<svg version="1.2" xmlns="http://www.w3.org/2000/svg" viewBox="0 0 24 24" width="24" height="24"><style></style><path d="m3.5 9.6q0.1 0 0.1 0.1 0.1 0 0.1 0 0 0.1 0.1 0.1 0 0 0.1 0l12.8 0.7q0.1 0 0.2-0.1 0.1 0 0.2-0.1 0 0 0.1-0.1 0-0.1 0-0.2l0.4-4.8-13.8-0.7-0.4 4.7q0 0.1 0 0.1 0 0.1 0.1 0.1 0 0.1 0 0.1 0 0.1 0 0.1zm11.3 3.9l-0.6-0.1q0 0 0 0-0.1 0-0.1 0 0 0 0 0 0 0-0.1 0l-0.3 7.4q0.1 0 0.2 0 0 0 0.1 0 0.1 0.1 0.2 0.1 0 0 0.1 0h0.8l0.3-6.7 0.7-0.9v-0.7l-0.5 0.6q-0.1 0.1-0.2 0.1-0.1 0.1-0.2 0.1-0.1 0.1-0.2 0.1-0.1 0-0.2 0zm-10.6-0.5l-0.6-0.1q0 0 0 0-0.1 0-0.1 0 0 0 0 0-0.1 0-0.1 0l-0.3 7.3q0.1 0 0.2 0 0 0 0.1 0 0.1 0 0.2 0 0 0 0.1 0.1h0.8l0.3-6.6 0.7-0.9v-0.7l-0.6 0.6q0 0-0.1 0.1-0.1 0.1-0.2 0.1-0.1 0-0.2 0-0.1 0.1-0.2 0.1zm19.5-7.4v-0.2-0.6l-1.4 0.9q-0.2 0-0.3 0.1-0.2 0-0.3 0.1-0.2 0-0.3 0-0.2 0-0.3 0l-3.4-0.1-0.4 4.2q0 0.1 0 0.2-0.1 0.1-0.2 0.2 0 0.1-0.1 0.1-0.2 0.1-0.3 0.1l-12.8-0.7q-0.1 0-0.2-0.1-0.2 0-0.2-0.1-0.1-0.1-0.2-0.2 0-0.1 0-0.3l0.4-4-2.4-0.1q0 0-0.1 0 0 0 0 0-0.1-0.1-0.1-0.1-0.1 0-0.1 0l-0.1 0.4q0 0 0 0 0 0 0 0 0 0 0.1 0 0 0 0 0l-0.1 0.2-0.7 5.7-0.2 7.3q0 0.1 0 0.1 0 0 0 0.1 0 0 0 0.1 0 0 0 0l0.2-7.7h0.1q0 0 0 0 0 0 0.1 0 0 0 0 0 0 0 0 0 0.2 0.1 0.3 0.2 0.2 0 0.4 0.1 0.1 0 0.3 0 0.2 0.1 0.3 0.1l3.9 0.2 4.5 0.3 5.8 0.2h0.4l3.5 0.1q0.1 0 0.3 0 0.2 0 0.3 0 0.2 0 0.3-0.1 0.2 0 0.4-0.1 0.1 0 0.2 0 0.1 0 0.2 0.1 0.1 0.1 0.2 0.2 0 0.1 0 0.2l0.1 7.6q0.1-0.1 0.2-0.1 0.1 0 0.1-0.1 0.1 0 0.2-0.1 0 0 0.1-0.1l0.7-0.4 0.9-0.9zm-20.2 6.9q0 0 0 0.1 0 0 0 0.1 0 0 0 0.1 0.1 0 0.1 0h0.5q0.2 0 0.3 0 0.1 0 0.2-0.1 0.1 0 0.2-0.1 0.1-0.1 0.2-0.2l0.4-0.5h-1.1zm6.5 7.8l3.6 0.1 0.3-7.1q0 0 0 0 0 0 0 0 0 0 0 0 0 0-0.1-0.1 0 0 0 0 0-0.1 0-0.1 0.1-0.1 0.1-0.1 0 0 0-0.1l0.6-0.5-4.4-0.2zm5.2 0.2l4.1 0.2q0.3 0 0.7 0 0.3 0 0.6-0.1 0.2 0 0.5-0.1 0.3-0.1 0.6-0.2l-0.1-7.5q0-0.1 0-0.2-0.1 0-0.2-0.1 0-0.1-0.1-0.1-0.1 0-0.2 0-0.2 0.1-0.4 0.1-0.1 0.1-0.3 0.1-0.2 0-0.3 0-0.2 0-0.4 0l-3.5-0.1v1l-0.7 0.8zm-10.6-0.5l5.3 0.3 0.1-5.9v-2.1l-4.4-0.3v0.9l-0.7 0.9zm-4.3-8.5l-0.2 7.7q0.3 0.2 0.6 0.3 0.3 0.1 0.6 0.2 0.3 0 0.6 0.1 0.3 0 0.6 0.1h0.5l0.3-7.2q0 0 0 0 0-0.1 0-0.1 0 0 0.1-0.1 0 0 0 0l0.6-0.5-2.3-0.2q-0.2 0-0.4 0-0.1-0.1-0.3-0.1-0.2 0-0.3-0.1-0.2-0.1-0.4-0.1zm18.7 9.5l-3.8-0.2v0.3h-0.9q-0.1 0-0.2 0-0.1 0-0.2 0 0 0-0.1-0.1-0.1 0-0.2 0v-0.3l-9-0.5v0.3h-0.9q-0.1 0-0.2 0-0.1 0-0.2 0-0.1-0.1-0.1-0.1-0.1 0-0.2 0v-0.3h-0.7q-0.3-0.1-0.5-0.1-0.2 0-0.5-0.1-0.2-0.1-0.4-0.1-0.2-0.1-0.5-0.2l1.2 1q0.1 0.2 0.3 0.3 0.1 0.1 0.3 0.2 0.2 0.1 0.4 0.1 0.2 0.1 0.4 0.1l15.4 1q0.3 0 0.6 0 0.3-0.1 0.6-0.2 0.3-0.1 0.5-0.2 0.3-0.1 0.5-0.3l1.7-1.4q-0.2 0.2-0.4 0.3-0.3 0.1-0.6 0.2-0.2 0.1-0.5 0.2-0.3 0.1-0.5 0.1-0.2 0-0.3 0-0.2 0-0.4 0-0.1 0-0.3 0-0.1 0-0.3 0zm-8.7-11.1q-0.3-0.1-0.5-0.2-0.2-0.1-0.3-0.2-0.2-0.2-0.3-0.4-0.1-0.2 0-0.5-0.1-0.2 0-0.4 0.1-0.3 0.3-0.4 0.1-0.2 0.3-0.3 0.2-0.1 0.5-0.1 0.2 0 0.4 0.1 0.2 0.1 0.4 0.3 0.1 0.1 0.2 0.4 0.1 0.2 0.1 0.4 0 0.3-0.1 0.5-0.1 0.2-0.2 0.4-0.2 0.1-0.4 0.2-0.2 0.1-0.4 0.2zm0-2.4q-0.3 0-0.4 0.1-0.2 0.1-0.4 0.3-0.1 0.1-0.2 0.3 0 0.2 0 0.4 0 0.2 0 0.4 0.1 0.2 0.2 0.4 0.2 0.1 0.4 0.2 0.1 0.1 0.4 0.1 0.2 0 0.4-0.1 0.1-0.1 0.3-0.2 0.1-0.2 0.2-0.4 0.1-0.2 0-0.4 0.1-0.2 0-0.4-0.1-0.2-0.2-0.3-0.2-0.2-0.3-0.3-0.2-0.1-0.4-0.1zm3.4-0.9q0 0 0 0 0 0 0 0 0.1 0 0.1-0.1 0 0 0 0l1.6 0.1q0 0 0 0 0.1 0 0.1 0 0 0.1 0 0.1 0 0 0 0v0.7q0 0 0 0 0 0.1-0.1 0.1 0 0 0 0 0 0 0 0l-1.6-0.1q0 0-0.1 0 0 0 0 0 0 0 0 0 0-0.1 0-0.1zm0 2.7l1.3 0.1q0.1 0 0.2 0.1 0.1 0.1 0.1 0.2 0 0.1-0.1 0.2-0.1 0.1-0.2 0.1l-1.3-0.1q-0.1 0-0.2-0.1-0.1-0.1-0.1-0.2 0-0.1 0.1-0.2 0.1-0.1 0.2-0.1zm-5-2.7l3.3 0.2q0.1 0 0.1 0 0.1 0 0.1 0.1 0 0 0.1 0 0 0.1 0 0.1 0 0.1 0 0.1-0.1 0.1-0.1 0.1 0 0.1-0.1 0.1 0 0-0.1 0l-3.3-0.1q-0.1 0-0.2-0.1-0.1-0.1-0.1-0.2 0-0.1 0.1-0.2 0.1-0.1 0.2-0.1zm-3.2-0.4q0 0 0 0 0 0 0.1 0 0-0.1 0-0.1 0 0 0 0l1.6 0.1q0 0 0 0 0 0 0 0 0.1 0 0.1 0.1 0 0 0 0l-0.1 0.7q0 0 0 0 0 0 0 0.1 0 0 0 0 0 0-0.1 0l-1.5-0.1q0 0-0.1 0 0 0 0 0 0 0 0 0 0-0.1 0-0.1zm0.1 2.7l1.2 0.1q0.2 0 0.2 0.1 0.1 0.1 0.1 0.2 0 0.1-0.1 0.2-0.1 0.1-0.2 0.1l-1.3-0.1q-0.1 0-0.2-0.1 0-0.1 0-0.2 0-0.1 0.1-0.2 0-0.1 0.2-0.1zm8.3 4.2q0 0 0 0 0 0.1 0 0.1 0 0 0 0 0 0 0 0.1v0.1q0 0 0.1 0 0 0 0 0 0 0 0 0 0 0 0 0 0 0 0 0 0 0 0 0 0 0 0 0 0 0 0 0l0.5 0.1q0.2 0 0.3-0.1 0.1 0 0.2 0 0.1-0.1 0.2-0.2 0.1 0 0.2-0.1l0.6-0.6h-1.4zm-12.9-8.7l19.7 0.9q0.2 0 0.5 0 0.3 0 0.6-0.1 0.2-0.1 0.5-0.2 0.3-0.1 0.5-0.3l0.8-0.4v-0.5l-1.4 0.7q-0.2 0.1-0.3 0.1-0.2 0.1-0.3 0.1-0.2 0-0.3 0-0.2 0.1-0.4 0.1l-19.7-0.9q0 0-0.1 0 0 0 0 0-0.1 0-0.1 0 0 0-0.1-0.1v0.5q0 0 0 0 0 0 0.1 0 0 0.1 0 0.1 0 0 0 0zm0.2-0.6h0.1l19.6 0.8q0.1 0 0.2 0 0.2 0 0.3 0 0.2-0.1 0.4-0.1 0.1-0.1 0.3-0.2 0.1 0 0.3-0.1l1.1-0.5q0.1-0.1 0-0.1c0-0.1-0.3-0.3-0.5-0.3l-17.7-0.8q-0.4 0-0.8 0-0.3 0-0.7 0.1-0.4 0.1-0.8 0.2-0.4 0.1-0.7 0.2l-1.2 0.4q-0.1 0.1-0.1 0.1 0 0 0 0-0.1 0.1-0.1 0.1 0 0 0 0.1 0 0 0 0 0 0 0 0 0.1 0 0.1 0 0 0 0 0 0 0 0 0.1 0 0 0.1 0 0 0 0 0 0.1 0 0.1 0z"/></svg>