<svg version="1.2" xmlns="http://www.w3.org/2000/svg" viewBox="0 0 24 24" width="24" height="24"><style></style><path d="m 19.00411,5.6288784 c -1.68984,0 -3.31091,0.856708 -4.8189,2.546754 l 1.77625,1.9254416 c 0,0 0.60935,-0.5207356 1.09694,-0.9362006 0.47967,-0.408383 1.27305,-0.783792 1.94853,-0.783792 1.13364,0 1.89236,0.693718 1.84864,1.7639016 -0.0373,0.909856 -1.20578,1.838454 -1.82124,2.344395 -0.8165,0.67115 -1.61709,1.3629 -2.41839,2.052201 -0.89115,0.766303 -1.7339,1.491185 -1.95673,1.674339 v 2.156671 l 2.7e-4,-6.72e-4 H 24 v -2.639541 h -4.70208 a 27.010349,27.010349 0 0 0 3.2818,-3.033118 c 2.73871,-3.1466126 0.0255,-7.1597566 -3.57561,-7.0703796 z m -13.0449,0.197526 v 2.68e-4 H 3.21708 A 3.2169451,3.2169451 0 0 0 0,9.0436184 v 6.1120226 a 3.2168076,3.2168076 0 0 0 3.21708,3.216814 h 2.74213 a 0.09192057,0.09192057 0 0 0 0.092,-0.09198 V 5.9182514 a 0.09192057,0.09192057 0 0 0 -0.092,-0.09185 z m 3.36962,0 v 2.68e-4 H 7.38782 a 0.08153912,0.08153912 0 0 0 -0.0815,0.08191 V 18.280337 a 0.09185182,0.09185182 0 0 0 0.0918,0.09198 h 1.93067 a 3.2168076,3.2168076 0 0 0 3.21695,-3.216813 V 9.0434814 A 3.2169451,3.2169451 0 0 0 9.32879,5.8264014 Z M 3.21708,6.8383384 H 5.03966 V 17.361192 H 3.21708 A 2.2050625,2.2050625 0 0 1 1.01167,15.155776 V 9.0437534 a 2.2048563,2.2048563 0 0 1 2.20541,-2.205415 z m -0.0843,1.572822 a 1.1794984,1.1794984 0 0 0 -1.17951,1.179515 1.1796359,1.1796359 0 1 0 1.17951,-1.179515 z m 6.714,3.0490956 a 1.2684627,1.2684627 0 0 1 1.20987,1.267066 1.2685314,1.2685314 0 0 1 -1.26841,1.268409 1.2684627,1.2684627 0 1 1 0.0585,-2.535475 z"/></svg>
