<svg version="1.2" xmlns="http://www.w3.org/2000/svg" viewBox="0 0 24 24" width="24" height="24"><style></style><path  d="m3 0c-1.7 0-3 1.3-3 3v6.1h2.9c1.1 0 1.9 0.9 1.9 2 0.8-0.1 1.3-0.4 1.7-0.7 0.4-0.4 0.7-0.9 1-1.5 0.3-0.6 0.7-1.2 1.4-1.7 0.6-0.4 1.4-0.7 2.4-0.7v-0.5c0-1 0.9-1.9 2-1.9h7.9c1.1 0 1.9 0.9 1.9 1.9v2c0 1.1-0.8 2-1.9 2h-7.9c-1.1 0-2-0.9-2-2v-0.5c-0.8 0.1-1.4 0.3-1.8 0.5-0.5 0.4-0.8 0.8-1.1 1.4-0.3 0.6-0.6 1.2-1.2 1.8h-0.1c3.1 0.5 4.5 1.6 5.7 2.6 1.4 1.2 2.4 2.3 6.3 2.3v-0.4c0-1.1 0.9-2 2-2h2.9v-10.7c0-1.7-1.3-3-3-3zm10.3 5.4c-0.4 0-0.7 0.3-0.7 0.6v2c0 0.4 0.3 0.6 0.7 0.6h7.9q0.1 0 0.2 0 0.1-0.1 0.2-0.2 0.1 0 0.2-0.2 0-0.1 0-0.2v-2q0-0.1 0-0.2-0.1-0.1-0.2-0.2-0.1-0.1-0.2-0.1-0.1-0.1-0.2-0.1zm-13.3 5v3.3h2.9q0.1 0 0.2 0 0.1-0.1 0.2-0.2 0.1-0.1 0.2-0.2 0-0.1 0-0.3v-1.9c0-0.4-0.3-0.7-0.6-0.7zm4.8 1.7v0.9q0 0.4-0.2 0.8-0.1 0.3-0.4 0.6-0.3 0.3-0.6 0.4-0.4 0.2-0.8 0.2h-2.8v6c0 1.7 1.3 3 3 3h18c1.6 0 3-1.3 3-3v-1.4h-3c-1.1 0-2-0.9-2-2v-0.4c-4-0.1-5.6-1.4-7-2.6-1.4-1.2-2.7-2.4-7.2-2.5zm16.2 2.9q-0.1 0-0.2 0.1-0.2 0-0.3 0.1 0 0.1-0.1 0.2 0 0.1 0 0.3v1.9c0 0.4 0.2 0.6 0.6 0.6h3v-3.2z"/></svg>