<svg version="1.2" xmlns="http://www.w3.org/2000/svg" viewBox="0 0 24 24" width="24" height="24"><style></style><path  d="m1 9.4c-0.5 1.7 1.4 4.1 7.3 6.3 0.6 0.3 1.7 0.7 3.2 1-1.4-0.2-2.3-0.4-3.6-0.8-5.9-2.1-8.5-4.9-7.8-6.8 0.7-2 5.6-2.4 10.6-0.4 2 0.8 2.5 1.3 3.1 1.6-0.6-0.3-2-1-2.9-1.3-4.8-1.7-9.3-1.6-9.9 0.4zm17.1 0.4c0-0.3-0.5-0.6-1.8-0.6 1.3-0.3 2.3 0.1 2.3 0.5 0 0.3-0.6 0.6-1.3 0.6 0.5-0.1 0.8-0.3 0.8-0.5zm4.5 0.8c1 0 1.5 0.5 1.3 1.4v0.1h-2.2q-0.1 0.6 0.6 0.6 0.3 0 0.5-0.3h1c-0.3 0.6-1 0.9-1.7 0.9-0.9 0-1.6-0.5-1.4-1.4 0.2-0.8 1-1.3 1.9-1.3zm-0.7 1h1.2c0-0.3-0.3-0.4-0.5-0.4-0.4 0-0.6 0.1-0.7 0.4zm-1.3-1h0.2l-0.2 0.9q-0.2-0.1-0.4-0.1c-0.6 0-0.8 0.4-0.9 0.8l-0.2 1.1h-1l0.5-2.6h1l-0.1 0.4h0.1c0.2-0.3 0.6-0.5 1-0.5zm-4.2 2.7l0.5-2.6h1l-0.5 2.6zm-1.3-2.4l0.1-0.3h1l-0.5 2.6h-1v-0.3c-0.2 0.3-0.6 0.4-1 0.4-0.8 0-1.3-0.6-1.2-1.4 0.2-0.7 0.9-1.3 1.8-1.3 0.3 0 0.6 0.1 0.8 0.3zm-0.2 1c0.1-0.3-0.1-0.5-0.5-0.5-0.4 0-0.7 0.2-0.8 0.5-0.1 0.4 0.1 0.6 0.6 0.6 0.4 0 0.7-0.2 0.7-0.6zm-3.9 0.1l0.3-1.3h1l-0.3 1.5c-0.2 0.8-0.9 1.1-1.8 1.1-0.9 0-1.5-0.3-1.3-1.1l0.3-1.5h1l-0.3 1.3c0 0.3 0 0.6 0.5 0.6 0.4 0 0.5-0.3 0.6-0.6zm-4 1.2l0.2-1.2c0.1-0.3 0.2-0.7-0.3-0.7-0.5 0-0.6 0.3-0.7 0.6l-0.3 1.3h-1l0.5-2.6h1.1l-0.1 0.4c0.3-0.3 0.6-0.4 1-0.4 0.8 0 1 0.4 0.9 1l-0.3 1.6z"/></svg>