<svg version="1.2" xmlns="http://www.w3.org/2000/svg" viewBox="0 0 20 20" width="20" height="20"><style></style><path  d="m19.9 7.1q-0.1-0.1-0.1-0.2 0 0-0.1-0.1 0-0.1-0.1-0.2 0-0.1-0.1-0.1 0-0.1-0.1-0.2-0.1-0.1-0.2-0.2 0-0.1-0.1-0.2-0.1-0.1-0.2-0.1-0.2-0.1-0.3-0.2-0.2-0.1-0.3-0.2-0.2 0-0.4-0.1-0.1 0-0.3 0-0.1-0.1-0.2-0.1-0.1 0-0.2 0-0.1 0-0.2 0-0.1 0.1-0.2 0.1c-2 0.2-2.1 3.8-4.1 3 0.2-0.7 0.9-1.3 1.1-2.1q0.4-0.4 0.5-1 0.2-0.6 0-1.1-0.3-0.6-0.8-0.9-0.5-0.4-1.1-0.4-0.5-0.3-1.2-0.5-0.6-0.2-1.3-0.2-0.6 0-1.3 0.2-0.6 0.2-1.2 0.5-0.5 0.1-1 0.4-0.5 0.3-0.7 0.8-0.2 0.6-0.1 1.1 0.1 0.6 0.5 1c0.2 0.8 0.9 1.5 1.1 2.3-2.3 0.6-2.6-5.1-6.1-2.6q-0.1 0-0.2 0.1-0.1 0.1-0.2 0.2-0.1 0.1-0.1 0.2-0.1 0.1-0.2 0.2 0 0-0.1 0.1 0 0.1-0.1 0.2 0 0.1 0 0.1-0.1 0.1-0.1 0.2 0 0.1 0 0.2-0.1 0-0.1 0.1 0 0.1 0 0.2 0 0 0 0.1v0.1q0 0.1 0 0.1 0 0.1 0 0.1 0 0.1 0 0.1 0 0.1 0 0.1 0 0.1 0 0.2 0.1 0 0.1 0.1 0 0.1 0 0.2 0.1 0 0.1 0.1 0 0 0.1 0.1 0 0 0 0.1 0.1 0 0.1 0.1 0.1 0 0.1 0.1c0.2 0.1 0.3 0.1 0.3 0.1 0 0 0-0.1 0-0.2q-0.1 0-0.1-0.1 0-0.1 0-0.1 0-0.1 0-0.2 0 0 0-0.1-0.1-0.1 0-0.1 0-0.1 0-0.2 0 0 0-0.1 0-0.1 0-0.1 0-0.1 0-0.2 0.1 0 0.1-0.1 0 0 0-0.1 0.1-0.1 0.1-0.1c1.6-2.2 2.2 0.6 2.9 1.8q-0.3 0.3-0.4 0.7-0.1 0.4 0 0.8 0.1 0.5 0.4 0.8 0.3 0.3 0.8 0.4c-1.8 0.5-1 3.3 0.8 2.5q-0.1 0.1-0.3 0.3-0.1 0.2-0.2 0.4-0.1 0.2-0.1 0.4-0.1 0.3-0.1 0.5c-0.2 2.4 4 2.3 3.7 0.7-1.6 1.3-3.3-0.5-1.3-1.5q0.6 0.6 1.3 1 0.8 0.3 1.6 0.3 0.8 0 1.5-0.3 0.8-0.4 1.3-1c1.9 1 0.3 2.8-1.2 1.6-0.1-0.1-0.2-0.2-0.2-0.1 1.3 3 5.5 0 3.1-2.3 1.8 0.8 2.7-2 0.9-2.5q0.4-0.1 0.7-0.4 0.3-0.4 0.5-0.8 0.1-0.4-0.1-0.8-0.1-0.4-0.4-0.7 0.1-0.2 0.2-0.4 0.1-0.2 0.2-0.4 0.1-0.2 0.1-0.4 0.1-0.1 0.2-0.3l0.1-0.2 0.1-0.4c0.1-0.1 0.1-0.1 0.1-0.1q0.1-0.1 0.2-0.2 0.1-0.1 0.2-0.1 0.2-0.1 0.3-0.1 0.1 0 0.2 0 0.1 0.1 0.2 0.1 0.1 0 0.2 0.1 0.1 0 0.1 0.1 0.1 0 0.2 0.1 0.1 0.1 0.2 0.2 0 0.1 0.1 0.2 0.1 0.1 0.1 0.2 0.1 0.2 0.1 0.3 0 0 0 0.1 0 0.1 0.1 0.1 0 0.1 0 0.1 0 0.1 0 0.1 0 0.1 0 0.1 0 0 0 0.1 0 0 0 0 0 0.1 0 0.1 0 0 0 0.1 0 0-0.1 0.1 0 0 0 0 0 0.1 0 0.1 0 0.1 0 0.1 0 0 0 0-0.1 0-0.1 0 0 0 0 0 0 0.1 0 0.1 0 0 0 0 0 0 0 0 0.1 0 0.1 0c0 0 0.1 0 0.3-0.1q0-0.1 0-0.1 0.1-0.1 0.1-0.1 0.1-0.1 0.1-0.1 0-0.1 0.1-0.1 0-0.1 0-0.1 0.1-0.1 0.1-0.2 0-0.1 0-0.1 0-0.1 0-0.2 0 0 0.1-0.1 0 0 0-0.1 0 0 0-0.1 0 0 0-0.1 0-0.1 0-0.1 0-0.1 0-0.2-0.1-0.1-0.1-0.2 0-0.1 0-0.2zm-0.1 1.1q0 0.1 0 0.1 0 0.1 0 0.2 0 0-0.1 0.1 0 0.1 0 0.1 0 0.1-0.1 0.1 0 0.1 0 0.1-0.1 0.1-0.1 0.1-0.1 0-0.1 0.1l-0.1 0.1v-0.1q0-0.1 0.1-0.1 0-0.1 0-0.2 0 0 0-0.1 0 0 0-0.1 0 0 0 0 0-0.1 0-0.1 0 0 0 0 0-0.1 0-0.1 0-0.1 0-0.1 0 0 0-0.1 0.1 0 0.1-0.1 0 0 0-0.1 0-0.1-0.1-0.1 0-0.1 0-0.2 0-0.1 0-0.1-0.1-0.1-0.1-0.2 0-0.1 0-0.1-0.1-0.1-0.1-0.1 0-0.1-0.1-0.1 0-0.1-0.1-0.1 0-0.1-0.1-0.2-0.1-0.1-0.2-0.2-0.1 0-0.2-0.1-0.1 0-0.2 0-0.1-0.1-0.2-0.1-0.1 0-0.2 0-0.1-0.1-0.2-0.1-0.1 0-0.1 0-0.2 0-0.3 0.1-0.1 0-0.2 0-0.1 0.1-0.2 0.1-0.2 0.1-0.3 0.1c-1.1 1.2-1.9 3.2-3.9 3.2-0.6-0.1-0.8-0.7-1.1-1.1-0.2 0.6 0.5 1.2 1.1 1.1 1.3 0.5 3.7-1.9 3.8 0.8q0 0.3-0.1 0.5-0.1 0.3-0.3 0.5-0.2 0.2-0.4 0.3-0.3 0.1-0.5 0.2c1.7 0.4 1.2 3.2-0.7 2.4-0.5-0.1 0.3 0.5 0.3 0.7 1.4 2.1-2 4.1-3.3 1.9 0.7 0.6 2.2 0.9 2.7 0q0.1-0.3 0.1-0.7 0-0.3-0.2-0.6-0.1-0.3-0.3-0.5-0.3-0.3-0.6-0.4v-0.1q0.1-0.1 0.2-0.2 0-0.1 0.1-0.3 0.1-0.1 0.1-0.2 0.1-0.2 0.1-0.3c2.2 1.3 2.7-0.5 0.1-0.6q-0.4 0-0.7-0.1-0.3 0-0.7 0-0.3 0-0.7 0-0.3 0-0.7 0.1 0.4-0.3 0.9-0.5 0.4-0.1 0.9-0.3 0.4-0.1 0.9-0.2 0.5 0 1 0v-0.1q-0.5 0-1-0.1-0.5 0-0.9-0.2-0.5-0.2-0.9-0.5-0.4-0.3-0.7-0.7 0.2 0.2 0.4 0.3 0.2 0.1 0.5 0.1 0.2 0.1 0.5 0.1 0.2 0 0.4-0.1c0.9-0.1 2.7-0.1 2.8-1.2-0.2-0.4-0.7-0.3-1 0q-0.2 0.2-0.4 0.4-0.2 0.1-0.4 0.3-0.2 0.1-0.4 0.3-0.2 0.1-0.5 0.2-0.1-0.2-0.2-0.4-0.2-0.1-0.3-0.2-0.1-0.2-0.3-0.3-0.2-0.1-0.3-0.2-0.2-0.1-0.4-0.2-0.2-0.1-0.4-0.2-0.2-0.1-0.4-0.1-0.2-0.1-0.5-0.1 0.2-0.2 0.4-0.5 0.1-0.2 0.2-0.5 0.1-0.2 0.2-0.5 0.1-0.3 0.1-0.6-0.3 0.1-0.6 0.1-0.3 0-0.7 0-0.3 0-0.6 0-0.3 0-0.6-0.1 0 0.3 0.1 0.6 0.1 0.3 0.2 0.5 0.1 0.3 0.2 0.5 0.2 0.3 0.4 0.5-0.4 0.1-0.8 0.2-0.4 0.1-0.8 0.3-0.3 0.3-0.6 0.5-0.3 0.3-0.6 0.7-0.2-0.1-0.5-0.2-0.2-0.2-0.4-0.3-0.2-0.2-0.4-0.3-0.2-0.2-0.4-0.4c-0.2-0.3-1.1-0.4-1 0.2 0.5 0.9 1.9 0.9 2.8 1q0.2 0.1 0.5 0 0.2 0 0.5 0 0.2-0.1 0.4-0.2 0.3-0.1 0.5-0.2-0.3 0.4-0.7 0.7-0.4 0.3-0.9 0.5-0.4 0.1-0.9 0.2-0.5 0.1-1 0.1v0.1q0.5 0 1 0 0.4 0.1 0.9 0.2 0.5 0.1 0.9 0.3 0.5 0.2 0.9 0.4-0.4 0-0.7 0-0.4 0-0.7 0-0.4 0-0.7 0-0.4 0.1-0.7 0.1c-2.6 0.1-2.1 1.9 0.1 0.6q0 0.1 0.1 0.2 0 0.2 0.1 0.3 0 0.2 0.1 0.3 0.1 0.1 0.2 0.2-0.2 0.1-0.3 0.2-0.2 0.1-0.3 0.2-0.1 0.1-0.2 0.3-0.1 0.1-0.1 0.3-0.2 0.2-0.2 0.4-0.1 0.2-0.1 0.5 0.1 0.2 0.2 0.4 0.1 0.2 0.3 0.4 0.2 0.1 0.5 0.1 0.2 0.1 0.5 0.1 0.2 0 0.5-0.1 0.2-0.1 0.4-0.2 0.1 0 0.1-0.1 0.1 0 0.1 0 0.1-0.1 0.1-0.1 0.1 0 0.1-0.1c-1.8 2.6-5.1-0.6-2.8-2.6-0.3 0.2-0.7 0.2-1 0.1-0.3-0.1-0.6-0.3-0.8-0.6-0.1-0.3-0.2-0.6-0.1-1 0.1-0.3 0.3-0.6 0.6-0.7 0.2-0.1 0.7-0.2 0.3-0.3q-0.2-0.1-0.5-0.2-0.2-0.2-0.4-0.4-0.2-0.2-0.2-0.5-0.1-0.3 0-0.6c0.3-2.3 2.5 0.1 3.7-0.5 0.7 0.1 1.3-0.5 1.1-1.1-0.3 0.4-0.5 0.9-1.1 1.1-2.7 0.3-3.5-5.3-6.3-2.9q-0.1 0.2-0.2 0.3-0.1 0.1-0.1 0.2-0.1 0.2-0.1 0.3-0.1 0.2-0.1 0.3 0 0.1 0 0.2 0 0 0.1 0.1 0 0.1 0 0.2 0 0.1 0 0.1v0.1q0 0 0 0.1 0.1 0 0.1 0.1 0 0 0 0.1 0 0 0 0.1l0.1 0.1-0.1-0.1q-0.1-0.1-0.1-0.1 0 0-0.1-0.1 0 0-0.1-0.1 0 0 0-0.1 0 0-0.1-0.1 0-0.1 0-0.1 0-0.1-0.1-0.2 0 0 0-0.1 0 0 0-0.1 0 0 0-0.1 0 0 0-0.1 0 0 0-0.1 0 0 0-0.1 0-0.1 0-0.2 0-0.1 0.1-0.2 0-0.1 0-0.2 0.1-0.2 0.2-0.3 0.1-0.2 0.2-0.4 0.1-0.1 0.2-0.3 0.2-0.1 0.3-0.2c3.5-2.8 4.5 5 6.7 1.9 0.1-0.8 1.3-0.9 1.3-1.7-5.3 2.5-3.8-6.1 0.6-2.1 0.5 0.3 0.9-0.3 1.3-0.5 4.3-2.7 4.3 5.1-0.2 2.6 0.1 0.7 1.1 0.8 1.2 1.5 1.5 3 2.9-1.5 4.3-2q0.1-0.1 0.2-0.1 0 0 0.1 0 0-0.1 0.1-0.1 0.1 0 0.1 0 0.1 0 0.2-0.1 0.1 0 0.2 0 0.1 0 0.2 0 0.1 0 0.2 0.1 0.1 0 0.3 0 0.2 0.1 0.3 0.1 0.2 0.1 0.3 0.2 0.2 0.1 0.3 0.2 0.1 0 0.2 0.1 0.1 0.1 0.2 0.2 0 0 0.1 0.1 0.1 0.1 0.2 0.2 0 0.1 0 0.2 0.1 0 0.1 0.1 0.1 0.1 0.1 0.2 0 0.1 0.1 0.1 0 0.1 0 0.2 0 0.1 0 0.2 0.1 0.1 0.1 0.2 0 0 0 0.1 0 0.1 0 0.1 0 0.1 0 0.1 0 0.1 0 0.1 0 0.1-0.1 0.1zm-12.3-5c-0.4 0-0.8 0.2-1.1 0.5-0.3 0.3-0.4 0.6-0.4 1.1 0 0.4 0.1 0.8 0.4 1.1 0.3 0.2 0.7 0.4 1.1 0.4 0.4 0 0.8-0.2 1.1-0.4 0.3-0.3 0.4-0.7 0.4-1.1 0-0.5-0.1-0.8-0.4-1.1-0.3-0.3-0.7-0.5-1.1-0.5zm0.1 2.9c-0.4-0.3 0.4-0.7 0.5-0.2 0.7-1.7-2.3-1-0.9 0.2-0.7-0.2-1.2-0.9-1.1-1.6 0.2-0.7 0.8-1.2 1.5-1.1 0.7 0 1.3 0.6 1.3 1.4 0 0.7-0.6 1.3-1.3 1.3zm12.3 1zm-7.5-0.8c0.4 0 0.8-0.2 1.1-0.5 0.3-0.2 0.5-0.6 0.5-1 0-0.5-0.2-0.9-0.5-1.1-0.3-0.3-0.7-0.5-1.1-0.5-0.4 0-0.8 0.2-1 0.5-0.3 0.2-0.5 0.6-0.5 1.1 0 0.4 0.2 0.8 0.5 1 0.2 0.3 0.6 0.5 1 0.5zm0.2 1.6q-0.1 0-0.1-0.1-0.1-0.1-0.1-0.2 0 0 0.1-0.1 0-0.1 0.1-0.1 0.1 0 0.2 0.1 0.1 0.1 0.1 0.1 0 0.1-0.1 0.2-0.1 0.1-0.2 0.1zm-0.4-0.9c0.1-0.8 1.1 0.1 0.3 0.3q-0.1 0-0.1 0-0.1-0.1-0.1-0.1-0.1-0.1-0.1-0.1 0-0.1 0-0.1zm-2.2-4.7c0.6 0.1-0.1 0.8-0.2 0.3q0-0.1 0-0.1 0-0.1 0.1-0.1 0 0 0-0.1 0.1 0 0.1 0zm0 0.8q0.1 0 0.2 0.1 0 0.1 0 0.2 0 0.1 0 0.1-0.1 0.1-0.2 0.1-0.1 0-0.1-0.1-0.1 0-0.1-0.1 0-0.1 0.1-0.2 0-0.1 0.1-0.1zm-2.8 4.7c-0.2-0.2 0.1-0.5 0.3-0.3 0.2 0.2-0.1 0.5-0.3 0.3zm-0.1-0.8c0.2-0.8 1.1 0.1 0.4 0.3q-0.1 0-0.2 0 0-0.1-0.1-0.1 0-0.1 0-0.1-0.1-0.1-0.1-0.1zm5.1 8.6q-0.7 0.6-1.6 0.7-0.9 0.2-1.8-0.1-0.8-0.4-1.4-1.1-0.6-0.7-0.7-1.6 0 0 0.1 0 0 0 0 0 0.1 0 0.1-0.1 0 0 0.1 0 0.1 0.8 0.5 1.4 0.4 0.6 1.1 1 0.7 0.3 1.5 0.3 0.7 0 1.4-0.4-0.6 0.2-1.3 0.1-0.6-0.1-1.2-0.5-0.5-0.3-0.9-0.8-0.3-0.6-0.4-1.2 0.2-0.1 0.3-0.1 0.2 0 0.4 0 0.1 0 0.3 0 0.2 0 0.3 0.1 0 0 0 0 0.1 0 0.1 0 0 0 0 0 0 0 0 0 0 0 0 0 0 0 0-0.1 0 0 0 0 0 0 0 0-0.1-0.2-0.3-0.3-0.2-0.1-0.4-0.1-0.2-0.1-0.4-0.2-0.1-0.1-0.3-0.2 0 0 0-0.1 0-0.1 0-0.2 0-0.1 0-0.1 0-0.1 0-0.2c0.7-0.4 2.1-1.9 0.3-0.9q0.1-0.1 0.1-0.2 0.1-0.1 0.1-0.1 0-0.1 0.1-0.2 0 0 0.1-0.1-0.1 0.1-0.2 0.1-0.1 0.1-0.2 0.2-0.1 0.1-0.2 0.2-0.1 0.1-0.2 0.2 0 0 0 0-0.1 0-0.1 0 0 0-0.1 0 0 0 0 0 0.5-0.6 1.1-1 0.7-0.3 1.5-0.3 0.8 0 1.5 0.3 0.6 0.4 1.1 1c-0.6 0-1.1-0.4-1.6-0.5q0.2 0.3 0.4 0.6 0.3 0.3 0.6 0.5 0.3 0.2 0.6 0.4 0.4 0.1 0.7 0.2-0.3 0-0.7 0.1-0.3 0.1-0.6 0.3-0.4 0.1-0.7 0.3-0.3 0.2-0.5 0.4c0 0 0.1 0 0.2 0q0.3-0.1 0.6-0.1 0.3 0 0.6 0.1 0.3 0 0.5 0.1 0.3 0 0.6 0.2 0 0.2-0.1 0.5-0.1 0.3-0.3 0.6-0.1 0.2-0.3 0.5-0.2 0.2-0.4 0.4zm-2.3-7.2c0.9-1.3 1.3 1.1-0.1 0.9q0 0 0 0 0 0 0 0 0 0 0 0 0 0 0 0c-0.6-0.3-0.9-1.4 0.1-1.2 0.2 0-0.1 0.2 0 0.3zm2.5-5c0.4 0 0.7 0.1 0.9 0.3 0.3 0.3 0.4 0.6 0.5 0.9 0 0.3-0.1 0.7-0.3 0.9-0.2 0.3-0.4 0.5-0.8 0.6 1.5-1.3-1.7-1.8-0.8-0.2-0.1-0.7 1-0.1 0.4 0.2-0.4 0-0.7-0.2-0.9-0.5-0.2-0.3-0.3-0.6-0.3-0.9 0-0.4 0.2-0.7 0.4-0.9 0.3-0.3 0.6-0.4 0.9-0.4zm-5.3 8.7l-0.1 0.1q0 0 0 0-0.1 0-0.1 0 0 0-0.1 0 0 0 0 0v-0.1q0 0 0.1 0 0 0 0 0 0.1 0 0.1 0 0 0 0.1 0zm1.5 4.7q0 0 0.1 0.1 0 0 0 0 0 0 0 0 0 0 0 0 0.3 0.1 0.6 0.2 0.4 0 0.7 0 0.3 0 0.7 0 0.3-0.1 0.6-0.1 0-0.1 0-0.1 0 0 0 0 0 0 0.1 0 0-0.1 0-0.1 0 0 0 0 0.1 0 0.1 0 0 0 0 0.1 0 0 0.1 0c0.2-0.1 0.8-0.4 0.4-0.7q-0.4 0.3-0.9 0.4-0.6 0.2-1.1 0.2-0.5 0-1.1-0.2-0.5-0.1-0.9-0.4c-0.4 0.3 0.2 0.6 0.5 0.7q0-0.1 0-0.1 0 0 0.1 0 0 0 0 0 0 0 0 0zm3.3 0.1q0 0 0 0-0.1 0-0.1 0 0 0.1 0 0.1-0.1 0-0.1 0 0 0 0.1 0 0.1 0.1 0.1 0.1 0.1 0 0.1 0 0.1 0.1 0.1 0.1 0.1-0.1 0-0.1 0-0.1 0-0.1 0-0.1-0.1-0.1 0 0-0.1 0zm-4 0.2q0 0 0 0 0 0 0 0 0 0.1 0 0.1 0 0 0 0 0 0 0.1 0 0.1-0.1 0.1-0.1 0.1 0 0.1-0.1 0.1 0 0.2 0c-0.2-0.1-0.5-0.2-0.5 0.1zm3.5 0q-0.3 0.1-0.7 0.2-0.3 0-0.7 0-0.3 0-0.7 0-0.3-0.1-0.7-0.2 0 0 0 0.1-0.1 0.1-0.1 0.1 0 0.1-0.1 0.1 0 0.1-0.1 0.1 0.4 0.2 0.8 0.3 0.5 0 0.9 0 0.4 0 0.9-0.1 0.4 0 0.8-0.2-0.1 0-0.1-0.1 0 0-0.1-0.1 0 0 0-0.1-0.1 0-0.1-0.1z"/></svg>