<svg version="1.2" xmlns="http://www.w3.org/2000/svg" viewBox="0 0 20 20" width="20" height="20"><style></style><path  d="m23.9 8.4q-0.1-0.1-0.1-0.2-0.1-0.1-0.1-0.2-0.1-0.1-0.1-0.2-0.1-0.1-0.1-0.2-0.1-0.1-0.2-0.2-0.1-0.1-0.2-0.2-0.1-0.1-0.2-0.2-0.1-0.1-0.2-0.2-0.2-0.1-0.4-0.2-0.2-0.1-0.4-0.2-0.2-0.1-0.4-0.1-0.2-0.1-0.4-0.1-0.1 0-0.2-0.1-0.1 0-0.2 0-0.2 0-0.3 0.1-0.1 0-0.2 0c-2.4 0.2-2.6 4.5-5 3.7 0.3-1 1.1-1.6 1.3-2.6 0.4-0.3 0.6-0.7 0.7-1.2 0.2-0.4 0.1-0.9-0.1-1.4-0.1-0.4-0.4-0.8-0.8-1-0.4-0.3-0.9-0.4-1.3-0.4q-0.7-0.5-1.5-0.7-0.7-0.2-1.5-0.2-0.8 0-1.6 0.2-0.8 0.2-1.4 0.7-0.7 0-1.3 0.4-0.6 0.4-0.8 1-0.3 0.7-0.1 1.3 0.1 0.7 0.6 1.2c0.2 1 1 1.8 1.3 2.7-2.8 0.7-3.1-6-7.4-3.1q-0.1 0.1-0.2 0.2-0.1 0.1-0.2 0.2-0.1 0.1-0.2 0.2-0.1 0.1-0.2 0.2 0 0.1-0.1 0.2 0 0.1-0.1 0.2 0 0.1-0.1 0.2 0 0.1 0 0.2-0.1 0.1-0.1 0.2 0 0.1 0 0.2-0.1 0-0.1 0.1 0 0.1 0 0.2v0.2q0 0 0 0.1 0 0 0 0.1 0 0.1 0 0.1 0.1 0.1 0.1 0.1 0 0.1 0 0.2 0 0.1 0 0.2 0.1 0.1 0.1 0.1 0 0.1 0.1 0.2 0 0.1 0 0.1 0.1 0.1 0.1 0.1 0.1 0.1 0.1 0.1 0.1 0.1 0.2 0.1c0.2 0.2 0.2 0.3 0.3 0.2 0.1 0 0-0.1 0-0.2q-0.1-0.1-0.1-0.1 0-0.1 0-0.2-0.1-0.1-0.1-0.2 0 0 0-0.1 0-0.1 0-0.2 0-0.1 0-0.1 0-0.1 0.1-0.2 0-0.1 0-0.2 0 0 0-0.1 0.1-0.1 0.1-0.2 0 0 0-0.1 0.1-0.1 0.1-0.2c1.9-2.5 2.7 0.8 3.5 2.2q-0.3 0.4-0.5 0.9-0.1 0.5 0 1 0.2 0.5 0.5 0.9 0.4 0.3 0.9 0.5c-2.1 0.6-1.1 3.9 1 3q-0.2 0.1-0.3 0.4-0.2 0.2-0.3 0.4-0.1 0.3-0.1 0.5-0.1 0.3-0.1 0.6c-0.3 2.9 4.8 2.7 4.5 0.9-2 1.5-4.1-0.7-1.6-1.9q0.6 0.8 1.5 1.2 0.9 0.4 1.9 0.4 1 0 1.9-0.4 0.9-0.4 1.5-1.2c2.3 1.2 0.4 3.3-1.5 1.9-0.1-0.1-0.2-0.2-0.2 0 1.6 3.5 6.6-0.1 3.8-2.8 2.1 0.9 3.1-2.4 1-3.1q0.5-0.1 0.9-0.5 0.4-0.3 0.5-0.8 0.1-0.5 0-1.1-0.2-0.5-0.6-0.8 0.2-0.2 0.3-0.5 0.1-0.2 0.2-0.4 0.1-0.2 0.2-0.5 0.1-0.2 0.2-0.4v-0.2l0.3-0.5c0-0.1 0.1-0.1 0.1-0.1q0.1-0.2 0.2-0.3 0.1-0.1 0.3-0.1 0.1-0.1 0.3-0.1 0.1 0 0.3 0.1 0.1 0 0.2 0 0.1 0.1 0.2 0.1 0.1 0.1 0.2 0.1 0.1 0.1 0.1 0.2 0.2 0.1 0.3 0.2 0.1 0.1 0.1 0.3 0.1 0.1 0.2 0.3 0 0.1 0.1 0.3 0 0 0 0.1 0 0.1 0 0.1 0 0.1 0 0.2 0.1 0 0.1 0.1 0 0 0 0.1 0 0 0 0.1 0 0 0 0 0 0.1 0 0.1-0.1 0.1-0.1 0.1 0 0.1 0 0.1 0 0.1 0 0.1 0 0.1-0.1 0.1 0 0 0 0.1 0 0 0 0 0 0 0 0 0 0 0 0.1 0 0 0 0 0 0 0 0 0 0 0 0 0 0 0 0c0.1 0.1 0.2 0 0.4-0.2q0 0 0.1-0.1 0 0 0.1-0.1 0 0 0.1-0.1 0 0 0-0.1 0.1-0.1 0.1-0.2 0.1 0 0.1-0.1 0-0.1 0-0.2 0-0.1 0-0.2 0.1 0 0.1-0.1 0 0 0-0.1 0-0.1 0-0.1 0-0.1 0-0.1 0-0.1 0-0.3 0-0.1 0-0.2-0.1-0.1-0.1-0.2 0-0.1 0-0.2zm-0.1 1.3q0 0.1 0 0.2 0 0.1 0 0.1-0.1 0.1-0.1 0.2 0 0.1-0.1 0.1 0 0.1 0 0.2-0.1 0-0.1 0.1-0.1 0-0.1 0.1-0.1 0-0.1 0v0.1l-0.1 0.1v-0.2q0 0 0-0.1 0.1-0.1 0.1-0.1 0-0.1 0-0.2 0 0 0-0.1 0 0 0-0.1 0 0 0 0 0-0.1 0-0.1 0 0 0-0.1 0 0 0-0.1 0 0 0.1-0.1 0-0.1 0-0.1 0-0.1 0-0.1 0-0.1 0-0.2-0.1-0.1-0.1-0.2 0-0.1 0-0.2-0.1-0.1-0.1-0.1 0-0.1-0.1-0.2 0-0.1 0-0.1-0.1-0.1-0.1-0.2-0.1 0-0.1-0.1-0.1-0.1-0.2-0.2-0.1-0.1-0.3-0.2-0.1 0-0.2-0.1-0.1-0.1-0.3-0.1-0.1 0-0.2-0.1-0.1 0-0.2 0-0.1 0-0.2 0-0.1 0-0.2 0-0.2 0-0.3 0-0.1 0-0.3 0.1-0.1 0-0.2 0.1-0.2 0-0.3 0.1c-1.4 1.4-2.4 3.8-4.7 3.8-0.7-0.1-1-0.8-1.3-1.3-0.3 0.8 0.5 1.4 1.3 1.3 1.5 0.6 4.4-2.2 4.5 1q0 0.3-0.1 0.6-0.2 0.3-0.4 0.5-0.2 0.3-0.5 0.4-0.3 0.2-0.6 0.2c2.1 0.5 1.5 3.9-0.7 2.9-0.7-0.1 0.3 0.6 0.3 0.9 1.7 2.5-2.4 4.9-3.9 2.3 0.8 0.7 2.6 1.1 3.1-0.1q0.2-0.3 0.1-0.7 0-0.4-0.1-0.8-0.2-0.4-0.5-0.6-0.2-0.3-0.6-0.5 0.1-0.2 0.2-0.3 0.1-0.2 0.1-0.3 0.1-0.2 0.2-0.4 0-0.1 0-0.3c2.7 1.6 3.3-0.6 0.2-0.7q-0.4 0-0.9-0.1-0.4 0-0.8-0.1-0.4 0-0.8 0.1-0.4 0-0.9 0 0.5-0.2 1.1-0.5 0.5-0.2 1.1-0.3 0.5-0.2 1.1-0.3 0.6 0 1.1 0v-0.2q-0.5 0.1-1.1 0-0.6-0.1-1.2-0.3-0.5-0.2-1-0.6-0.5-0.3-0.9-0.8 0.3 0.2 0.6 0.3 0.2 0.1 0.5 0.2 0.3 0 0.6 0 0.3 0.1 0.6 0c1-0.1 3.1-0.1 3.3-1.5-0.3-0.5-0.9-0.3-1.2 0q-0.2 0.2-0.5 0.5-0.2 0.2-0.4 0.3-0.3 0.2-0.6 0.4-0.2 0.1-0.5 0.2-0.2-0.2-0.3-0.4-0.2-0.1-0.4-0.3-0.1-0.2-0.3-0.3-0.2-0.2-0.4-0.3-0.2-0.1-0.5-0.3-0.2-0.1-0.4-0.2-0.3 0-0.5-0.1-0.3-0.1-0.6-0.1 0.2-0.3 0.4-0.5 0.2-0.3 0.3-0.7 0.1-0.3 0.2-0.6 0.1-0.3 0.2-0.7-0.4 0.1-0.8 0.1-0.4 0.1-0.7 0.1-0.4 0-0.8-0.1-0.4 0-0.8-0.1 0.1 0.4 0.2 0.7 0.1 0.3 0.2 0.6 0.2 0.4 0.3 0.7 0.2 0.2 0.4 0.5-0.5 0.1-1 0.3-0.4 0.1-0.8 0.4-0.5 0.2-0.8 0.6-0.4 0.3-0.7 0.7-0.3-0.1-0.6-0.2-0.2-0.2-0.5-0.4-0.3-0.1-0.5-0.4-0.2-0.2-0.4-0.4c-0.3-0.4-1.4-0.5-1.3 0.3 0.6 1 2.3 1 3.4 1.2q0.3 0 0.6 0 0.3 0 0.6-0.1 0.3 0 0.5-0.1 0.3-0.1 0.6-0.3-0.4 0.4-0.9 0.8-0.5 0.3-1 0.6-0.6 0.2-1.1 0.3-0.6 0.1-1.2 0v0.1q0.6 0 1.1 0.1 0.6 0.1 1.2 0.2 0.5 0.2 1.1 0.4 0.5 0.2 1 0.5-0.4 0-0.8 0-0.5-0.1-0.9 0-0.4 0-0.8 0-0.4 0.1-0.8 0.1c-3.2 0.1-2.6 2.3 0.1 0.7q0 0.1 0.1 0.3 0 0.2 0.1 0.3 0.1 0.2 0.1 0.4 0.1 0.1 0.2 0.3-0.1 0-0.3 0.2-0.2 0.1-0.3 0.2-0.1 0.2-0.2 0.3-0.1 0.2-0.2 0.4-0.2 0.2-0.3 0.5-0.1 0.3 0 0.5 0 0.3 0.2 0.6 0.1 0.2 0.3 0.4 0.3 0.1 0.6 0.2 0.3 0.1 0.6 0.1 0.3 0 0.6-0.1 0.3-0.1 0.6-0.3 0 0 0.1 0 0.1-0.1 0.1-0.1 0.1-0.1 0.1-0.1 0.1 0 0.1-0.1c-2.1 3-6.1-0.7-3.4-3.2-0.3 0.3-0.7 0.3-1.1 0.2-0.4-0.1-0.8-0.4-1-0.7-0.2-0.4-0.2-0.8-0.1-1.2 0.1-0.4 0.4-0.7 0.7-0.9 0.2-0.1 0.9-0.2 0.4-0.3q-0.3-0.1-0.6-0.3-0.3-0.2-0.5-0.5-0.2-0.3-0.3-0.6-0.1-0.3 0-0.7c0.4-2.8 3.1 0.2 4.5-0.6 0.8 0.1 1.6-0.6 1.3-1.4-0.3 0.6-0.6 1.2-1.3 1.4-3.3 0.4-4.3-6.4-7.6-3.4q-0.2 0.1-0.2 0.3-0.1 0.1-0.2 0.3-0.1 0.1-0.1 0.3 0 0.2 0 0.4 0 0.1 0 0.2 0 0.1 0 0.2 0 0 0 0.1 0 0.1 0.1 0.2v0.1q0 0 0 0.1 0 0.1 0 0.1 0 0.1 0 0.1 0.1 0.1 0.1 0.2v0.1l-0.1-0.1q0-0.1-0.1-0.1 0-0.1-0.1-0.1 0-0.1 0-0.1-0.1-0.1-0.1-0.2-0.1 0-0.1-0.1 0-0.1 0-0.2-0.1 0-0.1-0.1 0-0.1 0-0.2 0 0 0-0.1 0-0.1 0-0.1 0-0.1-0.1-0.1 0-0.1 0-0.1 0-0.1 0.1-0.2 0-0.2 0-0.3 0-0.1 0-0.2 0.1-0.1 0.1-0.2 0.1-0.2 0.2-0.4 0.1-0.2 0.2-0.4 0.2-0.2 0.3-0.4 0.2-0.2 0.4-0.3c4.1-3.3 5.3 6 8 2.4 0.1-1.1 1.5-1.2 1.6-2.1-6.4 2.9-4.7-7.4 0.7-2.6 0.6 0.4 1-0.3 1.5-0.6 5.2-3.1 5.2 6.2-0.2 3.2 0.1 0.8 1.3 0.9 1.5 1.7 1.8 3.7 3.4-1.7 5.1-2.4q0.1 0 0.2 0 0-0.1 0.1-0.1 0.1 0 0.2 0 0-0.1 0.1-0.1 0.1 0 0.2 0 0.1 0 0.3 0 0.1 0 0.2 0 0.1 0 0.2 0 0.2 0 0.4 0.1 0.2 0 0.4 0.1 0.2 0.1 0.4 0.2 0.1 0.1 0.3 0.2 0.1 0.1 0.2 0.2 0.1 0 0.2 0.1 0.1 0.1 0.2 0.2 0.1 0.2 0.2 0.3 0 0.1 0.1 0.1 0 0.1 0.1 0.2 0 0.1 0.1 0.2 0 0.1 0 0.2 0.1 0.1 0.1 0.2 0 0.1 0 0.2 0.1 0.1 0.1 0.3 0 0.1 0 0.2 0 0 0 0.1 0 0 0 0.1 0 0-0.1 0.1 0 0 0 0.1zm-14.8-6c-0.5 0-0.9 0.2-1.3 0.6-0.3 0.3-0.5 0.8-0.5 1.3 0 0.5 0.2 0.9 0.5 1.3 0.4 0.3 0.8 0.5 1.3 0.6 0.5-0.1 1-0.3 1.3-0.6 0.4-0.4 0.5-0.8 0.5-1.3 0-0.5-0.1-1-0.5-1.3-0.3-0.4-0.8-0.6-1.3-0.6zm0.2 3.5c-0.5-0.4 0.4-0.9 0.5-0.3 0.9-1.9-2.7-1.2-1.1 0.3-0.8-0.2-1.4-1.1-1.2-1.9 0.1-0.8 0.9-1.4 1.8-1.4 0.8 0.1 1.5 0.8 1.5 1.7 0 0.8-0.7 1.5-1.5 1.6zm14.7 1.2zm-9-0.9c0.5-0.1 1-0.3 1.3-0.6 0.4-0.4 0.6-0.8 0.6-1.3 0-0.5-0.2-1-0.6-1.4-0.3-0.3-0.8-0.5-1.3-0.5-0.4 0-0.9 0.2-1.2 0.5-0.4 0.4-0.6 0.9-0.6 1.4 0 0.5 0.2 0.9 0.6 1.3 0.3 0.3 0.8 0.5 1.2 0.6zm0.3 1.8q-0.1 0-0.2-0.1-0.1-0.1-0.1-0.2 0-0.1 0.1-0.2 0.1 0 0.2 0 0.1 0 0.2 0 0 0.1 0 0.2 0 0.1 0 0.2-0.1 0.1-0.2 0.1zm-0.6-1.1c0.2-0.9 1.3 0.2 0.4 0.4q-0.1 0-0.1 0-0.1-0.1-0.2-0.1 0-0.1 0-0.1-0.1-0.1-0.1-0.2zm-2.6-5.5c0.8 0.1-0.1 0.9-0.2 0.2q0 0 0-0.1 0 0 0.1-0.1 0 0 0 0 0.1 0 0.1 0zm0 0.9q0.2 0 0.2 0.1 0.1 0.1 0.1 0.2 0 0.1-0.1 0.2 0 0.1-0.2 0.1-0.1 0-0.1-0.1-0.1-0.1-0.1-0.2 0-0.1 0.1-0.2 0-0.1 0.1-0.1zm-3.3 5.6c-0.3-0.2 0.1-0.6 0.4-0.4 0.2 0.3-0.2 0.7-0.4 0.4zm-0.1-1c0.2-0.9 1.3 0.2 0.4 0.4q-0.1 0-0.2 0 0-0.1-0.1-0.1 0-0.1-0.1-0.1 0-0.1 0-0.2zm6.1 10.3c-0.6 0.5-1.3 0.8-2 0.9-0.7 0.1-1.4 0.1-2.1-0.2-0.6-0.2-1.2-0.6-1.7-1.2-0.4-0.5-0.7-1.2-0.8-1.9q0 0 0.1-0.1 0 0 0 0 0.1 0 0.1 0 0.1 0 0.1 0 0.1 0.9 0.6 1.6 0.5 0.8 1.4 1.2 0.8 0.4 1.7 0.4 0.9-0.1 1.7-0.5-0.7 0.2-1.5 0.1-0.8-0.1-1.4-0.5-0.7-0.5-1.1-1.1-0.4-0.7-0.5-1.4 0.2-0.1 0.4-0.1 0.2 0 0.4 0 0.2 0 0.4 0 0.2 0 0.4 0.1 0 0 0 0 0 0 0 0 0 0 0 0 0 0 0 0 0 0 0.1 0 0 0 0-0.1 0 0 0 0 0 0 0 0v-0.1q-0.2-0.1-0.4-0.2-0.2-0.1-0.5-0.2-0.2-0.1-0.4-0.2-0.2-0.1-0.5-0.2 0-0.1 0-0.2 0-0.1 0.1-0.2 0-0.1 0-0.2 0-0.1 0-0.2c0.8-0.5 2.5-2.3 0.4-1.1q0-0.1 0.1-0.2 0-0.1 0.1-0.2 0 0 0.1-0.1 0-0.1 0.1-0.2-0.2 0.1-0.3 0.2-0.1 0.1-0.2 0.2-0.1 0.1-0.2 0.2-0.1 0.1-0.2 0.2-0.1 0-0.1 0 0 0-0.1 0 0 0 0 0-0.1 0-0.1 0 0.6-0.7 1.4-1.1 0.8-0.4 1.7-0.4 0.9 0 1.8 0.4 0.8 0.4 1.4 1.1c-0.7 0.1-1.3-0.4-1.9-0.6q0.2 0.4 0.4 0.8 0.3 0.3 0.7 0.6 0.3 0.3 0.8 0.4 0.4 0.2 0.8 0.3-0.4 0-0.8 0.1-0.4 0.2-0.8 0.3-0.4 0.2-0.8 0.4-0.3 0.3-0.7 0.6c0.1-0.1 0.2-0.1 0.3-0.1q0.3-0.1 0.7-0.1 0.4 0 0.7 0.1 0.4 0 0.7 0.1 0.4 0.1 0.7 0.2-0.1 0.4-0.2 0.7-0.1 0.3-0.3 0.6-0.1 0.4-0.4 0.6-0.2 0.3-0.4 0.5zm-2.8-8.6c1.1-1.5 1.6 1.4-0.1 1.1q0 0 0 0 0 0 0 0 0 0 0 0-0.1 0-0.1 0c-0.6-0.4-0.9-1.7 0.2-1.5 0.2 0.1-0.1 0.3 0 0.4zm3-6c0.4 0 0.8 0.2 1.1 0.4 0.3 0.3 0.5 0.7 0.6 1.1 0 0.4-0.1 0.8-0.3 1.1-0.3 0.3-0.6 0.6-1 0.7 1.7-1.5-2.1-2.2-1-0.2-0.1-0.9 1.2-0.2 0.4 0.2-0.4-0.1-0.7-0.3-1-0.6-0.3-0.3-0.4-0.7-0.4-1.1 0.1-0.5 0.3-0.8 0.5-1.1 0.3-0.3 0.7-0.5 1.1-0.5zm-6.4 10.4l-0.1 0.2q0 0 0 0-0.1 0-0.1 0 0 0-0.1 0 0 0 0 0v-0.1q0 0 0.1 0 0 0 0 0 0.1 0 0.1 0 0.1-0.1 0.1-0.1zm1.9 5.8q0 0 0 0 0 0 0 0 0 0 0 0 0 0 0 0 0.4 0.2 0.8 0.2 0.4 0.1 0.8 0.1 0.4 0 0.8 0 0.4-0.1 0.8-0.2 0 0 0 0 0-0.1 0-0.1 0 0 0.1 0 0 0 0 0v-0.1q0 0 0 0 0.1 0 0.1 0.1 0 0 0.1 0 0 0 0 0c0.3-0.1 1-0.5 0.6-0.8q-0.6 0.3-1.2 0.5-0.6 0.2-1.3 0.2-0.6 0-1.2-0.2-0.7-0.2-1.2-0.5c-0.4 0.3 0.3 0.7 0.6 0.8q0 0 0.1-0.1 0 0 0 0 0 0 0.1 0 0 0 0 0.1zm3.9 0q0 0 0 0-0.1 0.1-0.1 0.1 0 0-0.1 0 0 0 0 0 0 0.1 0.1 0.1 0.1 0 0.1 0.1 0.1 0 0.2 0 0 0 0.1 0.1 0-0.1 0-0.2 0 0 0-0.1-0.1 0-0.1-0.1-0.1 0-0.2 0zm-4.8 0.3q0 0 0 0 0 0 0 0 0 0 0 0.1 0 0 0 0 0.1 0 0.1-0.1 0.1 0 0.2 0 0-0.1 0.1-0.1 0.1 0 0.2-0.1c-0.3-0.1-0.6-0.2-0.6 0.2zm4.2 0q-0.4 0.1-0.8 0.2-0.4 0.1-0.9 0-0.4 0-0.8 0-0.4-0.1-0.8-0.3 0 0.1-0.1 0.2 0 0.1-0.1 0.1 0 0.1-0.1 0.2 0 0-0.1 0.1 0.5 0.2 1 0.3 0.5 0 1 0 0.5 0 1.1-0.1 0.5-0.1 0.9-0.2 0-0.1 0-0.1-0.1-0.1-0.1-0.2-0.1 0-0.1-0.1-0.1 0-0.1-0.1z"/></svg>