<svg version="1.2" xmlns="http://www.w3.org/2000/svg" viewBox="0 0 24 24" width="24" height="24"><style></style><path  d="m6.9 0q-0.1 0-0.2 0.1-0.1 0-0.2 0-0.1 0.1-0.2 0.1 0 0-0.1 0.1c-0.6 0.4-1 1.4-1.2 2.5-0.1 0.5-0.1 1.1-0.1 1.5 0 0.6 0 1.3 0.1 1.7 0 0.2 0.1 0.2 0 0.3l-0.1 0.1q-0.2 0.1-0.3 0.2-0.1 0.2-0.3 0.3-0.1 0.1-0.2 0.2-0.1 0.2-0.2 0.3-0.2 0.3-0.3 0.6-0.2 0.2-0.3 0.5-0.1 0.3-0.2 0.6-0.1 0.3-0.1 0.7-0.1 0.1-0.1 0.3 0 0.2 0 0.3 0 0.2 0 0.4 0 0.1 0 0.3c0.1 0.8 0.4 1.5 0.8 2.1l0.1 0.2c-0.3 0.5-0.5 1.1-0.6 1.7-0.1 0.5-0.1 0.7-0.1 1.3 0 0.7 0 0.8 0.1 1.3 0 0.6 0.2 1.2 0.5 1.5 0 0.2 0.2 0.4 0.2 0.5q0 0 0 0.1-0.1 0.2-0.2 0.4-0.1 0.3-0.2 0.5 0 0.2-0.1 0.5 0 0.2-0.1 0.5 0 0.1 0 0.2 0 0.1 0 0.3 0 0.1 0 0.2 0 0.1 0 0.3c0 0.5 0 0.8 0.1 1.2v0.1h1.5l-0.1-0.1c-0.2-0.5-0.3-1.6 0-2.6 0.1-0.5 0.2-0.8 0.5-1.3l0.1-0.3v-0.2c0-0.1 0-0.1 0-0.2q0-0.1-0.1-0.1 0 0 0-0.1 0 0-0.1 0 0-0.1 0-0.1-0.1-0.1-0.1-0.1-0.1-0.1-0.1-0.1-0.1-0.1-0.1-0.2-0.1-0.1-0.1-0.1c-0.4-1-0.5-2.3-0.2-3.5 0.1-0.5 0.3-0.9 0.5-1.1q0.1-0.1 0.1-0.2 0.1 0 0.1-0.1 0-0.1 0-0.1 0-0.1 0-0.2 0.1-0.3-0.2-0.5-0.1-0.2-0.3-0.4-0.1-0.2-0.2-0.4-0.1-0.2-0.2-0.4-0.1-0.3-0.1-0.5c-0.1-1 0.1-2 0.7-2.9 0.6-0.8 1.4-1.3 2.2-1.4 0.2-0.1 0.6-0.1 0.8 0 0.2 0 0.4 0 0.5-0.1 0.2 0 0.3-0.2 0.4-0.4 0.1-0.2 0.2-0.3 0.4-0.6 0.2-0.3 0.4-0.5 0.8-0.7 0.4-0.3 0.9-0.5 1.3-0.6 0.2 0 0.3 0 0.6 0 0.3 0 0.4 0 0.6 0q0.2 0.1 0.5 0.2 0.3 0.1 0.5 0.2 0.2 0.1 0.5 0.3 0.2 0.1 0.4 0.3c0.1 0.1 0.4 0.5 0.5 0.6 0 0.1 0.1 0.2 0.1 0.3 0.1 0.2 0.2 0.4 0.4 0.4 0.1 0.1 0.3 0.1 0.5 0.1 0.3-0.1 0.6-0.1 0.9 0 1.2 0.2 2.2 1.2 2.6 2.4 0.4 1.1 0.3 2.3-0.3 3.2-0.1 0.1-0.2 0.3-0.3 0.4-0.3 0.3-0.3 0.7 0 1.1 0.5 0.5 0.8 1.8 0.7 3-0.1 0.8-0.3 1.5-0.6 1.8q0 0.1 0 0.1 0 0-0.1 0.1 0 0 0 0 0 0.1-0.1 0.1 0 0 0 0.1-0.1 0-0.1 0 0 0.1 0 0.1-0.1 0-0.1 0.1c0 0.1 0 0.1 0 0.2v0.2l0.1 0.3c0.3 0.5 0.4 0.8 0.5 1.3 0.3 1 0.3 2 0 2.6q0 0-0.1 0 0 0 0 0 0 0.1 0 0.1 0 0 0 0c0 0 0.3 0 0.7 0h0.8v-0.1-0.1c0.1-0.1 0.1-0.3 0.1-0.5q0-0.2 0-0.3 0-0.2 0-0.4 0-0.1 0-0.3 0-0.1 0-0.3c-0.1-0.9-0.3-1.6-0.6-2.2q0-0.1 0-0.1 0-0.1 0-0.1 0 0 0 0 0.1 0 0.1-0.1 0 0 0 0c0.4-0.6 0.6-1.3 0.7-2.2 0-0.3 0-1.4 0-1.7-0.1-0.6-0.2-1-0.3-1.5q-0.1-0.1-0.1-0.2 0 0-0.1-0.1 0-0.1-0.1-0.2 0-0.1-0.1-0.2l0.1-0.2c0.4-0.6 0.7-1.3 0.8-2.1q0-0.1 0-0.3 0-0.2 0-0.4 0-0.1 0-0.3 0-0.2-0.1-0.3 0-0.4-0.1-0.7-0.1-0.3-0.2-0.6-0.1-0.3-0.3-0.5-0.1-0.3-0.3-0.6-0.1-0.1-0.2-0.3-0.1-0.1-0.2-0.2-0.2-0.1-0.3-0.3-0.1-0.1-0.3-0.2l-0.1-0.1q0-0.1 0-0.1 0 0 0-0.1 0 0 0 0 0 0 0-0.1c0.2-1 0.2-2.4 0-3.5-0.2-0.9-0.6-1.6-1-2-0.4-0.4-0.7-0.5-1.2-0.5-1 0.1-1.8 1.2-2.1 3q0 0.1 0 0.2 0 0.1 0 0.2-0.1 0.1-0.1 0.2 0 0 0 0.1 0 0.1 0 0.1 0 0 0 0-0.1 0-0.1 0 0 0 0-0.1 0 0 0 0-0.3-0.1-0.6-0.3-0.3-0.1-0.6-0.2-0.3-0.1-0.7-0.1-0.3-0.1-0.6-0.1c-0.8 0-1.7 0.3-2.5 0.7q0 0 0 0 0 0.1 0 0.1 0 0-0.1 0 0 0 0 0 0 0 0-0.1 0-0.1 0-0.1 0-0.1-0.1-0.2 0-0.1 0-0.2 0-0.1 0-0.2c-0.3-1.6-1-2.7-1.8-3q-0.1 0-0.2 0-0.1 0-0.1 0-0.1 0-0.2 0-0.1 0-0.1 0zm0.3 10.3q-0.5 0.1-0.7 0.6 0 0.1 0 0.1 0 0.1-0.1 0.2 0 0 0 0.1 0 0.1 0 0.1c0.1 0.3 0.4 0.6 0.6 0.7 0.4 0.1 0.7 0 0.9-0.2 0.2-0.1 0.2-0.3 0.3-0.5 0.1-0.1 0.1-0.1 0.1-0.3v-0.2l-0.1-0.2q0-0.1-0.1-0.1-0.1-0.1-0.1-0.2-0.1 0-0.2-0.1-0.1 0-0.2 0 0-0.1-0.1-0.1 0 0-0.1 0-0.1 0-0.1 0-0.1 0-0.1 0.1zm4.5-0.2c-0.3 0-0.4 0-0.6 0.1q-0.1 0-0.3 0-0.1 0.1-0.2 0.1-0.1 0-0.2 0.1-0.2 0-0.3 0.1c-0.9 0.4-1.6 1.2-1.8 2.1 0 0.2 0 0.2 0 0.5 0 0.3 0 0.4 0 0.6 0.3 1.1 1.4 2 2.8 2.1 0.3 0.1 1.5 0.1 1.8 0 1.2-0.1 2.1-0.7 2.5-1.5 0.2-0.3 0.2-0.4 0.3-0.6 0-0.2 0-0.3 0-0.6 0-0.3 0-0.3 0-0.5-0.3-1.3-1.6-2.3-3.1-2.5q-0.1 0-0.2 0-0.1 0-0.2 0-0.1 0-0.3 0-0.1 0-0.2 0zm0.7 0.9q0.2 0 0.4 0.1 0.1 0 0.3 0.1 0.2 0 0.4 0.1 0.2 0.1 0.3 0.2c0.2 0.2 0.6 0.5 0.7 0.7q0.2 0.3 0.3 0.8c0 0.1 0 0.3-0.1 0.5 0 0.3-0.3 0.7-0.6 0.9q-0.1 0.1-0.2 0.1-0.1 0.1-0.2 0.1 0 0.1-0.1 0.1-0.1 0.1-0.2 0.1c-0.4 0.1-0.6 0.1-1.5 0.1-0.6 0-0.7 0-0.9 0q-0.8-0.2-1.3-0.7c-0.3-0.3-0.4-0.5-0.5-0.9 0-0.2 0-0.5 0.1-0.8 0.2-0.3 0.5-0.7 0.9-1 0.4-0.2 0.9-0.4 1.4-0.5 0.2 0 0.6 0 0.8 0zm-1.1 1.3c-0.1 0-0.2 0.2-0.2 0.3q0.1 0.3 0.4 0.5c0.1 0 0.1 0 0.1 0.1 0 0 0 0.1 0 0.2 0 0.1 0 0.2 0 0.3 0 0 0 0.2 0.1 0.2 0.1 0.1 0.1 0.1 0.3 0.1 0.1 0 0.1 0 0.2-0.1 0.2 0 0.2-0.2 0.2-0.5-0.1-0.2-0.1-0.3 0.1-0.3 0.1-0.1 0.2-0.3 0.3-0.4q0 0 0-0.1 0-0.1 0-0.1 0-0.1-0.1-0.2 0 0-0.1 0 0 0 0-0.1-0.1 0-0.1 0 0 0 0 0-0.1 0-0.1 0c-0.1 0-0.2 0.1-0.3 0.2h-0.1-0.1c-0.2-0.2-0.2-0.2-0.4-0.2q0 0 0 0 0 0-0.1 0 0 0 0 0 0 0.1-0.1 0.1zm5.1-2q-0.1 0-0.2 0-0.1 0.1-0.2 0.1 0 0.1-0.1 0.2-0.1 0-0.1 0.1l-0.1 0.2v0.2c0 0.2 0 0.2 0.1 0.3 0.1 0.2 0.1 0.3 0.3 0.5 0.2 0.2 0.5 0.3 0.9 0.2q0 0 0.1-0.1 0.1 0 0.2-0.1 0 0 0.1-0.1 0-0.1 0.1-0.1 0-0.1 0-0.2 0 0 0.1-0.1 0-0.1 0-0.1 0-0.1 0-0.1c-0.1-0.5-0.4-0.8-0.8-0.9q0-0.1-0.1-0.1 0 0-0.1 0-0.1 0-0.1 0-0.1 0-0.1 0.1zm-9.2-8.9c0.2 0.2 0.5 0.8 0.6 1.4 0.1 0.1 0.1 0.2 0.1 0.3 0 0 0 0.1 0.1 0.2q0.1 0.6 0.1 1.3v0.4l-0.2 0.2-0.1 0.2h-0.3q-0.4 0-0.9 0.1l-0.2 0.1c-0.1 0-0.1 0-0.1-0.2q0-0.3-0.1-0.5 0-0.3 0-0.6 0-0.3 0-0.6 0.1-0.3 0.1-0.6c0.1-0.8 0.4-1.5 0.7-1.7 0.1-0.1 0.1-0.1 0.2 0zm9.8 0c0.2 0.1 0.4 0.5 0.5 0.9 0.3 0.8 0.4 2 0.2 3.1 0 0.2 0 0.2-0.1 0.2l-0.2-0.1q-0.1 0-0.2 0-0.1-0.1-0.3-0.1-0.1 0-0.2 0-0.1 0-0.2 0h-0.3l-0.1-0.2-0.2-0.2v-0.4c0-0.7 0.1-1.2 0.3-1.8 0.1-0.6 0.4-1.2 0.6-1.4 0.1-0.1 0.1-0.1 0.2 0z"/></svg>