<svg version="1.2" xmlns="http://www.w3.org/2000/svg" viewBox="0 0 24 24" width="24" height="24"><style></style><path  d="m24 12c0 6.3-5.4 12-12 12-3.8 0-7.1-1.9-9.3-4.6l1.8-1.7-2.2 1.2q-0.6-0.8-1-1.7l3-1.7-3.4 1q-0.3-0.8-0.5-1.7l4.2-1.3c0.8 3.4 3.8 6 7.4 6 4.1 0 7.5-3.4 7.5-7.5 0-4.2-3.4-7.5-7.5-7.5-2.2 0-4.2 0.9-5.5 2.4l-3-3.3c2.2-2.2 5.2-3.6 8.5-3.6 6.6 0 12 5.7 12 12zm-18.9-3l-4.1-1.7q-0.2 0.5-0.4 1l4.2 1.7q0.1-0.5 0.3-1zm-0.4 1.4l-4.5-0.7q-0.1 0.7-0.2 1.3l4.5 0.7q0-0.6 0.2-1.3zm-0.2 1.6q0 0 0 0l-4.5 0.3q0 0.8 0.1 1.5l4.5-0.3q-0.1-0.7-0.1-1.5zm1.4-4.4l-3.6-2.5q-0.3 0.3-0.5 0.7l3.6 2.6q0.2-0.4 0.5-0.8z"/></svg>