<svg version="1.2" xmlns="http://www.w3.org/2000/svg" viewBox="0 0 24 24" width="24" height="24"><style></style><path d="m 4.9049301,19.30839 c -0.50945,-0.75711 -0.6537,-1.11999 -0.93084,-2.14649 -0.18894,-0.68471 -0.22669,-2.63358 -0.063,-3.43021 0.60795,-2.9583 2.62068,-6.36541 3.45849,-7.94742 1.43223,-2.80482 1.80103,-2.90214 2.11902,-5.78427 0.45516,0.2062 1.8328599,0.88281 2.7830199,2.14746 1.66785,2.2199 1.20879,4.286 -1.84081,8.15867 C 8.2067401,13.13047 7.5645001,14.1321 7.0726601,15.54352 5.5643201,19.81736 9.9108501,23.44119 11.58575,24 11.21682,23.913 7.8826401,23.73372 4.9049101,19.30839 Z m 8.8844399,4.61452 c -1.4121,-0.20019 -2.57735,-0.4052 -3.9337399,-1.74749 -1.12305,-1.11137 -2.64777,-3.00645 -1.78631,-6.36084 0.31155,-1.21312 0.88928,-2.14721 2.0134899,-3.25545 1.777,-1.71444 2.5156,-1.887 5.23794,-4.61223 0.66677,-0.66746 1.11988,-1.53397 1.55803,-2.37404 0.15053,0.62847 0.0752,1.16702 0.28403,1.67783 0.18892,0.15503 0.96865,0.63718 1.37174,1.03762 1.93147,1.91876 2.2248,3.86498 0.61794,4.1 -0.46549,0.0681 -1.47188,0.14854 -1.85579,0.14835 -1.05303,-5.2e-4 -1.65863,-0.16422 0.87875,0.77299 1.2787,0.4723 1.56043,1.27087 0.68257,1.50182 -0.44249,0.11641 -0.84546,0.19566 -1.27899,0.27026 -0.42533,0.0732 -0.58181,0.2199 -0.77288,0.82084 -0.27442,0.86306 -0.65962,1.15514 -1.52016,1.15267 -1.70747,-0.005 -2.8226,1.24707 -2.99364,1.56885 -0.0545,0.10248 -0.0152,0.0811 0.1447,-0.0788 2.42059,-2.4206 6.25216,-0.0258 5.19951,3.24978 -0.14784,0.46003 -0.17384,0.43292 0.45811,0.47761 0.89884,0.0636 1.87777,0.56933 2.08785,1.67024 -0.79059,-0.0597 -6.2269,-0.02 -6.29704,-0.02 z"/></svg>
