<svg version="1.2" xmlns="http://www.w3.org/2000/svg" viewBox="0 0 24 24" width="24" height="24"><style></style><path d="m 89.852458,59.573162 c -1.85481,0 -3.1788,0.633691 -3.82849,1.833399 l -0.34945,0.649687 v -2.170301 h -3.01809 v 13.193089 h 3.17485 v -7.849162 c 0,-1.875235 1.01932,-2.950911 2.79464,-2.950911 1.69313,0 2.66397,1.047375 2.66397,2.872899 v 7.926928 h 3.17633 V 64.5856 c 0,-3.141141 -1.72438,-5.012438 -4.61352,-5.012438 m -15.39686,0 c -3.74653,0 -6.0667,2.337891 -6.0667,6.100419 v 1.852348 c 0,3.618317 2.34724,5.865646 6.12601,5.865646 2.52763,0 4.29926,-0.926051 5.41407,-2.831063 l -1.96826,-1.132524 c -0.82368,1.098809 -2.13954,1.779504 -3.44458,1.779504 -1.91289,0 -3.05476,-1.180758 -3.05476,-3.159844 v -0.524426 h 8.86135 v -2.18802 c 0,-3.505114 -2.30147,-5.76204 -5.86442,-5.76204 z m 2.97774,5.817165 h -5.98279 v -0.316723 c 0,-2.171777 1.06633,-3.370254 3.00235,-3.370254 1.8644,0 2.97798,1.180758 2.97798,3.159844 z m 48.562432,-7.676158 v -2.523693 h -10.98194 v 2.523693 h 3.85038 v 12.835515 h -3.85038 v 2.523692 h 10.98194 v -2.523692 h -3.85162 V 57.714169 Z M 42.727208,54.826503 c -4.90464,0 -7.95375,3.05624 -7.95375,7.978363 v 2.661012 c 0,4.920646 3.04787,7.978361 7.95375,7.978361 4.90588,0 7.954,-3.057715 7.954,-7.978361 v -2.661259 c -10e-4,-4.92729 -3.05353,-7.978362 -7.954,-7.978362 m 4.67259,10.821484 c 0,3.26788 -1.70273,5.141638 -4.67259,5.141638 -2.96986,0 -4.67135,-1.873758 -4.67135,-5.141638 V 62.62128 c 0,-3.26788 1.7042,-5.141639 4.67283,-5.141639 2.96863,0 4.67234,1.873513 4.67234,5.141639 z m 13.25363,-6.074825 c -1.66631,0 -3.10891,0.690293 -3.86122,1.845703 l -0.34108,0.525657 v -2.058575 h -3.01957 v 17.732535 h 3.17608 v -6.423048 l 0.33961,0.504246 c 0.71466,1.05968 2.11001,1.691895 3.73325,1.691895 2.73779,0 5.50019,-1.789102 5.50019,-5.787634 V 65.36055 c 0,-2.88102 -1.70272,-5.787634 -5.52726,-5.787634 m 2.35118,7.87574 c 0,2.12625 -1.24032,3.447282 -3.23565,3.447282 -1.86046,0 -3.15861,-1.396583 -3.15861,-3.394618 v -1.984501 c 0,-2.022152 1.30897,-3.445805 3.18568,-3.445805 1.98032,0 3.21104,1.319801 3.21104,3.445805 z M 103.24217,55.191707 96.834628,73.07879 h 3.226042 l 1.22678,-3.834142 h 7.36608 l 0.0123,0.0379 1.21325,3.796243 h 3.22481 l -6.41862,-17.88856 z m -1.16747,11.530726 2.89038,-9.043455 2.86084,9.043455 z M 28.563778,60.185197 a 7.7199626,7.7199626 0 0 0 -0.66322,-6.342823 7.8184002,7.8184002 0 0 0 -8.41248,-3.746532 7.7273455,7.7273455 0 0 0 -5.82504,-2.599243 7.8110173,7.8110173 0 0 0 -7.4512196,5.411603 7.7273455,7.7273455 0 0 0 -5.16207,3.74604 7.8184002,7.8184002 0 0 0 0.96124,9.15912 7.7273455,7.7273455 0 0 0 0.66323,6.336424 7.8184002,7.8184002 0 0 0 8.4188696,3.754407 7.7273455,7.7273455 0 0 0 5.81864,2.599242 7.8110173,7.8110173 0 0 0 7.45123,-5.411602 7.7273455,7.7273455 0 0 0 5.16058,-3.746286 7.8085564,7.8085564 0 0 0 -0.95976,-9.160596 m -11.65205,16.296332 a 5.7881263,5.7881263 0 0 1 -3.71799,-1.348102 c 0.0458,-0.02559 0.13486,-0.07014 0.18605,-0.103852 l 6.17449,-3.564422 a 1.0016018,1.0016018 0 0 0 0.50696,-0.877817 v -8.705814 l 2.60859,1.505848 a 0.09105471,0.09105471 0 0 1 0.0512,0.07284 v 7.205627 c 0,3.209309 -2.59974,5.812243 -5.80929,5.815935 M 4.4293684,71.150888 a 5.79797,5.79797 0 0 1 -0.69399,-3.89345 c 0.0455,0.0283 0.1265,0.07678 0.1831,0.109019 l 6.1759696,3.5659 a 1.0040627,1.0040627 0 0 0 1.0139,0 l 7.53417,-4.356845 v 3.011696 a 0.09105471,0.09105471 0 0 1 -0.0364,0.08072 l -6.24143,3.602321 C 9.5857984,74.870351 6.0361484,73.919198 4.4293984,71.143998 Z M 2.8117784,57.66938 a 5.7832044,5.7832044 0 0 1 3.02376,-2.548056 v 7.339256 a 1.0040627,1.0040627 0 0 0 0.50695,0.877817 l 7.5361296,4.351677 -2.61819,1.511262 a 0.09105471,0.09105471 0 0 1 -0.0876,0.0081 L 4.9323784,65.60613 c -2.77643,-1.606254 -3.72782,-5.157388 -2.12625,-7.936525 z m 21.4352696,4.988321 -7.53638,-4.351922 2.60613,-1.507326 a 0.09351565,0.09351565 0 0 1 0.0874,-0.0081 l 6.24069,3.603553 a 5.8102747,5.8102747 0 0 1 -0.898,10.483103 v -7.337532 a 1.0040627,1.0040627 0 0 0 -0.50424,-0.881755 z m 2.59776,-3.909692 a 7.3828141,7.3828141 0 0 0 -0.18334,-0.109265 l -6.17572,-3.565655 a 1.0040627,1.0040627 0 0 0 -1.01391,0 l -7.53613,4.350448 V 56.41307 a 0.09843752,0.09843752 0 0 1 0.0379,-0.08072 l 6.24045,-3.602321 a 5.8102747,5.8102747 0 0 1 8.62805,6.019456 z m -16.33127,5.370997 -2.6098296,-1.505847 a 0.09843752,0.09843752 0 0 1 -0.05,-0.0726 v -7.20612 a 5.8090443,5.8090443 0 0 1 9.5272796,-4.467833 c -0.0458,0.02584 -0.12797,0.07014 -0.18605,0.103852 l -6.17449,3.564422 a 1.0040627,1.0040627 0 0 0 -0.50695,0.877817 z m 1.417,-3.055992 3.35672,-1.938727 3.35549,1.938727 v 3.8745 l -3.35672,1.938481 -3.35672,-1.938481 z"/></svg>
