<svg version="1.2" xmlns="http://www.w3.org/2000/svg" viewBox="0 0 24 24" width="24" height="24"><style></style><path  d="m22.3 9.8q0.2-0.6 0.3-1.2 0-0.7 0-1.3-0.1-0.6-0.3-1.2-0.2-0.6-0.5-1.2-0.5-0.8-1.2-1.5-0.7-0.6-1.6-1-0.9-0.4-1.8-0.5-1-0.1-1.9 0.1c-0.8-0.8-1.7-1.4-2.7-1.7-1-0.3-2.1-0.4-3.1-0.2-1 0.3-2 0.7-2.8 1.5-0.8 0.7-1.4 1.6-1.7 2.6q-0.6 0.1-1.2 0.4-0.6 0.2-1.1 0.6-0.5 0.4-1 0.8-0.4 0.5-0.7 1.1-0.5 0.8-0.7 1.8-0.2 0.9-0.1 1.8 0.1 1 0.5 1.9 0.4 0.9 1 1.6-0.2 0.6-0.2 1.2-0.1 0.7 0 1.3 0 0.6 0.2 1.2 0.2 0.6 0.5 1.2 0.5 0.8 1.2 1.5 0.7 0.6 1.6 1 0.9 0.4 1.9 0.5 0.9 0.1 1.9-0.1 0.4 0.5 0.9 0.8 0.5 0.4 1.1 0.7 0.6 0.2 1.2 0.4 0.6 0.1 1.3 0.1 0.9 0 1.8-0.3 1-0.3 1.7-0.9 0.8-0.5 1.4-1.3 0.5-0.8 0.8-1.7 0.7-0.1 1.2-0.4 0.6-0.3 1.1-0.6 0.6-0.4 1-0.9 0.4-0.5 0.7-1 0.5-0.8 0.7-1.8 0.2-0.9 0.1-1.9-0.1-0.9-0.5-1.8-0.4-0.9-1-1.6zm-9 12.6q-0.4 0-0.8 0-0.4-0.1-0.8-0.2-0.3-0.2-0.7-0.4-0.3-0.2-0.6-0.4l0.1-0.1 4.8-2.7q0.1-0.1 0.2-0.2 0 0 0.1-0.1 0-0.1 0.1-0.2 0-0.1 0-0.2v-6.8l2 1.2q0 0 0 0 0 0 0 0 0 0 0 0 0.1 0 0.1 0.1v5.5q0 0.9-0.4 1.8-0.3 0.8-1 1.4-0.6 0.6-1.4 1-0.8 0.3-1.7 0.3zm-9.7-4.1q-0.2-0.3-0.3-0.7-0.2-0.4-0.2-0.8-0.1-0.3-0.1-0.7 0-0.4 0.1-0.8l0.1 0.1 4.8 2.7q0.1 0.1 0.2 0.1 0.1 0 0.2 0 0.1 0 0.2 0 0.1 0 0.2-0.1l5.8-3.3v2.3q0 0 0 0 0 0 0 0 0 0 0 0 0 0.1 0 0.1l-4.9 2.7q-0.7 0.5-1.6 0.6-0.9 0.1-1.8-0.1-0.8-0.2-1.5-0.8-0.8-0.5-1.2-1.3zm-1.3-10.4q0.2-0.3 0.5-0.6 0.2-0.3 0.5-0.6 0.4-0.3 0.7-0.4 0.3-0.2 0.7-0.4v5.7q0 0.1 0 0.2 0.1 0.1 0.1 0.2 0.1 0.1 0.1 0.2 0.1 0 0.2 0.1l5.8 3.3-2 1.2q0 0 0 0 0 0 0 0-0.1 0-0.1 0 0 0 0 0l-4.8-2.8q-0.8-0.4-1.3-1.1-0.6-0.8-0.8-1.6-0.2-0.9-0.1-1.8 0.1-0.9 0.5-1.6zm16.6 3.8l-5.8-3.4 2-1.1q0 0 0 0 0 0 0.1 0 0 0 0 0 0 0 0 0l4.8 2.8c0.8 0.4 1.4 1 1.8 1.8 0.4 0.7 0.5 1.6 0.5 2.4-0.1 0.9-0.4 1.7-0.9 2.4-0.6 0.7-1.3 1.2-2.1 1.5v-5.7q0-0.1 0-0.2 0-0.1-0.1-0.2 0-0.1-0.1-0.2-0.1 0-0.2-0.1zm2-3l-0.1-0.1-4.8-2.8q-0.1 0-0.2 0-0.1-0.1-0.2-0.1-0.1 0-0.2 0.1-0.1 0-0.2 0l-5.8 3.4v-2.3q0 0 0 0 0-0.1 0-0.1 0 0 0 0 0 0 0 0l4.9-2.8c0.7-0.4 1.6-0.6 2.4-0.6 0.9 0.1 1.7 0.3 2.4 0.8 0.7 0.5 1.2 1.2 1.6 2 0.3 0.8 0.4 1.6 0.2 2.5zm-12.6 4.1l-2-1.1q0 0 0-0.1 0 0 0 0 0 0 0 0 0 0-0.1 0v-5.6c0.1-0.8 0.3-1.7 0.8-2.4 0.4-0.7 1.1-1.3 1.8-1.6 0.8-0.4 1.7-0.5 2.5-0.4 0.9 0.1 1.7 0.4 2.3 1l-0.1 0.1-4.8 2.7q-0.1 0.1-0.2 0.1 0 0.1-0.1 0.2 0 0.1-0.1 0.2 0 0.1 0 0.2zm1.1-2.4l2.6-1.5 2.6 1.5v3l-2.6 1.5-2.6-1.5z"/></svg>