<svg version="1.2" xmlns="http://www.w3.org/2000/svg" viewBox="0 0 24 24" width="24" height="24"><style></style><path  d="M 8.8476562 3 C 3.9616562 3 0 7.03 0 12 C 0 16.97 3.9616563 21 8.8476562 21 C 13.734656 21 17.697266 16.97 17.697266 12 C 17.697266 7.03 13.734656 3 8.8476562 3 z M 20.605469 3 L 20.605469 21 L 24 21 L 24 3 L 20.605469 3 z M 8.8476562 6.6992188 C 11.727656 6.6992188 14.060547 9.072 14.060547 12 C 14.060547 14.928 11.726656 17.300781 8.8476562 17.300781 C 5.9696562 17.300781 3.6367188 14.928 3.6367188 12 C 3.6367188 9.072 5.9696562 6.6992188 8.8476562 6.6992188 z"/></svg>
