<svg version="1.2" xmlns="http://www.w3.org/2000/svg" viewBox="0 0 24 24" width="24" height="24"><style></style><path d="m 116.94198,51.561787 c 2.85817,-8.578453 1.87584,-17.972985 -2.69507,-25.774634 C 107.36654,13.827942 93.553966,7.6764491 80.062069,10.562778 74.0609,3.7978147 65.434498,-0.05144801 56.391487,5.1888376e-4 42.591236,-0.03104317 30.351924,8.8580008 26.112742,21.991059 17.254974,23.808279 9.6105172,29.355758 5.1362262,37.213434 c -6.9181139,11.938262 -5.3398046,26.977053 3.906096,37.218915 -2.8462863,8.571077 -1.8643277,17.952698 2.6950658,25.748631 6.874192,11.98212 20.703164,18.14917 34.210842,15.25638 5.995174,6.75813 14.610622,10.60673 23.644581,10.56226 13.800251,0.0316 26.039563,-8.85748 30.278745,-21.99054 8.855724,-1.81904 16.497764,-7.366708 20.970514,-15.223378 6.93573,-11.93564 5.35888,-26.986014 -3.90009,-37.224915 M 69.592811,117.78242 c -5.523109,0.004 -10.87164,-1.93485 -15.108371,-5.47814 0.186004,-0.104 0.548013,-0.285 0.756018,-0.42201 L 80.331075,97.397914 c 1.282099,-0.728123 2.07016,-2.092694 2.060051,-3.567088 v -35.37687 l 10.600261,6.119151 c 0.116134,0.05573 0.194924,0.167857 0.208005,0.296007 v 29.28072 c 0,13.041326 -10.56426,23.618586 -23.606581,23.633586 M 18.869564,96.121883 c -2.765195,-4.78031 -3.76332,-10.380071 -2.82007,-15.821389 0.185005,0.115002 0.514013,0.312007 0.744019,0.44301 L 41.89013,95.233861 c 1.272513,0.744337 2.847588,0.744337 4.120101,0 L 76.625984,77.529425 v 12.238301 c 0.01074,0.127579 -0.04524,0.251642 -0.148003,0.328009 L 51.115357,104.7341 c -11.292278,6.50216 -25.716633,2.63706 -32.245793,-8.640218 z M 12.296402,41.338535 c 2.751961,-4.78792 7.102174,-8.453754 12.287302,-10.354255 v 29.823734 c -0.008,1.473831 0.7795,2.837408 2.060051,3.567088 l 30.623753,17.683435 -10.639262,6.141151 c -0.105127,0.07141 -0.239547,0.08387 -0.356008,0.033 L 20.913614,73.590329 C 9.6313367,67.063168 5.7652416,52.632813 12.273401,41.339535 Z M 99.400544,61.609034 68.775791,43.924599 79.366052,37.799448 c 0.105511,-0.06927 0.238536,-0.08164 0.355008,-0.033 l 25.35963,14.64336 c 17.32567,10.009425 15.12652,35.682106 -3.64909,42.599047 V 65.192122 c 0.016,-1.477246 -0.76772,-2.847767 -2.049056,-3.583088 z M 109.95681,45.721643 c -0.24619,-0.151586 -0.49456,-0.299604 -0.74502,-0.444011 L 84.116169,30.788276 c -1.272514,-0.744338 -2.847589,-0.744338 -4.120102,0 L 49.372314,48.466711 V 36.23341 c -0.004,-0.127652 0.05325,-0.249527 0.154004,-0.328008 L 74.884941,21.267041 C 92.215043,11.275839 113.33979,26.013755 109.9458,45.727643 Z M 43.593172,67.54718 32.987911,61.428029 C 32.877546,61.367169 32.80232,61.257848 32.784906,61.133022 V 31.850302 C 32.768777,11.829256 56.117462,0.87984954 71.499858,13.694855 71.313854,13.799858 70.979845,13.979862 70.74384,14.116866 L 45.653222,28.601222 c -1.28055,0.72968 -2.068037,2.093256 -2.06005,3.567088 z m 5.758141,-12.418306 13.640336,-7.878193 13.635335,7.878193 V 70.873262 L 62.986649,78.750455 49.346313,70.873262 Z"/></svg>
