<svg version="1.2" xmlns="http://www.w3.org/2000/svg" viewBox="0 0 24 24" width="24" height="24"><style></style><path  d="m 19.727095,7.9907299 c 0.47068,0 0.85218,0.38157 0.85218,0.85218 0,0.47069 -0.3815,0.85225 -0.85218,0.85225 -0.47069,0 -0.85225,-0.38156 -0.85225,-0.85225 0,-0.47061 0.38156,-0.85218 0.85225,-0.85218 z m 3.34568,3.5564401 c -0.0855,2.83076 -2.24685,6.57259 -5.17668,7.53476 -3.42264,1.12397 -6.02156,-0.5624 -6.84528,-2.53936 -0.64171,-1.54025 -0.1568,-3.3829 1.04104,-4.16283 1.01141,-0.6586 2.89497,-0.83257 4.47791,0.2081 -0.55612,-1.45695 -2.05355,-2.41447 -3.37981,-2.7058801 -1.32625,-0.29141 -2.69534,0.0417 -3.6793205,0.5412401 1.2621205,-1.3945901 4.2170905,-2.7487901 7.4299305,-1.0407501 2.15344,1.1447601 3.08037,2.7474601 3.99306,4.9121801 2.39583,-3.66333 0.72731,-8.0759901 -2.18189,-10.6985701 -2.96618,-2.67388999 -6.97362,-3.74662999 -10.0396105,-3.57921999 1.01193,0.62439 2.2009905,1.51585999 3.2993105,2.55925999 -4.8538705,-0.6036 -8.8540405,0.49958 -11.32830045,3.86457 1.38221995,-0.27261 3.20490995,-0.444 5.01924995,-0.35443 -3.53612,2.49136 -5.58969995,6.6819901 -4.54579,11.0550001 0.638,-1.11499 1.5923,-2.45436 2.72791,-3.66827 -0.34919,3.26385 0.13564,7.67651 4.33246,10.52703 -0.21422,-0.89492 -0.38746,-1.98323 -0.46671,-3.13522 1.96318,1.53157 4.8131805,2.79399 8.3489005,1.92213 6.24632,-1.54027 7.91484,-7.57641 6.97362,-11.23974"/></svg>