<svg version="1.2" xmlns="http://www.w3.org/2000/svg" viewBox="0 0 24 24" width="24" height="24"><style></style><path  d="m22.9 2.7c-0.1-1.3-0.3-1.7-0.5-1.9-0.2-0.3-0.8-0.8-1.3-0.8q0 0-0.1 0-0.4 0.1-0.8 0.5-0.4-0.1-0.7-0.2-0.3-0.1-0.6-0.2-0.3 0-0.7-0.1-0.3 0-0.6 0c-2.1 0-4.1 0.9-5.7 2.4-1 1.1-1.5 2.1-1.9 3-0.4 0.9-0.7 1.6-1.4 2.3-0.9 0.7-1.8 0.9-2.7 1.1-1.2 0.3-2.4 0.5-3.7 1.8-1.4 1.4-2.2 3.3-2.2 5.4 0 2.1 0.8 4.1 2.4 5.6 1.5 1.6 3.5 2.4 5.6 2.4 2.1 0 4-0.8 5.5-2.2 1.2-1.3 1.5-2.5 1.8-3.6 0.2-0.9 0.5-1.7 1.2-2.6 0.7-0.8 1.4-1.2 2.2-1.6 0.9-0.4 1.9-1 2.9-2 2.6-2.6 3.2-6.6 1.3-9.3zm-1.8 8.8c-1.9 1.9-3.6 1.9-5.1 3.6-1.9 2.1-1 4.1-3 6.1-1.4 1.4-3.2 2-5 2-1.8 0-3.7-0.7-5.1-2.1-2.8-2.8-2.9-7.3-0.1-10 2-2.1 4.1-1 6.3-2.9 1.7-1.5 1.5-3.4 3.4-5.3 1.4-1.4 3.3-2.1 5.1-2.1 1 0 1.9 0.2 2.7 0.6 0.3-0.3 0.6-0.6 0.8-0.6 0.2 0 0.6 0.2 0.7 0.4 0.2 0.3 0.3 1.2 0.4 1.8 1.7 2.4 1.3 6-1.1 8.5zm0.5-10c-0.1-0.4-0.4-0.6-0.5-0.6-0.2 0-0.6 0.6-0.6 0.6l1.1 1c0 0 0.1-0.6 0-1zm-5 0.4c0.5 0 1.8-0.5 1.7-0.6q-0.1-0.1-0.3-0.2c-0.4 0.2-1.1 0.5-1.4 0.5-0.1 0-0.4-0.2-0.6-0.3q-0.1 0-0.1 0 0 0.1 0 0.1-0.1 0-0.1 0 0 0-0.1 0.1c0 0 0.7 0.4 0.9 0.4zm-2.4 2.1c0.3-0.1 1.7-1.5 1.7-1.7q0 0-0.2-0.1c-0.3 0.4-1.2 1.3-1.5 1.4-0.2 0.1-0.9-0.3-1.2-0.5q-0.1 0.1-0.1 0.2c0 0.1 1 0.8 1.3 0.7zm-2.2 2.4c0.2 0 1.6-1.7 1.6-1.8q0-0.1-0.1-0.2c-0.4 0.5-1.3 1.6-1.5 1.6-0.2 0-0.6-0.2-0.8-0.4q0 0.2 0 0.3c0 0.2 0.5 0.5 0.8 0.5zm-1.4 2.2c0.2 0 1.2-1.3 1.2-1.5q0.1 0 0-0.2c-0.3 0.4-1.1 1.3-1.2 1.3-0.2 0.1-0.5-0.1-0.7-0.4q0 0.1 0 0.1 0 0 0 0 0 0 0 0 0 0.1 0 0.1c-0.1 0.2 0.4 0.6 0.7 0.6zm-2.2 1.7c0.2 0 1.3-0.9 1.4-1q0.1-0.1 0-0.3c-0.1 0.1-1.2 1-1.4 1-0.2 0-0.5-0.3-0.6-0.6q0 0.1-0.1 0.1 0 0 0 0 0 0 0 0 0 0 0 0c-0.1 0.2 0.4 0.9 0.7 0.8zm-3 1.3c0.2 0 1.7-0.8 1.9-0.9 0.1-0.1 0.1-0.3 0-0.4q0 0 0 0 0 0 0 0 0 0 0 0 0 0 0 0c-0.2 0.2-1.7 1-1.9 1-0.3-0.1-0.6-0.5-0.7-0.8-0.1 0.2 0.4 1.1 0.7 1.1zm-2.2 1.9c0.2 0 1.4-1.3 1.5-1.5q0-0.1 0-0.3c-0.2 0.3-1.3 1.4-1.5 1.5-0.3 0-0.8-0.5-0.9-0.8q0 0.1-0.1 0.1c-0.1 0.2 0.6 1 1 1zm-0.5 1q0-0.1-0.1-0.3c-0.1 0.4-0.4 1.6-0.6 1.6-0.3 0-0.6-0.4-0.8-0.6q0 0 0 0 0 0 0 0.1 0 0 0 0 0 0 0 0.1c0 0.2 0.5 0.7 0.8 0.7 0.2 0 0.6-1.5 0.7-1.6zm-1.2 3.6c-0.1 0-0.3-1-0.3-1.7 0 0.6 0.2 2 0.4 2 0.2 0 0.2-1.4 0.3-1.5q0-0.1-0.1-0.2c0 0.4-0.1 1.4-0.3 1.4zm1.5 0.3c-0.1 0.3-0.5 1.1-0.7 0.8-0.1-0.1-0.2-0.3-0.2-0.6 0 0.4 0 0.8 0.2 1 0.3 0.3 0.7-0.8 0.8-1q0 0-0.1-0.2zm-0.6-1.9q0 0.2 0 0.2c0.1 0.1 0.8 1.2 1 1.3 0.2 0 1-1.3 0.9-1.5q0 0 0 0 0 0 0 0 0-0.1 0-0.1 0 0 0 0c-0.2 0.4-0.8 1.3-1 1.2-0.1 0-0.7-0.9-0.9-1.1zm4.5-3.2c-0.2 0-0.8-0.7-1.1-1.2q0 0.1-0.1 0.1c0 0.2 1 1.5 1.2 1.4 0.3 0 1.8-1 1.8-1.2q0-0.1-0.1-0.3c-0.2 0.4-1.5 1.2-1.7 1.2zm1.7-2.5q0 0.1 0 0.1c-0.1 0.2 0.6 1.2 0.8 1.2 0.3-0.1 1.7-1.2 1.8-1.5q0-0.1-0.1-0.2c-0.2 0.4-1.4 1.3-1.7 1.3-0.1 0.1-0.6-0.5-0.8-0.9zm2.4-1.9q-0.1 0.1-0.1 0.1c0 0.3 0.7 1.2 0.9 1.1 0.1 0 0.4-0.2 0.7-0.5q0.3-0.3 0.6-0.5c0.2-0.3 0.4-0.5 0.4-0.6q0-0.1-0.1-0.2c-0.3 0.4-1.3 1.4-1.6 1.5-0.2 0-0.6-0.5-0.8-0.9zm2.8-1.4c-0.1 0-0.8-0.5-1-0.9q-0.1 0.1-0.1 0.2c-0.1 0.2 0.9 1.1 1.1 1 0.3 0 1.6-1.5 1.6-1.8q0-0.1 0-0.2c-0.3 0.5-1.3 1.6-1.6 1.7zm2.2-2.5c-0.1 0-0.8-0.5-1.1-0.9q-0.1 0.1-0.1 0.2c-0.1 0.2 1 1.1 1.2 1.1 0.4-0.1 1.8-1.4 1.8-1.7q0-0.1-0.1-0.2c-0.3 0.5-1.4 1.5-1.7 1.5zm1.4-2.8q-0.1 0.1-0.1 0.1c-0.1 0.2 0.9 1.1 1.1 1.1 0.3-0.1 1.6-1.2 1.7-1.4q0-0.1-0.1-0.2c-0.3 0.4-1.3 1.2-1.6 1.2-0.1 0-0.7-0.5-1-0.8zm-12.7 13.2c-0.3-0.1-0.9-0.9-1.1-1.3q-0.1 0.1-0.1 0.2c0 0.2 0.9 1.4 1.3 1.4 0.2 0.1 1.5-1.2 1.5-1.6q0-0.1-0.1-0.2c-0.2 0.5-1.3 1.5-1.5 1.5zm18.3-8.8c0 0.5-0.2 1.1-0.4 1.3-0.1 0.1-0.4-0.4-0.4-0.7q-0.1 0-0.1 0.1 0 0 0 0 0 0 0 0.1 0 0 0 0c0 0.3 0.4 0.9 0.5 0.9 0.3-0.3 0.4-1.1 0.4-1.7zm-2.2 4.2c-0.1 0-0.6-0.6-0.7-1q0 0 0 0 0 0 0 0 0 0 0 0 0 0 0 0c-0.1 0.3 0.5 1.4 0.7 1.3 0.2-0.1 1.2-1.2 1.3-1.8q0-0.1 0-0.3c-0.1 0.6-1.1 1.7-1.3 1.8zm-2.6 1.7c-0.2-0.1-0.4-0.3-0.5-0.6q0 0.1 0 0.1c0 0.3 0.2 0.8 0.5 0.8 0.2 0.1 1.8-0.7 1.9-0.9q0.1-0.1 0-0.3c-0.2 0.2-1.7 1-1.9 0.9zm-2.1 1.3c-0.2 0-0.5-0.2-0.6-0.5q-0.1 0.1-0.1 0.1c0 0.3 0.4 0.8 0.7 0.7 0.1 0 1.3-0.7 1.4-0.9q0.1-0.1 0-0.3c-0.2 0.2-1.3 0.9-1.4 0.9zm-1.6 2.2c-0.1 0.1-0.6-0.3-0.8-0.5q0 0 0 0.1c0 0.3 0.7 0.8 0.8 0.7 0.2-0.1 1-1.5 1-1.7q0 0 0 0 0 0-0.1 0 0-0.1 0-0.1 0 0 0 0c-0.2 0.4-0.7 1.4-0.9 1.5zm-0.2 1c-0.2 0.6-0.6 1.8-0.7 1.9-0.2 0.2-0.9-0.2-1.1-0.5q-0.1 0.1-0.1 0.2c0.1 0.4 1 0.8 1.2 0.7 0.1-0.2 0.8-2 0.7-2.2q0 0 0 0 0 0 0 0 0 0 0-0.1 0 0 0 0zm-2.8 4.4c-0.2 0.1-0.7-0.3-0.9-0.7q0 0 0 0-0.1 0-0.1 0.1 0 0 0 0 0 0 0 0c0 0.4 0.8 1.1 1 0.9 0.3-0.1 1.7-1.3 1.6-1.5q0-0.1 0-0.1 0 0 0 0 0 0 0-0.1 0 0-0.1 0c-0.2 0.4-1.3 1.3-1.5 1.4zm-2.9 1c-0.1 0-0.5-0.2-0.6-0.5q-0.1 0.1-0.1 0.1c0 0.3 0.5 0.8 0.7 0.8 0.3 0 2.1-0.5 2.1-0.6q-0.1-0.1-0.2-0.3c-0.4 0.2-1.6 0.5-1.9 0.5zm-2.7-0.1c-0.2 0-0.3 0.1-0.3 0.1 0 0.3 2.3 0.5 2.3 0.4q-0.1-0.1-0.2-0.3c-0.4 0-1.3-0.1-1.8-0.2zm0.6-0.6q0-0.1-0.2-0.3c-0.3 0.2-1.4 0.3-1.8 0-0.1 0.1-0.2 0.2-0.1 0.3 0.4 0.4 2.1 0.2 2.1 0zm0.8-0.1c0.2 0 1.7-0.4 1.7-0.8q0 0-0.1-0.1c-0.3 0.3-1.5 0.6-1.7 0.5 0 0-0.8-0.5-1.1-0.8q-0.1 0.2-0.1 0.2c0.1 0.2 1.2 0.9 1.3 1zm5.7-5.3q0 0-0.1-0.2c-0.2 0.5-1 1.8-1.1 1.8-0.2 0.1-1.1-0.6-1.4-0.9q0 0 0 0 0 0 0 0 0 0.1 0 0.1 0 0 0 0c-0.1 0.2 1.2 1.2 1.4 1.2 0.1-0.1 1.1-1.8 1.2-2zm0.1-0.8c0.2-0.1 1.2-1.6 1.2-1.7q0-0.1-0.1-0.3c-0.2 0.4-1 1.6-1.1 1.6-0.2 0.1-0.8-0.4-1.1-0.7q0 0 0 0.1 0 0 0 0 0 0 0 0 0 0.1 0 0.1c-0.1 0.2 0.9 0.9 1.1 0.9zm3.5-3.7q0-0.1-0.1-0.3c-0.3 0.3-1.4 1.2-1.5 1.2-0.2 0.1-0.8-0.4-1-0.6q-0.1 0.1-0.1 0.1c0 0.2 0.8 0.9 1.1 0.9 0.1 0 1.5-1.2 1.6-1.3zm0.7-0.4c0.1-0.1 1.8-1.3 1.8-1.4q0-0.1-0.1-0.3c-0.3 0.3-1.6 1.3-1.7 1.3-0.2 0-0.8-0.6-1-0.9q-0.1 0-0.1 0.1c0 0.2 0.8 1.2 1.1 1.2zm2.5-2.1c0.1-0.1 1.5-1.6 1.6-1.7q0-0.1-0.1-0.3c-0.3 0.4-1.4 1.6-1.5 1.6-0.2 0-0.9-0.7-1.1-1.1q0 0.1 0 0.1 0 0 0 0 0 0 0 0.1 0 0 0 0c-0.1 0.2 0.8 1.3 1.1 1.3zm1-3.8q-0.1 0.1-0.1 0.1c-0.1 0.2 0.8 1.2 1 1.2 0.2-0.1 0.9-1.6 1-1.7q0-0.1-0.1-0.4c-0.1 0.3-0.7 1.7-0.9 1.7-0.2 0-0.7-0.6-0.9-0.9zm-9.3 13.3q0 0-0.1-0.1c-0.3 0.5-1.4 1.4-1.7 1.4-0.2 0-1.1-0.6-1.4-1q0 0.1 0 0.1c0.1 0.4 1.2 1.3 1.5 1.3 0.3 0 1.7-1.3 1.7-1.7zm-6.7 1.6q0-0.1-0.1-0.2c-0.2 0.3-0.8 0.6-1 0.6-0.1 0-0.7-0.6-0.8-0.8q-0.1 0.2 0 0.3c0 0.1 0.7 0.8 0.8 0.8 0.2 0.1 1.2-0.5 1.1-0.7zm0.5-0.3c0.4 0.1 1.4-0.8 1.4-1.2q0 0 0 0 0 0 0-0.1 0 0-0.1 0 0 0 0 0c-0.2 0.4-1 1-1.3 1-0.1 0-1.2-1.1-1.4-1.4q-0.1 0.2 0 0.3c0 0.1 1.3 1.4 1.4 1.4zm5.5-5.4q0 0 0-0.1 0 0 0 0 0 0 0 0 0 0 0 0c-0.2 0.5-0.9 1.4-1.3 1.4-0.4 0-1.6-1.1-1.9-1.7q0 0.1 0 0.2c0 0.5 1.4 1.9 1.9 1.9 0.5 0 1.4-1.5 1.3-1.7zm1.9-2.4q0-0.1 0-0.2c-0.3 0.5-1 1.4-1.4 1.5-0.3 0-1-0.7-1.2-1.1q0 0 0 0 0 0 0 0 0 0.1 0 0.1-0.1 0-0.1 0c0 0.4 1 1.4 1.3 1.3 0.5-0.1 1.5-1.4 1.4-1.6zm0.8-0.5c0.5-0.1 1.6-1.7 1.6-1.9q0 0-0.1-0.1c-0.2 0.5-1.1 1.5-1.5 1.6-0.4 0.1-1.1-0.6-1.3-1q0 0 0 0.1c-0.1 0.4 0.9 1.4 1.3 1.3zm3.9-3.8q0-0.1 0-0.3c-0.3 0.6-1.5 1.6-1.8 1.6-0.2 0-0.9-0.8-1.2-1.1q0 0.1 0 0.2c0 0.2 1 1.2 1.2 1.2 0.3 0 1.7-1.2 1.8-1.6zm2.4-2.4q0-0.1 0-0.1-0.1 0-0.1 0 0-0.1 0-0.1 0 0 0 0c-0.2 0.5-1.3 1.8-1.7 1.7-0.1 0-1.1-1-1.4-1.4q-0.1 0.1-0.1 0.2c0 0.2 1.4 1.6 1.5 1.6 0.4 0 1.7-1.4 1.8-1.9zm-0.8-1.9q-0.1 0.2-0.1 0.2c0 0.1 1 1.2 1.1 1.1 0.3 0 1.5-1.2 1.5-1.6q0-0.1 0-0.2c-0.2 0.4-1.2 1.5-1.5 1.5-0.1 0-0.7-0.7-1-1zm-11.5 14.5c-0.4 0-1.7-1.4-2-2q-0.1 0.2-0.1 0.2c0.1 0.4 1.7 2.1 2.1 2.1 0.4 0 1.5-1.1 1.5-1.6q-0.1 0-0.1 0 0 0 0 0 0 0 0-0.1 0 0 0 0c-0.2 0.5-1.1 1.4-1.4 1.4z"/></svg>