<svg version="1.2" xmlns="http://www.w3.org/2000/svg" viewBox="0 0 24 24" width="24" height="24"><style></style><path d="m 0.533533,2.1842315 a 0.04870611,0.04870611 0 0 0 -0.04869,0.04869 0.04870611,0.04870611 0 0 0 0.02625,0.04324 c -0.08529,0.14253 -0.125566,0.256998 -0.05584,0.474685 -0.237745,-0.06691 -0.295762,0.08405 -0.381228,0.194229 a 0.04870611,0.04870611 0 0 0 -0.02534,-0.0071 0.04870611,0.04870611 0 0 0 -0.048689999009,0.04869 0.04870611,0.04870611 0 0 0 0.048689999009,0.04872 0.04870611,0.04870611 0 0 0 0.04872,-0.04872 0.04870611,0.04870611 0 0 0 -0.0061,-0.02364 c 0.207436,-0.0911 0.441811,-0.101724 0.527166,0.199595 0.155491,-0.1126 0.323771,-0.225261 0.564611,-0.338272 1.5e-5,-8e-6 7e-5,-4.9e-5 8.6e-5,-5.8e-5 3e-5,-2.1e-5 6.5e-5,-4e-5 8.6e-5,-5.7e-5 l 2.8e-5,-2.9e-5 2.9e-5,-2.9e-5 2.9e-5,-2.8e-5 v -2.9e-5 l 2.8e-5,-2.9e-5 v -2.8e-5 -2.9e-5 -2.9e-5 c 1.05e-4,-6.43e-4 -10e-4,-0.0018 -0.0016,-0.0024 -0.1567,-0.193433 -0.152434,-0.335224 -0.07865,-0.45279 a 0.04870611,0.04870611 0 0 0 0.01214,0.0015 0.04870611,0.04870611 0 0 0 0.04872,-0.04872 0.04870611,0.04870611 0 0 0 -0.04872,-0.04869 0.04870611,0.04870611 0 0 0 -0.04855,0.04502 c -0.09896,0.0069 -0.202758,0.04642 -0.279135,0.258389 -0.207498,0.004 -0.241194,-0.140758 -0.247859,-0.295089 a 0.04870611,0.04870611 0 0 0 0.04255,-0.04832 0.04870611,0.04870611 0 0 0 -0.04872,-0.04869 z m 1.578684,0.606389 c -0.01525,1.15e-4 -0.03148,8.69e-4 -0.0458,0.0023 l -1.14e-4,0.275605 c 0.02728,-0.0027 0.05505,-0.0046 0.08582,-0.002 l -8.6e-5,-0.274401 c -0.01033,-0.0011 -0.02458,-0.0016 -0.03983,-0.0015 z m 0.09521,0.0094 5.7e-5,0.273768 c 0.02493,0.0052 0.04831,0.01196 0.0724,0.0204 l 2.8e-5,-0.243153 c -0.0042,-0.03515 -0.05564,-0.047 -0.07248,-0.05102 z m -0.196382,0.0022 c -0.02146,0.006 -0.06178,0.01684 -0.06964,0.04594 v 0.249896 c 0.02286,-0.0077 0.04589,-0.01486 0.06955,-0.02006 z m 0.604266,0.05099 v 1.312576 h 0.338474 v -0.455401 h 0.223296 c 0.167042,0 0.295123,-0.03694 0.384212,-0.110788 0.08967,-0.07444 0.134518,-0.180508 0.134518,-0.318244 0,-0.137151 -0.04484,-0.242645 -0.134518,-0.316495 -0.08909,-0.07444 -0.21717,-0.111648 -0.384212,-0.111648 z m 1.319635,0 v 1.312576 H 4.867729 V 3.9099515 H 4.273419 V 3.6092965 H 4.8141 V 3.3533955 H 4.273416 v -0.244387 h 0.57497 v -0.255835 z m 1.229937,0 v 1.312576 h 0.338474 v -0.496721 h 0.09584 c 0.0551,0 0.09905,0.01201 0.131877,0.03604 0.03341,0.02403 0.06624,0.06887 0.09848,0.134517 l 0.159997,0.326164 H 6.350005 L 6.166278,3.7930235 c -0.03751,-0.07561 -0.07475,-0.131882 -0.111677,-0.168807 -0.03634,-0.03751 -0.07766,-0.06153 -0.123958,-0.07208 0.0844,-0.02638 0.147421,-0.06742 0.189035,-0.123097 0.0422,-0.05568 0.0633,-0.126882 0.0633,-0.213626 0,-0.125428 -0.04046,-0.21715 -0.121346,-0.275175 -0.0803,-0.05803 -0.20689,-0.08703 -0.379794,-0.08703 z m -3.892937,0.0034 C 1.050721,2.9611815 0.836583,3.0958675 0.62573,3.2444955 v 0.921248 h 0.338502 v -0.455401 h 0.223297 c 0.167042,0 0.295123,-0.03694 0.384212,-0.110788 0.08967,-0.07444 0.134488,-0.180508 0.134488,-0.318244 0,-0.137151 -0.04481,-0.242645 -0.134488,-0.316495 -0.07344,-0.06136 -0.173384,-0.09743 -0.299795,-0.108205 z m -0.307714,0.241833 h 0.187257 c 0.06565,0 0.116354,0.01584 0.152107,0.04749 0.03575,0.03165 0.05363,0.07677 0.05363,0.135379 0,0.05861 -0.01788,0.104031 -0.05363,0.136267 -0.03575,0.03165 -0.08646,0.04749 -0.152107,0.04749 H 0.964232 Z m 1.989553,0 h 0.187257 c 0.06564,0 0.116353,0.01584 0.152106,0.04749 0.03575,0.03165 0.05363,0.07677 0.05363,0.135379 0,0.05861 -0.01788,0.104031 -0.05363,0.136267 -0.03575,0.03165 -0.08646,0.04749 -0.152106,0.04749 H 2.953785 Z m 2.549572,0 h 0.142437 c 0.07092,0 0.121629,0.01289 0.152106,0.03868 0.03106,0.02579 0.0466,0.06856 0.0466,0.128347 0,0.06037 -0.01553,0.103753 -0.0466,0.130128 -0.03048,0.02637 -0.08119,0.03957 -0.152106,0.03957 H 5.503357 Z m -3.394523,0.04732 c -0.01423,7e-6 -0.02833,7.36e-4 -0.04252,0.0022 l 1.14e-4,0.675628 h 0.08577 l -5.8e-5,-0.675657 c -0.01469,-0.0014 -0.02907,-0.0021 -0.0433,-0.0021 z m -0.09787,0.01036 c -0.03756,0.0093 -0.04961,0.01334 -0.06964,0.02046 l 5.7e-5,0.491556 h 0.06961 z m 0.196439,0 1.43e-4,1.009597 h 0.07225 l -5.8e-5,-0.989483 c -0.02003,-0.0071 -0.03318,-0.01134 -0.07234,-0.02011 z"/></svg>
