<svg xmlns="http://www.w3.org/2000/svg" width="24" height="24" viewBox="0 0 24 24"><path fill="currentColor" d="m17 8.2q2.3 0.2 3.6 1.3 1.7 1.3 1.7 3.8 0 2.4-1.7 3.8-1.6 1.3-4.6 1.3h-2.7v5.5h-4v-11.1c2.5-1.8 5.1-3.4 7.7-4.6zm-3.7 2.9v4.4h2.3q1.2 0 1.8-0.6 0.7-0.6 0.7-1.6 0-1.1-0.7-1.7-0.6-0.5-1.8-0.5zm-4.6-10.4q0 0.2-0.1 0.4-0.2 0.1-0.4 0.2 0 0.6 0.1 1.2 0.1 0.5 0.4 1 0.2 0.6 0.8 1 0.6 0.3 1.7 0.3 0.3-0.9 0.7-1.5 0.4-0.6 0.8-1 0.5-0.3 0.9-0.4 0.5-0.2 0.9-0.2 0-0.1 0.1-0.2 0-0.1 0.1-0.2 0.1-0.1 0.2-0.1 0.1 0 0.2 0 0.1 0 0.2 0 0.1 0 0.2 0.1 0.1 0.1 0.1 0.2 0.1 0.1 0.1 0.2 0 0.2-0.1 0.3 0 0.1-0.1 0.2-0.1 0-0.2 0.1-0.1 0-0.2 0 0 0 0 0 0 0-0.1 0 0 0 0 0 0 0 0 0-0.4 0.5-0.5 1.1-0.2 0.6-0.1 1.3 0.1 0.7 0.4 1.4 0.4 0.8 1.1 1.6 0 0 0 0.1 0 0 0 0 0 0 0 0 0 0 0 0-1.1 0.5-2 1-0.9 0.5-1.8 1-0.8 0.5-1.5 1-0.8 0.5-1.5 1c-0.2-1-0.7-1.7-1.2-2.1-0.5-0.5-1.1-0.8-1.7-0.9q-0.8-0.1-1.7 0.1-0.8 0.2-1.7 0.5 0 0.1 0.1 0.2 0 0 0 0.1 0 0.3-0.2 0.4-0.1 0.2-0.4 0.2-0.2 0-0.4-0.2-0.2-0.1-0.2-0.4 0-0.2 0.2-0.4 0.2-0.2 0.4-0.2 0.1 0 0.2 0.1 0 0 0.1 0 0.3-0.4 0.6-0.9 0.4-0.4 0.7-0.8c0.4-0.3 0.8-0.6 1.3-0.7 0.5-0.1 1.2-0.1 2 0.1q-0.4-1.1-0.4-1.9-0.1-0.9 0.1-1.6 0.1-0.5 0.4-1.1 0.2-0.5 0.6-1.1-0.2-0.1-0.3-0.2-0.1-0.2-0.1-0.3 0-0.3 0.2-0.4 0.2-0.2 0.4-0.2 0.3 0 0.4 0.2 0.2 0.1 0.2 0.4z"/></svg>