<svg version="1.2" xmlns="http://www.w3.org/2000/svg" viewBox="0 0 24 24" width="24" height="24"><style></style><path d="M 2.1508787,5.4645783e-5 C 2.0647166,8.3145783e-5 1.9948755,0.06992465 1.994847,0.15608635 c -2.33e-5,0.05827 0.032414,0.1117011 0.084121,0.1385667 C 1.8056478,0.75140385 1.6765795,1.1182273 1.9000231,1.8158259 1.1381468,1.6014065 0.95222581,2.085172 0.67834191,2.438251 c -0.024468,-0.014892 -0.052561,-0.022763 -0.081204,-0.022753 -0.086162,2.85e-5 -0.1560032,0.06987 -0.15603171,0.1560317 -2.459e-5,0.0862 0.069832,0.1560994 0.15603171,0.1561279 0.086237,2.46e-5 0.1561525,-0.069891 0.1561279,-0.1561279 2.12e-5,-0.026502 -0.00671,-0.052574 -0.019548,-0.075757 C 1.3984661,2.203835 2.1495429,2.1697894 2.4230711,3.1353946 2.9213562,2.7745572 3.4606253,2.4135244 4.2324198,2.05137 c 4.81e-5,-2.57e-5 2.243e-4,-1.571e-4 2.756e-4,-1.859e-4 9.62e-5,-6.73e-5 2.083e-4,-1.282e-4 2.756e-4,-1.827e-4 l 8.97e-5,-9.29e-5 9.3e-5,-9.29e-5 9.29e-5,-8.98e-5 v -9.29e-5 l 8.97e-5,-9.29e-5 v -8.98e-5 -9.29e-5 -9.29e-5 c 3.365e-4,-0.00206 -0.0032,-0.00577 -0.00513,-0.00769 -0.50216,-0.6198743 -0.4884892,-1.07425695 -0.2520414,-1.45100835 0.012722,0.00323 0.025797,0.00485 0.038904,0.00481 0.086239,2.46e-5 0.1561535,-0.069891 0.1561279,-0.1561278 -2.86e-5,-0.0862 -0.069927,-0.1560563 -0.1561279,-0.1560317 -0.081599,2.75e-5 -0.1494078,0.062905 -0.155583,0.1442708 -0.3171267,0.022111 -0.6497572,0.1487563 -0.8945145,0.82803095 -0.6649469,0.012818 -0.772929,-0.45107225 -0.7942876,-0.94564055 0.07795,-0.00993 0.1363628,-0.076265 0.1363555,-0.154846 C 2.3070108,0.06983175 2.2371112,-2.4554217e-5 2.1509115,3.9287907e-8 Z M 4.5171929,2.1547566 C 3.8082565,2.4898642 3.1220311,2.9214782 2.4463327,3.3977707 V 6.3499969 H 3.5310943 V 4.8906214 h 0.7155764 c 0.5353018,0 0.9457495,-0.1183777 1.2312436,-0.3550306 0.287356,-0.23855 0.4309795,-0.5784549 0.4309795,-1.019843 0,-0.4395133 -0.1435979,-0.7775788 -0.4309795,-1.0142381 C 5.2425689,2.3048758 4.9222889,2.1892861 4.5171929,2.1547566 Z M 3.5310943,2.9297333 h 0.6000828 c 0.2103816,0 0.3728674,0.050761 0.4874412,0.1521862 0.1145643,0.1014254 0.1718624,0.2460167 0.1718624,0.4338347 0,0.1878213 -0.057298,0.3333772 -0.1718624,0.4366805 C 4.5040541,4.0538601 4.3415491,4.1046209 4.1311771,4.1046209 H 3.5310943 Z"/></svg>
