<svg version="1.2" xmlns="http://www.w3.org/2000/svg" viewBox="0 0 24 24" width="24" height="24"><style></style><path  d="m7 16h.1v-.1q.2-1 .2-2.1 0-1.2.1-2.4.3-1.4 1.3-5c.3-1.1.3-2.2.1-3.3q-.1-.4-.3-.7-.1-.1-.1-.1c0-.1-.1-.1-.1-.2q0 0 .1-.1.5-.1.9 0c.6.2.9 1.2 1 2.8q0 1.3-.1 2.7c0 .7-.6 1.4-1.7 2.4q-.3.8-.5 1.6-.4 2.2-.3 4.5v.1l.1-.1h.1q.7.2 1.4.4 0 .1 0 .1 0 .1-.1.1-.9.1-1.7.2-1 .1-1.7.3c-.1 0-.2-.2-.2-.3l.2-.1c1-.6 1-.6 1.2-.7zm-.9-3q.1-.6.2-1.2.1-1.3.7-2.4.3-.8 1-1.2h.1q-.5 1.7-.7 2.7-.4 1-.7 2.1v.1h.1.1q.1 0 .2 0 0 .3 0 .6l-.5.1q-.9.1-1.5.2c-.1.1-.2-.1-.2-.2l.2-.1c.8-.5.9-.6 1-.7zm2 .6h-.2v-.3q.1.1.2.1 0 .1 0 .1 0 .1 0 .1zm5.8-7.4q.5-.1 1-.1c.4 0 .9.1 1.3.4 2.4 3.5 3.9 7.5 4.3 11.7q.1 1.3-2 2h-.1c-.3.1-3.1.5-4.4-.7q-.3-.3-.5-.6c-.1-1-.4-2.2-.6-3.4l-.2-.9q-.3-1-.6-2.1c-.2-.5-.4-1.2-.8-2.6q-.1-.5 0-1.1c.3-1.3 1.3-2.3 2.6-2.6zm-3.6 1.3c0-.1.5-4.6-.7-5.5q0-.1.1-.1.5-.1 1.1-.1c0-.1 0-.2 0-.3q.1-.7.5-1.2c.3-.3.7-.4 1-.2.4.1.7.4.8.8.1.2 0 .5.2.6.1 0 .1 0 .2 0q.5-.1.5-.1.3.1.4.2h.1q.1.1.2.2 0 0 0 0c.8 1.2 1.3 2.5 1.3 4v.3.1c-.7-.2-1.4-.3-2.1-.1s-1.3.5-1.8 1-.8 1.1-.9 1.7q-.1.4-.1.9c-.2-.4-.4-.8-.8-1.5h-.2q.2-.3.2-.7zm1.1-4.5c.1.3 0 .7.1 1.1s.5.8.6 1.2c0 .1.1.2.2.2l2.8-.4q.1 0 .2-.1 0-.1 0-.2c-.1-.4-.1-.8-.2-1.3-.1-.3-.4-.6-.5-.9-.1-.1-.1-.2-.2-.2l-2.8.3q-.1 0-.2.1 0 .1 0 .2zm-9.1.4 5.9-1.1q.1 0 .1.1 0 0 .1 0 .1.4.2.8c.3 1 .3 2.1 0 3.2q-.2.8-.4 1.6-.1 0-.2.1-.3.2-.6.4l-4.3.6c-1 .1-1.9-.6-2-1.6l-.3-2.1c-.1-.9.6-1.9 1.5-2zm17.8 11.6q-.1-.4-.2-.7.2-.1.3-.2h.1v-.1c-.3-.7-.8-1.6-1.3-2.6q-1-2.7-2.7-5-.1-.1-.2-.2 0-.2 0-.4.1-1.3-.4-2.5-.3-.9-.9-1.6 0 0 0 0c-.1-.1-.2-.1-.2-.2q0-.1.1-.1.4-.2.9-.2c.6.1 1.1.9 1.5 2.5q.4 1.3.5 2.7.1.2 0 .5v.1l.3.5c.5.9 1.1 1.8 1.4 2.5q.5 1.1.9 2.2.4.9.8 1.9h.1q.7.2 1.4.4 0 .1 0 .1 0 .1 0 .1-1 .1-1.8.2zm-2.2-7.9-.1-.1q0-.3 0-.6c0-.1-.4-3.6-1.5-4.9l4.7-.4c1-.1 1.9.7 2 1.7l.2 2.1c.1 1-.6 1.9-1.6 1.9zm-4.6 11.2q.1.3.1.6.1.4.5.7c.8.6 1.7.9 2.7.9q.1 0 .3 0 .8 0 1.6-.2.7-.2 1.3-.5c.6-.4.9-.9.9-1.6.8.4 1.4 1.2 1.4 2.1 0 2.1-2.2 3.7-4.9 3.7-2.8 0-5-1.6-5-3.7 0-.8.4-1.6 1.1-2z"/></svg>