<svg version="1.2" xmlns="http://www.w3.org/2000/svg" viewBox="0 0 24 24" width="24" height="24"><style></style><path  d="m1.3 17.8c0 0.7 0.6 1.3 1.3 1.3h6.5c0.7 0 1.2-0.6 1.2-1.3v-1.7c0-0.7-0.5-1.2-1.2-1.2h-6.5c-0.7 0-1.3 0.5-1.3 1.2v1.7zm0 4.9c0 0.7 0.6 1.3 1.3 1.3h6.5c0.7 0 1.2-0.6 1.2-1.3v-1.6c0-0.7-0.5-1.3-1.2-1.3h-6.5c-0.7 0-1.2 0.6-1.2 1.3v1.6zm0-19.8c0 0.7 0.5 1.3 1.2 1.3h6.5c0.7 0 1.2-0.6 1.2-1.3v-1.6c0-0.7-0.5-1.3-1.2-1.3h-6.5c-0.7 0-1.2 0.6-1.2 1.3zm0 5.1c0 0.6 0.4 1.1 1.1 1.1h4.6c0.6 0 1.1-0.5 1.1-1.1v-2c0-0.6-0.5-1.1-1.1-1.1h-4.6c-0.6 0-1.1 0.5-1.1 1.1zm0 4.8c0 0.7 0.5 1.2 1.2 1.2h6.5c0.7 0 1.2-0.5 1.2-1.2v-1.7c0-0.7-0.5-1.3-1.2-1.3h-6.5c-0.7 0-1.2 0.6-1.2 1.3zm10.5-9.9c0 0.7 0.5 1.2 1.2 1.2h6.5c0.7 0 1.3-0.5 1.3-1.2v-1.7c0-0.7-0.6-1.3-1.3-1.3h-6.5c-0.7 0-1.2 0.6-1.2 1.3zm2.5 5c0 0.7 0.5 1.2 1.2 1.2h5.9c0.6 0 1.2-0.5 1.2-1.2v-1.8c0-0.6-0.6-1.2-1.2-1.2h-5.9c-0.7 0-1.2 0.6-1.2 1.2zm-2.6 5c0 0.7 0.6 1.2 1.3 1.2h5.8c0.7 0 1.2-0.5 1.2-1.2v-1.8c0-0.6-0.5-1.2-1.2-1.2h-5.8c-0.7 0-1.3 0.6-1.3 1.2z"/></svg>