<?xml version="1.0" encoding="UTF-8" standalone="no"?>
<svg
   version="1.2"
   viewBox="0 0 24 24"
   width="24"
   height="24"
   id="svg6"
   sodipodi:docname="pulsarr.svg"
   inkscape:version="1.2.1 (9c6d41e410, 2022-07-14)"
   xmlns:inkscape="http://www.inkscape.org/namespaces/inkscape"
   xmlns:sodipodi="http://sodipodi.sourceforge.net/DTD/sodipodi-0.dtd"
   xmlns="http://www.w3.org/2000/svg"
   xmlns:svg="http://www.w3.org/2000/svg">
  <defs
     id="defs10" />
  <sodipodi:namedview
     id="namedview8"
     pagecolor="#ffffff"
     bordercolor="#000000"
     borderopacity="0.25"
     inkscape:showpageshadow="2"
     inkscape:pageopacity="0.0"
     inkscape:pagecheckerboard="0"
     inkscape:deskcolor="#d1d1d1"
     showgrid="false"
     inkscape:zoom="43.839176"
     inkscape:cx="6.5580613"
     inkscape:cy="14.97519"
     inkscape:window-width="2736"
     inkscape:window-height="1700"
     inkscape:window-x="-12"
     inkscape:window-y="-12"
     inkscape:window-maximized="1"
     inkscape:current-layer="svg6" />
  <style
     id="style2" />
  <path
     id="path392"
     style="fill:#1a1a1a;stroke-width:0;stroke-dasharray:none"
     d="M 12 0 A 12.000228 12 0 0 0 0 12 A 12.000228 12 0 0 0 12 24 A 12.000228 12 0 0 0 24 12 A 12.000228 12 0 0 0 12 0 z M 11.957031 0.6171875 C 11.959154 0.61595988 11.960974 0.61917466 11.962891 0.625 C 11.96932 0.64450356 12.101512 1.818346 12.255859 3.2324219 C 12.640267 6.7542135 12.880179 8.9051704 12.902344 9.015625 C 12.919412 9.100675 12.722549 9.6122355 12.417969 10.269531 L 12.335938 10.445312 L 12.291016 9.9863281 C 12.26641 9.7335082 12.180509 8.8171649 12.099609 7.9492188 C 12.018707 7.0812576 11.943251 6.4102634 11.931641 6.4589844 C 11.919986 6.5077508 11.868419 7.0105385 11.818359 7.5761719 C 11.768309 8.1418053 11.688225 9.0026152 11.640625 9.4902344 C 11.593025 9.9778384 11.551375 10.39021 11.546875 10.40625 C 11.542429 10.422244 11.41079 10.140045 11.253906 9.7792969 C 11.030986 9.2666817 10.971875 9.0980063 10.984375 9.0058594 C 10.993187 8.9410089 11.047419 8.4739196 11.105469 7.9667969 C 11.163519 7.4596893 11.272226 6.5088757 11.347656 5.8554688 C 11.423075 5.2020769 11.579636 3.8306303 11.695312 2.8066406 C 11.910323 0.90359287 11.942171 0.62578086 11.957031 0.6171875 z M 10.943359 3.0976562 C 11.020507 3.1018337 11.006132 3.1714761 10.958984 3.4863281 L 10.917969 3.7597656 L 10.775391 3.78125 C 8.8775852 4.0737882 7.3067397 4.8982779 5.9824219 6.296875 C 4.914717 7.4244651 4.15322 8.9006861 3.8574219 10.417969 C 3.8046225 10.688824 3.7573131 10.916228 3.7519531 10.923828 C 3.7466211 10.931848 3.6004665 10.956726 3.4277344 10.978516 C 3.0549474 11.025619 3.0789187 11.081115 3.203125 10.433594 C 3.4136861 9.3359328 3.7494251 8.431523 4.2949219 7.4960938 C 5.6945108 5.0960366 8.0865827 3.4915782 10.833984 3.109375 C 10.882266 3.1026607 10.917644 3.0962638 10.943359 3.0976562 z M 12.894531 3.1015625 C 12.918311 3.0773835 13.668775 3.2087445 14.070312 3.3066406 C 14.723462 3.4658314 15.173776 3.6311146 15.832031 3.9570312 C 17.496845 4.7813251 18.821793 6.0545928 19.748047 7.71875 C 20.211587 8.5515776 20.590863 9.6805634 20.746094 10.689453 C 20.77243 10.860536 20.783244 11.003666 20.771484 11.009766 C 20.759676 11.015206 20.618004 11.003002 20.455078 10.982422 L 20.158203 10.945312 L 20.064453 10.494141 C 19.877261 9.5941018 19.708702 9.0895529 19.347656 8.3554688 C 18.538001 6.7092566 17.198577 5.3474993 15.621094 4.5625 C 14.859496 4.1835198 14.232444 3.9760761 13.408203 3.8320312 C 13.188868 3.7935993 13.006553 3.7584462 13.001953 3.7539062 C 12.98713 3.7388209 12.883961 3.1121545 12.894531 3.1015625 z M 16.916016 7.0351562 C 16.923796 7.0430393 16.883425 7.1127402 16.828125 7.1894531 C 16.710971 7.3518062 15.48599 9.2442985 14.988281 10.03125 L 14.646484 10.570312 L 14.226562 10.734375 C 13.995967 10.824751 13.685579 10.951775 13.537109 11.015625 C 13.388629 11.079475 13.277916 11.113887 13.291016 11.091797 C 13.304127 11.069661 13.576268 10.739703 13.894531 10.359375 C 14.212798 9.9790327 14.612644 9.4938512 14.783203 9.2792969 C 14.953764 9.0647578 15.118128 8.8578365 15.148438 8.8203125 C 15.194497 8.7634206 15.194111 8.756284 15.150391 8.78125 C 15.044345 8.8420302 14.035447 9.64258 13.498047 10.091797 C 13.193395 10.346464 12.905082 10.585677 12.857422 10.623047 L 12.771484 10.691406 L 12.822266 10.587891 C 12.851066 10.53106 12.979509 10.222828 13.107422 9.9023438 C 13.235335 9.5818742 13.367891 9.2969043 13.400391 9.2714844 C 13.432888 9.2460041 14.117908 8.8075686 14.923828 8.296875 C 15.729749 7.7861663 16.503861 7.2910904 16.644531 7.1953125 C 16.785216 7.0994438 16.908316 7.0275863 16.916016 7.0351562 z M 7.0019531 7.0703125 C 7.0154832 7.047799 7.2253679 7.1700005 7.7421875 7.4980469 C 8.1805936 7.7763319 8.8545078 8.2017362 9.2382812 8.4433594 C 9.6220538 8.6849976 10.070352 8.9753177 10.236328 9.0878906 L 10.539062 9.2929688 L 10.705078 9.7285156 C 10.796434 9.9682627 10.924241 10.282039 10.988281 10.425781 C 11.125049 10.732815 11.162116 10.752844 10.470703 10.160156 C 9.9048606 9.675094 8.7572302 8.762034 8.7382812 8.78125 C 8.7227853 8.7970011 9.3349738 9.5626279 10.066406 10.443359 C 10.371524 10.810765 10.616175 11.115447 10.609375 11.123047 C 10.602475 11.130007 10.573142 11.121826 10.544922 11.103516 C 10.516696 11.085223 10.226599 10.963655 9.9003906 10.833984 C 9.5741856 10.704284 9.2852765 10.580234 9.2578125 10.558594 C 9.2043133 10.51647 8.9098642 10.067058 7.7832031 8.3027344 C 7.3908638 7.6883497 7.0421235 7.1429527 7.0078125 7.0898438 C 7.0020342 7.0808996 7.0000203 7.0735287 7.0019531 7.0703125 z M 14.921875 10.984375 L 16.056641 11.119141 C 16.680789 11.192707 17.646657 11.306777 18.203125 11.373047 C 20.420875 11.636943 22.51467 11.884038 22.871094 11.923828 C 23.077886 11.946978 23.239822 11.972869 23.232422 11.980469 C 23.224577 11.988443 22.387507 12.089025 21.373047 12.205078 C 20.358594 12.321147 19.12195 12.466081 18.623047 12.525391 C 18.124142 12.584658 17.114366 12.704016 16.378906 12.791016 C 15.643449 12.877938 14.998546 12.947932 14.947266 12.947266 C 14.860439 12.946131 13.6482 12.46163 13.59375 12.40625 C 13.580189 12.39172 13.625673 12.380859 13.695312 12.380859 C 13.764938 12.380859 14.391572 12.317854 15.087891 12.240234 C 15.784207 12.162643 16.596698 12.074732 16.892578 12.044922 C 17.188458 12.015112 17.435606 11.986569 17.441406 11.980469 C 17.452822 11.968863 16.663413 11.880402 14.787109 11.685547 C 14.135662 11.617915 13.596144 11.558834 13.589844 11.552734 C 13.583655 11.546534 13.654514 11.511212 13.746094 11.476562 C 13.837667 11.441943 14.140254 11.317391 14.417969 11.199219 L 14.921875 10.984375 z M 8.9765625 10.990234 L 9.4902344 11.205078 C 9.7730998 11.323506 10.083748 11.452404 10.179688 11.490234 L 10.353516 11.558594 L 10.162109 11.580078 C 9.7523476 11.629087 6.5875623 11.955078 6.5214844 11.955078 C 6.285954 11.955078 6.6377965 12.004807 7.8085938 12.132812 C 8.5373408 12.21246 9.3404193 12.301327 9.59375 12.330078 C 9.8470822 12.358828 10.119652 12.380859 10.201172 12.380859 C 10.285383 12.380859 10.335236 12.395009 10.316406 12.412109 C 10.298176 12.428708 10.001646 12.555807 9.65625 12.695312 C 9.1434303 12.90247 8.9959718 12.947859 8.8535156 12.943359 C 8.6481257 12.93655 8.8020545 12.952938 6.96875 12.732422 C 6.162831 12.635479 4.4676186 12.436876 3.2011719 12.291016 C 1.9347237 12.145277 0.83629295 12.01513 0.75976562 12 C 0.61502307 11.97231 0.98529474 11.924416 4.2304688 11.544922 C 6.9491461 11.226994 7.7168015 11.137083 8.3398438 11.064453 L 8.9765625 10.990234 z M 10.625 12.837891 L 10.525391 12.960938 C 10.46979 13.028844 10.221691 13.322042 9.9746094 13.611328 C 9.50192 14.164751 8.6972656 15.168608 8.6972656 15.205078 C 8.6972656 15.239818 9.6505824 14.48138 10.605469 13.6875 C 10.859405 13.47638 11.075084 13.302734 11.083984 13.302734 C 11.092843 13.302734 11.047565 13.411331 10.984375 13.542969 C 10.921182 13.674622 10.793269 13.980125 10.699219 14.222656 L 10.529297 14.664062 L 10.25 14.847656 C 10.096462 14.949062 9.3737004 15.404043 8.6445312 15.857422 C 7.9153659 16.310785 7.2564384 16.724684 7.1796875 16.777344 C 7.1029265 16.829996 7.0201337 16.884818 6.9960938 16.898438 C 6.9720564 16.91269 7.1513287 16.616885 7.3945312 16.240234 C 7.6377322 15.8636 8.1171806 15.116449 8.4609375 14.580078 C 8.8046944 14.043708 9.1221627 13.556907 9.1660156 13.498047 C 9.229652 13.412724 9.3603621 13.34539 9.8164062 13.166016 C 10.130683 13.042397 10.442613 12.919065 10.507812 12.890625 L 10.625 12.837891 z M 13.273438 12.845703 C 13.275805 12.840218 13.291466 12.845985 13.322266 12.859375 C 13.3593 12.875429 13.658952 12.995178 13.988281 13.125 C 14.317617 13.254867 14.611135 13.38144 14.640625 13.40625 C 14.670124 13.431141 15.052771 14.003478 15.490234 14.679688 C 15.927696 15.355882 16.430091 16.132654 16.607422 16.404297 C 16.784758 16.67594 16.926475 16.899797 16.921875 16.904297 C 16.917276 16.908237 16.851804 16.869649 16.777344 16.818359 C 16.702887 16.767065 15.904299 16.262898 15.001953 15.697266 L 13.361328 14.667969 L 13.070312 13.976562 C 12.91057 13.596221 12.779693 13.281844 12.779297 13.277344 C 12.778924 13.272563 12.99397 13.449527 13.257812 13.669922 C 13.812269 14.133044 14.446289 14.643817 14.871094 14.970703 C 15.112508 15.156514 15.156382 15.17969 15.101562 15.09375 C 15.003268 14.939718 14.659362 14.516187 13.966797 13.695312 C 13.630055 13.296193 13.332117 12.938671 13.304688 12.900391 C 13.281868 12.868541 13.27107 12.851188 13.273438 12.845703 z M 20.777344 12.9375 L 20.753906 13.166016 C 20.740525 13.290769 20.690038 13.589256 20.642578 13.830078 C 20.140241 16.379007 18.407474 18.630997 15.970703 19.902344 C 15.161064 20.324749 14.368966 20.593442 13.464844 20.75 C 12.920458 20.844835 12.877691 20.844017 12.900391 20.742188 C 12.910171 20.698308 12.932342 20.558877 12.951172 20.433594 C 12.986958 20.195538 13.020567 20.149375 13.15625 20.148438 C 13.280417 20.147621 13.881285 20.017393 14.230469 19.916016 C 15.526635 19.539563 16.852772 18.740241 17.839844 17.738281 C 18.511753 17.056217 19.013235 16.345126 19.408203 15.519531 C 19.754257 14.796175 19.980111 14.047331 20.121094 13.15625 C 20.143698 13.013427 20.15214 13.010994 20.554688 12.964844 L 20.777344 12.9375 z M 3.1054688 12.939453 L 3.3105469 12.962891 C 3.6988447 13.008889 3.7416317 13.023171 3.7578125 13.103516 C 3.7662229 13.145201 3.8065569 13.353243 3.8476562 13.566406 C 4.1504313 15.13695 4.8415799 16.455475 5.9921875 17.660156 C 7.1957705 18.920307 8.6709964 19.75439 10.232422 20.058594 C 10.981705 20.204561 10.902642 20.162095 10.951172 20.46875 C 10.974222 20.61446 10.994594 20.752984 10.996094 20.777344 C 10.998559 20.818494 10.83235 20.831934 10.685547 20.802734 C 10.656764 20.796984 10.515009 20.774653 10.371094 20.751953 C 9.9813146 20.690386 9.2375448 20.487151 8.8261719 20.330078 C 6.5899667 19.476295 4.6519459 17.601605 3.7382812 15.410156 C 3.4467136 14.710827 3.2076512 13.825176 3.1289062 13.148438 L 3.1054688 12.939453 z M 12.341797 13.539062 L 12.626953 14.179688 L 12.912109 14.818359 L 12.789062 15.896484 C 12.721616 16.489051 12.504829 18.434091 12.308594 20.21875 C 12.0866 22.237678 11.945191 23.417014 11.931641 23.339844 C 11.919721 23.271574 11.884699 22.999649 11.855469 22.736328 C 11.826227 22.473023 11.693354 21.260056 11.558594 20.041016 C 11.423834 18.821991 11.234192 17.152344 11.138672 16.330078 L 10.964844 14.833984 L 11.238281 14.210938 C 11.388399 13.867757 11.518444 13.579412 11.527344 13.570312 C 11.544038 13.553336 11.667756 14.768968 11.820312 16.458984 C 11.86698 16.975852 11.914784 17.455198 11.927734 17.523438 C 11.942861 17.603328 12.004983 17.059486 12.101562 15.998047 C 12.184084 15.091079 12.271925 14.168128 12.296875 13.945312 L 12.341797 13.539062 z " />
</svg>
