<svg xmlns="http://www.w3.org/2000/svg" width="25" height="25" viewBox="0 0 25 25"><path fill="currentColor" d="M1.72 1.74C2 1.751 2.57 1.791 2.991 1.831 3.412 1.871 3.924 1.925 4.134 1.954 4.345 1.987 4.729 2.045 4.987 2.085 5.245 2.128 5.695 2.212 5.985 2.27 6.276 2.328 6.788 2.448 7.129 2.535 7.47 2.622 7.96 2.764 8.218 2.847 8.476 2.934 8.951 3.105 9.271 3.236 9.59 3.363 10.066 3.577 10.323 3.715 10.581 3.849 10.973 4.071 11.191 4.212 11.405 4.35 11.652 4.539 11.735 4.63 11.815 4.72 11.935 4.898 12 5.029 12.062 5.156 12.138 5.345 12.171 5.443 12.214 5.595 12.229 6.194 12.262 9.327 12.283 11.363 12.309 14.296 12.32 15.843 12.331 17.389 12.345 19.629 12.356 20.816 12.367 22.507 12.36 23.001 12.323 23.084 12.298 23.143 12.225 23.237 12.164 23.295 12.098 23.349 11.986 23.404 11.913 23.415 11.837 23.426 11.743 23.418 11.703 23.397 11.663 23.375 11.423 23.204 11.169 23.023 10.915 22.838 10.548 22.587 10.352 22.464 10.156 22.34 9.833 22.148 9.634 22.032 9.434 21.916 8.969 21.669 8.599 21.487 8.229 21.302 7.706 21.055 7.437 20.943 7.169 20.827 6.719 20.645 6.439 20.536 6.16 20.427 5.612 20.231 5.223 20.101 4.835 19.97 4.203 19.778 3.826 19.672 3.448 19.567 2.802 19.407 2.392 19.313 1.982 19.222 1.452 19.113 1.212 19.07.809 18.993.765 18.979.646 18.859.544 18.757.504 18.681.475 18.529.453 18.409.399 15.875.344 12.176.29 8.793.25 5.41.25 4.662.25 3.914.265 3.17.286 3.011.304 2.851.352 2.615.392 2.484.431 2.354.515 2.179.573 2.096.635 2.009.729 1.911.784 1.878.838 1.842.958 1.791 1.049 1.765 1.161 1.736 1.372 1.726 1.72 1.74ZM.943 2.241C.918 2.263.86 2.35.82 2.43.78 2.51.726 2.698.7 2.847.675 2.996.653 3.326.649 3.584V4.045C.86 3.933 1.045 3.885 1.194 3.867 1.343 3.849 1.539 3.838 1.629 3.849 1.72 3.856 2.112 3.889 2.501 3.922 2.889 3.951 3.535 4.016 3.934 4.063 4.334 4.114 4.889 4.194 5.169 4.245 5.448 4.292 5.88 4.375 6.131 4.426 6.381 4.477 6.838 4.586 7.147 4.666 7.456 4.746 7.964 4.895 8.272 4.996 8.581 5.098 9.049 5.261 9.307 5.363 9.565 5.464 10.007 5.664 10.287 5.806 10.566 5.947 10.988 6.183 11.227 6.332 11.463 6.481 11.699 6.655 11.746 6.713L11.837 6.822C11.812 5.526 11.812 5.512 11.699 5.279 11.637 5.149 11.539 4.989 11.481 4.92 11.423 4.851 11.213 4.691 11.013 4.561 10.813 4.43 10.421 4.205 10.142 4.06 9.862 3.914 9.456 3.722 9.234 3.635 9.013 3.544 8.639 3.403 8.399 3.319 8.16 3.239 7.742 3.105 7.474 3.029 7.205 2.952 6.813 2.847 6.603 2.796 6.392 2.749 5.967 2.658 5.659 2.597 5.35 2.539 4.827 2.448 4.497 2.397 4.167 2.346 3.557 2.27 3.136 2.23 2.715 2.187 2.112 2.147 1.793 2.139 1.452 2.128 1.168 2.136 1.103 2.157 1.041 2.179.972 2.216.943 2.241ZM23.464 1.729C23.664 1.726 23.892 1.733 23.972 1.747 24.052 1.762 24.197 1.824 24.299 1.885 24.448 1.972 24.502 2.038 24.596 2.23 24.662 2.364 24.738 2.604 24.774 2.793 24.825 3.054 24.836 3.359 24.84 4.317 24.843 4.974 24.8 8.448 24.644 18.547L24.564 18.707C24.517 18.797 24.44 18.899 24.39 18.935 24.331 18.979 24.001 19.062 23.482 19.164 23.032 19.255 22.346 19.411 21.957 19.513 21.569 19.611 20.956 19.781 20.596 19.89 20.237 19.999 19.714 20.17 19.435 20.268 19.155 20.366 18.68 20.543 18.382 20.663 18.081 20.783 17.656 20.957 17.438 21.055 17.22 21.153 16.745 21.378 16.385 21.563 16.026 21.745 15.503 22.028 15.224 22.195 14.944 22.358 14.592 22.576 14.443 22.678 14.294 22.776 14 22.986 13.79 23.143 13.579 23.299 13.358 23.437 13.3 23.447 13.224 23.462 13.14 23.444 13.031 23.386 12.93 23.335 12.842 23.255 12.803 23.175 12.741 23.059 12.734 22.932 12.737 21.487 12.737 20.631 12.755 17.875 12.774 15.371 12.795 12.866 12.824 9.632 12.842 8.183 12.875 5.602 12.879 5.548 12.959 5.334 13.002 5.214 13.078 5.043 13.129 4.953 13.18 4.862 13.274 4.724 13.336 4.644 13.398 4.564 13.518 4.459 13.598 4.408 13.681 4.357 13.902 4.219 14.088 4.103 14.273 3.983 14.628 3.787 14.879 3.66 15.129 3.537 15.514 3.359 15.732 3.272 15.95 3.181 16.342 3.032 16.603 2.942 16.861 2.851 17.257 2.724 17.474 2.662 17.692 2.6 18.07 2.502 18.309 2.441 18.549 2.383 18.934 2.295 19.162 2.248 19.391 2.201 19.834 2.121 20.142 2.07 20.451 2.023 20.894 1.958 21.123 1.925 21.351 1.896 21.827 1.845 22.175 1.816 22.524 1.784 22.876 1.751 22.956 1.747 23.036 1.74 23.264 1.733 23.464 1.729ZM22.248 2.194C21.997 2.216 21.533 2.266 21.213 2.306 20.894 2.346 20.436 2.412 20.197 2.452 19.957 2.491 19.591 2.557 19.38 2.597 19.17 2.637 18.705 2.742 18.346 2.829 17.986 2.916 17.431 3.072 17.111 3.174 16.792 3.279 16.302 3.453 16.022 3.562 15.743 3.671 15.293 3.874 15.024 4.012 14.755 4.147 14.389 4.354 14.207 4.47 14.026 4.59 13.837 4.713 13.779 4.746 13.725 4.778 13.616 4.909 13.536 5.036 13.456 5.16 13.358 5.359 13.318 5.479 13.256 5.657 13.245 5.791 13.245 6.241L13.249 6.786C13.489 6.561 13.735 6.386 13.957 6.256 14.175 6.121 14.556 5.915 14.806 5.787 15.057 5.664 15.431 5.49 15.641 5.403 15.852 5.319 16.266 5.163 16.567 5.061 16.865 4.96 17.307 4.822 17.547 4.753 17.787 4.688 18.237 4.575 18.545 4.502 18.854 4.434 19.337 4.332 19.616 4.281 19.896 4.23 20.411 4.147 20.76 4.096 21.108 4.049 21.754 3.972 22.193 3.933 22.633 3.889 23.235 3.853 23.536 3.849 24.048 3.845 24.092 3.853 24.27 3.936L24.458 4.027C24.462 3.479 24.444 3.192 24.426 3.036 24.404 2.883 24.36 2.677 24.328 2.575 24.295 2.477 24.241 2.35 24.204 2.295 24.164 2.237 24.081 2.179 24.016 2.161 23.954 2.139 23.794 2.118 23.664 2.11 23.533 2.099 23.264 2.107 23.065 2.121 22.865 2.139 22.498 2.172 22.248 2.194Z"/></svg>