<svg version="1.2" xmlns="http://www.w3.org/2000/svg" viewBox="0 0 24 24" width="24" height="24"><style></style><path  d="m0 9v5.8h5.8v-5.8zm14.7 0.7v0.7h0.6v-0.7zm2.9 0v1h-1.4l-0.4 0.4v1.9l0.4 0.4h1.6l0.4-0.4v-3.3zm-16.1 0.8h2.9v1.4h-1.4v1.5h-1.5v-1.5zm6 0.3l-0.4 0.4v2.2h0.6v-1.9q0-0.2 0.2-0.2h0.8v-0.5zm1.9 0l-0.4 0.4v1.8l0.4 0.4h1.6l0.5-0.5-0.4-0.3-0.3 0.2q0 0.1-0.1 0.1h-0.9q-0.1-0.1-0.1-0.2v-0.4h1.7v-1.1l-0.4-0.4zm2.8 0l-0.4 0.4v0.7c0 0.1 0.1 0.3 0.4 0.3l1.2 0.2q0.1 0 0.1 0.1v0.2q0 0.1-0.1 0.2h-0.8q-0.1 0-0.2-0.1l-0.2-0.2-0.4 0.3 0.4 0.5h1.5l0.4-0.4v-0.7c0-0.2-0.1-0.3-0.3-0.4l-1.3-0.2q0 0-0.1-0.1v-0.1q0.1-0.2 0.2-0.2h0.8q0.1 0 0.1 0.1l0.2 0.2 0.4-0.4-0.4-0.4zm2.2 0v0.5h0.2q0.1 0 0.1 0.1v2h0.7v-2.6zm4.7 0l-0.4 0.4v1.8l0.4 0.4h1.6l0.4-0.5-0.4-0.3-0.3 0.2q0 0.1-0.1 0.1h-0.9q-0.1-0.1-0.1-0.2v-0.4h1.7v-1.1l-0.4-0.4zm2.9 0l-0.4 0.4v1.8l0.4 0.4h1.6l0.4-0.4v-1.8l-0.4-0.4zm-12.2 0.5h0.9q0.1 0 0.1 0.2v0.3h-1.1v-0.3q0-0.2 0.1-0.2zm6.9 0h0.8q0.1 0 0.1 0.2v1.2q0 0.1-0.1 0.2h-0.8q-0.2-0.1-0.2-0.2v-1.2q0-0.2 0.2-0.2zm2.8 0h0.9q0.1 0 0.1 0.2v0.3h-1.1v-0.3q0-0.2 0.1-0.2zm2.9 0h0.8q0.1 0 0.1 0.2v1.2q0 0.1-0.1 0.2h-0.8q-0.2-0.1-0.2-0.2v-1.2q0-0.2 0.2-0.2z"/></svg>