<svg xmlns="http://www.w3.org/2000/svg" width="24" height="24" viewBox="0 0 24 24"><path fill="currentColor" d="M24 16.375A3.05 3.05 0 0123.754 17.606 3.114 3.114 0 0122.082 19.266 3.068 3.068 0 0120.857 19.513 3.695 3.695 0 0120.147 19.44 4.05 4.05 0 0119.408 19.222 3.184 3.184 0 0118.732 18.852 2.02 2.02 0 0118.225 18.337.46.46 0 0118.145 18.062.442.442 0 0118.297 17.716.504.504 0 0118.643 17.578.553.553 0 0118.844 17.618.392.392 0 0119.03 17.788.046.046 0 0019.046 17.82L19.11 17.885A1.806 1.806 0 0019.908 18.392 3.052 3.052 0 0020.851 18.546 2.12 2.12 0 0021.697 18.376 2.189 2.189 0 0022.857 17.216 2.115 2.115 0 0023.033 16.375V15.266A3.132 3.132 0 0122.048 15.903 3.089 3.089 0 0120.855 16.137 3.046 3.046 0 0119.624 15.891 3.137 3.137 0 0117.964 14.231 3.04 3.04 0 0117.717 12.999V10.455A3.058 3.058 0 0117.964 9.23 3.154 3.154 0 0118.632 8.23 3.202 3.202 0 0119.618 7.561 3.15 3.15 0 0122.081 7.561 3.09 3.09 0 0123.749 9.229 3.066 3.066 0 0123.995 10.454V16.374ZM23.033 10.455A2.118 2.118 0 0022.863 9.609 2.189 2.189 0 0021.703 8.449 2.201 2.201 0 0020.011 8.449 2.191 2.191 0 0018.845 9.609 2.134 2.134 0 0018.677 10.454V12.985A2.133 2.133 0 0018.845 13.838 2.194 2.194 0 0019.313 14.531 2.171 2.171 0 0020.007 14.998 2.201 2.201 0 0021.699 14.998 2.189 2.189 0 0022.859 13.838 2.117 2.117 0 0023.033 12.985ZM15.781 15.811A.435.435 0 0115.627 16.174.511.511 0 0114.967 16.174.434.434 0 0114.814 15.811V10.455A2.118 2.118 0 0014.644 9.609 2.189 2.189 0 0013.484 8.449 2.201 2.201 0 0011.792 8.449 2.19 2.19 0 0010.632 9.609 2.127 2.127 0 0010.462 10.455V15.811A.434.434 0 0110.31 16.174.511.511 0 019.649 16.174.434.434 0 019.496 15.811V10.455A3.058 3.058 0 019.742 9.23 3.163 3.163 0 0110.412 8.23 3.202 3.202 0 0111.396 7.561 3.15 3.15 0 0113.86 7.561 3.091 3.091 0 0115.527 9.229 3.066 3.066 0 0115.774 10.454ZM7.398 15.811A.435.435 0 017.246 16.174.511.511 0 016.584 16.174.434.434 0 016.432 15.811V7.956A.435.435 0 016.584 7.593.512.512 0 017.246 7.593.436.436 0 017.398 7.956ZM4.982 8.44A.463.463 0 014.837 8.778.483.483 0 014.482 8.92.503.503 0 014.143 8.775L4.127 8.758A.149.149 0 004.095 8.734.123.123 0 014.062 8.709 1.9 1.9 0 002.822 8.279Q1.951 8.279 1.459 8.874.968 9.47.967 10.567V15.81A.435.435 0 01.814 16.173.525.525 0 01.484 16.296.525.525 0 01.154 16.173.434.434 0 01.001 15.81V10.567A4.362 4.362 0 01.18 9.303 3.034 3.034 0 01.71 8.272 2.546 2.546 0 011.588 7.566 2.763 2.763 0 012.819 7.309 3.08 3.08 0 013.884 7.518 2.573 2.573 0 014.818 8.098.48.48 0 014.981 8.441ZM7.742 5.312A.826.826 0 016.916 6.139.826.826 0 016.089 5.312.826.826 0 016.916 4.486.826.826 0 017.742 5.312Z"/></svg>