<svg version="1.2" xmlns="http://www.w3.org/2000/svg" viewBox="0 0 24 24" width="24" height="24"><style></style><path  d="m24 16.4q0 0.1 0 0.3 0 0.1-0.1 0.3 0 0.2 0 0.3-0.1 0.2-0.1 0.3-0.2 0.3-0.3 0.5-0.2 0.3-0.4 0.5-0.2 0.2-0.5 0.4-0.2 0.1-0.5 0.3-0.2 0-0.3 0.1-0.2 0-0.3 0.1-0.2 0-0.3 0-0.2 0-0.3 0-0.1 0-0.2 0-0.1 0-0.2 0-0.1 0-0.2 0-0.1 0-0.2-0.1 0 0-0.1 0-0.1 0-0.2-0.1-0.1 0-0.2 0-0.1 0-0.2-0.1-0.1 0-0.2-0.1-0.1 0-0.1 0-0.1-0.1-0.2-0.1-0.1-0.1-0.2-0.1 0-0.1-0.1-0.2-0.1 0-0.1-0.1-0.1 0-0.2-0.1 0-0.1-0.1-0.2 0 0 0 0 0-0.1 0-0.1 0 0-0.1-0.1 0 0 0 0 0-0.1 0.1-0.1 0-0.1 0-0.1 0-0.1 0-0.1 0.1-0.1 0.1-0.1 0 0 0.1 0 0-0.1 0.1-0.1 0 0 0 0 0.1 0 0.1 0 0.1 0 0.1 0 0 0 0 0 0.1 0 0.1 0 0 0 0 0 0.1 0 0.1 0 0 0.1 0.1 0.1 0 0 0 0 0 0.1 0 0.1 0 0 0 0 0 0 0 0 0 0 0 0 0 0 0 0l0.1 0.1q0.1 0.1 0.2 0.2 0.1 0 0.2 0.1 0.1 0.1 0.2 0.1 0.1 0.1 0.2 0.1 0.1 0 0.2 0.1 0.2 0 0.3 0 0.1 0 0.2 0 0.1 0 0.3 0 0.1 0 0.2 0 0.1 0 0.2 0 0.1 0 0.2 0 0.1-0.1 0.2-0.1 0.2-0.1 0.4-0.2 0.1-0.1 0.3-0.3 0.1-0.1 0.3-0.3 0.1-0.2 0.2-0.4 0-0.1 0-0.2 0.1-0.1 0.1-0.2 0-0.1 0-0.2 0-0.1 0-0.2v-1.1q-0.1 0.1-0.2 0.2-0.1 0.1-0.2 0.1-0.2 0.1-0.3 0.2-0.1 0-0.3 0.1-0.1 0.1-0.2 0.1-0.2 0-0.3 0.1-0.2 0-0.3 0-0.2 0-0.3 0-0.2 0-0.4 0-0.1 0-0.3 0-0.1-0.1-0.3-0.1-0.1 0-0.3-0.1-0.3-0.1-0.5-0.3-0.3-0.2-0.5-0.4-0.2-0.2-0.3-0.4-0.2-0.3-0.3-0.6-0.1-0.1-0.1-0.3-0.1-0.1-0.1-0.3-0.1-0.1-0.1-0.3 0-0.1 0-0.3v-2.5q0-0.2 0-0.4 0-0.1 0.1-0.3 0-0.1 0.1-0.3 0-0.1 0.1-0.3 0-0.1 0.1-0.2 0.1-0.2 0.1-0.3 0.1-0.1 0.2-0.2 0.1-0.2 0.2-0.3 0.1-0.1 0.3-0.2 0.1-0.1 0.2-0.2 0.1 0 0.2-0.1 0.2-0.1 0.3-0.1 0.3-0.2 0.6-0.2 0.3-0.1 0.6-0.1 0.4 0 0.7 0.1 0.3 0 0.6 0.2 0.3 0.1 0.5 0.2 0.3 0.2 0.5 0.4 0.2 0.2 0.4 0.5 0.1 0.2 0.2 0.5 0.1 0.2 0.2 0.3 0 0.2 0 0.3 0.1 0.2 0.1 0.3 0 0.2 0 0.4c0 0 0 5.9 0 5.9zm-1-5.9q0-0.2 0-0.3 0-0.1 0-0.2 0-0.1-0.1-0.2 0-0.1 0-0.2-0.1-0.2-0.2-0.4-0.2-0.1-0.3-0.3-0.2-0.1-0.3-0.3-0.2-0.1-0.4-0.2-0.2 0-0.4-0.1-0.2 0-0.4 0-0.3 0-0.5 0-0.2 0.1-0.4 0.1-0.2 0.1-0.4 0.2-0.1 0.2-0.3 0.3-0.1 0.2-0.3 0.3-0.1 0.2-0.2 0.4 0 0.1 0 0.2-0.1 0.1-0.1 0.2 0 0.1 0 0.2 0 0.1 0 0.3v2.5q0 0.1 0 0.2 0 0.1 0 0.2 0 0.1 0.1 0.2 0 0.1 0 0.2 0.1 0.1 0.1 0.2 0.1 0.1 0.1 0.2 0.1 0.1 0.2 0.2 0 0.1 0.1 0.1 0.1 0.1 0.2 0.2 0 0 0.1 0.1 0.1 0.1 0.2 0.1 0.1 0.1 0.2 0.1 0.2 0.1 0.4 0.1 0.2 0.1 0.5 0.1 0.2 0 0.4-0.1 0.2 0 0.4-0.1 0.2-0.1 0.4-0.2 0.1-0.1 0.3-0.3 0.1-0.1 0.3-0.3 0.1-0.2 0.2-0.4 0-0.1 0-0.2 0.1-0.1 0.1-0.2 0-0.1 0-0.2 0-0.1 0-0.2zm-7.2 5.3q0 0.1 0 0.1 0 0.1-0.1 0.1 0 0.1 0 0.1 0 0.1-0.1 0.1 0 0.1-0.1 0.1-0.1 0-0.2 0-0.1 0-0.2 0-0.1 0-0.1-0.1-0.1 0-0.1-0.1 0 0-0.1-0.1 0 0 0-0.1 0 0 0-0.1v-5.3q0-0.1 0-0.2 0-0.1 0-0.2 0-0.2-0.1-0.3 0-0.1-0.1-0.2 0-0.2-0.2-0.3-0.1-0.2-0.2-0.4-0.2-0.1-0.3-0.2-0.2-0.1-0.4-0.2-0.2-0.1-0.4-0.1-0.2-0.1-0.5-0.1-0.2 0-0.4 0.1-0.2 0-0.4 0.1-0.2 0.1-0.4 0.2-0.2 0.1-0.3 0.2-0.1 0.2-0.3 0.4-0.1 0.1-0.2 0.3 0 0.1 0 0.2-0.1 0.1-0.1 0.3 0 0.1 0 0.2 0 0.1 0 0.2v5.3q0 0.1 0 0.1-0.1 0.1-0.1 0.1 0 0.1 0 0.1-0.1 0.1-0.1 0.1-0.1 0.1-0.1 0.1-0.1 0-0.2 0-0.1 0-0.2 0-0.1 0-0.2-0.1 0 0 0-0.1-0.1 0-0.1-0.1 0 0 0-0.1 0 0 0-0.1v-5.3q0-0.2 0-0.3 0-0.2 0.1-0.3 0-0.2 0-0.3 0.1-0.2 0.1-0.3 0.1-0.2 0.2-0.3 0-0.1 0.1-0.3 0.1-0.1 0.2-0.2 0.1-0.1 0.2-0.2 0.1-0.1 0.2-0.2 0.1-0.1 0.3-0.2 0.1-0.1 0.2-0.2 0.2 0 0.3-0.1 0.3-0.1 0.6-0.2 0.3-0.1 0.6-0.1 0.3 0 0.7 0.1 0.3 0.1 0.6 0.2 0.2 0.1 0.5 0.3 0.2 0.1 0.5 0.4 0.2 0.2 0.3 0.4 0.2 0.3 0.3 0.6 0.1 0.1 0.1 0.3 0.1 0.1 0.1 0.3 0 0.1 0.1 0.3 0 0.1 0 0.3zm-8.4 0q0 0 0 0.1 0 0 0 0.1-0.1 0-0.1 0.1 0 0-0.1 0 0 0.1-0.1 0.1-0.1 0.1-0.2 0.1-0.1 0-0.2-0.1-0.1 0-0.1-0.1-0.1 0-0.1 0 0-0.1 0-0.1-0.1-0.1-0.1-0.1 0-0.1 0-0.1v-7.9q0 0 0-0.1 0 0 0.1-0.1 0 0 0-0.1 0 0 0.1 0 0-0.1 0.1-0.1 0.1-0.1 0.2-0.1 0.1 0 0.2 0.1 0.1 0 0.1 0.1 0.1 0 0.1 0 0 0.1 0.1 0.1 0 0.1 0 0.1 0 0.1 0 0.1zm-2.4-7.3q0 0 0 0.1 0 0-0.1 0 0 0.1 0 0.1 0 0.1-0.1 0.1 0 0 0 0.1-0.1 0-0.1 0-0.1 0-0.1 0-0.1 0-0.1 0-0.1 0-0.1 0-0.1 0-0.1 0-0.1 0-0.1 0 0-0.1-0.1-0.1 0 0 0 0 0 0 0 0 0 0 0 0 0 0 0 0 0-0.1 0-0.1 0 0 0 0 0 0 0 0 0 0 0 0-0.2-0.1-0.3-0.2-0.2 0-0.3-0.1-0.2-0.1-0.4-0.1-0.1 0-0.3 0-0.9 0-1.3 0.6-0.5 0.6-0.5 1.7v5.2q0 0.1 0 0.1-0.1 0.1-0.1 0.1 0 0.1 0 0.1-0.1 0.1-0.1 0.1 0 0-0.1 0 0 0.1 0 0.1-0.1 0-0.1 0-0.1 0-0.1 0-0.1 0-0.1 0-0.1 0-0.1 0 0 0-0.1-0.1 0 0-0.1 0 0 0 0-0.1-0.1 0-0.1-0.1 0 0 0-0.1 0 0 0-0.1v-5.2q0-0.2 0-0.3 0-0.2 0-0.4 0.1-0.1 0.1-0.3 0-0.1 0.1-0.3 0-0.1 0.1-0.3 0-0.1 0.1-0.2 0.1-0.1 0.1-0.3 0.1-0.1 0.2-0.2 0.1-0.1 0.2-0.2 0.1-0.1 0.2-0.2 0.1-0.1 0.2-0.2 0.2-0.1 0.3-0.1 0.1-0.1 0.3-0.1 0.1-0.1 0.3-0.1 0.1 0 0.3-0.1 0.2 0 0.3 0 0.1 0 0.3 0 0.1 0.1 0.3 0.1 0.1 0 0.2 0 0.1 0.1 0.3 0.1 0.1 0.1 0.2 0.1 0.2 0.1 0.3 0.2 0.1 0 0.2 0.1 0.1 0.1 0.2 0.2 0 0 0.1 0.1 0 0 0 0.1 0 0 0.1 0.1 0 0 0 0.1zm2.7-3.2q0 0.2 0 0.3-0.1 0.2-0.2 0.3-0.1 0.1-0.3 0.2-0.1 0.1-0.3 0.1-0.2 0-0.3-0.1-0.2-0.1-0.3-0.2-0.1-0.1-0.2-0.3 0-0.1 0-0.3 0-0.1 0-0.3 0.1-0.1 0.2-0.3 0.1-0.1 0.3-0.1 0.1-0.1 0.3-0.1 0.2 0 0.3 0.1 0.2 0 0.3 0.1 0.1 0.2 0.2 0.3 0 0.2 0 0.3z"/></svg>