<svg version="1.2" xmlns="http://www.w3.org/2000/svg" viewBox="0 0 24 24" width="24" height="24"><style></style><path  d="m11.7 0.2c-0.3 0-0.6 0.1-0.9 0.2-0.7 0.3-3.4 3.8-4.1 4.1-0.3 0.2-0.4 0.2-2.3 0.2h-1.8c-3.4 5-3.3 10.1 0 15.2h3.3c3.1 0 4.4 0 4.8 0.1 0.3 0 0.7 0.1 0.9 0.2 0.2 0.1 0.3 0.1 0.4 0.2 0 0 0.3 0.2 0.5 0.4 0.1 0 0.3 0.2 0.4 0.3 1.3 1 2.5 2.3 3.3 3.1 3.1-0.7 5.8-2.6 7.7-6.3-0.1-0.2-0.1-0.4-0.1-0.5-0.2-1-0.4-1.9-0.7-2.8-0.2-0.7-0.4-1.3-0.5-1.8q-0.4-1.2-0.8-2.4c0 0-0.3-1-0.5-1.5q-0.3-0.9-0.6-1.7-0.6-1.7-1.3-3.3c0-0.2-0.4-0.9-0.6-1.2 0 0-0.1-0.1-0.2-0.2-0.2-0.2-0.8-0.5-1.4-0.8-0.1-0.1-1.5-0.6-2.9-1-0.9-0.3-1.2-0.3-1.8-0.4-0.2 0-0.4-0.1-0.5-0.1q-0.1 0-0.3 0zm1.9 4c0.8 0 1.5 0.7 1.5 1.5 0 0.9-0.7 1.6-1.5 1.6-0.9 0-1.6-0.7-1.6-1.6 0-0.8 0.7-1.5 1.6-1.5zm2.9 2.8c0.9 0 1.6 0.7 1.6 1.6 0 0.9-0.7 1.6-1.6 1.6-0.8 0-1.5-0.7-1.5-1.6 0-0.9 0.7-1.6 1.5-1.6zm-5.9 0.1c0.9 0 1.6 0.7 1.6 1.6 0 0.8-0.7 1.5-1.6 1.5-0.8 0-1.5-0.7-1.5-1.5 0-0.9 0.7-1.6 1.5-1.6zm2.9 3c0.9 0 1.6 0.7 1.6 1.5 0 0.9-0.7 1.6-1.6 1.6-0.8 0-1.5-0.7-1.5-1.6 0-0.8 0.7-1.5 1.5-1.5z"/></svg>