<svg version="1.2" xmlns="http://www.w3.org/2000/svg" viewBox="0 0 24 24" width="24" height="24"><style></style><path d="M 3.0656028,8.860439e-5 C 3.0074057,-9.1134561e-4 2.9240498,0.00608829 2.8386441,0.04478636 h -3e-5 C 2.6792321,0.11698275 2.0159652,0.93892165 1.8099255,1.0887342 c -0.011099,0.008 -0.020999,0.013599 -0.029499,0.017399 -0.080296,0.035898 -0.1034448,0.039598 -0.6009499,0.038298 l -1.11458431,-0.003 -0.01769911,-7e-5 v 2e-5 h -5e-5 c 4e-5,0.880476 -4e-5,2.8416579 1.5999e-4,3.8892755 L 1.5831769,5.0296572 c 0.7955702,-7.3e-4 1.1186041,0.004 1.2269286,0.020199 0.066397,0.01 0.181621,0.042198 0.2392881,0.067497 0.054497,0.023899 0.069796,0.031398 0.084996,0.040198 0.009,0.005 0.096795,0.056297 0.1463227,0.095095 0.024799,0.019399 0.073996,0.057897 0.1095345,0.085696 0.5145543,0.4020999 1.0325384,1.0095096 1.0673967,1.0103495 l 7.999e-4,4e-5 c 9e-5,0 0.861317,-4.3e-4 1.0645068,-6e-5 0.098895,1.6e-4 0.3903405,0.001 0.5055947,5.4e-4 7.3e-4,-10e-6 0.033198,0.002 0.034498,-3.9e-4 C 6.3158003,5.9282222 6.32186,5.3579708 6.2883916,5.0544659 6.281392,4.9880693 6.2448938,4.6969338 6.2392941,4.6583657 6.2372942,4.6423665 6.2044958,4.4404766 6.1953963,4.3899992 6.1530984,4.1518211 6.0827619,3.9212726 6.0140554,3.6903241 5.9684576,3.5148729 5.92146,3.3500211 5.8833619,3.2234375 5.8223649,3.0196377 5.760978,2.8164678 5.6895516,2.6161178 5.6835519,2.6054184 5.5915565,2.3460913 5.5487486,2.2213676 5.4985511,2.0763648 5.4429939,1.9341719 5.3922764,1.7886592 5.2854918,1.5041534 5.181207,1.2189577 5.0642528,0.93842168 5.0582531,0.91662277 5.0108555,0.82518734 4.9673577,0.74622129 l 3e-5,-4e-5 c -0.003,-0.005 -0.006,-0.0100995 -0.009,-0.0152992 C 4.941689,0.70078356 4.9259898,0.67348493 4.9138904,0.65378591 4.9036909,0.63708675 4.882092,0.61108805 4.861893,0.591989 4.8106955,0.54359142 4.6389041,0.45409589 4.4867417,0.38458937 c -0.002,-8.5996e-4 -0.006,-0.002 -0.010799,-0.005 -0.066997,-0.0284986 -0.3980701,-0.16325184 -0.7369832,-0.25421729 -3.9e-4,-1.1e-4 -7.8e-4,-2.0999e-4 -9.999e-4,-3.1999e-4 -0.005,-9.9995e-4 -0.010699,-0.003 -0.016099,-0.004 C 3.5170202,0.06665526 3.4247148,0.05245597 3.2920314,0.03235698 c -0.002,-3.8998e-4 -0.004,-7.2996e-4 -0.006,-9.9995e-4 C 3.2279347,0.02065756 3.1648478,0.01115804 3.1431389,0.00775821 c -6.2e-4,-9e-5 -10e-4,-2.2999e-4 -0.002,-3.9998e-4 -0.023799,-0.00499975 -0.049297,-0.006999639 -0.075496,-0.006999639 z M 3.5476987,1.0169078 A 0.40190666,0.40190666 0 0 1 3.9495986,1.4188277 0.40190666,0.40190666 0 0 1 3.5476987,1.8207276 0.40190666,0.40190666 0 0 1 3.1457888,1.4188277 0.40190666,0.40190666 0 0 1 3.5476987,1.0169078 Z M 4.3134104,1.7490512 A 0.40190666,0.40190666 0 0 1 4.7153103,2.1509511 0.40190666,0.40190666 0 0 1 4.3134104,2.552861 0.40190666,0.40190666 0 0 1 3.9115005,2.1509511 0.40190666,0.40190666 0 0 1 4.3134104,1.7490512 Z M 2.7960262,1.7630502 A 0.40190666,0.40190666 0 0 1 3.1979462,2.1649601 0.40190666,0.40190666 0 0 1 2.7960262,2.56686 0.40190666,0.40190666 0 0 1 2.3941263,2.1649604 0.40190666,0.40190666 0 0 1 2.7960262,1.7630502 Z m 0.7505125,0.759732 A 0.40190666,0.40190666 0 0 1 3.9484486,2.9246824 0.40190666,0.40190666 0 0 1 3.5465387,3.3266023 0.40190666,0.40190666 0 0 1 3.1446288,2.9246824 0.40190666,0.40190666 0 0 1 3.5465387,2.5227822 Z"/></svg>
