<svg version="1.2" xmlns="http://www.w3.org/2000/svg" viewBox="0 0 24 24" width="24" height="24"><style></style><path  d="m5.8 10.4c-0.3 0-0.4-0.2-0.4-0.4 0-0.1 0.1-0.3 0.4-0.3 0.2 0 0.3 0.2 0.3 0.3 0 0.3-0.1 0.4-0.3 0.4m-2.2 2.9c-0.5 0-0.9-0.3-0.9-0.8 0-0.6 0.7-0.7 1-0.8 0.5 0 0.6-0.1 0.6-0.2 0-0.3-0.1-0.5-0.4-0.5q-0.4 0-0.6 0.2h-0.1c-0.1 0-0.1 0.1-0.2 0.1 0 0-0.1 0-0.1-0.1v-0.3q0 0 0.1-0.1c0.2-0.1 0.6-0.2 0.9-0.2 0.8 0 1.1 0.3 1.1 0.8v1.8q0 0.1-0.1 0.1h-0.5q-0.1 0-0.1-0.1v-0.2c-0.2 0.2-0.4 0.3-0.7 0.3m0.7-1.4c-0.7 0-0.9 0.3-0.9 0.6 0 0.3 0.1 0.5 0.4 0.5 0.3 0 0.5-0.2 0.5-0.3v-0.8m8.3 1.4c-0.4 0-0.7-0.1-0.9-0.3-0.1 0-0.1-0.1-0.1-0.2v-3q0-0.1 0.1-0.1h0.5q0.1 0 0.1 0.1v1.2c0.1-0.1 0.4-0.3 0.8-0.3 0.6 0 0.9 0.5 0.9 1.2 0 0.8-0.6 1.4-1.3 1.4m-0.4-0.5q0 0.1 0.1 0.2 0 0 0.3 0c0.4 0 0.6-0.3 0.6-1 0-0.2 0-0.9-0.6-0.9-0.2 0-0.3 0.1-0.4 0.2v1.5m7 1.4q-0.1 0-0.2 0-0.1 0-0.1-0.1v-0.4q0 0 0 0 0.1 0 0.2 0 0.2 0 0.3 0c0.3 0 0.6-0.1 0.6-0.5l-1-2.4q-0.1 0-0.1-0.1 0 0 0.1 0h0.6q0.1 0 0.1 0.1l0.6 1.6 0.6-1.6q0-0.1 0.1-0.1h0.3q0 0 0 0 0 0.1 0 0.1l-1.1 2.7c-0.1 0.4-0.5 0.7-1 0.7m-18.3-0.9q-0.5 0-0.9-0.2-0.1 0-0.1-0.1v-0.3c0 0 0-0.1 0.1-0.1q0.1 0 0.2 0.1 0.5 0.3 0.8 0.3c0.4 0 0.7-0.3 0.7-0.6 0-0.7-1.8-0.5-1.8-1.7 0-0.5 0.4-1 1.2-1 0.4 0 0.7 0.1 0.9 0.2q0.1 0 0.1 0.1v0.3q0 0.1-0.1 0.1-0.1 0-0.2-0.1c-0.2-0.1-0.4-0.2-0.7-0.2-0.3 0-0.6 0.1-0.6 0.4 0 0.7 1.8 0.6 1.8 1.6 0 0.8-0.6 1.2-1.4 1.2m5-0.1h-0.5q-0.1 0-0.1 0v-2.5q0 0 0.1 0h0.5q0.1 0 0.1 0v2.5q0 0.1-0.1 0.1m9.4 0c-0.5 0-1.1-0.2-1.1-0.9v-1.6q0-0.1 0.1-0.1h0.5q0.1 0 0.1 0.1v1.8c0 0.2 0.2 0.4 0.4 0.4 0.4 0 0.5-0.2 0.5-0.6v-1.6q0-0.1 0.1-0.1h0.5q0.1 0 0.1 0.1v1.6c0 0.7-0.6 0.9-1.2 0.9m-6.5 0h-0.6q0 0 0-0.1v-1.7c0-0.2-0.1-0.5-0.5-0.5-0.1 0-0.4 0.2-0.5 0.2v2q0 0.1-0.1 0.1h-0.5q-0.1 0-0.1-0.1v-2.4q0-0.1 0.1-0.1h0.6q0 0 0 0.1v0.1c0.2-0.1 0.5-0.3 0.9-0.3 0.5 0 0.8 0.3 0.8 0.8v1.8q0 0.1-0.1 0.1m1.3 0c-0.2 0-0.5 0-0.7-0.1q-0.1-0.1-0.1-0.2v-0.2q0-0.1 0.1-0.1 0 0 0.1 0c0.2 0.2 0.5 0.3 0.7 0.3 0.3 0 0.5-0.1 0.5-0.3 0-0.5-1.5-0.3-1.5-1.2 0-0.6 0.5-0.9 1-0.9q0.4 0 0.8 0.2 0.1 0 0 0.1v0.2q0 0.1 0 0.1-0.1 0-0.1 0c-0.2-0.2-0.5-0.2-0.8-0.2-0.2 0-0.4 0.1-0.4 0.2 0 0.5 1.5 0.3 1.5 1.2 0 0.7-0.5 0.9-1 0.9m7.4-0.1h-0.5q-0.1 0-0.1 0v-2.5q0 0 0.1 0h0.5q0.1 0 0.1 0v0.4q0 0 0-0.1c0.1-0.1 0.4-0.4 0.7-0.4q0.1 0 0.2 0 0.2 0.1 0.2 0.2v0.3q-0.1 0.1-0.1 0.1-0.1 0-0.2 0-0.1-0.1-0.3-0.1c-0.2 0-0.5 0.1-0.5 0.5v1.5q0 0.1-0.1 0.1m4-2.6c-0.1 0.1 0.1-0.3 0.1-0.4-0.1-0.2-0.3-0.4-0.1-0.5 0.1 0 0.4 0 0.4 0.1 0.2 0.3 0 0.8-0.4 0.8zm1.2 2.7c-0.3 0-0.6 0-0.8-0.1q-0.1-0.1-0.1-0.2v-0.2q0-0.1 0.1-0.1 0.1 0 0.1 0c0.3 0.2 0.5 0.3 0.8 0.3 0.2 0 0.4-0.1 0.4-0.3 0-0.5-1.4-0.3-1.4-1.2 0-0.6 0.4-0.8 1-0.8q0.4 0 0.7 0.1 0.1 0.1 0.1 0.2v0.1q0 0.2-0.1 0.1 0 0-0.1 0c-0.2-0.1-0.5-0.2-0.7-0.2-0.2 0-0.4 0.1-0.4 0.3 0 0.4 1.4 0.2 1.4 1.1 0 0.7-0.5 0.9-1 0.9"/></svg>