<svg version="1.2" xmlns="http://www.w3.org/2000/svg" viewBox="0 0 24 24" width="24" height="24"><style></style><path  d="m4.4 9.5c-1.9 0.1-1.7 2-1.3 2.7 0.9 1.3 2.1 1.2 2.1 1.2l0.3-1.2c0 0-0.2 0.1-0.5 0-0.9-0.2-0.9-0.7-0.9-1 0-0.2 0.2-0.5 0.5-0.5 0.4 0 0.9 0 0.9 0l-0.3-1.1c0 0-0.4-0.1-0.8-0.1zm16.3 0.1l0.8 1.8-1.8 1.9h0.8l1.2-1.3 0.6 1.3h0.8l-0.9-1.8 1.8-1.9h-0.8l-1.3 1.2-0.5-1.2zm-11.1 0v3.7h2.7l0.4-1.1h-1.7v-0.2h1l0.4-1.1h-1.4v-0.2h1.6l-0.3-1.1zm-8.9 0c-0.1 0-0.4 0-0.5 0.2-0.2 0.4 0 0.9 0 0.9l0.8 1.2c0 0 0.1 0.1 0 0.2-0.1 0.1-0.2 0.1-0.2 0.1h-0.8l0.3 1.1h1.7c0 0 0.5 0.1 0.7-0.3 0.1-0.4-0.1-0.8-0.1-0.8l-0.8-1.4c0 0 0 0 0-0.1 0.1 0 0.1 0 0.1 0h0.8l-0.3-1.1h-1.7q0 0 0 0zm15 0h-1.1l-0.4 1.6-0.3-1.6h-1.3l0.9 3.8h1.3l0.3-1.5 0.3 1.2 0.5-2.2zm0.8 0l-0.2 0.5h2.4l0.2-0.5zm3.1 0l-1 3.8h0.8l0.9-3.8zm-13.6 0l-0.2 1.1c0 0 1.5 0 1.7 0 0.2 0.1 0.5 0.1 0.5 0.4 0 0.2-0.6 0.6-0.6 0.6 0 0-0.1 0.6 0.7 1.7 0.3 0.4 0.7 0.7 1.1 1l1.3-0.6c-0.4-0.1-0.9-0.4-1.3-0.7-0.5-0.6-0.6-1.1-0.6-1.1 0 0 0.9-0.7 0.7-1.5-0.2-0.9-0.8-0.9-1.7-0.9zm10.4 0.7l-0.2 0.7h1.1l0.2-0.7zm-10.4 0.6v2.5h1.3v-2.5zm10.2 0.3l-0.1 0.5h2.2l0.2-0.5zm-0.2 0.8l-0.3 1.4h1.1l0.4-1.4zm-5.5 1.8q0 0 0 0z"/></svg>