<svg version="1.2" xmlns="http://www.w3.org/2000/svg" viewBox="0 0 24 24" width="24" height="24"><style></style><path  d="m3.6 24c-1.7-0.3-3-1.4-3.5-3.2-0.1-0.3-0.1-0.9-0.1-8.8v-8.5l0.1-0.5c0.4-1.5 1.5-2.5 3-2.9l0.5-0.1h8.3c7.7 0 8.5 0 8.8 0 1.3 0.4 2.3 1.2 2.8 2.4 0.4 0.9 0.4 0.2 0.4 9.6v8.5l-0.2 0.4c-0.4 1.5-1.4 2.6-2.9 3l-0.4 0.1h-8.2c-4.6 0-8.4 0-8.6 0zm8.6-8.2c1.1-0.3 1.8-1 1.9-1.9 0.2-0.9-0.3-1.9-1.1-2.2-0.2-0.1-0.8-0.3-1.5-0.5-1.5-0.4-1.7-0.5-1.8-1-0.1-0.4 0.2-0.9 0.6-1 0.3-0.1 1-0.1 1.3 0q0.6 0.2 0.8 0.6c0 0.1 0.1 0.3 0.1 0.4 0 0.2 0.1 0.2 0.7 0.2 0.8 0 0.8 0 0.7-0.5-0.2-1.2-1.3-2-2.9-2-1.2 0-2.2 0.5-2.6 1.4-0.1 0.2-0.2 0.4-0.2 0.8 0 0.6 0.1 0.9 0.5 1.3 0.3 0.4 0.8 0.6 2 0.9 1.5 0.4 1.7 0.5 1.9 0.8 0.1 0.2 0.1 0.8 0 1q-0.3 0.6-1.5 0.6c-0.6 0-1-0.2-1.3-0.4-0.2-0.2-0.4-0.6-0.4-0.9 0-0.3-0.1-0.3-0.8-0.3-0.7 0-0.7 0-0.6 0.5 0.2 1.5 1.5 2.4 3.4 2.3 0.2 0 0.6-0.1 0.8-0.1zm-7.4-0.2c0.8-0.2 1.5-0.6 1.9-1.3 0.7-1.1 0.8-3.2 0.2-4.5-0.3-0.6-0.8-1.1-1.4-1.4-0.6-0.3-0.9-0.3-2.9-0.3-1.7 0-1.8 0-1.8 0.1-0.1 0.1-0.1 7.3 0 7.4 0 0.1 0.1 0.1 1.8 0.1 1.5 0 1.9 0 2.2-0.1zm-2.6-3.7v-2.6h0.8c1 0 1.4 0 1.8 0.3 0.8 0.3 1.1 1 1.1 2.3 0 1-0.2 1.6-0.6 2-0.5 0.5-0.9 0.6-2.2 0.6h-0.9zm14.3 3.7c0 0 0.1-1.2 0.1-2.7 0-1.7 0-2.6 0-2.5 0 0 0.5 1.2 1 2.7l0.9 2.6h0.6c0.5 0 0.6 0 0.6-0.1 0.1-0.1 0.5-1.3 1-2.7 0.5-1.3 0.9-2.5 1-2.6 0 0 0 1.1 0 2.6 0 1.5 0 2.7 0.1 2.7 0 0.1 0.2 0.1 0.6 0.1h0.7v-7.6h-0.9c-0.5 0-1 0-1 0 0 0.1-0.5 1.3-1 2.9-0.6 1.5-1 2.7-1 2.7-0.1 0-0.5-1.2-1.1-2.7-0.5-1.5-0.9-2.8-1-2.9 0 0-0.3 0-1 0h-0.9v3.7c0 2.1 0 3.8 0 3.8 0 0.1 0.2 0.1 0.7 0.1 0.5 0 0.6 0 0.6-0.1z"/></svg>