<svg version="1.2" xmlns="http://www.w3.org/2000/svg" viewBox="0 0 24 24" width="24" height="24"><style></style><path d="m13.3 8.3v1c-0.4-0.4-1.1-0.6-1.8-0.6-0.5 0-0.9 0.1-0.9 0.5 0 0.4 0.6 0.5 1.4 0.6 0.9 0.1 1.6 0.4 1.6 1.4 0 1.1-1 1.4-2.1 1.4-0.8 0-1.5-0.1-1.9-0.3v-1c0.6 0.5 1.4 0.6 1.9 0.6 0.5 0 1-0.1 1-0.5 0-0.4-0.5-0.5-1.4-0.7-0.8-0.1-1.5-0.5-1.5-1.3 0-1.1 1-1.4 1.9-1.4q1 0 1.8 0.3zm4.9-0.1v1.1c-0.4-0.4-0.8-0.6-1.3-0.6-1 0-1.7 0.7-1.7 1.6 0 0.9 0.7 1.6 1.7 1.6 0.5 0 0.9-0.2 1.3-0.5v1.1q-0.6 0.1-1.3 0.1c-1.7 0-3-0.8-3-2.3 0-1.4 1.3-2.3 3-2.3q0.7 0 1.3 0.2zm5.8 2.1c0 1.3-1 2.3-2.8 2.3-1.7 0-2.7-1-2.7-2.3 0-1.3 1-2.3 2.7-2.3 1.8 0 2.8 1 2.8 2.3zm-18.9-2.2v1.1c-0.4-0.3-1.1-0.4-1.9-0.4v2.9c0 0.5 0 0.6 0.2 0.8h-1.5c0.1-0.2 0.2-0.3 0.2-0.8v-2.9c-0.8 0-1.6 0.1-1.9 0.4v-1.1zm3.8 0v1.1c-0.3-0.3-1.2-0.4-1.7-0.4h-0.3v1.1h0.2c0.3 0 0.8 0 1-0.1v0.9c-0.2-0.1-0.7-0.1-1-0.1h-0.2v1.2h0.5c0.5 0 1.4-0.1 1.7-0.4v1.1h-3.6c0.2-0.2 0.2-0.3 0.2-0.8v-2.8c0-0.5 0-0.6-0.2-0.8zm10.9 2.2c0 0.9 0.6 1.6 1.5 1.6 0.9 0 1.4-0.7 1.4-1.6 0-0.9-0.5-1.6-1.4-1.6-0.9 0-1.5 0.7-1.5 1.6zm-15 3.4v0.1c-0.3 0.1-0.8 0.6-0.8 0.6-0.3 0.3-0.6 0.5-1.1 0.5h-2.8c0.3-0.2 0.8-0.7 0.8-0.7 0.1-0.2 0.5-0.5 1-0.5zm4.8 0v0.1c-0.4 0.1-0.8 0.6-0.8 0.6-0.4 0.3-0.6 0.5-1.2 0.5h-2.8c0.3-0.2 0.8-0.7 0.8-0.7 0.2-0.2 0.6-0.5 1-0.5zm4.8 0v0.1c-0.3 0.1-0.8 0.6-0.8 0.6-0.3 0.3-0.6 0.5-1.1 0.5h-2.8c0.3-0.2 0.7-0.7 0.7-0.7 0.2-0.2 0.6-0.5 1.1-0.5zm4.8 0v0.1h-0.1c-0.3 0.1-0.8 0.6-0.8 0.6-0.3 0.3-0.6 0.5-1.1 0.5h-2.8c0.3-0.2 0.8-0.7 0.8-0.7 0.2-0.2 0.5-0.5 1-0.5zm4.8 0v0.1c-0.4 0.1-0.8 0.6-0.8 0.6-0.4 0.3-0.6 0.5-1.2 0.5h-2.8 0.1c0.3-0.2 0.7-0.7 0.7-0.7 0.2-0.2 0.6-0.5 1.1-0.5z"/></svg>