<svg version="1.2" xmlns="http://www.w3.org/2000/svg" viewBox="0 0 24 24" width="24" height="24"><style></style><path d="m 0.65880414,2.5190105 a 0.65599551,0.65599551 0 1 0 0,1.311979 H 5.6940361 c 0.362297,0 0.655968,-0.2937144 0.655968,-0.656011 0,-0.3622751 -0.293671,-0.655968 -0.655968,-0.655968 z m 0,0.153475 H 5.6940361 c 0.277479,0 0.502406,0.2249486 0.502406,0.50245 0,0.277479 -0.224927,0.5024078 -0.502406,0.5024078 H 0.65880414 c -0.277304,-4.137e-4 -0.501992,-0.2250603 -0.502364,-0.5023648 l 4.2e-5,4.3e-5 c 2.49e-4,-0.2773484 0.224974,-0.5021414 0.502322,-0.502536 z M 1.1478311,2.8860259 a 0.25000937,0.25000937 0 0 0 -0.18134896,0.088366 c -0.04334,0.051985 -0.06498,0.1224289 -0.06498,0.2113175 2.2e-4,0.088561 0.02186,0.1591667 0.06498,0.2118304 a 0.2469231,0.2469231 0 0 0 0.18134896,0.087853 v -0.048993 c -0.01261,-2.184e-4 -0.02429,-0.00682 -0.03099,-0.017528 -0.0071,-0.018737 -0.01,-0.038819 -0.0085,-0.058825 V 3.359876 3.011371 a 0.13583944,0.13583944 0 0 1 0.0085,-0.058654 0.03734162,0.03734162 0 0 1 0.03099,-0.017656 z m 0.574399,0 a 0.25000937,0.25000937 0 0 0 -0.181349,0.088366 c -0.04334,0.051985 -0.06502,0.1224289 -0.06502,0.2113175 2.2e-4,0.088561 0.02191,0.1591667 0.06502,0.2118304 a 0.2469231,0.2469231 0 0 0 0.181349,0.087853 v -0.048993 c -0.01261,-2.184e-4 -0.02429,-0.00682 -0.03099,-0.017528 -0.0071,-0.018737 -0.01004,-0.038819 -0.0085,-0.058825 V 3.359876 3.011371 a 0.13581756,0.13581756 0 0 1 0.0085,-0.058654 0.03734162,0.03734162 0 0 1 0.03099,-0.017656 z m 3.445971,0 a 0.25000937,0.25000937 0 0 0 -0.181349,0.088366 c -0.04334,0.051985 -0.06502,0.1224289 -0.06502,0.2113175 2.2e-4,0.088561 0.0219,0.1591667 0.06502,0.2118304 a 0.2469231,0.2469231 0 0 0 0.181349,0.087853 v -0.049035 a 0.03721029,0.03721029 0 0 1 -0.03099,-0.017485 0.13551112,0.13551112 0 0 1 -0.0085,-0.058825 V 3.359876 3.011371 a 0.13531412,0.13531412 0 0 1 0.0085,-0.058654 0.03721029,0.03721029 0 0 1 0.03099,-0.017656 z m -2.411615,2.995e-4 a 0.18683943,0.18683943 0 0 0 -0.139197,0.054507 0.19132655,0.19132655 0 0 0 -0.05365,0.140351 0.16466647,0.16466647 0 0 0 0.03565,0.1081592 c 0.02432,0.029002 0.06983,0.058427 0.136503,0.088195 l 0.0055,0.00231 c 0.06766,0.031015 0.10149,0.061869 0.10149,0.092513 10e-4,0.015957 -0.0055,0.031518 -0.01753,0.042024 a 0.09398881,0.09398881 0 0 1 -0.05382,0.016673 v 0.05549 l 2.57e-4,6.411e-4 a 0.22967504,0.22967504 0 0 0 0.159674,-0.053994 0.20001625,0.20001625 0 0 0 0.02202,-0.260481 0.30221322,0.30221322 0 0 0 -0.125688,-0.083321 l -0.01201,-0.00483 c -0.07068,-0.028367 -0.106021,-0.057179 -0.106021,-0.086356 a 0.05949269,0.05949269 0 0 1 0.01466,-0.039972 0.06667208,0.06667208 0 0 1 0.03869,-0.021889 v -0.050018 z m -1.584216,3.416e-4 v 0.04912 a 0.03766995,0.03766995 0 0 1 0.03099,0.016631 0.13618966,0.13618966 0 0 1 0.0085,0.059124 v 0.3483338 0.00137 c 0.0016,0.020094 -0.0014,0.040301 -0.0085,0.059125 -0.0069,0.010353 -0.01852,0.016607 -0.03099,0.016673 v 0.048992 a 0.25390551,0.25390551 0 0 0 0.181519,-0.088366 c 0.04323,-0.051985 0.06481,-0.122429 0.06481,-0.2113175 0,-0.088451 -0.02158,-0.1588731 -0.06481,-0.2113175 A 0.25068791,0.25068791 0 0 0 1.1723701,2.886667 Z m 0.574399,0 v 0.04912 a 0.03749484,0.03749484 0 0 1 0.03099,0.016631 0.13669309,0.13669309 0 0 1 0.0085,0.059124 v 0.3483338 0.00137 c 0.0016,0.020094 -0.0013,0.040301 -0.0085,0.059125 -0.0069,0.010353 -0.01852,0.016607 -0.03099,0.016673 v 0.048992 a 0.25390551,0.25390551 0 0 0 0.181477,-0.088366 c 0.04323,-0.051985 0.06485,-0.122429 0.06485,-0.2113175 0,-0.088451 -0.02162,-0.1588731 -0.06485,-0.2113175 A 0.25068791,0.25068791 0 0 0 1.7467691,2.886667 Z m 3.445971,0 v 0.04912 a 0.03766995,0.03766995 0 0 1 0.03099,0.016631 0.13684631,0.13684631 0 0 1 0.0085,0.059124 v 0.3483338 0.00137 c 0.0016,0.020094 -0.0013,0.040301 -0.0085,0.059125 -0.0069,0.010353 -0.01852,0.016564 -0.03099,0.01663 v 0.049035 a 0.25412439,0.25412439 0 0 0 0.181648,-0.088366 c 0.04323,-0.051985 0.06485,-0.122429 0.06485,-0.2113175 1.1e-4,-0.088451 -0.02151,-0.1588731 -0.06485,-0.2113175 -0.04553,-0.053561 -0.111386,-0.085628 -0.181648,-0.088366 z m -2.25083,4.31e-5 c -8.57e-4,-4.2e-6 -0.0017,3.47e-5 -0.0026,1.282e-4 a 0.02799527,0.02799527 0 0 0 -0.02189,0.012184 0.02626609,0.02626609 0 0 1 -0.01902,0.012312 c -5.03e-4,0 -0.01281,-0.00402 -0.03698,-0.012013 -0.02353,-0.00795 -0.04813,-0.012152 -0.07297,-0.012483 v 0.047539 a 0.14568922,0.14568922 0 0 1 0.06767,0.033303 0.16221497,0.16221497 0 0 1 0.04467,0.063827 0.31543381,0.31543381 0 0 1 0.008,0.025308 c 0.0066,0.023005 0.01649,0.0345 0.02963,0.0345 a 0.02166952,0.02166952 0 0 0 0.01919,-0.00799 c 0.0046,-0.00946 0.0066,-0.019975 0.0057,-0.030482 V 2.9174906 c 7.86e-4,-0.00838 -0.0011,-0.016797 -0.0053,-0.024069 -0.0043,-0.00429 -0.01012,-0.00668 -0.01612,-0.00671 z m -0.153432,0.047667 a 0.14568922,0.14568922 0 0 0 -1.71e-4,-4.3e-5 l 1.71e-4,0.00103 z m -0.717145,-0.038091 c -0.0069,3.921e-4 -0.0136,0.00223 -0.01975,0.00543 a 0.02116609,0.02116609 0 0 0 -0.0078,0.018682 c 0,0.011229 0.0069,0.019862 0.02082,0.025992 l 0.0071,0.00316 a 0.02731673,0.02731673 0 0 1 0.01253,0.010944 c 0.0028,0.00803 0.0038,0.016539 0.0032,0.025009 V 3.385565 a 0.06303861,0.06303861 0 0 1 -0.0032,0.025009 c -0.0029,0.00486 -0.0073,0.00869 -0.01253,0.010944 l -0.0071,0.00316 c -0.01186,0.00352 -0.02024,0.014138 -0.02082,0.026505 a 0.02066265,0.02066265 0 0 0 0.0078,0.018169 0.04883303,0.04883303 0 0 0 0.02668,0.00534 l -4.3e-5,-5.137e-4 h 0.20234 V 2.9855069 a 0.06284161,0.06284161 0 0 1 0.0032,-0.025009 0.02749184,0.02749184 0 0 1 0.01248,-0.010944 l 0.0071,-0.00316 c 0.0139,-0.00624 0.02086,-0.014895 0.02086,-0.025992 a 0.02101287,0.02101287 0 0 0 -0.0078,-0.018682 c -0.0083,-0.00425 -0.01759,-0.00609 -0.02685,-0.00534 h -0.211317 c -0.0023,-1.969e-4 -0.0046,-2.167e-4 -0.0069,-8.6e-5 z m 1.658047,4.3e-5 -0.01415,0.048308 0.0805,0.326018 h -0.08999 l -0.01667,0.05968 h 0.120387 l -0.0012,5.99e-4 0.01402,0.055661 a 0.05051844,0.05051844 0 0 1 0.0018,0.00932 0.04331715,0.04331715 0 0 1 0,0.00534 c -10e-4,0.010069 -0.0074,0.018801 -0.01671,0.02283 -0.0094,0.00418 -0.01579,0.013226 -0.01663,0.023513 a 0.02250128,0.02250128 0 0 0 0.01017,0.02099 0.07223174,0.07223174 0 0 0 0.03531,0.0062 h 0.186052 a 0.08536478,0.08536478 0 0 0 0.03736,-0.00534 0.02083776,0.02083776 0 0 0 0.0093,-0.019837 c 0,-0.010463 -0.0074,-0.019143 -0.02202,-0.026034 -0.01467,-0.0069 -0.02197,-0.014325 -0.02197,-0.022317 -2.82e-4,-0.00232 -8.35e-4,-0.00456 -0.0015,-0.0068 l -0.0028,-0.010003 -0.118847,-0.488129 z m 0.88772,3.417e-4 a 0.05001501,0.05001501 0 0 0 -0.01979,0.00539 0.02099098,0.02099098 0 0 0 -0.0078,0.018682 0.02882703,0.02882703 0 0 0 0.02082,0.025993 l 0.0071,0.00321 a 0.02766694,0.02766694 0 0 1 0.01253,0.010944 c 0.0028,0.00803 0.0038,0.016497 0.0032,0.024967 v 0.4000189 c 6.29e-4,0.00847 -4.25e-4,0.016977 -0.0032,0.025009 -0.0029,0.00486 -0.0073,0.00867 -0.01253,0.010944 l -0.0071,0.00316 a 0.02900214,0.02900214 0 0 0 -0.02082,0.026505 0.02048755,0.02048755 0 0 0 0.0078,0.01817 0.04885492,0.04885492 0 0 0 0.02668,0.00551 h 0.211488 a 0.05001501,0.05001501 0 0 0 0.02715,-0.00569 0.02018111,0.02018111 0 0 0 0.0083,-0.017998 c 0,-0.010988 -0.008,-0.021091 -0.02347,-0.027659 -0.0035,-0.00136 -0.0069,-0.00297 -0.01018,-0.00483 a 0.02166952,0.02166952 0 0 1 -0.0088,-0.00966 c -0.002,-0.00714 -0.0028,-0.014596 -0.0024,-0.022016 V 2.9863193 a 0.06299483,0.06299483 0 0 1 0.0032,-0.025009 c 0.003,-0.00481 0.0073,-0.00864 0.01248,-0.010944 l 0.0082,-0.00368 c 0.01398,-0.00584 0.02099,-0.01453 0.02099,-0.025694 6.35e-4,-0.0072 -0.0025,-0.014175 -0.0083,-0.018468 -0.0083,-0.00442 -0.01774,-0.00635 -0.02715,-0.00569 l -8.5e-5,-8.52e-5 h -0.211488 a 0.05001501,0.05001501 0 0 0 -0.0069,-8.6e-5 z m -4.25571296,8.6e-5 -5.56e-4,8.52e-5 h 5.56e-4 z m 0,8.52e-5 v 0.1596747 a 0.06365148,0.06365148 0 0 0 0.0065,0.03467 0.02499656,0.02499656 0 0 0 0.02189,0.00919 c 0.01712,0 0.02768,-0.012986 0.03168,-0.038989 9.84e-4,-0.00766 0.0028,-0.013695 0.0028,-0.017699 0.0044,-0.021341 0.0119,-0.041959 0.02219,-0.061176 a 0.07223174,0.07223174 0 0 1 0.03099,-0.031337 v -0.054337 z m 0.48334,-8.52e-5 v 1.713e-4 h 2.57e-4 z m 0,1.713e-4 h -0.11641 v 0.054336 a 0.07133431,0.07133431 0 0 1 0.03138,0.031336 0.2210729,0.2210729 0 0 1 0.02189,0.060835 0.19137033,0.19137033 0 0 1 0.0032,0.018169 c 0.0038,0.026004 0.01416,0.038989 0.03116,0.038989 0.0078,2.846e-4 0.01542,-0.00282 0.02082,-0.00851 0.0055,-0.00604 0.0083,-0.013979 0.008,-0.022145 z m 2.20679596,-1.713e-4 -3.84e-4,8.52e-5 h 3.84e-4 z m 0,8.52e-5 v 0.1596747 a 0.06365148,0.06365148 0 0 0 0.0066,0.03467 0.02499656,0.02499656 0 0 0 0.02189,0.00919 c 0.01712,0 0.02768,-0.012986 0.03168,-0.038989 0.0012,-0.00766 0.0028,-0.013695 0.0028,-0.017699 0.0045,-0.021341 0.01199,-0.041959 0.02232,-0.061176 a 0.07201285,0.07201285 0 0 1 0.03099,-0.031337 v -0.054337 z m 0.483383,-8.52e-5 v 1.713e-4 h 4.28e-4 z m 0,1.713e-4 h -0.116239 v 0.054336 a 0.07150942,0.07150942 0 0 1 0.03138,0.031336 0.21888405,0.21888405 0 0 1 0.02163,0.060835 0.17226175,0.17226175 0 0 1 0.0032,0.018169 c 0.0038,0.026004 0.01416,0.038989 0.03116,0.038989 0.0078,2.631e-4 0.01542,-0.00282 0.02082,-0.00851 0.0055,-0.00604 0.0084,-0.013979 0.008,-0.022145 z m 0.520961,-1.713e-4 -5.55e-4,8.52e-5 h 5.55e-4 z m 0,8.52e-5 v 0.1596747 a 0.06365148,0.06365148 0 0 0 0.0066,0.03467 0.02499656,0.02499656 0 0 0 0.02189,0.00919 c 0.01712,0 0.02767,-0.013029 0.03168,-0.039032 0.0012,-0.00766 0.0028,-0.013652 0.0028,-0.017656 0.0044,-0.021341 0.01186,-0.041959 0.02214,-0.061176 a 0.07201285,0.07201285 0 0 1 0.031,-0.031337 v -0.054337 z m 0.483384,-8.52e-5 v 1.713e-4 h 2.99e-4 z m 0,1.713e-4 h -0.116367 v 0.054336 a 0.0713562,0.0713562 0 0 1 0.03133,0.031336 0.22081024,0.22081024 0 0 1 0.02202,0.060835 c 9.85e-4,0.00433 0.002,0.010291 0.0032,0.018126 0.0038,0.026004 0.01416,0.039032 0.03117,0.039032 a 0.02733862,0.02733862 0 0 0 0.02065,-0.00851 0.03064377,0.03064377 0 0 0 0.008,-0.022145 z m 0.961123,-1.283e-4 a 0.04200385,0.04200385 0 0 0 -0.01907,0.0053 0.01932746,0.01932746 0 0 0 -0.0071,0.016631 c 0,0.010944 0.0083,0.018972 0.02484,0.024068 a 0.05982101,0.05982101 0 0 1 0.036,0.026848 l 0.293185,0.5051866 h 0.119489 l 8.5e-5,-1.283e-4 V 3.2816842 l -0.22286,-0.3847564 h -0.219525 a 0.04200385,0.04200385 0 0 0 -0.005,-1.283e-4 z m -4.99038496,4.22e-5 v 0.4922331 c 7.03e-4,0.0074 -4.48e-4,0.01485 -0.0033,0.021675 a 0.0315193,0.0315193 0 0 1 -0.01449,0.00932 l -0.0055,0.00201 c -0.01856,0.00722 -0.02783,0.017004 -0.02783,0.029327 a 0.01917424,0.01917424 0 0 0 0.0085,0.017998 0.07017423,0.07017423 0 0 0 0.03236,0.00496 h 0.214994 c 0.01097,8.77e-4 0.02199,-7.975e-4 0.03219,-0.00496 a 0.01899914,0.01899914 0 0 0 0.0085,-0.017827 c 3.06e-4,-0.00602 -0.0016,-0.011966 -0.0053,-0.016673 -0.0059,-0.00545 -0.01305,-0.00936 -0.02082,-0.011329 h -0.0012 c -0.0159,-0.00609 -0.02385,-0.01558 -0.02385,-0.028472 V 2.8969278 l -1.71e-4,-8.61e-5 z m 2.69052096,0 v 0.4922331 c 7.28e-4,0.0074 -4.23e-4,0.01485 -0.0033,0.021675 -0.0039,0.0044 -0.0089,0.00763 -0.01449,0.00932 l -0.0055,0.00201 c -0.01856,0.00722 -0.02783,0.017004 -0.02783,0.029327 a 0.01899914,0.01899914 0 0 0 0.0085,0.017998 0.07019612,0.07019612 0 0 0 0.03232,0.005 h 0.214994 c 0.01097,8.769e-4 0.02201,-8.406e-4 0.03219,-0.005 a 0.01899914,0.01899914 0 0 0 0.0085,-0.017827 c 3.06e-4,-0.00602 -0.0016,-0.011941 -0.0053,-0.016673 -0.0059,-0.00543 -0.01309,-0.00934 -0.02086,-0.011329 h -0.0012 c -0.01589,-0.00609 -0.02381,-0.01558 -0.02381,-0.028472 v -0.4981746 -8.61e-5 z m 1.004173,0 v 0.492275 c 7.03e-4,0.0074 -4.47e-4,0.014799 -0.0033,0.021633 -0.0039,0.0044 -0.0089,0.00767 -0.01449,0.00936 l -0.0055,0.00197 c -0.01845,0.00722 -0.0277,0.017004 -0.0277,0.029327 a 0.01899914,0.01899914 0 0 0 0.0085,0.017998 0.0700429,0.0700429 0 0 0 0.03219,0.005 h 0.214994 c 0.01097,8.521e-4 0.02201,-8.406e-4 0.03219,-0.005 a 0.01899914,0.01899914 0 0 0 0.0085,-0.01787 c 3.06e-4,-0.00602 -0.0016,-0.011923 -0.0053,-0.01663 -0.0059,-0.00543 -0.01305,-0.00938 -0.02082,-0.011372 h -0.0012 c -0.01589,-0.00609 -0.02385,-0.015537 -0.02385,-0.028429 v -0.4981746 -8.61e-5 z m 1.659073,0 c -0.0079,-3.47e-5 -0.01557,0.00215 -0.02227,0.00633 a 0.02407725,0.02407725 0 0 0 -0.008,0.020136 c 0,0.0095 0.0067,0.018021 0.02001,0.025351 a 0.12914159,0.12914159 0 0 1 0.02749,0.018639 0.0581356,0.0581356 0 0 1 0.01518,0.026848 0.2333304,0.2333304 0 0 1 0.0044,0.054507 v 0.1072616 l 0.04703,0.079987 1.71e-4,8.52e-5 V 3.048821 a 0.23481881,0.23481881 0 0 1 0.0044,-0.056003 0.06001801,0.06001801 0 0 1 0.01432,-0.025522 0.12914159,0.12914159 0 0 1 0.028,-0.018639 c 0.01368,-0.00733 0.02052,-0.015786 0.02052,-0.025351 6.33e-4,-0.0076 -0.0024,-0.015019 -0.0082,-0.020008 -0.0079,-0.00488 -0.0171,-0.00707 -0.02629,-0.00633 h -0.113332 c -0.0011,-9.6e-5 -0.0023,-1.233e-4 -0.0034,-1.283e-4 z m -2.16148,0.093154 -0.0985,0.3666738 c -0.0036,0.014052 -0.0092,0.027538 -0.01663,0.040015 a 0.06516178,0.06516178 0 0 1 -0.02283,0.021888 c -0.0047,0.00223 -0.0095,0.00405 -0.01449,0.00547 -0.01657,0.00528 -0.02484,0.014056 -0.02484,0.026292 a 0.02066265,0.02066265 0 0 0 0.0085,0.018811 0.06082788,0.06082788 0 0 0 0.03052,0.00534 h 0.09991 a 0.05909869,0.05909869 0 0 0 0.03087,-0.00616 0.02099098,0.02099098 0 0 0 0.0097,-0.018854 c -6.12e-4,-0.012302 -0.009,-0.022857 -0.02082,-0.026249 -0.0043,-0.00184 -0.0079,-0.00366 -0.01086,-0.00517 -0.0069,-0.00322 -0.01264,-0.00836 -0.01663,-0.014834 -0.0041,-0.00689 -0.0063,-0.014797 -0.006,-0.02283 2.5e-5,-0.00397 3.64e-4,-0.00792 10e-4,-0.011842 6.95e-4,-0.00429 0.0017,-0.00849 0.003,-0.012654 L 3.7263861,3.08917 3.7262151,3.08814 Z m 1.838797,0.034713 4.3e-5,8.6e-5 v -8.6e-5 z m 4.3e-5,8.6e-5 v 0.297759 c 7.61e-4,0.018868 -6.23e-4,0.037784 -0.0041,0.056346 a 0.05690985,0.05690985 0 0 1 -0.01466,0.025479 0.12833172,0.12833172 0 0 1 -0.028,0.018682 c -0.01355,0.00733 -0.02031,0.015787 -0.02031,0.025352 a 0.02350815,0.02350815 0 0 0 0.0083,0.020007 0.04336093,0.04336093 0 0 0 0.02599,0.00633 h 0.11252 c 0.0092,7.859e-4 0.01841,-0.00145 0.02625,-0.00633 0.0058,-0.00499 0.0088,-0.012412 0.0082,-0.020007 0,-0.00959 -0.0067,-0.018064 -0.02001,-0.025352 -0.01,-0.00501 -0.01928,-0.011302 -0.02766,-0.018682 -0.007,-0.00716 -0.01206,-0.015893 -0.01484,-0.025479 a 0.13330039,0.13330039 0 0 1 -0.0049,-0.038348 V 3.1049097 Z m -2.952028,0.2324363 c -0.007,1.58e-4 -0.01352,0.00357 -0.01766,0.00932 a 0.0683356,0.0683356 0 0 0 -0.0059,0.033303 V 3.451234 a 0.03939913,0.03939913 0 0 0 0.0072,0.025351 0.02407725,0.02407725 0 0 0 0.02001,0.00898 0.0256751,0.0256751 0 0 0 0.02082,-0.011842 c 0.0041,-0.00685 0.01125,-0.011263 0.0192,-0.011842 0.01432,0.00285 0.02836,0.00669 0.04215,0.0115 a 0.25548147,0.25548147 0 0 0 0.07186,0.011842 V 3.432296 c -0.02616,-0.00674 -0.0502,-0.020019 -0.06981,-0.038604 a 0.18167376,0.18167376 0 0 1 -0.04647,-0.069855 c -0.0034,-0.00946 -0.0064,-0.019051 -0.0088,-0.028814 -0.0064,-0.025105 -0.01632,-0.037663 -0.02967,-0.037663 -0.001,-1.125e-4 -0.002,-1.514e-4 -0.003,-1.282e-4 z m 0.157708,0.1750645 c 8.9e-5,2.23e-5 1.67e-4,6.2e-5 2.56e-4,8.52e-5 l -2.56e-4,-1.713e-4 z m -0.292544,-0.161128 a 0.02116609,0.02116609 0 0 0 -0.0028,8.52e-5 c -0.01033,0 -0.01969,0.011919 -0.02702,0.035996 -0.0042,0.01495 -0.0094,0.029571 -0.01569,0.043777 a 0.12447936,0.12447936 0 0 1 -0.04215,0.049975 0.12038623,0.12038623 0 0 1 -0.06152,0.019837 v 0.053054 h 0.172884 V 3.3369182 a 0.1565021,0.1565021 0 0 0 -0.0057,-0.054207 0.02116609,0.02116609 0 0 0 -0.01804,-0.011543 z m -0.149157,0.2027245 h -4.3e-5 l 4.3e-5,2.987e-4 z"/></svg>
