<svg version="1.2" xmlns="http://www.w3.org/2000/svg" viewBox="0 0 24 24" width="24" height="24"><style></style><path  d="m2.8 9.5c-1.4 0-2.5 1.1-2.5 2.5 0 1.3 1.1 2.4 2.5 2.4h18.7c1.3 0 2.4-1.1 2.4-2.4 0-1.4-1.1-2.5-2.4-2.5 0 0-18.7 0-18.7 0zm0 0.6h18.7c1 0 1.8 0.8 1.8 1.9 0 1-0.8 1.8-1.8 1.8h-18.7c-1.1 0-1.9-0.8-1.9-1.8 0-1.1 0.8-1.9 1.9-1.9zm1.8 0.8q-0.1 0-0.2 0-0.1 0-0.2 0.1-0.1 0-0.2 0.1 0 0-0.1 0.1-0.2 0.3-0.2 0.8 0 0.5 0.2 0.8 0.1 0.1 0.1 0.1 0.1 0.1 0.2 0.1 0.1 0.1 0.2 0.1 0.1 0 0.2 0v-0.2q-0.1 0-0.1 0-0.1-0.1-0.1-0.2v-1.3q0-0.1 0-0.1 0 0 0-0.1 0 0 0 0 0 0 0.1-0.1 0 0 0 0 0 0 0 0 0 0 0 0 0.1 0 0.1 0zm2.1 0q-0.1 0-0.2 0-0.1 0-0.2 0.1-0.1 0-0.1 0.1-0.1 0-0.2 0.1-0.2 0.3-0.2 0.8 0 0.5 0.2 0.8 0.1 0 0.2 0.1 0 0.1 0.1 0.1 0.1 0.1 0.2 0.1 0.1 0 0.2 0v-0.2q-0.1 0-0.1 0 0-0.2 0-0.3v-1.3q0 0 0 0 0 0 0-0.1 0 0 0 0 0-0.1 0-0.1 0 0 0 0 0 0 0 0 0.1 0 0.1 0 0 0 0 0zm12.8 0q-0.1 0-0.2 0-0.1 0-0.2 0 0 0.1-0.1 0.1-0.1 0.1-0.2 0.2-0.2 0.3-0.2 0.8 0 0.5 0.2 0.8 0.1 0 0.2 0.1 0.1 0 0.1 0.1 0.1 0 0.2 0.1 0.1 0 0.2 0v-0.2q0 0 0 0 0 0-0.1 0 0 0 0 0 0-0.1 0-0.1 0 0 0 0 0 0 0-0.1 0 0 0 0 0-0.1 0-0.1v-1.3q0 0 0 0 0-0.1 0-0.1 0 0 0 0 0-0.1 0-0.1 0 0 0 0 0 0 0 0 0.1-0.1 0.1-0.1 0 0 0 0zm-8.9 0q-0.1 0-0.2 0-0.1 0.1-0.1 0.1-0.1 0-0.2 0.1 0 0-0.1 0 0 0.1-0.1 0.2 0 0 0 0.1 0 0-0.1 0.1 0 0.1 0 0.2 0 0 0 0.1 0 0 0.1 0.1 0 0 0 0.1 0 0 0.1 0.1 0.1 0.1 0.5 0.3 0.4 0.2 0.4 0.3 0 0.1-0.1 0.2 0 0 0 0-0.1 0-0.1 0 0 0.1 0 0.1-0.1 0-0.1 0v0.2q0.1 0 0.2 0 0 0 0.1-0.1 0.1 0 0.2 0 0-0.1 0.1-0.1 0.1-0.1 0.2-0.2 0-0.2 0-0.3 0-0.1 0-0.3 0-0.1-0.1-0.2-0.1-0.1-0.1-0.1-0.1 0-0.1-0.1-0.1 0-0.2-0.1 0 0-0.1 0-0.4-0.2-0.4-0.3 0-0.1 0-0.1 0 0 0 0 0 0 0-0.1 0 0 0 0 0 0 0.1 0 0 0 0 0 0-0.1 0-0.1 0.1 0 0.1 0v-0.2zm-5.9 0v0.2q0 0 0 0 0 0 0.1 0 0 0 0 0.1 0 0 0 0 0 0 0 0 0 0.1 0 0.1 0 0 0 0 0 0.1 0 0.1v1.3q0 0.1 0 0.2 0 0.1-0.1 0.1v0.2q0.1 0 0.2-0.1 0.1 0 0.2 0 0-0.1 0.1-0.1 0.1-0.1 0.2-0.2 0.2-0.3 0.2-0.7 0-0.5-0.2-0.8-0.1-0.1-0.2-0.2-0.1 0-0.1-0.1-0.1 0-0.2 0-0.1-0.1-0.2-0.1zm2.1 0v0.2q0 0 0.1 0 0 0 0 0 0 0 0 0.1 0 0 0 0 0 0 0.1 0 0 0.1 0 0.1 0 0 0 0 0 0.1 0 0.1v1.3q0 0.1-0.1 0.2 0 0.1-0.1 0.1v0.2q0.1 0 0.2-0.1 0.1 0 0.2 0 0.1-0.1 0.2-0.1 0-0.1 0.1-0.2 0.2-0.3 0.2-0.7 0-0.5-0.2-0.8-0.1-0.1-0.1-0.2-0.1 0-0.2-0.1-0.1 0-0.2 0-0.1-0.1-0.2-0.1zm12.8 0v0.2q0 0 0.1 0 0 0 0 0 0 0 0 0.1 0 0 0 0 0.1 0 0.1 0 0 0.1 0 0.1 0 0 0 0 0 0.1 0 0.1v1.3q0 0.1-0.1 0.2 0 0.1-0.1 0.1v0.2q0.1 0 0.2-0.1 0.1 0 0.2 0 0.1-0.1 0.2-0.1 0-0.1 0.1-0.2 0.2-0.3 0.2-0.7 0-0.5-0.2-0.8c-0.2-0.2-0.4-0.4-0.7-0.4zm-8.3 0q0 0 0 0-0.1 0-0.1 0 0 0 0 0.1 0 0 0 0 0 0 0 0 0 0 0 0 0 0-0.1 0 0 0 0 0 0 0 0 0 0 0-0.1 0-0.2-0.1-0.3-0.1v0.2q0 0 0.1 0 0 0 0 0.1 0.1 0 0.1 0 0 0 0 0 0.1 0.1 0.1 0.1 0 0 0 0 0.1 0.1 0.1 0.1 0 0 0 0.1 0 0 0 0 0 0 0 0 0 0 0 0 0 0.1 0 0.1 0.1 0.1 0.2 0.1 0 0 0 0 0 0 0 0 0 0 0 0 0 0 0 0 0-0.1 0-0.1v-0.5q0-0.1 0-0.1 0-0.1 0-0.1zm-0.6 0.2q0 0 0 0 0 0 0 0 0 0 0 0 0 0 0 0zm-2.7-0.1q0 0 0 0-0.1 0-0.1 0 0 0 0 0 0 0 0 0 0 0.1 0 0.1 0 0 0.1 0.1 0 0 0 0 0 0 0.1 0 0 0 0 0 0 0 0 0 0 0.1 0 0.1v1.5q0 0 0 0 0 0 0 0 0 0.1 0 0.1 0 0 0 0 0 0-0.1 0-0.1 0.1-0.1 0.1 0 0.1 0 0.1 0 0 0 0 0 0 0 0 0 0 0.1 0 0 0 0 0 0 0 0 0 0 0 0 0 0 0 0.1 0h0.7v-1.8q0 0 0 0 0 0 0 0 0 0 0-0.1 0 0 0 0 0 0 0 0 0 0 0 0 0 0 0 0 0.1 0 0.1 0 0.1-0.1 0.1-0.1 0 0 0-0.1 0 0 0 0 0 0 0 0-0.1 0-0.1 0 0 0-0.1 0h-0.7q-0.1 0-0.1 0zm6.2 0l-0.1 0.2 0.3 1.2h-0.3l-0.1 0.2h0.5v0.2q0 0 0 0 0 0 0 0 0 0 0 0 0 0 0 0 0 0 0 0 0 0 0 0 0 0 0 0.1 0 0 0 0 0 0 0 0-0.1 0.1-0.1 0.1 0 0 0 0 0 0.1 0 0.1 0 0 0 0 0 0 0.1 0 0 0 0 0 0 0 0 0 0 0 0.1 0 0 0 0 0h0.7q0 0 0 0 0 0 0 0 0.1 0 0.1 0 0 0 0 0 0 0 0 0 0 0 0 0 0.1 0 0.1 0 0-0.1 0-0.1 0 0-0.1-0.1-0.1 0-0.1 0 0-0.1 0-0.1l-0.5-1.8zm3.3 0q0 0 0 0 0 0 0 0 0 0 0 0 0 0 0 0-0.1 0-0.1 0 0 0 0 0 0 0 0 0 0 0.1 0 0.1 0 0 0 0 0 0 0.1 0 0 0 0 0.1 0 0 0 0 0 0 0 0 0.1 0 0.1 0 0 0 0 0 0 0 0 0 0 0.1 0 0.1v1.5q0 0 0 0.1 0 0-0.1 0 0 0 0 0.1 0 0 0 0-0.1 0-0.1 0 0 0 0 0 0 0.1 0 0.1 0 0 0 0 0 0 0 0 0 0 0.1 0 0 0 0 0 0 0 0 0 0 0 0 0 0 0 0.1 0h0.7q0.1 0 0.1 0 0 0 0 0 0 0 0 0 0 0 0 0 0.1 0 0.1 0 0 0 0 0 0 0 0 0 0 0 0-0.1 0 0-0.1-0.1 0 0-0.1 0 0 0 0 0 0 0 0 0 0 0 0 0 0 0 0 0 0-0.1 0-0.1v-1.5q0 0 0 0 0 0 0 0 0 0 0-0.1 0 0 0 0 0 0 0.1 0 0.1-0.1 0.1-0.1 0-0.1-0.1-0.1 0 0-0.1 0h-0.7q0 0 0 0-0.1 0-0.1 0 0 0 0 0 0 0 0 0zm-15.8 0q0 0 0 0zm0 0v0.6q0 0 0 0 0 0 0 0 0 0.1 0 0.1 0 0 0 0 0 0 0.1 0 0 0 0 0 0 0 0 0 0 0 0 0 0.1 0 0.1-0.1 0-0.1 0-0.1 0.1-0.1 0.1-0.2 0 0 0.1 0 0-0.1 0-0.1 0 0 0 0 0 0 0 0v-0.2zm1.8 0q0 0 0 0zm0 0h-0.4v0.2q0 0 0 0 0.1 0 0.1 0 0 0 0 0.1 0 0 0 0 0 0 0.1 0.1 0 0 0 0 0 0 0 0.1 0 0 0 0 0 0 0 0 0 0.1 0 0.1 0 0 0 0 0 0 0 0 0 0.1 0.1 0.1 0.1 0 0.1 0 0 0 0-0.1zm8.2 0q0 0 0 0zm0 0v0.6q0 0 0 0 0 0.1 0 0.1 0 0 0.1 0 0 0 0 0 0 0.1 0 0.1 0 0 0 0 0 0 0 0 0 0 0 0 0.1 0 0.2-0.2 0 0 0 0 0-0.2 0.1-0.3 0 0 0 0 0 0 0 0 0 0 0-0.1 0.1 0 0.1 0v-0.2zm1.8 0q0 0 0 0zm0 0h-0.5v0.2q0.1 0 0.1 0 0 0.1 0 0.1 0 0 0 0 0 0 0.1 0 0 0.1 0 0.1 0 0 0 0.1 0 0 0 0 0 0 0 0.1 0 0 0 0 0 0 0 0 0 0 0 0 0 0 0 0 0.1 0.2 0.2 0.2 0 0 0-0.1 0.1 0 0.1 0zm1.9 0q0 0 0 0zm0 0v0.6q0 0 0 0 0 0 0 0 0 0 0 0.1 0 0 0 0 0 0 0 0 0.1 0 0.1 0 0 0 0 0 0 0 0 0 0.1 0 0.1-0.1 0-0.1 0-0.1 0.1-0.1 0.1-0.2 0 0 0-0.1 0.1 0 0.1 0 0 0 0 0 0 0 0 0v-0.2zm1.8 0q0 0 0 0zm0 0h-0.4v0.2q0 0 0 0 0.1 0 0.1 0 0 0 0 0 0 0.1 0 0.1 0 0 0 0 0.1 0.1 0.1 0.1 0 0 0 0.1 0 0 0 0 0 0 0 0.1 0 0.1 0.1 0.1 0 0 0.1 0 0 0 0 0 0 0 0 0 0 0 0 0 0 0 0 0 0 0 0 0 0-0.1 0-0.1 0 0 0 0zm3.6 0q0 0 0 0 0 0 0 0 0 0 0 0-0.1 0-0.1 0 0 0 0 0 0 0 0 0.1 0 0 0 0 0 0 0 0 0 0.1 0.1 0.1 0 0 0 0 0.1 0 0.1 0 0 0 0 0 0 0.1 0 0.1l1.1 1.9h0.5v-0.8l-0.9-1.4h-0.8q0 0 0 0 0 0 0 0 0 0 0 0 0 0 0 0zm-18.5 0v1.8q0 0.1-0.1 0.1 0 0 0 0 0 0 0 0 0 0 0 0 0 0.1 0 0.1-0.1 0-0.1 0.1 0 0 0 0 0 0 0 0 0 0 0 0 0 0 0 0 0 0 0 0 0 0.1 0.1 0.1 0 0 0 0 0 0 0 0h0.8q0.1 0 0.1-0.1 0 0 0.1 0 0 0 0 0 0 0 0 0 0 0 0 0 0-0.1 0-0.1-0.1 0-0.1 0-0.1-0.1-0.1-0.1v-1.9zm10 0v1.8q0 0.1 0 0.1-0.1 0-0.1 0.1-0.1 0-0.1 0.1 0 0 0 0 0 0 0 0 0 0 0 0 0 0 0 0 0 0 0.1 0 0 0.1 0 0.1 0 0 0 0 0 0 0 0h0.8q0.1 0 0.2-0.1 0 0 0 0 0 0 0 0 0 0 0 0 0 0 0 0 0-0.1 0-0.1-0.1 0-0.1 0-0.1-0.1-0.1-0.1v-1.9zm3.7 0v1.8q0 0.1 0 0.1 0 0 0 0.1h-0.1q-0.1 0-0.1 0.1 0 0 0 0 0 0 0.1 0 0 0 0 0 0 0 0 0 0 0 0 0 0 0.1 0 0.1 0.1 0 0.1 0 0 0 0 0h0.8q0.1 0 0.1-0.1 0 0 0 0 0 0 0 0 0 0 0 0 0 0 0 0 0-0.1 0-0.1 0 0 0 0h-0.1q0-0.1 0-0.1v-1.9zm6.1 0q0 0-0.1 0 0 0 0 0 0 0.1 0 0.1 0 0 0 0 0 0 0 0 0 0.1 0.1 0.1 0 0 0 0 0 0 0 0 0.1 0 0.1 0.1 0 0 0 0 0 0 0 0 0 0 0 0 0 0 0 0 0 0.1 0 0.1 0 0 0.1 0 0 0 0 0.1 0 0 0 0 0 0 0 0.1v0.4l0.1 0.3v-0.7q0-0.1 0-0.1 0 0 0 0 0-0.1 0-0.1 0 0 0.1 0 0 0 0-0.1 0 0 0 0 0 0 0 0 0 0 0 0 0 0 0 0 0-0.1 0.1-0.1 0 0 0 0 0 0 0 0 0.1 0 0.1-0.1 0 0 0-0.1-0.1 0-0.1 0h-0.5q0 0 0 0zm-8 0.4l-0.4 1.3q0 0.1 0 0.2 0 0-0.1 0 0 0 0 0 0 0 0 0 0 0 0 0 0 0.1-0.1 0.1-0.1 0-0.1 0.1 0 0 0 0 0 0 0 0 0 0 0 0 0.1 0 0.1 0 0 0 0 0 0 0.1 0 0.1 0 0 0 0 0.1 0 0.1 0h0.3q0.1 0 0.1 0 0 0 0 0 0-0.1 0-0.1 0 0 0.1 0 0 0 0 0 0 0 0 0 0 0 0 0 0 0 0 0 0-0.1-0.1-0.1 0 0 0-0.1-0.1 0-0.1 0 0 0 0-0.1 0 0 0 0 0-0.1 0-0.1l0.3-1zm6.8 0.1q0 0 0 0zm0 0v1.2q0 0.1 0 0.2 0 0 0 0 0 0 0 0 0 0 0 0 0 0.1-0.1 0.1 0 0 0 0 0 0 0 0 0 0 0 0 0 0-0.1 0 0 0.1 0 0.1 0 0 0 0 0 0.1 0 0.1 0 0 0 0 0 0 0 0 0 0 0 0 0 0 0 0 0.1 0 0.1 0 0 0 0 0h0.4q0.1 0 0.1 0 0 0 0-0.1 0 0 0-0.1-0.1 0-0.1 0-0.1-0.1-0.1-0.1 0-0.1 0-0.1 0 0 0 0 0 0 0 0 0-0.1 0-0.1v-0.9zm-11 0.9q0 0 0 0-0.1 0.1-0.1 0.1 0 0 0 0 0 0 0 0 0 0.1 0 0.1v0.5q0 0 0 0.1 0 0 0 0 0 0 0 0 0 0 0.1 0 0 0 0 0 0 0 0 0.1 0 0 0 0 0 0 0 0 0 0 0.1 0 0 0 0-0.1 0 0 0 0 0 0 0 0 0 0 0.1 0 0.1 0 0.1 0 0.1 0 0.1 0 0 0 0.1 0 0 0.1 0 0.1 0.1 0 0.1 0v-0.2q-0.1-0.1-0.3-0.2 0 0 0 0 0-0.1-0.1-0.1 0 0 0-0.1 0 0 0 0 0-0.1-0.1-0.1 0-0.2-0.1-0.2 0 0 0 0zm0.6 0.7q0 0 0 0 0 0 0 0zm-1.1-0.6q0 0 0 0 0 0 0 0 0 0 0 0 0 0 0 0-0.1 0-0.1 0.1 0 0.1-0.1 0.2 0 0 0 0 0 0 0 0.1 0 0-0.1 0 0 0 0 0 0 0.1-0.1 0.1 0 0 0 0 0 0-0.1 0 0 0 0 0v0.2h0.6v-0.5q0 0 0 0 0-0.1 0-0.1 0 0 0 0 0-0.1 0-0.1 0 0 0 0 0 0 0 0-0.1 0-0.1 0 0 0 0 0zm-0.5 0.7q0 0 0 0z"/></svg>