<svg version="1.2" xmlns="http://www.w3.org/2000/svg" viewBox="0 0 24 24" width="24" height="24"><style></style><path d="m 18.02429,3.9321788 c -2.155621,0 -3.997428,0.7894789 -5.090748,2.1829844 -0.06959,0.089307 -0.137326,0.162045 -0.153625,0.1709047 h -0.0022 -0.0022 -0.0022 c -0.01589,-0.011159 -0.0562,-0.060598 -0.09303,-0.1168333 C 12.553014,5.9576496 12.229989,5.5958889 12.016199,5.4120058 11.293966,4.7905741 10.336568,4.3768556 9.0759822,4.1420223 8.3171945,4.0013488 7.7719023,3.9538378 6.9189581,3.9516397 6.0948147,3.950534 5.7880452,3.9766634 5.1621837,4.1031004 4.1851763,4.3002799 3.2177049,4.7590071 2.6416912,5.2973603 2.3858076,5.5388384 2.3106691,5.6866368 2.3106691,5.9702121 c 0,0.1905178 0.013526,0.2477002 0.082206,0.3872679 0.1661704,0.3400712 0.4248777,0.5122339 0.8048278,0.5343899 0.2193288,0.013188 0.2206815,0.012512 0.7745357,-0.1947109 0.9448859,-0.35447 1.3711669,-0.4652943 2.1310638,-0.5516935 0.6498254,-0.0491 1.3026323,-0.043318 1.9514888,0.017246 1.5840369,0.2027253 2.5702558,0.7232542 2.9856478,1.5728744 0.160625,0.3289932 0.213209,0.5309103 0.255309,0.9562716 0.03544,0.365548 0.01386,0.680694 -0.118997,1.5923485 -0.06398,0.441978 -0.09279,0.594176 -0.121162,0.625256 l -0.0022,0.0022 -0.0022,0.0022 h -0.0022 -0.0022 l -0.0022,0.0022 -0.763722,-0.12549 C 8.6793042,10.511423 7.6298094,10.408688 6.3780865,10.409793 c -1.764596,0 -2.8477037,0.204856 -3.9332663,0.742087 -1.4090202,0.696752 -2.21081818,1.890235 -2.40799088,3.580615 -0.1727984,1.469943 0.2639655,2.727239 1.27863688,3.690956 0.9969451,0.948207 2.3659309,1.489188 4.1604369,1.64427 l -0.00643,-0.0044 c 0.5262969,0.01386 1.0529501,-0.0034 1.5771994,-0.05191 1.0235345,-0.138476 2.0366638,-0.489023 2.7411739,-0.947618 0.4873966,-0.305728 0.9864756,-0.771165 1.3132506,-1.192096 0.07423,-0.09526 0.137292,-0.17104 0.14064,-0.166576 l 0.181726,0.244487 c 0.3877,0.52617 0.906772,0.948332 1.58802,1.287294 0.872882,0.435334 1.829431,0.670049 3.206326,0.789682 0.488506,0.04098 1.501912,0.03348 1.945,-0.01522 1.243969,-0.13736 2.285034,-0.536483 3.100317,-1.185607 0.341177,-0.271405 0.457557,-0.480903 0.458667,-0.824295 -0.02164,-0.330921 -0.206682,-0.629348 -0.493284,-0.796175 -0.168774,-0.07906 -0.355031,-0.113316 -0.540879,-0.09952 l -0.588475,0.192546 c -1.039042,0.382162 -1.394446,0.472944 -2.176495,0.556022 l -1.10339,0.03043 c -1.165324,-0.02536 -1.936418,-0.179663 -2.671943,-0.545207 -0.748819,-0.369975 -1.157391,-0.84863 -1.345708,-1.564221 -0.0587,-0.222643 -0.06712,-0.307825 -0.06489,-0.789682 -0.0033,-0.407743 0.03213,-0.814878 0.106012,-1.215895 0.03246,-0.228459 0.06844,-0.456377 0.108177,-0.68367 l 1.334889,0.220682 1.884422,0.237995 c 0.806421,0.07091 2.050214,0.07723 2.730357,0.01285 1.351415,-0.126268 2.383292,-0.449009 3.206326,-0.999542 1.022425,-0.683463 1.611438,-1.644219 1.858458,-3.0310865 L 24,8.6550943 C 23.997767,7.9482733 23.974621,7.7707272 23.816092,7.283331 23.541374,6.4370349 22.861082,5.5774763 22.02254,5.0202979 20.966884,4.3191119 19.549694,3.9320503 18.024365,3.9320503 Z m -0.320201,1.9038999 c 0.288009,-0.00304 0.574022,0.0071 0.729104,0.032463 1.248399,0.2060392 2.199446,0.8110567 2.60487,1.6529229 0.181658,0.3777318 0.227106,0.5967022 0.229338,1.1228648 0.0033,0.7366321 -0.136649,1.2317141 -0.491119,1.7567736 -0.241478,0.357794 -0.498147,0.568504 -0.936801,0.774536 -0.527275,0.24814 -0.959389,0.357693 -1.657254,0.419724 l -0.0022,-0.0022 c -0.635198,0.04464 -1.272638,0.04758 -1.908222,0.0088 l -0.956232,-0.108148 -1.938511,-0.235831 -0.140639,-0.01522 0.106012,-0.722612 c 0.11521,-0.7831585 0.149533,-0.9607755 0.276917,-1.4149405 0.326795,-1.1586726 0.908314,-2.0213625 1.75461,-2.5940522 0.458596,-0.3101578 0.977562,-0.5166468 1.592346,-0.6274204 0.159508,-0.028743 0.449752,-0.044535 0.737761,-0.047613 z m -11.2870544,6.5294853 3.3642626,0.276917 0.7377608,0.0887 c 0.111592,0.01082 0.2196,0.02773 0.242324,0.03895 h 0.0022 c 0.04653,0.02976 -0.16475,1.414073 -0.289902,1.912547 -0.232619,0.882851 -0.6256016,1.686901 -1.1185368,2.221926 -0.5405681,0.587092 -1.2850247,1.002782 -2.1202462,1.187771 l -0.00216,-0.0044 c -0.1971761,0.0421 -0.3781647,0.05715 -0.8589127,0.06489 -0.6635255,0.0098 -0.6505774,0.01048 -1.0471412,-0.07138 C 4.5512417,17.920866 3.9293096,17.598419 3.4552063,17.116559 3.109596,16.766522 2.9552272,16.502316 2.8256251,16.032643 2.751058,15.543928 2.7561947,15.04636 2.8408422,14.559288 2.934532,14.145275 3.1217731,13.758214 3.388214,13.42777 3.5776497,13.190722 3.8149786,13.014106 4.1605855,12.847945 4.835189,12.525614 5.2939061,12.428623 6.4171327,12.365486 Z"/></svg>
