<svg version="1.2" xmlns="http://www.w3.org/2000/svg" viewBox="0 0 24 24" width="24" height="24"><style></style><path d="m 18.544468,8.6356485 c -0.163132,0 -0.295124,0.04768 -0.396673,0.142674 -0.09827,0.09532 -0.147153,0.218165 -0.147153,0.368522 0,0.150357 0.04888,0.273525 0.147153,0.368522 0.09827,0.09238 0.22875,0.138196 0.391555,0.138196 0.162805,0 0.293282,-0.04648 0.391555,-0.138196 0.09827,-0.095 0.147153,-0.217837 0.147153,-0.368522 0,-0.153633 -0.04888,-0.276801 -0.147153,-0.368522 -0.09827,-0.09532 -0.226908,-0.142674 -0.386437,-0.142674 z m -2.008317,0.02559 c -0.411434,0 -0.733497,0.117047 -0.966731,0.350608 -0.233233,0.229958 -0.349968,0.620515 -0.349968,1.1701865 v 0.584772 h -0.602687 c -0.101548,0 -0.176711,0.02628 -0.225847,0.07869 -0.04914,0.05241 -0.07422,0.118408 -0.07422,0.198337 a 0.2718874,0.2718874 0 0 0 0.07422,0.193858 c 0.04914,0.04914 0.124299,0.07358 0.225847,0.07358 h 0.602687 v 3.576456 c 0,0.129064 0.03971,0.230198 0.119642,0.303903 a 0.43895074,0.43895074 0 0 0 0.294946,0.106205 c 0.113395,-1.32e-4 0.211586,-0.03494 0.294305,-0.105566 0.08288,-0.0737 0.124121,-0.174839 0.124121,-0.303903 v -3.577734 h 0.779271 c 0.196545,-1e-6 0.294945,-0.08923 0.294945,-0.267435 0,-0.08026 -0.02444,-0.145924 -0.07358,-0.198337 -0.04619,-0.05241 -0.119821,-0.07869 -0.221369,-0.07869 h -0.778627 v -0.358927 c 0,-0.248958 0.0092,-0.4457585 0.02751,-0.5898925 0.02097,-0.147408 0.05948,-0.259879 0.115163,-0.336532 0.05831,-0.07993 0.123992,-0.130012 0.197697,-0.151632 0.0737,-0.02457 0.176368,-0.03711 0.308381,-0.03711 h 0.391555 c 0.09238,0 0.162636,-0.03055 0.211772,-0.09213 0.05241,-0.06126 0.07869,-0.134905 0.07869,-0.220729 0,-0.08582 -0.02628,-0.159785 -0.07869,-0.22137 -0.04914,-0.06453 -0.118193,-0.09661 -0.207294,-0.09661 z m 4.227127,0.05694 a 0.44550224,0.44550224 0 0 0 -0.299424,0.110685 c -0.08288,0.0737 -0.12476,0.175478 -0.12476,0.304542 v 5.7453625 c 0,0.13496 0.03971,0.239154 0.119642,0.31286 a 0.42257198,0.42257198 0 0 0 0.290467,0.106205 l -6.4e-4,0.0032 a 0.42912348,0.42912348 0 0 0 0.294946,-0.110685 c 0.08648,-0.0737 0.129238,-0.176369 0.129238,-0.308381 V 12.87045 l 2.164428,2.303263 c 0.07633,0.08648 0.168307,0.129239 0.275752,0.129239 0.10122,0 0.190781,-0.03851 0.267434,-0.115163 0.0796,-0.07698 0.119641,-0.164683 0.119641,-0.262956 A 0.33740243,0.33740243 0 0 0 23.898275,14.68555 l -1.827895,-1.926424 1.671785,-1.496481 c 0.07371,-0.07043 0.110685,-0.149293 0.110685,-0.235445 0,-0.09532 -0.03851,-0.181185 -0.115163,-0.257837 -0.07371,-0.07698 -0.158926,-0.115164 -0.257198,-0.115164 -0.07665,0 -0.14877,0.0287 -0.216251,0.08701 l -2.090851,1.916826 V 9.1334025 c 0,-0.129064 -0.04188,-0.230838 -0.12476,-0.304542 A 0.40619322,0.40619322 0 0 0 20.763278,8.7181815 Z M 1.387079,9.0969375 c -0.09827,0 -0.189037,0.03545 -0.271913,0.106206 -0.07993,0.07076 -0.122687,0.155086 -0.129239,0.253359 L 0.875242,10.764884 H 0.309024 c -0.101221,0 -0.177914,0.02628 -0.230326,0.07869 -0.05241,0.04914 -0.0787,0.11329 -0.0787,0.193218 0,0.08288 0.02628,0.1492 0.0787,0.198337 0.05536,0.04914 0.133256,0.07358 0.234804,0.07358 h 0.56174 v 2.653231 c 0,0.475966 0.104195,0.829216 0.312861,1.0595 0.208665,0.22701 0.489484,0.341011 0.84261,0.341011 l 0.271273,0.0019 c 0.110393,0 0.199314,-0.0024 0.266795,-0.009 a 0.95324376,0.95324376 0 0 0 0.207293,-0.04159 c 0.07076,-0.02162 0.12301,-0.05587 0.15675,-0.101728 0.03374,-0.04914 0.05054,-0.112087 0.05054,-0.18874 0,-0.08615 -0.02967,-0.161315 -0.08765,-0.225847 -0.05798,-0.06453 -0.137095,-0.09725 -0.238644,-0.09725 H 2.62956 l -0.313499,0.01407 h -0.05054 c -0.19327,0 -0.334444,-0.06906 -0.423545,-0.207293 C 1.752876,14.36546 1.708259,14.13691 1.708259,13.820472 v -2.511196 h 0.849008 c 0.202442,0 0.303903,-0.08739 0.303903,-0.262316 0,-0.0832 -0.02628,-0.151043 -0.0787,-0.203455 -0.04914,-0.05241 -0.124299,-0.07869 -0.225847,-0.07869 H 1.708896 V 9.4282835 c 0,-0.107445 -0.03024,-0.188074 -0.09149,-0.243762 A 0.32102367,0.32102367 0 0 0 1.38708,9.0968715 Z M 11.950738,10.52496 c -0.637461,0 -1.182121,0.233465 -1.505438,0.645553 -0.02058,0.02641 -0.04061,0.04792 -0.04543,0.05054 h -6.4e-4 -6.4e-4 -6.4e-4 c -0.0047,-0.0033 -0.01662,-0.01792 -0.02751,-0.03455 -0.03767,-0.06257 -0.133195,-0.16955 -0.196417,-0.223928 -0.213579,-0.18377 -0.496701,-0.306115 -0.869482,-0.37556 -0.224389,-0.0416 -0.385643,-0.05565 -0.637876,-0.0563 -0.243716,-3.27e-4 -0.334434,0.0074 -0.519514,0.04479 -0.288921,0.05831 -0.575022,0.193965 -0.745361,0.353167 -0.07567,0.07141 -0.09789,0.115117 -0.09789,0.198976 0,0.05634 0.004,0.07325 0.02431,0.114523 0.04914,0.100566 0.125645,0.151478 0.238004,0.15803 0.06486,0.0039 0.06526,0.0037 0.229046,-0.05758 0.279422,-0.104824 0.405482,-0.137597 0.630199,-0.163147 a 3.4297121,3.4297121 0 0 1 0.577095,0.0051 c 0.468432,0.05995 0.760077,0.213881 0.882917,0.465131 0.0475,0.09729 0.06305,0.157001 0.0755,0.282789 0.01048,0.1081 0.0041,0.201295 -0.03519,0.47089 -0.01892,0.130702 -0.02744,0.17571 -0.03583,0.184901 l -6.4e-4,6.39e-4 -6.4e-4,6.4e-4 h -6.4e-4 -6.39e-4 l -6.4e-4,6.4e-4 -0.225848,-0.03711 C 9.18723,12.470544 8.876873,12.440163 8.506713,12.44049 c -0.521827,0 -0.842124,0.06058 -1.163147,0.21945 -0.416676,0.206044 -0.653784,0.558981 -0.712092,1.058861 -0.0511,0.434692 0.07806,0.8065 0.378119,1.091491 0.294817,0.280404 0.699654,0.440383 1.230326,0.486244 l -0.0019,-0.0013 a 3.9472809,3.9472809 0 0 0 0.46641,-0.01535 c 0.30268,-0.04095 0.602283,-0.144614 0.810621,-0.28023 0.144133,-0.09041 0.291721,-0.228049 0.388355,-0.352527 0.02195,-0.02817 0.0406,-0.05058 0.04159,-0.04926 l 0.05374,0.0723 c 0.114651,0.155599 0.268151,0.280441 0.46961,0.380679 0.258129,0.128737 0.541,0.198147 0.948176,0.233525 0.144461,0.01212 0.444146,0.0099 0.575176,-0.0045 0.367867,-0.04062 0.675731,-0.158649 0.916827,-0.350608 0.100893,-0.08026 0.135309,-0.142213 0.135637,-0.243761 a 0.29481766,0.29481766 0 0 0 -0.145874,-0.235445 0.32102367,0.32102367 0 0 0 -0.159949,-0.02943 l -0.174024,0.05694 c -0.307266,0.113013 -0.412366,0.139859 -0.643634,0.164427 l -0.326295,0.009 c -0.34461,-0.0075 -0.572638,-0.05313 -0.790148,-0.161229 -0.221441,-0.109409 -0.342264,-0.250957 -0.397953,-0.462572 -0.01736,-0.06584 -0.01985,-0.09103 -0.01919,-0.233525 a 1.899936,1.899936 0 0 1 0.03135,-0.359565 6.3451312,6.3451312 0 0 1 0.03199,-0.202175 l 0.394754,0.06526 0.557262,0.07038 c 0.238475,0.02097 0.60629,0.02284 0.807422,0.0038 0.399641,-0.03734 0.704788,-0.132781 0.948176,-0.295585 0.302352,-0.202114 0.476535,-0.486229 0.549584,-0.896354 l 0.01024,-0.257837 c -6.55e-4,-0.208993 -0.0075,-0.261497 -0.05438,-0.40563 -0.08124,-0.250267 -0.282416,-0.504456 -0.53039,-0.669225 -0.312179,-0.207355 -0.731271,-0.321817 -1.182342,-0.321817 z m -5.863083,0.12476 c -0.325282,0 -0.604259,0.0972 -0.837492,0.290467 A 1.3659885,1.3659885 0 0 0 4.78951,11.6542 l 0.0045,-0.552784 c 0,-0.116617 -0.04188,-0.207381 -0.12476,-0.271913 -0.07993,-0.06781 -0.176159,-0.101728 -0.289828,-0.101728 a 0.45205374,0.45205374 0 0 0 -0.294946,0.101088 c -0.08288,0.06486 -0.124759,0.158029 -0.124759,0.28087 v 3.801023 c 0,0.122841 0.03971,0.217541 0.119641,0.285349 0.07993,0.06781 0.176799,0.101727 0.290467,0.101727 v 6.41e-4 a 0.45205374,0.45205374 0 0 0 0.294946,-0.101088 c 0.08648,-0.06748 0.128599,-0.163148 0.128599,-0.285989 v -2.37236 c 0,-0.35935 0.114001,-0.646916 0.34101,-0.861805 0.229958,-0.215217 0.552349,-0.322457 0.966731,-0.322457 0.09827,0 0.174076,-0.03208 0.226488,-0.09661 a 0.3799872,0.3799872 0 0 0 0.07805,-0.239283 c 0,-0.09827 -0.02934,-0.184773 -0.08765,-0.258476 C 6.262639,10.686695 6.185945,10.64972 6.087673,10.64972 Z m 12.461292,0.06846 a 0.44550224,0.44550224 0 0 0 -0.299424,0.110685 c -0.08288,0.0737 -0.12476,0.174839 -0.12476,0.303903 v 3.746001 c 0,0.134961 0.03971,0.239155 0.119641,0.31286 a 0.42257198,0.42257198 0 0 0 0.290468,0.106206 v 0.0032 a 0.42912348,0.42912348 0 0 0 0.294945,-0.110685 c 0.08648,-0.07665 0.129239,-0.179317 0.129239,-0.308381 v -3.749201 c 0,-0.129064 -0.04188,-0.230198 -0.12476,-0.303902 a 0.40619322,0.40619322 0 0 0 -0.285349,-0.110684 z m -6.692898,0.369802 c 0.08517,-9e-4 0.16975,0.0021 0.215611,0.0096 0.369177,0.06093 0.650421,0.239846 0.770313,0.488803 0.05372,0.111703 0.06716,0.176457 0.06782,0.332054 9.82e-4,0.217837 -0.04041,0.364243 -0.145234,0.519514 -0.07141,0.105807 -0.147312,0.168118 -0.277031,0.229046 -0.155926,0.07338 -0.283711,0.105777 -0.490084,0.124121 l -6.39e-4,-6.4e-4 a 4.3076136,4.3076136 0 0 1 -0.5643,0.0026 l -0.282789,-0.03199 -0.573257,-0.06974 -0.04159,-0.0045 0.03135,-0.213691 c 0.03407,-0.231596 0.04422,-0.284121 0.08189,-0.418427 0.09664,-0.342643 0.268607,-0.597758 0.518874,-0.767114 0.135616,-0.09172 0.289085,-0.152783 0.470889,-0.185541 0.04717,-0.0085 0.133001,-0.01317 0.218171,-0.01408 z m -3.337812,1.930902 0.994881,0.08189 0.218171,0.02623 c 0.033,0.0032 0.06494,0.0082 0.07166,0.01152 h 6.4e-4 c 0.01376,0.0088 -0.04872,0.41817 -0.08573,0.565579 -0.06879,0.261077 -0.185003,0.498851 -0.330774,0.657069 -0.159857,0.173615 -0.380008,0.296543 -0.627,0.351248 l -6.39e-4,-0.0013 c -0.05831,0.01245 -0.111832,0.0169 -0.253999,0.01919 -0.196218,0.0029 -0.192389,0.0031 -0.309661,-0.02111 -0.229303,-0.0475 -0.413221,-0.142854 -0.553423,-0.28535 -0.102204,-0.103513 -0.147854,-0.181644 -0.18618,-0.320536 a 1.3528855,1.3528855 0 0 1 0.0045,-0.435701 0.82221369,0.82221369 0 0 1 0.161869,-0.334613 c 0.05602,-0.0701 0.126203,-0.122329 0.228406,-0.171466 0.199494,-0.09532 0.335146,-0.124002 0.667307,-0.142673 z"/></svg>
