<svg version="1.2" xmlns="http://www.w3.org/2000/svg" viewBox="0 0 24 24" width="24" height="24"><style></style><path d="m 8.6457899,4.7390716 0.034,0.02 2.9450001,1.66 a 0.66,0.66 0 0 0 0.65,0 l 2.92,-1.644 a 0.99249232,0.99249232 0 0 1 1.008,1.71 l -0.033,0.02 -1.688,0.952 a 0.33,0.33 0 0 0 0,0.574 l 4.555,2.5700004 a 0.66,0.66 0 0 0 0.65,0 l 2.815,-1.5900004 a 0.9930005,0.9930005 0 0 1 1.01,1.7100004 l -0.035,0.02 -1.585,0.89 a 0.33,0.33 0 0 0 0,0.578 l 1.594,0.897 a 0.992,0.993 0 0 1 -0.94,1.748 l -0.035,-0.02 -2.826,-1.591 a 0.66,0.66 0 0 0 -0.65,0 l -4.605,2.595 a 0.33,0.33 0 0 0 0,0.575 l 1.905,1.072 a 0.993,0.993 0 0 1 -0.94,1.748 l -0.035,-0.018 -3.133,-1.767 a 0.66,0.66 0 0 0 -0.65,0 l -3.1610001,1.783 a 0.992,0.992 0 0 1 -1.006,-1.71 l 0.033,-0.02 1.93,-1.088 a 0.33,0.33 0 0 0 0,-0.575 l -4.564,-2.572 a 0.66,0.66 0 0 0 -0.65,0 l -2.689,1.51 a 0.993,0.993 0 0 1 -1.005,-1.711 l 0.034,-0.018 1.452,-0.817 a 0.33,0.33 0 0 0 0,-0.577 l -1.45,-0.817 a 0.992,0.992 0 0 1 0.941,-1.7460004 l 0.033,0.018 2.685,1.5150004 a 0.66,0.66 0 0 0 0.65,0 l 4.607,-2.5960004 a 0.33,0.33 0 0 0 0,-0.576 l -1.711,-0.963 a 0.992,0.993 0 0 1 0.94,-1.748 z m 2.9770001,4.324 -4.6090001,2.5900004 a 0.33,0.33 0 0 0 0,0.58 l 4.5630001,2.57 a 0.66,0.66 0 0 0 0.65,0 l 4.606,-2.595 a 0.33,0.33 0 0 0 0,-0.577 l -4.558,-2.5700004 a 0.66,0.66 0 0 0 -0.65,0 z"/></svg>
