<svg version="1.2" xmlns="http://www.w3.org/2000/svg" viewBox="0 0 24 24" width="24" height="24"><style></style><path d="m 12.000061,1.1900795 c 1.088,0 2.056,0.768 2.056,1.714 0,0.947 -0.921,1.715 -2.056,1.715 -0.13,0 -0.3,-0.022 -0.509,-0.064 a 0.685,0.685 0 0 0 -0.475,0.076 l -7.3700004,4.195 a 0.344,0.344 0 0 0 10e-4,0.597 L 11.637061,13.91308 c 0.208,0.116 0.461,0.116 0.669,0 l 8.034,-4.4680005 a 0.343,0.343 0 0 0 0.003,-0.598 l -2.507,-1.424 a 0.683,0.683 0 0 0 -0.67,-0.003 l -2.647,1.468 a 0.234,0.234 0 0 0 -0.119,0.18 l -0.001,0.025 c 0,0.9460005 -0.921,1.7140005 -2.056,1.7140005 -1.135,0 -2.056,-0.768 -2.056,-1.7140005 0,-0.947 0.921,-1.715 2.056,-1.715 0.042,0 0.09,0.002 0.145,0.007 l 0.087,0.008 0.096,0.013 a 0.685,0.685 0 0 0 0.425,-0.08 l 3.913,-2.173 c 0.3,-0.166 0.662,-0.171 0.965,-0.017 l 0.04,0.023 5.465,3.104 c 0.686,0.39 0.693,1.368 0.03,1.7730005 l -0.037,0.021 -3.656,2.033 a 0.343,0.343 0 0 0 0.007,0.604 l 3.62,1.906 c 0.72,0.378 0.736,1.402 0.03,1.804 l -10.995,6.272 a 1.03,1.03 0 0 1 -1.019,0 l -10.9330004,-6.246 a 1.03,1.03 0 0 1 0.034,-1.806 l 3.66,-1.911 a 0.343,0.343 0 0 0 0.01,-0.603 l -3.706,-2.081 a 1.03,1.03 0 0 1 -0.041,-1.7700005 l 0.036,-0.021 9.099,-5.178 a 0.688,0.688 0 0 0 0.308,-0.369 l 0.011,-0.036 c 0.3200004,-0.952 1.0460004,-1.466 2.0630004,-1.466 z m 5.076,12.6300005 -4.492,2.586 -0.041,0.022 c -0.306,0.158 -0.671,0.152 -0.973,-0.018 l -4.4780004,-2.527 a 0.682,0.682 0 0 0 -0.65,-0.01 l -2.582,1.351 a 0.343,0.343 0 0 0 -0.012,0.602 l 7.8870004,4.515 c 0.21,0.12 0.467,0.121 0.677,0 l 7.956,-4.547 a 0.343,0.343 0 0 0 -0.01,-0.602 l -2.623,-1.384 a 0.683,0.683 0 0 0 -0.659,0.012 z"/></svg>
