<svg version="1.2" xmlns="http://www.w3.org/2000/svg" viewBox="0 0 24 24" width="24" height="24"><style></style><path  d="m21.6611-0v1.4866h1.4832v-1.4866zm-21.5532.1862v11.1733c0 1.0882.0898 2.3809.3092 3.3954.1164.5659.2992 1.1281.5124 1.6708l.0332.0798.0332.0665.0332.0765c.0332.0499.0399.0964.0632.1463.0465.1064.0898.2128.1363.3192.0665.1396.133.2793.2028.4149.0798.1563.1629.3092.2427.4555.3548.6194.77 1.2156 1.2455 1.7745.1363.1596.2726.3225.4186.4755.123.1363.2527.266.385.3917l.0565.0565c1.9018 1.8313 4.3795 2.9764 6.9713 3.2411.1529 0 .385.0332.6161.0432.2394 0 .4788.0332.6361.0332.3159 0 .9409-.0332 1.2525-.0632 2.5914-.266 5.0691-1.4097 6.9709-3.2411.1529-.1463.3059-.2959.4489-.4522.1263-.1297.2394-.2693.3584-.4016l.0565-.0665c.4788-.5589.8907-1.1551 1.2455-1.7745l.0731-.133c.0332-.0332.0399-.0665.0565-.0998l.0399-.0798c.0332-.0432.0465-.0864.0698-.133l.0665-.1297c.1529-.3159.2992-.643.4322-.9812.2095-.5426.395-1.1049.512-1.6708.2128-1.0181.3059-2.3071.3059-3.3954v-.9443h-2.9734v-2.9764h-2.9698v2.9801.1529.3192c0 .2128-.003.4489 0 .5692 0 .3518-.0332.6999-.0599 1.0414-.0964.921-.3026 1.7881-.7198 2.5282-.0465.0831-.0931.1662-.143.246-.0765.1263-.1563.246-.246.3684-.8941 1.1953-2.2536 2.0894-3.951 2.3404-.2028.0332-.6095.0532-.8139.0532-.2028 0-.6124-.0332-.8136-.0532-1.6973-.2494-3.0569-1.1451-3.951-2.3404-.1463-.1962-.2693-.402-.3917-.6161-.4186-.7401-.6194-1.6072-.7198-2.5282-.0332-.3415-.0465-.6896-.0598-1.0414-.0033-.0998 0-.2793 0-.4585v-.3917-.1895-10.2327zm20.8098 7.2526h2.9701v-2.9768h-2.9701zm0-2.9768v-2.23h-2.23v2.23z"</svg>
