<svg version="1.2" xmlns="http://www.w3.org/2000/svg" viewBox="0 0 24 24" width="24" height="24"><style></style><path  d="m15.0896 8.3098c-.4914 0-.8882.3978-.8882.8892 0 .4925.3968.8902.8882.8902.4915 0 .8892-.3977.8892-.8902 0-.4914-.3977-.8892-.8892-.8892zm8.0212 0c-.4915 0-.8882.3978-.8882.8892 0 .4925.3967.8902.8882.8902.4914 0 .8892-.3977.8892-.8902 0-.4914-.3978-.8892-.8892-.8892zm-16.6284.1621v.4471h.4461v-.4471zm-6.4824.056v3.3605c0 .3273.027.7161.093 1.0212.035.1702.09.3393.1541.5025l.01.024.01.02.01.023c.01.015.012.029.019.044.014.032.027.064.041.096.02.042.04.084.061.1248.024.047.049.093.073.137.1067.1863.2316.3656.3746.5337.041.048.082.097.1259.143.037.041.076.08.1158.1178l.017.017c.572.5508 1.3172.8952 2.0967.9748.046 0 .1158.01.1853.013.072 0 .144.01.1913.01.095 0 .283-.01.3767-.019.7794-.08 1.5246-.424 2.0966-.9748.046-.044.092-.089.135-.136.038-.039.072-.081.1078-.1208l.017-.02c.144-.1681.2679-.3474.3746-.5337l.022-.04c.01-.01.012-.02.017-.03l.012-.024c.01-.013.014-.026.021-.04l.02-.039c.046-.095.09-.1934.13-.2951.063-.1632.1188-.3323.154-.5025.064-.3062.092-.6939.092-1.0212v-.284h-.8943v-.8952h-.8932v.8963.046.096c0 .064-.0009.135 0 .1712 0 .1058-.01.2105-.018.3132-.029.277-.091.5378-.2165.7604-.014.025-.028.05-.043.074-.023.038-.047.074-.074.1108-.2689.3595-.6778.6284-1.1883.7039-.061.01-.1833.016-.2448.016-.061 0-.1842-.01-.2447-.016-.5105-.075-.9194-.3444-1.1883-.7039-.044-.059-.081-.1209-.1178-.1853-.1259-.2226-.1863-.4834-.2165-.7604-.01-.1027-.014-.2074-.018-.3132-.001-.03 0-.084 0-.1379v-.1178-.057-3.0776zm6.2588 2.1813h.8933v-.8953h-.8933zm0-.8953v-.6707h-.6707v.6707zm10.8872-1.286v7.1058h1.5388v-2.6849h2.3706v-1.3433h-2.3706v-1.7342h2.8177v-1.3434zm-5.8537 2.0165c-.9197.034-1.3799.6089-1.3799.6089v-.4481h-1.4723v4.9224h1.5277v-2.8882s0-.1017 0-.135c0-.045 0-.09.01-.1339.012-.1188.039-.2316.093-.3273.01-.015.017-.029.026-.044l.012-.018c0-.01.01-.012.012-.017.1159-.1551.2911-.2699.5106-.3021.011 0 .026 0 .042-.01.023 0 .048 0 .063 0 .012 0 .031.001.05 0h.017c.014.001.028 0 .037.01.2205.032.3948.147.5116.3021.017.023.031.047.046.072h.001c.054.096.081.2085.093.3273.01.043.01.088.01.1319.001.033.001.135.001.135v2.8943h1.5277v-3.3424c0-.9819-.6113-1.704-1.5508-1.7463-.065 0-.1288 0-.1901-.0006zm3.0279.1668v4.9225h1.5388v-4.9225zm8.0222 0v4.9225h1.5388v-4.9225z"</svg>
