<svg version="1.2" xmlns="http://www.w3.org/2000/svg" viewBox="0 0 24 24" width="24" height="24"><style></style><path  d="m12 0.1q0 0-0.1 0 0 0-0.1 0 0 0.1 0 0.1-0.1 0-0.1 0.1l-0.6 1q-0.1 0-0.3 0l-0.8-0.9q0 0 0 0-0.1 0-0.1-0.1 0 0-0.1 0 0 0 0 0-0.1 0-0.1 0-0.1 0-0.1 0.1-0.1 0-0.1 0 0 0.1-0.1 0.1l-0.4 1.1q-0.1 0.1-0.3 0.1l-0.9-0.7q0 0-0.1 0 0 0 0 0 0 0-0.1 0 0 0 0 0-0.1 0-0.1 0-0.1 0-0.1 0.1-0.1 0-0.1 0 0 0.1-0.1 0.2l-0.1 1.1q-0.2 0.1-0.3 0.2l-1.1-0.5q0 0 0 0 0 0 0-0.1-0.1 0-0.1 0 0 0 0 0-0.1 0-0.1 0.1-0.1 0-0.2 0 0 0.1 0 0.2-0.1 0-0.1 0.1l0.1 1.2q-0.1 0.1-0.2 0.2l-1.2-0.3q0 0 0 0 0 0 0 0-0.1 0-0.1 0 0 0 0 0-0.1 0-0.1 0-0.1 0.1-0.1 0.1-0.1 0.1-0.1 0.2 0 0 0 0.1l0.3 1.2q-0.1 0.1-0.2 0.2l-1.2-0.1q-0.1 0-0.2 0.1-0.1 0-0.1 0.1-0.1 0.1-0.1 0.2 0 0 0.1 0.1l0.5 1.1q-0.1 0.1-0.2 0.3l-1.1 0.1q-0.1 0.1-0.2 0.1-0.1 0.1-0.1 0.2 0 0 0 0.1 0 0.1 0 0.2l0.7 0.9q0 0.2-0.1 0.3l-1.1 0.4q-0.1 0.1-0.1 0.1-0.1 0.1-0.1 0.2 0 0.1 0 0.2 0.1 0.1 0.1 0.1l0.9 0.8q0 0.2 0 0.3l-1 0.6q-0.1 0.1-0.2 0.2 0 0 0 0.1 0 0.1 0 0.2 0.1 0.1 0.2 0.1l1 0.6q0 0.2 0 0.3l-0.9 0.8q0 0.1-0.1 0.2 0 0.1 0 0.1 0 0.1 0.1 0.2 0 0.1 0.1 0.1l1.1 0.4q0.1 0.2 0.1 0.3l-0.7 1q0 0 0 0.1 0 0.1 0 0.2 0 0.1 0.1 0.1 0.1 0.1 0.2 0.1l1.1 0.2q0.1 0.1 0.2 0.3l-0.5 1q-0.1 0.1-0.1 0.2 0 0.1 0.1 0.2 0 0 0.1 0.1 0.1 0 0.2 0l1.2-0.1q0.1 0.2 0.2 0.3l-0.3 1.1q0 0.1 0 0.2 0 0.1 0.1 0.2 0 0 0.1 0 0.1 0.1 0.2 0.1l1.2-0.3q0.1 0.1 0.2 0.2l-0.1 1.1q0 0.1 0.1 0.2 0 0.1 0.1 0.1 0.1 0.1 0.2 0.1 0 0 0.1 0l1.1-0.5q0.1 0 0.3 0.1l0.1 1.2q0.1 0.1 0.1 0.1 0.1 0.1 0.2 0.1 0 0.1 0.1 0.1 0.1 0 0.2-0.1l0.9-0.7q0.2 0.1 0.3 0.1l0.4 1.1q0.1 0.1 0.1 0.2 0.1 0 0.2 0 0.1 0 0.2 0 0.1 0 0.1-0.1l0.8-0.8q0.2 0 0.3 0l0.6 1q0.1 0.1 0.2 0.1 0 0.1 0.1 0.1 0.1 0 0.2-0.1 0.1 0 0.1-0.1l0.6-1q0.2 0 0.3 0l0.8 0.8q0.1 0.1 0.2 0.1 0.1 0 0.1 0 0.1 0 0.2 0 0.1-0.1 0.1-0.2l0.4-1.1q0.2 0 0.3-0.1l1 0.7q0 0.1 0.1 0.1 0.1 0 0.2-0.1 0.1 0 0.1-0.1 0.1 0 0.1-0.1l0.2-1.2q0.1-0.1 0.3-0.1l1 0.5q0.1 0 0.2 0 0.1 0 0.2-0.1 0 0 0.1-0.1 0-0.1 0-0.2l-0.1-1.1q0.2-0.1 0.3-0.2l1.1 0.3q0.1 0 0.2-0.1 0.1 0 0.2 0 0-0.1 0-0.2 0.1-0.1 0.1-0.2l-0.3-1.1q0.1-0.1 0.2-0.3l1.1 0.1q0.1 0 0.2 0 0.1-0.1 0.1-0.1 0.1-0.1 0.1-0.2 0-0.1 0-0.2l-0.5-1q0-0.2 0.1-0.3l1.2-0.2q0.1 0 0.1-0.1 0.1 0 0.1-0.1 0.1-0.1 0.1-0.2 0-0.1-0.1-0.1l-0.7-1q0.1-0.1 0.1-0.3l1.1-0.4q0.1 0 0.2-0.1 0-0.1 0-0.2 0 0 0-0.1 0-0.1-0.1-0.2l-0.8-0.8q0-0.1 0-0.3l1-0.6q0.1 0 0.1-0.1 0.1-0.1 0.1-0.2 0-0.1-0.1-0.1 0-0.1-0.1-0.2l-1-0.6q0-0.1 0-0.3l0.8-0.8q0.1 0 0.1-0.1 0-0.1 0-0.2 0-0.1 0-0.2-0.1 0-0.2-0.1l-1.1-0.4q0-0.1-0.1-0.3l0.7-0.9q0.1-0.1 0.1-0.2 0-0.1-0.1-0.1 0-0.1-0.1-0.2 0 0-0.1-0.1l-1.2-0.1q-0.1-0.2-0.1-0.3l0.5-1.1q0-0.1 0-0.1 0-0.1-0.1-0.2 0-0.1-0.1-0.1-0.1-0.1-0.2-0.1l-1.1 0.1q-0.1-0.1-0.2-0.2l0.3-1.2q0-0.1 0-0.1-0.1-0.1-0.1-0.2-0.1 0-0.1-0.1-0.1 0-0.2 0 0 0 0 0 0 0 0 0 0 0 0 0-0.1 0-0.1 0l-1.1 0.3q-0.1-0.1-0.3-0.2l0.1-1.2q0-0.1 0-0.1 0-0.1-0.1-0.2 0 0-0.1 0-0.1-0.1-0.1-0.1-0.1 0-0.1 0 0 0 0 0 0 0.1-0.1 0.1 0 0 0 0l-1 0.5h-0.1q-0.1-0.1-0.2-0.2l-0.2-1.1q0-0.1 0-0.2-0.1 0-0.1 0-0.1-0.1-0.1-0.1-0.1 0-0.1 0-0.1 0-0.1 0 0 0 0 0-0.1 0-0.1 0 0 0 0 0l-1 0.7q-0.1 0-0.3-0.1l-0.4-1.1q0 0 0-0.1-0.1 0-0.1 0-0.1-0.1-0.1-0.1-0.1 0-0.1 0-0.1 0-0.1 0 0 0-0.1 0 0 0.1 0 0.1 0 0-0.1 0l-0.8 0.9q-0.1 0-0.3 0l-0.6-1q0-0.1 0-0.1-0.1-0.1-0.1-0.1-0.1 0-0.1 0-0.1 0-0.1 0zm0 2.1q0.2 0 0.3 0.1 0.1 0 0.2 0.1 0.1 0.1 0.2 0.3 0 0.1 0 0.2 0 0.2 0 0.3-0.1 0.1-0.2 0.2-0.1 0.1-0.2 0.2-0.1 0-0.3 0-0.1 0-0.2 0-0.2-0.1-0.3-0.2-0.1-0.1-0.1-0.2-0.1-0.1-0.1-0.3 0-0.1 0.1-0.2 0-0.2 0.1-0.3 0.1-0.1 0.3-0.1 0.1-0.1 0.2-0.1zm-1.6 1.2l1.1 1.1q0.1 0.1 0.3 0.2 0.1 0 0.2 0 0.2 0 0.3 0 0.1-0.1 0.2-0.2l1.1-1.1q1.5 0.3 2.7 1l-3.7 10.6q-0.3 0.9-0.6 1.8-0.2-0.9-0.6-1.9l-3.7-10.5q1.3-0.7 2.7-1zm-5.2 3.1l5 14.1q-1-0.2-1.9-0.7l-0.3-1.5q0-0.2-0.1-0.3 0-0.1-0.1-0.2-0.1 0-0.2-0.1-0.2 0-0.3 0 0 0 0 0 0 0 0 0 0 0 0 0-0.1 0-0.1 0l-1.5 0.2c-1.5-1.5-2.4-3.6-2.4-6q0-0.6 0-1.1l1.5-0.7q0.1-0.1 0.2-0.2 0.1-0.1 0.1-0.2 0-0.2 0-0.3 0-0.1 0-0.2l-0.8-1.5q0.4-0.7 0.9-1.3zm13.7 0q0.4 0.6 0.8 1.3l-0.7 1.5q-0.1 0.1-0.1 0.2 0 0.1 0 0.3 0.1 0.1 0.2 0.2 0.1 0.1 0.2 0.2l1.4 0.7q0.1 0.5 0.1 1.1c0 2.4-0.9 4.5-2.4 6l-1.6-0.2q0 0 0 0 0 0 0 0-0.1 0-0.1 0 0 0 0 0-0.1 0-0.2 0-0.1 0.1-0.2 0.1-0.1 0.1-0.2 0.2-0.1 0.1-0.1 0.3l-0.2 1.5q-0.9 0.5-2 0.7zm-15.4 2q0 0 0 0 0.1 0 0.1 0 0 0 0 0 0 0 0.1 0 0.1 0 0.2 0.1 0.1 0.1 0.2 0.2 0 0.2 0 0.3 0.1 0.1 0 0.3 0 0.1-0.1 0.2-0.1 0.1-0.2 0.2-0.2 0-0.3 0-0.1 0-0.3 0-0.1 0-0.2-0.1-0.1-0.1-0.1-0.2-0.1-0.2-0.1-0.3 0-0.1 0-0.3 0-0.1 0.1-0.2 0.1-0.1 0.2-0.1 0.1-0.1 0.2-0.1 0.1 0 0.2 0zm17.2 0q0.1 0 0.2 0 0.2 0 0.2 0.1 0.1 0 0.2 0.1 0.1 0.1 0.1 0.2 0 0.2 0 0.3 0 0.1 0 0.3-0.1 0.1-0.2 0.2-0.1 0.1-0.2 0.1-0.2 0-0.3 0-0.1 0-0.3 0-0.1-0.1-0.2-0.2 0-0.1-0.1-0.2 0-0.2 0-0.3 0-0.1 0-0.3 0.1-0.1 0.2-0.2 0.1-0.1 0.2-0.1 0.1 0 0.1 0 0 0 0 0 0.1 0 0.1 0 0 0 0 0zm-14 10.1q0.1 0 0.2 0 0 0 0.1 0.1 0 0 0.1 0 0 0 0.1 0.1 0.1 0 0.1 0.2 0.1 0.1 0.1 0.2 0.1 0.1 0 0.3 0 0.1-0.1 0.2-0.1 0.1-0.2 0.2-0.1 0.1-0.2 0.1-0.2 0-0.3 0-0.1-0.1-0.2-0.1-0.1-0.1-0.2-0.2-0.1-0.1-0.1-0.3 0-0.1 0-0.2 0-0.2 0.1-0.3 0.1-0.1 0.1-0.1 0.1-0.1 0.1-0.1 0.1 0 0.2 0 0.1-0.1 0.1-0.1zm10.8 0q0 0 0.1 0.1 0.1 0 0.2 0 0 0 0.1 0.1 0.1 0 0.1 0.1 0.1 0.1 0.1 0.3 0 0.1 0 0.2 0 0.2-0.1 0.3 0 0.1-0.1 0.2-0.2 0-0.3 0.1-0.1 0-0.3 0-0.1 0-0.2-0.1-0.1-0.1-0.2-0.2-0.1-0.1-0.1-0.2 0-0.2 0-0.3 0-0.1 0.1-0.2 0-0.2 0.2-0.2 0-0.1 0-0.1 0.1 0 0.2 0 0-0.1 0.1-0.1 0 0 0.1 0z"/></svg>