<svg version="1.2" xmlns="http://www.w3.org/2000/svg" viewBox="0 0 24 24" width="24" height="24"><style></style><path  d="m22.4 2.5l-4.7-2.3q-0.2-0.1-0.5-0.1-0.2-0.1-0.4 0-0.2 0-0.4 0.1-0.2 0.1-0.4 0.3l-9.2 8.2-4-2.9q-0.1-0.1-0.3-0.2-0.1 0-0.3 0-0.2 0-0.3 0-0.2 0.1-0.3 0.2l-1.3 1.2q-0.1 0.1-0.2 0.3-0.1 0.2-0.1 0.4 0 0.2 0.1 0.4 0.1 0.1 0.2 0.3l3.5 3.1-3.5 3.1q-0.1 0.2-0.2 0.3-0.1 0.2-0.1 0.4 0 0.2 0.1 0.4 0.1 0.2 0.2 0.3l1.3 1.2q0.1 0.1 0.3 0.2 0.1 0 0.3 0 0.2 0 0.3 0 0.2-0.1 0.3-0.2l4-3 9.2 8.3q0.2 0.2 0.4 0.3 0.2 0.1 0.4 0.1 0.2 0.1 0.4 0 0.3 0 0.5-0.1l4.8-2.3q0.1-0.1 0.3-0.2 0.1-0.1 0.3-0.3 0.1-0.2 0.1-0.4 0.1-0.2 0.1-0.4v-15.4c0-0.6-0.3-1.1-0.9-1.3zm-4.9 14.2l-7-5.2 7-5.2z"/></svg>