<svg version="1.2" xmlns="http://www.w3.org/2000/svg" viewBox="0 0 24 24" width="24" height="24"><style></style><path  d="m4.2 14.5l-1.2-2.9-1.2 2.9-1.8-4.4h0.7l1.1 2.8 1.2-2.9 1.2 2.9 1.1-2.8h0.7c0 0-1.8 4.4-1.8 4.4zm4.7-0.1v-3.1h-0.6v0.4c-0.2-0.3-0.6-0.5-1-0.5-0.9 0-1.6 0.7-1.6 1.6 0 1 0.8 1.6 1.6 1.6 0.4 0 0.8-0.1 1-0.4v0.4zm-0.7-1.6c0 0.6-0.3 1.1-1 1.1-0.4 0-0.9-0.4-0.9-1.1 0-0.7 0.5-1 0.9-1 0.7 0 1 0.4 1 1zm1.6-2.3c-0.2 0-0.4-0.1-0.4-0.3 0-0.2 0.2-0.4 0.4-0.4 0.2 0 0.4 0.2 0.4 0.4 0 0.2-0.2 0.3-0.4 0.3zm-0.3 0.8h0.6v3.1h-0.6zm2.3 0.6v2.5h-0.7v-2.5h-0.6v-0.6h0.6v-1.1l0.7-0.7v1.8h0.7v0.6zm2.8 0c-0.1 0-0.2-0.1-0.4-0.1-0.4 0-0.7 0.2-0.7 0.8v1.8h-0.6v-3.1h0.6v0.4c0.2-0.3 0.5-0.5 0.8-0.5 0.2 0 0.5 0.1 0.8 0.3 0 0-0.5 0.4-0.5 0.4zm3.6 0.9c0-0.9-0.7-1.6-1.6-1.6-0.9 0-1.7 0.7-1.7 1.6 0 1 0.8 1.7 1.7 1.7 0.9 0 1.6-0.7 1.6-1.7zm-0.6 0c0 0.6-0.4 1.1-1 1.1-0.6 0-1-0.5-1-1.1 0-0.6 0.4-1 1-1 0.6 0 1 0.4 1 1zm2 1.7c-0.3 0-0.6-0.1-1-0.3v-0.7c0.3 0.2 0.7 0.4 1 0.4 0.2 0 0.5-0.1 0.5-0.3 0-0.2-0.1-0.3-0.4-0.4l-0.6-0.4c-0.4-0.2-0.5-0.4-0.5-0.7 0-0.5 0.3-0.9 1-0.9q0.5 0 1 0.3v0.6c-0.3-0.2-0.7-0.3-1-0.3q-0.4 0-0.4 0.3c0 0.1 0 0.1 0.3 0.3l0.5 0.3c0.5 0.2 0.7 0.4 0.7 0.8 0 0.6-0.5 1-1.1 1zm4.3-1.5c0-1.2-0.5-1.8-1.4-1.8-0.8 0-1.5 0.7-1.5 1.6 0 1.1 0.8 1.7 1.6 1.7 0.5 0 0.9-0.2 1.2-0.5l-0.4-0.4q-0.3 0.3-0.8 0.3c-0.6 0-0.9-0.4-0.9-0.9 0 0 2.2 0 2.2 0zm-0.7-0.5h-1.5c0.1-0.4 0.4-0.7 0.8-0.7 0.4 0 0.7 0.3 0.7 0.7z"/></svg>