<svg version="1.2" xmlns="http://www.w3.org/2000/svg" viewBox="0 0 24 24" width="24" height="24"><style></style><path  d="m12 0.1c-6.6 0-12 5.3-12 11.9 0 6.6 5.4 11.9 12 11.9 6.6 0 12-5.3 12-11.9 0-6.6-5.4-11.9-12-11.9zm0.1 7.3l5.4 2.7v0.2h-0.5v0.5l6.3-1.6q0.2 0.8 0.3 1.6 0.1 0.8 0.1 1.6 0 0.9-0.2 1.7-0.1 0.8-0.4 1.5l-6.1-1.2v0.7h2.4v1.1h0.4v0.2l-2.7 1.5 0.6 4.2-0.2 0.1q-0.6 0.3-1.3 0.6-0.6 0.3-1.3 0.4-0.7 0.2-1.4 0.3-0.8 0.1-1.5 0.1-0.7 0-1.3-0.1-0.7-0.1-1.4-0.3-0.7-0.1-1.3-0.4-0.7-0.2-1.3-0.5-0.1-0.1-0.2-0.1l0.7-4.3-2.8-1.5v-0.2h0.4v-1.1h2.5v-0.7l-6.3 1.3q-0.2-0.5-0.3-0.9-0.1-0.5-0.2-0.9-0.1-0.5-0.1-1 0-0.4 0-0.9 0-1.5 0.3-2.9l6.6 1.7v-0.5h-0.6v-0.2zm-4.9 3.4v3.6l0.4-0.1v-3.4zm0.3 0l2.7 0.7v-1h-2.7zm2.7 0.6v2.3l0.3-0.1v-2.1zm0.3 0.1l0.5 0.1v-0.4h2.1v0.4l0.5-0.1v-1.1h-3.1zm3.1 0v2l0.3 0.1v-2.2l2.7-0.7v-0.4h-2.7v1.1zm3-0.8v3.5h0.3v-3.6zm0 3.5l-2.6-0.6v1h2.6zm-2.9-0.6l-0.3-0.1 0.1 1.1h0.2zm-3.1 0v1h0.2l0.1-1.1zm-3 0.6v0.4h2.6v-0.9zm-0.9 7.9v0.1l10.9-0.1-0.4-2.3h-10.1zm5.4-14.7l-5.3 2.6h10.6zm-0.9 3.9l-0.3 3.3h2.4l-0.3-3.3zm-3.7 3.6h9.3zm-2.6 0.3v0.8h2.3v-0.8zm2.5 0v0.8h3v-0.8zm3.2 0v0.8h2.6v-0.8zm2.9 0v0.8h3.1v-0.8zm3.4 0v0.8h2.2v-0.8zm-12.2 1l2.5 1.4h9.5l2.5-1.4z"/></svg>