<svg version="1.2" xmlns="http://www.w3.org/2000/svg" viewBox="0 0 24 24" width="24" height="24"><style></style><path  d="M 23.97928,11.645 C 23.97928,11.645 24.532255,0 11.73482,0 0.41831879,0 0.0643344,11.17 0.0643344,11.17 c 0,0 -1.6639266,12.83 11.9324736,12.83 C 25.039233,24 23.97928,11.645 23.97928,11.645 Z M 8.1549776,7.576 c 2.3998944,-1.47 5.4687584,-0.571 6.6177084,1.638 0.21799,0.419 0.245989,1.063 0.107995,1.503 -0.476979,1.516 -1.600929,2.366 -3.144861,2.728 0.45498,-0.39 0.816964,-0.832 0.932959,-1.442 A 2.1119069,2.112 0 0 0 12.304795,10.326 2.1399057,2.14 0 0 0 9.8399033,9.576 c -0.9499581,0.36 -1.4699352,1.228 -1.3769393,2.294 0.086996,0.99 0.8389631,1.632 2.244901,1.876 -0.209991,0.111 -0.371984,0.193 -0.529977,0.281 a 5.1127746,5.113 0 0 0 -1.6439271,1.43 C 8.3909672,15.649 8.2939715,15.665 8.0759811,15.532 5.2491057,13.803 5.0671138,9.465 8.1539777,7.576 Z M 6.0400709,18.258 c -0.45498,0.116 -0.8949606,0.286 -1.3589401,0.438 0.22699,-1.532 2.0209109,-2.943 3.538844,-2.782 A 3.9098276,3.91 0 0 0 7.4800074,17.986 C 6.9760296,18.079 6.5000506,18.141 6.0400709,18.258 Z M 15.702645,3.3 c 0.44798,0.017 0.89796,0.01 1.34694,0.02 a 2.3238975,2.324 0 0 1 0.333986,0.047 3.2488568,3.249 0 0 1 -0.339985,0.434 c -0.159993,0.15 -0.340985,0.296 -0.572975,0.069 -0.055,-0.055 -0.186992,-0.042 -0.282988,-0.044 -0.44698,-0.005 -0.89396,-0.02 -1.339941,-0.003 a 8.3226331,8.323 0 0 0 -1.153949,0.118 c -0.072,0.013 -0.177992,0.25 -0.145993,0.338 0.078,0.207 0.190991,0.435 0.358984,0.567 0.618973,0.49 1.276944,0.928 1.899916,1.413 0.603974,0.472 1.166949,0.99 1.509934,1.7 0.44598,0.928 0.459979,1.9 0.266988,2.877 -0.321986,1.63 -1.14695,2.98 -2.482891,3.962 -0.537976,0.395 -1.204947,0.62 -1.820919,0.903 -0.542976,0.25 -1.099952,0.465 -1.643928,0.712 -0.979957,0.446 -1.529932,1.51 -1.36894,2.615 0.148994,1.015 1.039955,1.862 2.05891,2.037 1.222946,0.21 2.48589,-0.586 2.784877,-1.83 0.335985,-1.397 -0.422981,-2.646 -1.844919,-3.024 l -0.255989,-0.066 c 0.379984,-0.17 0.707969,-0.291 1.011956,-0.458 q 0.792965,-0.437 1.557931,-0.925 c 0.149994,-0.096 0.23099,-0.096 0.359984,0.014 0.976957,0.846 1.559932,1.898 1.723924,3.187 0.269988,2.135 -0.739967,4.096 -2.645883,5.101 -2.94787,1.555 -6.5567109,-0.215 -7.2076822,-3.484 -0.5579754,-2.8 1.4179375,-5.34 3.7968322,-5.83 1.022955,-0.211 1.957914,-0.637 2.684882,-1.425 0.469979,-0.508 0.696969,-0.944 0.774966,-1.141 a 3.1648605,3.165 0 0 0 0.21699,-1.158 2.7098805,2.71 0 0 0 -0.236989,-0.992 C 14.798685,8.468 13.846727,7.568 13.611737,7.378 L 11.371836,5.624 C 11.292839,5.559 11.203843,5.564 11.011852,5.577 10.781862,5.593 10.196887,5.625 9.9448987,5.559 10.14889,5.404 10.704865,5.179 10.944855,4.999 10.218887,4.509 9.3909231,4.685 8.6299567,4.539 8.8059489,4.211 9.6759106,3.708 10.170889,3.651 A 7.3226772,7.323 0 0 0 10.035895,2.829 C 10.005896,2.718 9.8819015,2.609 9.7729063,2.546 9.5109178,2.392 9.2319301,2.265 8.9299435,2.112 a 1.7549226,1.755 0 0 1 0.90596,-0.28 3.3848508,3.385 0 0 1 0.9079595,0.088 C 11.28384,2.043 11.713821,1.962 12.142802,1.596 11.804817,1.46 11.466832,1.336 11.139846,1.189 A 9.8425661,9.843 0 0 1 10.197887,0.696 c 0.849963,0.118 1.670927,0.437 2.539888,0.32 l 0.022,-0.118 -2.017912,-0.47 c 1.202947,-0.11 2.322898,-0.128 3.383851,0.388 0.298987,0.146 0.609973,0.266 0.896961,0.432 0.139994,0.08 0.232989,0.24 0.347984,0.365 0.09,0.098 0.163993,0.23 0.275988,0.29 0.423982,0.225 0.889961,0.234 1.36594,0.223 l 0.01,-0.16 c 0.478978,0.15 1.016955,0.702 1.016955,1.105 -0.775966,0 -1.549932,-0.003 -2.324898,0.004 -0.083,0 -0.164992,0.061 -0.246989,0.094 0.078,0.046 0.154993,0.128 0.23499,0.131 z M 14.702689,2.153 a 0.1179948,0.118 0 0 0 -0.016,0.19 0.17899211,0.179 0 0 0 0.245989,0.065 C 15.007675,2.37 15.080672,2.33 15.170668,2.283 15.098671,2.221 15.040674,2.169 14.980677,2.12 14.874681,2.033 14.787685,2.088 14.702689,2.153 Z"/></svg>