<svg version="1.2" xmlns="http://www.w3.org/2000/svg" viewBox="0 0 24 24" width="24" height="24"><style></style><path  d="m7 0l-7 7v10l7 7h10l7-7v-10l-7-7zm4.5 1.9q0 0 0 0l0.5 1q0 0 0.1 0 0 0 0 0 0 0 0.1 0 0 0 0 0l0.5-1q0 0 0 0 0 0 0 0 0 0 0 0 0 0 0 0h0.9q0 0 0 0 0 0 0 0 0 0.1 0 0.1 0 0 0 0 0 0 0 0h-0.8l-0.3 1c0.4 0.1 0.6 0.5 0.6 1q0 0.2-0.1 0.4 0.1 0 0.1 0c0 0 0.1 0.2 0.2 0.4 1.6 0.4 5.7 1 5.2 2.3-0.5 1.4-3.3 1-3.8 0.6-0.7-0.5-1.2-1-1.5-1.4q-0.1 0-0.1 0 0 0 0 0.1 0 0 0 0 0 0 0 0-0.2 0.1-0.5 0.1-0.2 0-0.5 0-0.2 0.1-0.5 0-0.2 0-0.5 0 0-0.1 0-0.1 0 0 0 0 0 0 0-0.1-0.1 0-0.1 0c-0.3 0.4-0.9 0.9-1.5 1.4-0.5 0.4-3.3 0.9-3.8-0.6-0.5-1.3 3.7-1.8 5.3-2.3 0.1-0.2 0.2-0.4 0.2-0.4q0 0 0 0 0 0 0 0 0 0 0 0 0 0 0 0 0-0.1 0-0.1-0.1-0.1-0.1-0.1 0-0.1 0-0.1 0-0.1 0-0.1c0-0.5 0.3-0.9 0.6-1l-0.3-1h-0.8q0 0 0 0 0 0 0 0 0 0 0-0.1 0 0 0 0 0 0 0 0zm1.7 4.9q0.1 0.3 0.2 0.6c-0.7 0.2-1.8 0.2-2.5 0q0.1-0.3 0.3-0.6 0.2 0.1 0.5 0.1 0.2 0 0.5 0 0.2 0 0.5 0 0.2-0.1 0.5-0.1zm-2.4 0.9c0.8 0.2 1.9 0.3 2.7 0q0.1 0.3 0.1 0.7c-0.8 0.3-2.1 0.2-2.9-0.1q0.1-0.3 0.1-0.6zm-0.1 1.1c0.9 0.2 2.1 0.3 2.9 0q0 0.1 0 0.2 0 0.1 0 0.1 0 0.1 0 0.2-0.1 0.1-0.1 0.2c-0.7 0.2-1.9 0.2-2.6-0.1q-0.1-0.3-0.2-0.6zm0.3 1.1c0.7 0.2 1.6 0.2 2.3 0q-0.3 0.4-0.7 0.7-0.1 0.1-0.2 0.1-0.1 0.1-0.2 0.1-0.2 0-0.3-0.1-0.1 0-0.2-0.1c-0.5-0.3-0.7-0.7-0.7-0.7zm2.9 2.1c0.1 0 0.1 0.1 0.1 0.2l0.1 3.7c0 0.1 0 0.2-0.2 0.2h-0.6q-0.2 0-0.2-0.2v-3.7q0-0.2 0.1-0.2zm-2.6 0.1c0.2 0 0.2 0.1 0.2 0.2l0.1 3.7q0 0.1-0.2 0.1h-0.6c-0.2 0-0.2 0-0.2-0.1l-0.1-3.7q0-0.2 0.2-0.2zm0.6 6.1c0.2 0 0.5 0.1 0.6 0.4q0 0 0 0.1 0.1 0 0.1 0.1 0 0 0 0 0 0.1 0 0.1v1.4q0 0.1-0.1 0.3c-0.1 0.3-0.4 0.4-0.7 0.5v0.2q0 0.2-0.2 0.2h-0.6c-0.1 0-0.2-0.1-0.2-0.2v-0.2q-0.4-0.1-0.6-0.3 0-0.1-0.1-0.1 0-0.1 0-0.1 0-0.1 0-0.2-0.1-0.1-0.1-0.1v-1.4q0 0 0.1-0.1 0 0 0 0 0-0.1 0-0.1 0-0.1 0-0.1c0.1-0.3 0.5-0.4 0.6-0.4q0.2-0.1 0.6-0.1 0.4 0 0.6 0.1zm-4.5 0c0.1 0 0.2 0 0.2 0.1l0.4 0.6q0 0.1 0.1 0.1 0 0 0.1-0.1l0.3-0.6q0.1-0.1 0.2-0.1h0.7c0.1 0 0.1 0 0.1 0.1v2.6q0 0.2-0.1 0.2h-0.6q-0.2 0-0.2-0.2v-1.4l-0.2 0.5q0 0-0.1 0 0 0 0 0 0 0.1-0.1 0.1 0 0 0 0h-0.2q0 0-0.1 0 0 0 0-0.1-0.1 0-0.1 0 0 0 0 0l-0.3-0.5v1.4q0 0.2-0.1 0.2h-0.6q-0.2 0-0.2-0.2v-2.6c0-0.1 0.1-0.1 0.2-0.1zm7.7 0c0.1 0 0.2 0 0.2 0.1v0.5c0 0.1-0.1 0.1-0.2 0.1h-0.6v2c0 0.1 0 0.2-0.1 0.2h-0.7q-0.1 0-0.1-0.2v-2h-0.6q-0.2 0.1-0.2-0.1v-0.5q0-0.1 0.2-0.1c0 0 2.1 0 2.1 0zm2.7 0c0.1 0 0.1 0 0.1 0.1v0.5c0 0.1 0 0.1-0.1 0.1h-0.6v2c0 0.1 0 0.2-0.1 0.2h-0.7q-0.1 0-0.1-0.2v-2h-0.6q-0.2 0.1-0.2-0.1v-0.5q0-0.1 0.2-0.1c0 0 2.1 0 2.1 0zm-6.8 0.7q0 0.1 0 0.1-0.1 0-0.1 0 0 0 0 0 0 0.1 0 0.1v1.1q0 0.1 0.1 0.1c0.1 0.1 0.5 0.1 0.5 0q0.1 0 0.1 0 0 0 0 0 0-0.1 0-0.1 0 0 0 0v-1.1q0 0 0-0.1 0 0 0 0 0 0 0 0 0 0-0.1-0.1c0 0-0.4 0-0.5 0z"/></svg>